0
SECTION
2
HEADER
9
$INSUNITS
70
4
9
$ACADVER
1
AC1014
9
$HANDSEED
5
FFFF
0
ENDSEC
0
SECTION
2
TABLES
0
TABLE
2
VPORT
5
8
100
AcDbSymbolTable
0
ENDTAB
0
TABLE
2
LTYPE
5
5
100
AcDbSymbolTable
0
LTYPE
5
14
100
AcDbSymbolTableRecord
100
AcDbLinetypeTableRecord
2
BYBLOCK
70
0
0
LTYPE
5
15
100
AcDbSymbolTableRecord
100
AcDbLinetypeTableRecord
2
BYLAYER
70
0
0
ENDTAB
0
TABLE
2
LAYER
5
2
100
AcDbSymbolTable
70
2
0
LAYER
5
50
100
AcDbSymbolTableRecord
100
AcDbLayerTableRecord
2
0
70
0
6
CONTINUOUS
0
ENDTAB
0
TABLE
2
STYLE
5
3
100
AcDbSymbolTable
70
1
0
STYLE
5
11
100
AcDbSymbolTableRecord
100
AcDbTextStyleTableRecord
2
STANDARD
70
0
0
ENDTAB
0
TABLE
2
VIEW
5
6
100
AcDbSymbolTable
70
0
0
ENDTAB
0
TABLE
2
UCS
5
7
100
AcDbSymbolTable
70
0
0
ENDTAB
0
TABLE
2
APPID
5
9
100
AcDbSymbolTable
70
2
0
APPID
5
12
100
AcDbSymbolTableRecord
100
AcDbRegAppTableRecord
2
ACAD
70
0
0
ENDTAB
0
TABLE
2
DIMSTYLE
5
A
100
AcDbSymbolTable
70
1
0
ENDTAB
0
TABLE
2
BLOCK_RECORD
5
1
100
AcDbSymbolTable
70
1
0
BLOCK_RECORD
5
1F
100
AcDbSymbolTableRecord
100
AcDbBlockTableRecord
2
*MODEL_SPACE
0
BLOCK_RECORD
5
1B
100
AcDbSymbolTableRecord
100
AcDbBlockTableRecord
2
*PAPER_SPACE
0
ENDTAB
0
ENDSEC
0
SECTION
2
BLOCKS
0
BLOCK
5
20
100
AcDbEntity
100
AcDbBlockBegin
2
*MODEL_SPACE
0
ENDBLK
5
21
100
AcDbEntity
100
AcDbBlockEnd
0
BLOCK
5
1C
100
AcDbEntity
100
AcDbBlockBegin
2
*PAPER_SPACE
0
ENDBLK
5
1D
100
AcDbEntity
100
AcDbBlockEnd
0
ENDSEC
0
SECTION
2
ENTITIES
0
LWPOLYLINE
5
100
100
AcDbEntity
8
0
100
AcDbPolyline
90
40
70
1
43
0.0
10
11.525
20
1.03462442132468
42
-0.41421356237309626
10
11.625
20
1.1346244213246806
10
14.525000000000002
20
1.1346244213246821
42
-0.4142135623730932
10
15.025000000000002
20
0.63462442132468044
42
0.41421356237309515
10
15.525000000000002
20
0.13462442132468058
10
17.550000000000004
20
0.13462442132468139
42
-0.41421356237309442
10
19.050000000000004
20
-1.365375578675319
10
19.050000000000004
20
-3.3903755786753194
42
0.41421356237309503
10
19.550000000000004
20
-3.8903755786753207
42
-0.41421356237309209
10
20.049999999999997
20
-4.3903755786753207
10
20.049999999999997
20
-14.390375578675322
42
-0.41421356237309892
10
19.550000000000001
20
-14.890375578675318
42
0.41421356237309631
10
19.050000000000004
20
-15.390375578675322
10
19.050000000000004
20
-17.415375578675317
42
-0.41421356237309331
10
17.550000000000004
20
-18.915375578675317
10
15.525000000000011
20
-18.915375578675317
42
0.41421356237309764
10
15.025000000000013
20
-19.415375578675324
42
-0.41421356237308593
10
14.525000000000009
20
-19.915375578675309
10
4.5250000000000092
20
-19.915375578675317
42
-0.41421356237309598
10
4.0250000000000083
20
-19.415375578675317
42
0.41421356237309503
10
3.5250000000000083
20
-18.915375578675317
10
1.5000000000000002
20
-18.915375578675317
42
-0.41421356237309503
10
0
20
-17.415375578675317
10
0
20
-15.39037557867532
42
0.41421356237309503
10
-0.49999999999999989
20
-14.890375578675323
42
-0.41421356237309254
10
-1
20
-14.390375578675323
10
-1.0000000000000004
20
-4.3903755786753207
42
-0.41421356237309453
10
-0.50000000000000022
20
-3.8903755786753207
42
0.41421356237309509
10
0
20
-3.3903755786753207
10
2.7755575615628914e-16
20
-1.3653755786753199
42
-0.41421356237309492
10
1.5000000000000002
20
0.13462442132468058
10
3.5250000000000004
20
0.1346244213246805
42
0.41421356237309515
10
4.0250000000000021
20
0.63462442132468055
42
-0.41421356237309598
10
4.5250000000000012
20
1.1346244213246806
10
7.4250000000000016
20
1.1346244213246812
42
-0.41421356237309587
10
7.5250000000000021
20
1.0346244213246809
10
7.5250000000000021
20
0.73462442132468042
42
0.41421356237309503
10
7.6250000000000018
20
0.634624421324681
10
11.425000000000001
20
0.63462442132468044
42
0.41421356237309626
10
11.525000000000002
20
0.73462442132468098
0
LWPOLYLINE
5
101
100
AcDbEntity
8
0
100
AcDbPolyline
90
10
70
1
43
0.0
10
8.8419872981077852
20
-0.64037557867531825
42
-0.26794919243112286
10
8.4089745962155664
20
-0.89037557867531847
10
7.375
20
-0.89037557867531858
42
0.99999999999999989
10
7.375
20
-1.8903755786753187
10
11.675000000000004
20
-1.8903755786753185
42
0.99999999999999989
10
11.675000000000004
20
-0.89037557867531769
10
10.641025403784443
20
-0.89037557867531858
42
-0.2679491924311207
10
10.208012701892224
20
-0.64037557867531825
42
0.26794919243112253
10
9.7750000000000057
20
-0.39037557867531886
10
9.2750000000000039
20
-0.39037557867531836
42
0.26794919243112275
0
LWPOLYLINE
5
102
100
AcDbEntity
8
0
100
AcDbPolyline
90
10
70
1
43
0.0
10
18.024999999999999
20
-10.506400982459752
42
-0.26794919243111881
10
18.275000000000002
20
-10.073388280567531
42
0.26794919243112203
10
18.524999999999999
20
-9.6403755786753145
10
18.525000000000002
20
-9.140375578675318
42
0.26794919243112209
10
18.275000000000002
20
-8.7073628767831011
42
-0.26794919243111881
10
18.025000000000002
20
-8.2743501748908805
10
18.024999999999999
20
-7.2403755786753186
42
0.99999999999999989
10
17.025000000000002
20
-7.2403755786753186
10
17.025000000000002
20
-11.540375578675324
42
0.99999999999999989
10
18.025000000000002
20
-11.540375578675324
0
LWPOLYLINE
5
103
100
AcDbEntity
8
0
100
AcDbPolyline
90
10
70
1
43
0.0
10
8.4089745962155682
20
-17.890375578675318
42
-0.26794919243112142
10
8.8419872981077869
20
-18.140375578675318
42
0.26794919243112181
10
9.2750000000000039
20
-18.390375578675318
10
9.7750000000000057
20
-18.390375578675318
42
0.26794919243112247
10
10.208012701892224
20
-18.140375578675318
42
-0.26794919243112691
10
10.641025403784443
20
-17.890375578675318
10
11.674999968654928
20
-17.890375578675318
42
0.99999999999999989
10
11.674999968654928
20
-16.890375578675318
10
7.375
20
-16.890375578675322
42
0.99999999999999989
10
7.375
20
-17.890375578675318
0
LWPOLYLINE
5
104
100
AcDbEntity
8
0
100
AcDbPolyline
90
10
70
1
43
0.0
10
0.7749999999999988
20
-10.073388280567531
42
-0.2679491924311207
10
1.0249999999999999
20
-10.506400982459754
10
1.0249999999999997
20
-11.540375578675324
42
0.99999999999999989
10
2.0250000000000008
20
-11.540375578675324
10
2.0250000000000004
20
-7.2403755786753186
42
0.99999999999999989
10
1.0250000000000004
20
-7.2403755786753186
10
1.024999999999999
20
-8.2743501748908805
42
-0.26794919243112381
10
0.77499999999999991
20
-8.7073628767830975
42
0.26794919243112331
10
0.52499999999999991
20
-9.140375578675318
10
0.5249999999999998
20
-9.6403755786753145
42
0.26794919243112203
0
LWPOLYLINE
5
105
100
AcDbEntity
8
0
100
AcDbPolyline
90
8
70
1
43
0.0
10
18.025000000000002
20
-15.890375578675325
10
18.025000000000002
20
-13.140375578675323
42
0.99999999999999989
10
17.025000000000002
20
-13.140375578675323
10
17.024999999999999
20
-15.89037557867532
42
-0.41421356237309503
10
16.024999999999999
20
-16.890375578675318
10
13.274999999999999
20
-16.890375578675322
42
0.99999999999999989
10
13.274999999999997
20
-17.890375578675318
10
16.024999999999999
20
-17.890375578675318
42
0.41421356237309437
0
LWPOLYLINE
5
106
100
AcDbEntity
8
0
100
AcDbPolyline
90
8
70
1
43
0.0
10
18.025000000000006
20
-5.6403755786753162
42
-0.99999999999999989
10
17.025000000000002
20
-5.6403755786753162
10
17.025000000000002
20
-2.8903755786753171
42
0.41421356237309231
10
16.025000000000006
20
-1.8903755786753167
10
13.275000000000006
20
-1.890375578675318
42
-0.99999999999999989
10
13.275000000000006
20
-0.89037557867531814
10
16.025000000000009
20
-0.89037557867531592
42
-0.41421356237309326
10
18.025000000000002
20
-2.8903755786753189
0
LWPOLYLINE
5
107
100
AcDbEntity
8
0
100
AcDbPolyline
90
8
70
1
43
0.0
10
1.0250000000000001
20
-13.140375578675316
42
-0.99999999999999989
10
2.0250000000000004
20
-13.140375578675316
10
2.0250000000000004
20
-15.890375578675314
42
0.41421356237309553
10
3.0249999999999999
20
-16.890375578675318
10
5.7749999999999986
20
-16.890375578675318
42
-0.99999999999999989
10
5.7749999999999986
20
-17.890375578675318
10
3.0249999999999977
20
-17.890375578675318
42
-0.41421356237309465
10
1.0249999999999999
20
-15.890375578675318
0
LWPOLYLINE
5
108
100
AcDbEntity
8
0
100
AcDbPolyline
90
8
70
1
43
0.0
10
5.7749999999999986
20
-0.89037557867531925
42
-0.99999999999999989
10
5.7749999999999986
20
-1.8903755786753189
10
3.0249999999999999
20
-1.8903755786753194
42
0.4142135623730947
10
2.0250000000000004
20
-2.8903755786753189
10
2.0249999999999999
20
-5.6403755786753162
42
-0.99999999999999989
10
1.0249999999999995
20
-5.6403755786753162
10
1.0250000000000004
20
-2.8903755786753149
42
-0.41421356237309431
10
3.0249999999999999
20
-0.89037557867531925
0
LWPOLYLINE
5
109
100
AcDbEntity
8
0
100
AcDbPolyline
90
8
70
1
43
0.0
10
2.5249999999999999
20
-2.8903755786753189
42
-0.41421356237309437
10
3.0249999999999999
20
-2.3903755786753189
10
16.024999999999999
20
-2.3903755786753171
42
-0.41421356237309309
10
16.525000000000002
20
-2.8903755786753194
10
16.524999999999999
20
-15.890375578675318
42
-0.41421356237309631
10
16.024999999999999
20
-16.390375578675318
10
3.0249999999999999
20
-16.390375578675318
42
-0.4142135623730947
10
2.5249999999999999
20
-15.890375578675318
0
ENDSEC
0
SECTION
2
OBJECTS
0
DICTIONARY
5
C
100
AcDbDictionary
3
ACAD_GROUP
350
D
3
ACAD_MLINESTYLE
350
17
0
DICTIONARY
5
D
100
AcDbDictionary
0
DICTIONARY
5
1A
330
C
100
AcDbDictionary
0
DICTIONARY
5
17
100
AcDbDictionary
0
ENDSEC
0
EOF
