%FSLAX45Y45*%
G04 Gerber Fmt 4.5, Leading zero omitted, Abs format (unit mm)*
G04 Created by KiCad (PCBNEW (5.99.0-12118-g897269f33f)) date 2021-09-15 19:12:55*
%MOMM*%
%LPD*%
G01*
G04 APERTURE LIST*
%TA.AperFunction,Profile*%
%ADD10C,0.100000*%
%TD*%
%ADD11C,0.200000*%
%ADD12C,0.065000*%
%ADD13C,0.398780*%
G04 APERTURE END LIST*
D10*
X15100000Y-11905000D02*
G75*
G02*
X15000000Y-11805000I0J100000D01*
G01*
X16905000Y-11805000D02*
G75*
G02*
X16805000Y-11905000I-100000J0D01*
G01*
X16805000Y-10000000D02*
G75*
G02*
X16905000Y-10100000I0J-100000D01*
G01*
X15000000Y-10100000D02*
G75*
G02*
X15100000Y-10000000I100000J0D01*
G01*
X16905000Y-10100000D02*
X16905000Y-11805000D01*
X15000000Y-10100000D02*
X15000000Y-11805000D01*
X15100000Y-11905000D02*
X16805000Y-11905000D01*
X16552500Y-10000000D02*
X16805000Y-10000000D01*
X15100000Y-10000000D02*
X15352500Y-10000000D01*
X16452500Y-9579000D02*
G75*
G02*
X16552500Y-9679000I0J-100000D01*
G01*
X15352500Y-9679000D02*
G75*
G02*
X15452500Y-9579000I100000J0D01*
G01*
X15452500Y-9579000D02*
X16452500Y-9579000D01*
X16552500Y-9679000D02*
X16552500Y-10000000D01*
X15352500Y-9679000D02*
X15352500Y-10000000D01*
D11*
D12*
X15628500Y-10027500D02*
X15693500Y-10092500D01*
X15693500Y-10027500D02*
X15628500Y-10092500D01*
X16206500Y-10027500D02*
X16271500Y-10092500D01*
X16271500Y-10027500D02*
X16206500Y-10092500D01*
D13*
X16149390Y-10955000D02*
G75*
G03*
X16149390Y-10955000I-199390J0D01*
G01*
D11*
X15242619Y-12230476D02*
X15242619Y-12030476D01*
X15290238Y-12030476D01*
X15318809Y-12040000D01*
X15337857Y-12059048D01*
X15347381Y-12078095D01*
X15356905Y-12116190D01*
X15356905Y-12144762D01*
X15347381Y-12182857D01*
X15337857Y-12201905D01*
X15318809Y-12220952D01*
X15290238Y-12230476D01*
X15242619Y-12230476D01*
X15442619Y-12230476D02*
X15442619Y-12097143D01*
X15442619Y-12135238D02*
X15452143Y-12116190D01*
X15461667Y-12106667D01*
X15480714Y-12097143D01*
X15499762Y-12097143D01*
X15566428Y-12230476D02*
X15566428Y-12097143D01*
X15566428Y-12030476D02*
X15556905Y-12040000D01*
X15566428Y-12049524D01*
X15575952Y-12040000D01*
X15566428Y-12030476D01*
X15566428Y-12049524D01*
X15690238Y-12230476D02*
X15671190Y-12220952D01*
X15661667Y-12201905D01*
X15661667Y-12030476D01*
X15795000Y-12230476D02*
X15775952Y-12220952D01*
X15766428Y-12201905D01*
X15766428Y-12030476D01*
X16023571Y-12230476D02*
X16023571Y-12030476D01*
X16090238Y-12173333D01*
X16156905Y-12030476D01*
X16156905Y-12230476D01*
X16337857Y-12230476D02*
X16337857Y-12125714D01*
X16328333Y-12106667D01*
X16309286Y-12097143D01*
X16271190Y-12097143D01*
X16252143Y-12106667D01*
X16337857Y-12220952D02*
X16318809Y-12230476D01*
X16271190Y-12230476D01*
X16252143Y-12220952D01*
X16242619Y-12201905D01*
X16242619Y-12182857D01*
X16252143Y-12163809D01*
X16271190Y-12154286D01*
X16318809Y-12154286D01*
X16337857Y-12144762D01*
X16433095Y-12097143D02*
X16433095Y-12297143D01*
X16433095Y-12106667D02*
X16452143Y-12097143D01*
X16490238Y-12097143D01*
X16509286Y-12106667D01*
X16518809Y-12116190D01*
X16528333Y-12135238D01*
X16528333Y-12192381D01*
X16518809Y-12211428D01*
X16509286Y-12220952D01*
X16490238Y-12230476D01*
X16452143Y-12230476D01*
X16433095Y-12220952D01*
X16614048Y-12211428D02*
X16623571Y-12220952D01*
X16614048Y-12230476D01*
X16604524Y-12220952D01*
X16614048Y-12211428D01*
X16614048Y-12230476D01*
X16614048Y-12106667D02*
X16623571Y-12116190D01*
X16614048Y-12125714D01*
X16604524Y-12116190D01*
X16614048Y-12106667D01*
X16614048Y-12125714D01*
D12*
X14920000Y-12527500D02*
X14985000Y-12592500D01*
X14985000Y-12527500D02*
X14920000Y-12592500D01*
D11*
X15280714Y-12450476D02*
X15299762Y-12450476D01*
X15318809Y-12460000D01*
X15328333Y-12469524D01*
X15337857Y-12488571D01*
X15347381Y-12526667D01*
X15347381Y-12574286D01*
X15337857Y-12612381D01*
X15328333Y-12631428D01*
X15318809Y-12640952D01*
X15299762Y-12650476D01*
X15280714Y-12650476D01*
X15261667Y-12640952D01*
X15252143Y-12631428D01*
X15242619Y-12612381D01*
X15233095Y-12574286D01*
X15233095Y-12526667D01*
X15242619Y-12488571D01*
X15252143Y-12469524D01*
X15261667Y-12460000D01*
X15280714Y-12450476D01*
X15433095Y-12631428D02*
X15442619Y-12640952D01*
X15433095Y-12650476D01*
X15423571Y-12640952D01*
X15433095Y-12631428D01*
X15433095Y-12650476D01*
X15614048Y-12450476D02*
X15575952Y-12450476D01*
X15556905Y-12460000D01*
X15547381Y-12469524D01*
X15528333Y-12498095D01*
X15518809Y-12536190D01*
X15518809Y-12612381D01*
X15528333Y-12631428D01*
X15537857Y-12640952D01*
X15556905Y-12650476D01*
X15595000Y-12650476D01*
X15614048Y-12640952D01*
X15623571Y-12631428D01*
X15633095Y-12612381D01*
X15633095Y-12564762D01*
X15623571Y-12545714D01*
X15614048Y-12536190D01*
X15595000Y-12526667D01*
X15556905Y-12526667D01*
X15537857Y-12536190D01*
X15528333Y-12545714D01*
X15518809Y-12564762D01*
X15814048Y-12450476D02*
X15718809Y-12450476D01*
X15709286Y-12545714D01*
X15718809Y-12536190D01*
X15737857Y-12526667D01*
X15785476Y-12526667D01*
X15804524Y-12536190D01*
X15814048Y-12545714D01*
X15823571Y-12564762D01*
X15823571Y-12612381D01*
X15814048Y-12631428D01*
X15804524Y-12640952D01*
X15785476Y-12650476D01*
X15737857Y-12650476D01*
X15718809Y-12640952D01*
X15709286Y-12631428D01*
X15947381Y-12450476D02*
X15966428Y-12450476D01*
X15985476Y-12460000D01*
X15995000Y-12469524D01*
X16004524Y-12488571D01*
X16014048Y-12526667D01*
X16014048Y-12574286D01*
X16004524Y-12612381D01*
X15995000Y-12631428D01*
X15985476Y-12640952D01*
X15966428Y-12650476D01*
X15947381Y-12650476D01*
X15928333Y-12640952D01*
X15918809Y-12631428D01*
X15909286Y-12612381D01*
X15899762Y-12574286D01*
X15899762Y-12526667D01*
X15909286Y-12488571D01*
X15918809Y-12469524D01*
X15928333Y-12460000D01*
X15947381Y-12450476D01*
X16099762Y-12650476D02*
X16099762Y-12517143D01*
X16099762Y-12536190D02*
X16109286Y-12526667D01*
X16128333Y-12517143D01*
X16156905Y-12517143D01*
X16175952Y-12526667D01*
X16185476Y-12545714D01*
X16185476Y-12650476D01*
X16185476Y-12545714D02*
X16195000Y-12526667D01*
X16214048Y-12517143D01*
X16242619Y-12517143D01*
X16261667Y-12526667D01*
X16271190Y-12545714D01*
X16271190Y-12650476D01*
X16366428Y-12650476D02*
X16366428Y-12517143D01*
X16366428Y-12536190D02*
X16375952Y-12526667D01*
X16395000Y-12517143D01*
X16423571Y-12517143D01*
X16442619Y-12526667D01*
X16452143Y-12545714D01*
X16452143Y-12650476D01*
X16452143Y-12545714D02*
X16461667Y-12526667D01*
X16480714Y-12517143D01*
X16509286Y-12517143D01*
X16528333Y-12526667D01*
X16537857Y-12545714D01*
X16537857Y-12650476D01*
X16928333Y-12440952D02*
X16756905Y-12698095D01*
X17185476Y-12450476D02*
X17204524Y-12450476D01*
X17223571Y-12460000D01*
X17233095Y-12469524D01*
X17242619Y-12488571D01*
X17252143Y-12526667D01*
X17252143Y-12574286D01*
X17242619Y-12612381D01*
X17233095Y-12631428D01*
X17223571Y-12640952D01*
X17204524Y-12650476D01*
X17185476Y-12650476D01*
X17166429Y-12640952D01*
X17156905Y-12631428D01*
X17147381Y-12612381D01*
X17137857Y-12574286D01*
X17137857Y-12526667D01*
X17147381Y-12488571D01*
X17156905Y-12469524D01*
X17166429Y-12460000D01*
X17185476Y-12450476D01*
X17337857Y-12631428D02*
X17347381Y-12640952D01*
X17337857Y-12650476D01*
X17328333Y-12640952D01*
X17337857Y-12631428D01*
X17337857Y-12650476D01*
X17471190Y-12450476D02*
X17490238Y-12450476D01*
X17509286Y-12460000D01*
X17518810Y-12469524D01*
X17528333Y-12488571D01*
X17537857Y-12526667D01*
X17537857Y-12574286D01*
X17528333Y-12612381D01*
X17518810Y-12631428D01*
X17509286Y-12640952D01*
X17490238Y-12650476D01*
X17471190Y-12650476D01*
X17452143Y-12640952D01*
X17442619Y-12631428D01*
X17433095Y-12612381D01*
X17423571Y-12574286D01*
X17423571Y-12526667D01*
X17433095Y-12488571D01*
X17442619Y-12469524D01*
X17452143Y-12460000D01*
X17471190Y-12450476D01*
X17614048Y-12469524D02*
X17623571Y-12460000D01*
X17642619Y-12450476D01*
X17690238Y-12450476D01*
X17709286Y-12460000D01*
X17718810Y-12469524D01*
X17728333Y-12488571D01*
X17728333Y-12507619D01*
X17718810Y-12536190D01*
X17604524Y-12650476D01*
X17728333Y-12650476D01*
X17909286Y-12450476D02*
X17814048Y-12450476D01*
X17804524Y-12545714D01*
X17814048Y-12536190D01*
X17833095Y-12526667D01*
X17880714Y-12526667D01*
X17899762Y-12536190D01*
X17909286Y-12545714D01*
X17918810Y-12564762D01*
X17918810Y-12612381D01*
X17909286Y-12631428D01*
X17899762Y-12640952D01*
X17880714Y-12650476D01*
X17833095Y-12650476D01*
X17814048Y-12640952D01*
X17804524Y-12631428D01*
X18090238Y-12450476D02*
X18052143Y-12450476D01*
X18033095Y-12460000D01*
X18023571Y-12469524D01*
X18004524Y-12498095D01*
X17995000Y-12536190D01*
X17995000Y-12612381D01*
X18004524Y-12631428D01*
X18014048Y-12640952D01*
X18033095Y-12650476D01*
X18071190Y-12650476D01*
X18090238Y-12640952D01*
X18099762Y-12631428D01*
X18109286Y-12612381D01*
X18109286Y-12564762D01*
X18099762Y-12545714D01*
X18090238Y-12536190D01*
X18071190Y-12526667D01*
X18033095Y-12526667D01*
X18014048Y-12536190D01*
X18004524Y-12545714D01*
X17995000Y-12564762D01*
X18185476Y-12450476D02*
X18185476Y-12488571D01*
X18261667Y-12450476D02*
X18261667Y-12488571D01*
X18556905Y-12726667D02*
X18547381Y-12717143D01*
X18528333Y-12688571D01*
X18518810Y-12669524D01*
X18509286Y-12640952D01*
X18499762Y-12593333D01*
X18499762Y-12555238D01*
X18509286Y-12507619D01*
X18518810Y-12479048D01*
X18528333Y-12460000D01*
X18547381Y-12431428D01*
X18556905Y-12421905D01*
X18623571Y-12469524D02*
X18633095Y-12460000D01*
X18652143Y-12450476D01*
X18699762Y-12450476D01*
X18718810Y-12460000D01*
X18728333Y-12469524D01*
X18737857Y-12488571D01*
X18737857Y-12507619D01*
X18728333Y-12536190D01*
X18614048Y-12650476D01*
X18737857Y-12650476D01*
X18975952Y-12650476D02*
X18975952Y-12450476D01*
X19061667Y-12650476D02*
X19061667Y-12545714D01*
X19052143Y-12526667D01*
X19033095Y-12517143D01*
X19004524Y-12517143D01*
X18985476Y-12526667D01*
X18975952Y-12536190D01*
X19185476Y-12650476D02*
X19166429Y-12640952D01*
X19156905Y-12631428D01*
X19147381Y-12612381D01*
X19147381Y-12555238D01*
X19156905Y-12536190D01*
X19166429Y-12526667D01*
X19185476Y-12517143D01*
X19214048Y-12517143D01*
X19233095Y-12526667D01*
X19242619Y-12536190D01*
X19252143Y-12555238D01*
X19252143Y-12612381D01*
X19242619Y-12631428D01*
X19233095Y-12640952D01*
X19214048Y-12650476D01*
X19185476Y-12650476D01*
X19366429Y-12650476D02*
X19347381Y-12640952D01*
X19337857Y-12621905D01*
X19337857Y-12450476D01*
X19518810Y-12640952D02*
X19499762Y-12650476D01*
X19461667Y-12650476D01*
X19442619Y-12640952D01*
X19433095Y-12621905D01*
X19433095Y-12545714D01*
X19442619Y-12526667D01*
X19461667Y-12517143D01*
X19499762Y-12517143D01*
X19518810Y-12526667D01*
X19528333Y-12545714D01*
X19528333Y-12564762D01*
X19433095Y-12583809D01*
X19604524Y-12640952D02*
X19623571Y-12650476D01*
X19661667Y-12650476D01*
X19680714Y-12640952D01*
X19690238Y-12621905D01*
X19690238Y-12612381D01*
X19680714Y-12593333D01*
X19661667Y-12583809D01*
X19633095Y-12583809D01*
X19614048Y-12574286D01*
X19604524Y-12555238D01*
X19604524Y-12545714D01*
X19614048Y-12526667D01*
X19633095Y-12517143D01*
X19661667Y-12517143D01*
X19680714Y-12526667D01*
X19756905Y-12726667D02*
X19766429Y-12717143D01*
X19785476Y-12688571D01*
X19795000Y-12669524D01*
X19804524Y-12640952D01*
X19814048Y-12593333D01*
X19814048Y-12555238D01*
X19804524Y-12507619D01*
X19795000Y-12479048D01*
X19785476Y-12460000D01*
X19766429Y-12431428D01*
X19756905Y-12421905D01*
X20118810Y-12726667D02*
X20109286Y-12717143D01*
X20090238Y-12688571D01*
X20080714Y-12669524D01*
X20071190Y-12640952D01*
X20061667Y-12593333D01*
X20061667Y-12555238D01*
X20071190Y-12507619D01*
X20080714Y-12479048D01*
X20090238Y-12460000D01*
X20109286Y-12431428D01*
X20118810Y-12421905D01*
X20195000Y-12517143D02*
X20195000Y-12650476D01*
X20195000Y-12536190D02*
X20204524Y-12526667D01*
X20223571Y-12517143D01*
X20252143Y-12517143D01*
X20271190Y-12526667D01*
X20280714Y-12545714D01*
X20280714Y-12650476D01*
X20404524Y-12650476D02*
X20385476Y-12640952D01*
X20375952Y-12631428D01*
X20366429Y-12612381D01*
X20366429Y-12555238D01*
X20375952Y-12536190D01*
X20385476Y-12526667D01*
X20404524Y-12517143D01*
X20433095Y-12517143D01*
X20452143Y-12526667D01*
X20461667Y-12536190D01*
X20471190Y-12555238D01*
X20471190Y-12612381D01*
X20461667Y-12631428D01*
X20452143Y-12640952D01*
X20433095Y-12650476D01*
X20404524Y-12650476D01*
X20528333Y-12517143D02*
X20604524Y-12517143D01*
X20556905Y-12450476D02*
X20556905Y-12621905D01*
X20566429Y-12640952D01*
X20585476Y-12650476D01*
X20604524Y-12650476D01*
X20823571Y-12517143D02*
X20823571Y-12717143D01*
X20823571Y-12526667D02*
X20842619Y-12517143D01*
X20880714Y-12517143D01*
X20899762Y-12526667D01*
X20909286Y-12536190D01*
X20918810Y-12555238D01*
X20918810Y-12612381D01*
X20909286Y-12631428D01*
X20899762Y-12640952D01*
X20880714Y-12650476D01*
X20842619Y-12650476D01*
X20823571Y-12640952D01*
X21033095Y-12650476D02*
X21014048Y-12640952D01*
X21004524Y-12621905D01*
X21004524Y-12450476D01*
X21195000Y-12650476D02*
X21195000Y-12545714D01*
X21185476Y-12526667D01*
X21166429Y-12517143D01*
X21128333Y-12517143D01*
X21109286Y-12526667D01*
X21195000Y-12640952D02*
X21175952Y-12650476D01*
X21128333Y-12650476D01*
X21109286Y-12640952D01*
X21099762Y-12621905D01*
X21099762Y-12602857D01*
X21109286Y-12583809D01*
X21128333Y-12574286D01*
X21175952Y-12574286D01*
X21195000Y-12564762D01*
X21261667Y-12517143D02*
X21337857Y-12517143D01*
X21290238Y-12450476D02*
X21290238Y-12621905D01*
X21299762Y-12640952D01*
X21318810Y-12650476D01*
X21337857Y-12650476D01*
X21480714Y-12640952D02*
X21461667Y-12650476D01*
X21423571Y-12650476D01*
X21404524Y-12640952D01*
X21395000Y-12621905D01*
X21395000Y-12545714D01*
X21404524Y-12526667D01*
X21423571Y-12517143D01*
X21461667Y-12517143D01*
X21480714Y-12526667D01*
X21490238Y-12545714D01*
X21490238Y-12564762D01*
X21395000Y-12583809D01*
X21661667Y-12650476D02*
X21661667Y-12450476D01*
X21661667Y-12640952D02*
X21642619Y-12650476D01*
X21604524Y-12650476D01*
X21585476Y-12640952D01*
X21575952Y-12631428D01*
X21566429Y-12612381D01*
X21566429Y-12555238D01*
X21575952Y-12536190D01*
X21585476Y-12526667D01*
X21604524Y-12517143D01*
X21642619Y-12517143D01*
X21661667Y-12526667D01*
X21737857Y-12726667D02*
X21747381Y-12717143D01*
X21766429Y-12688571D01*
X21775952Y-12669524D01*
X21785476Y-12640952D01*
X21795000Y-12593333D01*
X21795000Y-12555238D01*
X21785476Y-12507619D01*
X21775952Y-12479048D01*
X21766429Y-12460000D01*
X21747381Y-12431428D01*
X21737857Y-12421905D01*
X14985000Y-12824000D02*
G75*
G03*
X14985000Y-12824000I-100000J0D01*
G01*
X15223571Y-12714476D02*
X15347381Y-12714476D01*
X15280714Y-12790667D01*
X15309286Y-12790667D01*
X15328333Y-12800190D01*
X15337857Y-12809714D01*
X15347381Y-12828762D01*
X15347381Y-12876381D01*
X15337857Y-12895428D01*
X15328333Y-12904952D01*
X15309286Y-12914476D01*
X15252143Y-12914476D01*
X15233095Y-12904952D01*
X15223571Y-12895428D01*
X15433095Y-12895428D02*
X15442619Y-12904952D01*
X15433095Y-12914476D01*
X15423571Y-12904952D01*
X15433095Y-12895428D01*
X15433095Y-12914476D01*
X15537857Y-12914476D02*
X15575952Y-12914476D01*
X15595000Y-12904952D01*
X15604524Y-12895428D01*
X15623571Y-12866857D01*
X15633095Y-12828762D01*
X15633095Y-12752571D01*
X15623571Y-12733524D01*
X15614048Y-12724000D01*
X15595000Y-12714476D01*
X15556905Y-12714476D01*
X15537857Y-12724000D01*
X15528333Y-12733524D01*
X15518809Y-12752571D01*
X15518809Y-12800190D01*
X15528333Y-12819238D01*
X15537857Y-12828762D01*
X15556905Y-12838286D01*
X15595000Y-12838286D01*
X15614048Y-12828762D01*
X15623571Y-12819238D01*
X15633095Y-12800190D01*
X15747381Y-12800190D02*
X15728333Y-12790667D01*
X15718809Y-12781143D01*
X15709286Y-12762095D01*
X15709286Y-12752571D01*
X15718809Y-12733524D01*
X15728333Y-12724000D01*
X15747381Y-12714476D01*
X15785476Y-12714476D01*
X15804524Y-12724000D01*
X15814048Y-12733524D01*
X15823571Y-12752571D01*
X15823571Y-12762095D01*
X15814048Y-12781143D01*
X15804524Y-12790667D01*
X15785476Y-12800190D01*
X15747381Y-12800190D01*
X15728333Y-12809714D01*
X15718809Y-12819238D01*
X15709286Y-12838286D01*
X15709286Y-12876381D01*
X15718809Y-12895428D01*
X15728333Y-12904952D01*
X15747381Y-12914476D01*
X15785476Y-12914476D01*
X15804524Y-12904952D01*
X15814048Y-12895428D01*
X15823571Y-12876381D01*
X15823571Y-12838286D01*
X15814048Y-12819238D01*
X15804524Y-12809714D01*
X15785476Y-12800190D01*
X15937857Y-12800190D02*
X15918809Y-12790667D01*
X15909286Y-12781143D01*
X15899762Y-12762095D01*
X15899762Y-12752571D01*
X15909286Y-12733524D01*
X15918809Y-12724000D01*
X15937857Y-12714476D01*
X15975952Y-12714476D01*
X15995000Y-12724000D01*
X16004524Y-12733524D01*
X16014048Y-12752571D01*
X16014048Y-12762095D01*
X16004524Y-12781143D01*
X15995000Y-12790667D01*
X15975952Y-12800190D01*
X15937857Y-12800190D01*
X15918809Y-12809714D01*
X15909286Y-12819238D01*
X15899762Y-12838286D01*
X15899762Y-12876381D01*
X15909286Y-12895428D01*
X15918809Y-12904952D01*
X15937857Y-12914476D01*
X15975952Y-12914476D01*
X15995000Y-12904952D01*
X16004524Y-12895428D01*
X16014048Y-12876381D01*
X16014048Y-12838286D01*
X16004524Y-12819238D01*
X15995000Y-12809714D01*
X15975952Y-12800190D01*
X16099762Y-12914476D02*
X16099762Y-12781143D01*
X16099762Y-12800190D02*
X16109286Y-12790667D01*
X16128333Y-12781143D01*
X16156905Y-12781143D01*
X16175952Y-12790667D01*
X16185476Y-12809714D01*
X16185476Y-12914476D01*
X16185476Y-12809714D02*
X16195000Y-12790667D01*
X16214048Y-12781143D01*
X16242619Y-12781143D01*
X16261667Y-12790667D01*
X16271190Y-12809714D01*
X16271190Y-12914476D01*
X16366428Y-12914476D02*
X16366428Y-12781143D01*
X16366428Y-12800190D02*
X16375952Y-12790667D01*
X16395000Y-12781143D01*
X16423571Y-12781143D01*
X16442619Y-12790667D01*
X16452143Y-12809714D01*
X16452143Y-12914476D01*
X16452143Y-12809714D02*
X16461667Y-12790667D01*
X16480714Y-12781143D01*
X16509286Y-12781143D01*
X16528333Y-12790667D01*
X16537857Y-12809714D01*
X16537857Y-12914476D01*
X16928333Y-12704952D02*
X16756905Y-12962095D01*
X17185476Y-12714476D02*
X17204524Y-12714476D01*
X17223571Y-12724000D01*
X17233095Y-12733524D01*
X17242619Y-12752571D01*
X17252143Y-12790667D01*
X17252143Y-12838286D01*
X17242619Y-12876381D01*
X17233095Y-12895428D01*
X17223571Y-12904952D01*
X17204524Y-12914476D01*
X17185476Y-12914476D01*
X17166429Y-12904952D01*
X17156905Y-12895428D01*
X17147381Y-12876381D01*
X17137857Y-12838286D01*
X17137857Y-12790667D01*
X17147381Y-12752571D01*
X17156905Y-12733524D01*
X17166429Y-12724000D01*
X17185476Y-12714476D01*
X17337857Y-12895428D02*
X17347381Y-12904952D01*
X17337857Y-12914476D01*
X17328333Y-12904952D01*
X17337857Y-12895428D01*
X17337857Y-12914476D01*
X17537857Y-12914476D02*
X17423571Y-12914476D01*
X17480714Y-12914476D02*
X17480714Y-12714476D01*
X17461667Y-12743048D01*
X17442619Y-12762095D01*
X17423571Y-12771619D01*
X17718810Y-12714476D02*
X17623571Y-12714476D01*
X17614048Y-12809714D01*
X17623571Y-12800190D01*
X17642619Y-12790667D01*
X17690238Y-12790667D01*
X17709286Y-12800190D01*
X17718810Y-12809714D01*
X17728333Y-12828762D01*
X17728333Y-12876381D01*
X17718810Y-12895428D01*
X17709286Y-12904952D01*
X17690238Y-12914476D01*
X17642619Y-12914476D01*
X17623571Y-12904952D01*
X17614048Y-12895428D01*
X17795000Y-12714476D02*
X17928333Y-12714476D01*
X17842619Y-12914476D01*
X18042619Y-12714476D02*
X18061667Y-12714476D01*
X18080714Y-12724000D01*
X18090238Y-12733524D01*
X18099762Y-12752571D01*
X18109286Y-12790667D01*
X18109286Y-12838286D01*
X18099762Y-12876381D01*
X18090238Y-12895428D01*
X18080714Y-12904952D01*
X18061667Y-12914476D01*
X18042619Y-12914476D01*
X18023571Y-12904952D01*
X18014048Y-12895428D01*
X18004524Y-12876381D01*
X17995000Y-12838286D01*
X17995000Y-12790667D01*
X18004524Y-12752571D01*
X18014048Y-12733524D01*
X18023571Y-12724000D01*
X18042619Y-12714476D01*
X18185476Y-12714476D02*
X18185476Y-12752571D01*
X18261667Y-12714476D02*
X18261667Y-12752571D01*
X18556905Y-12990667D02*
X18547381Y-12981143D01*
X18528333Y-12952571D01*
X18518810Y-12933524D01*
X18509286Y-12904952D01*
X18499762Y-12857333D01*
X18499762Y-12819238D01*
X18509286Y-12771619D01*
X18518810Y-12743048D01*
X18528333Y-12724000D01*
X18547381Y-12695428D01*
X18556905Y-12685905D01*
X18737857Y-12914476D02*
X18623571Y-12914476D01*
X18680714Y-12914476D02*
X18680714Y-12714476D01*
X18661667Y-12743048D01*
X18642619Y-12762095D01*
X18623571Y-12771619D01*
X18975952Y-12914476D02*
X18975952Y-12714476D01*
X19061667Y-12914476D02*
X19061667Y-12809714D01*
X19052143Y-12790667D01*
X19033095Y-12781143D01*
X19004524Y-12781143D01*
X18985476Y-12790667D01*
X18975952Y-12800190D01*
X19185476Y-12914476D02*
X19166429Y-12904952D01*
X19156905Y-12895428D01*
X19147381Y-12876381D01*
X19147381Y-12819238D01*
X19156905Y-12800190D01*
X19166429Y-12790667D01*
X19185476Y-12781143D01*
X19214048Y-12781143D01*
X19233095Y-12790667D01*
X19242619Y-12800190D01*
X19252143Y-12819238D01*
X19252143Y-12876381D01*
X19242619Y-12895428D01*
X19233095Y-12904952D01*
X19214048Y-12914476D01*
X19185476Y-12914476D01*
X19366429Y-12914476D02*
X19347381Y-12904952D01*
X19337857Y-12885905D01*
X19337857Y-12714476D01*
X19518810Y-12904952D02*
X19499762Y-12914476D01*
X19461667Y-12914476D01*
X19442619Y-12904952D01*
X19433095Y-12885905D01*
X19433095Y-12809714D01*
X19442619Y-12790667D01*
X19461667Y-12781143D01*
X19499762Y-12781143D01*
X19518810Y-12790667D01*
X19528333Y-12809714D01*
X19528333Y-12828762D01*
X19433095Y-12847809D01*
X19595000Y-12990667D02*
X19604524Y-12981143D01*
X19623571Y-12952571D01*
X19633095Y-12933524D01*
X19642619Y-12904952D01*
X19652143Y-12857333D01*
X19652143Y-12819238D01*
X19642619Y-12771619D01*
X19633095Y-12743048D01*
X19623571Y-12724000D01*
X19604524Y-12695428D01*
X19595000Y-12685905D01*
X19956905Y-12990667D02*
X19947381Y-12981143D01*
X19928333Y-12952571D01*
X19918810Y-12933524D01*
X19909286Y-12904952D01*
X19899762Y-12857333D01*
X19899762Y-12819238D01*
X19909286Y-12771619D01*
X19918810Y-12743048D01*
X19928333Y-12724000D01*
X19947381Y-12695428D01*
X19956905Y-12685905D01*
X20033095Y-12781143D02*
X20033095Y-12914476D01*
X20033095Y-12800190D02*
X20042619Y-12790667D01*
X20061667Y-12781143D01*
X20090238Y-12781143D01*
X20109286Y-12790667D01*
X20118810Y-12809714D01*
X20118810Y-12914476D01*
X20242619Y-12914476D02*
X20223571Y-12904952D01*
X20214048Y-12895428D01*
X20204524Y-12876381D01*
X20204524Y-12819238D01*
X20214048Y-12800190D01*
X20223571Y-12790667D01*
X20242619Y-12781143D01*
X20271190Y-12781143D01*
X20290238Y-12790667D01*
X20299762Y-12800190D01*
X20309286Y-12819238D01*
X20309286Y-12876381D01*
X20299762Y-12895428D01*
X20290238Y-12904952D01*
X20271190Y-12914476D01*
X20242619Y-12914476D01*
X20366429Y-12781143D02*
X20442619Y-12781143D01*
X20395000Y-12714476D02*
X20395000Y-12885905D01*
X20404524Y-12904952D01*
X20423571Y-12914476D01*
X20442619Y-12914476D01*
X20661667Y-12781143D02*
X20661667Y-12981143D01*
X20661667Y-12790667D02*
X20680714Y-12781143D01*
X20718810Y-12781143D01*
X20737857Y-12790667D01*
X20747381Y-12800190D01*
X20756905Y-12819238D01*
X20756905Y-12876381D01*
X20747381Y-12895428D01*
X20737857Y-12904952D01*
X20718810Y-12914476D01*
X20680714Y-12914476D01*
X20661667Y-12904952D01*
X20871190Y-12914476D02*
X20852143Y-12904952D01*
X20842619Y-12885905D01*
X20842619Y-12714476D01*
X21033095Y-12914476D02*
X21033095Y-12809714D01*
X21023571Y-12790667D01*
X21004524Y-12781143D01*
X20966429Y-12781143D01*
X20947381Y-12790667D01*
X21033095Y-12904952D02*
X21014048Y-12914476D01*
X20966429Y-12914476D01*
X20947381Y-12904952D01*
X20937857Y-12885905D01*
X20937857Y-12866857D01*
X20947381Y-12847809D01*
X20966429Y-12838286D01*
X21014048Y-12838286D01*
X21033095Y-12828762D01*
X21099762Y-12781143D02*
X21175952Y-12781143D01*
X21128333Y-12714476D02*
X21128333Y-12885905D01*
X21137857Y-12904952D01*
X21156905Y-12914476D01*
X21175952Y-12914476D01*
X21318810Y-12904952D02*
X21299762Y-12914476D01*
X21261667Y-12914476D01*
X21242619Y-12904952D01*
X21233095Y-12885905D01*
X21233095Y-12809714D01*
X21242619Y-12790667D01*
X21261667Y-12781143D01*
X21299762Y-12781143D01*
X21318810Y-12790667D01*
X21328333Y-12809714D01*
X21328333Y-12828762D01*
X21233095Y-12847809D01*
X21499762Y-12914476D02*
X21499762Y-12714476D01*
X21499762Y-12904952D02*
X21480714Y-12914476D01*
X21442619Y-12914476D01*
X21423571Y-12904952D01*
X21414048Y-12895428D01*
X21404524Y-12876381D01*
X21404524Y-12819238D01*
X21414048Y-12800190D01*
X21423571Y-12790667D01*
X21442619Y-12781143D01*
X21480714Y-12781143D01*
X21499762Y-12790667D01*
X21575952Y-12990667D02*
X21585476Y-12981143D01*
X21604524Y-12952571D01*
X21614048Y-12933524D01*
X21623571Y-12904952D01*
X21633095Y-12857333D01*
X21633095Y-12819238D01*
X21623571Y-12771619D01*
X21614048Y-12743048D01*
X21604524Y-12724000D01*
X21585476Y-12695428D01*
X21575952Y-12685905D01*
M02*
