%TF.GenerationSoftware,KiCad,Pcbnew,(5.99.0-12118-g897269f33f)*%
%TF.CreationDate,2021-09-15T19:12:52-04:00*%
%TF.ProjectId,why,7768792e-6b69-4636-9164-5f7063625858,rev?*%
%TF.SameCoordinates,Original*%
%TF.FileFunction,Copper,L1,Top*%
%TF.FilePolarity,Positive*%
%FSLAX46Y46*%
G04 Gerber Fmt 4.6, Leading zero omitted, Abs format (unit mm)*
G04 Created by KiCad (PCBNEW (5.99.0-12118-g897269f33f)) date 2021-09-15 19:12:52*
%MOMM*%
%LPD*%
G01*
G04 APERTURE LIST*
%TA.AperFunction,EtchedComponent*%
%ADD10C,0.010000*%
%TD*%
%TA.AperFunction,ComponentPad*%
%ADD11O,1.000000X1.600000*%
%TD*%
%TA.AperFunction,ComponentPad*%
%ADD12O,1.000000X2.100000*%
%TD*%
%TA.AperFunction,ComponentPad*%
%ADD13C,2.250000*%
%TD*%
%TA.AperFunction,ViaPad*%
%ADD14C,0.800000*%
%TD*%
%TA.AperFunction,Conductor*%
%ADD15C,0.381000*%
%TD*%
%TA.AperFunction,Conductor*%
%ADD16C,0.250000*%
%TD*%
G04 APERTURE END LIST*
D10*
%TO.C,G\u002A\u002A\u002A*%
X166922331Y-100679624D02*
X166932553Y-100698268D01*
X166932553Y-100698268D02*
X166923308Y-100747252D01*
X166923308Y-100747252D02*
X166891237Y-100841232D01*
X166891237Y-100841232D02*
X166832982Y-100994862D01*
X166832982Y-100994862D02*
X166808558Y-101058248D01*
X166808558Y-101058248D02*
X166729463Y-101252766D01*
X166729463Y-101252766D02*
X166669834Y-101372727D01*
X166669834Y-101372727D02*
X166625401Y-101424847D01*
X166625401Y-101424847D02*
X166591891Y-101415840D01*
X166591891Y-101415840D02*
X166586308Y-101407607D01*
X166586308Y-101407607D02*
X166568418Y-101349122D01*
X166568418Y-101349122D02*
X166545711Y-101239462D01*
X166545711Y-101239462D02*
X166536283Y-101184666D01*
X166536283Y-101184666D02*
X166504899Y-101023008D01*
X166504899Y-101023008D02*
X166473981Y-100944802D01*
X166473981Y-100944802D02*
X166439497Y-100948953D01*
X166439497Y-100948953D02*
X166397415Y-101034366D01*
X166397415Y-101034366D02*
X166362652Y-101137506D01*
X166362652Y-101137506D02*
X166314789Y-101270660D01*
X166314789Y-101270660D02*
X166269133Y-101363995D01*
X166269133Y-101363995D02*
X166238080Y-101395971D01*
X166238080Y-101395971D02*
X166207132Y-101358212D01*
X166207132Y-101358212D02*
X166167528Y-101258623D01*
X166167528Y-101258623D02*
X166127583Y-101118323D01*
X166127583Y-101118323D02*
X166125717Y-101110583D01*
X166125717Y-101110583D02*
X166086840Y-100954927D01*
X166086840Y-100954927D02*
X166051368Y-100824927D01*
X166051368Y-100824927D02*
X166027691Y-100750750D01*
X166027691Y-100750750D02*
X166021727Y-100689531D01*
X166021727Y-100689531D02*
X166041951Y-100676666D01*
X166041951Y-100676666D02*
X166067540Y-100682520D01*
X166067540Y-100682520D02*
X166089422Y-100711097D01*
X166089422Y-100711097D02*
X166114281Y-100778916D01*
X166114281Y-100778916D02*
X166148802Y-100902498D01*
X166148802Y-100902498D02*
X166176895Y-101010134D01*
X166176895Y-101010134D02*
X166211107Y-101116934D01*
X166211107Y-101116934D02*
X166244472Y-101152990D01*
X166244472Y-101152990D02*
X166282566Y-101115004D01*
X166282566Y-101115004D02*
X166330966Y-100999682D01*
X166330966Y-100999682D02*
X166365032Y-100898916D01*
X166365032Y-100898916D02*
X166414685Y-100758767D01*
X166414685Y-100758767D02*
X166454124Y-100686958D01*
X166454124Y-100686958D02*
X166487646Y-100686845D01*
X166487646Y-100686845D02*
X166519548Y-100761786D01*
X166519548Y-100761786D02*
X166554127Y-100915137D01*
X166554127Y-100915137D02*
X166581763Y-101068250D01*
X166581763Y-101068250D02*
X166607390Y-101170066D01*
X166607390Y-101170066D02*
X166636823Y-101224274D01*
X166636823Y-101224274D02*
X166643670Y-101227000D01*
X166643670Y-101227000D02*
X166673138Y-101191124D01*
X166673138Y-101191124D02*
X166718803Y-101100633D01*
X166718803Y-101100633D02*
X166770075Y-100981225D01*
X166770075Y-100981225D02*
X166816362Y-100858602D01*
X166816362Y-100858602D02*
X166847073Y-100758464D01*
X166847073Y-100758464D02*
X166853667Y-100717411D01*
X166853667Y-100717411D02*
X166885929Y-100677839D01*
X166885929Y-100677839D02*
X166896000Y-100676666D01*
X166896000Y-100676666D02*
X166922331Y-100679624D01*
X166922331Y-100679624D02*
X166922331Y-100679624D01*
G36*
X166922331Y-100679624D02*
G01*
X166932553Y-100698268D01*
X166923308Y-100747252D01*
X166891237Y-100841232D01*
X166832982Y-100994862D01*
X166808558Y-101058248D01*
X166729463Y-101252766D01*
X166669834Y-101372727D01*
X166625401Y-101424847D01*
X166591891Y-101415840D01*
X166586308Y-101407607D01*
X166568418Y-101349122D01*
X166545711Y-101239462D01*
X166536283Y-101184666D01*
X166504899Y-101023008D01*
X166473981Y-100944802D01*
X166439497Y-100948953D01*
X166397415Y-101034366D01*
X166362652Y-101137506D01*
X166314789Y-101270660D01*
X166269133Y-101363995D01*
X166238080Y-101395971D01*
X166207132Y-101358212D01*
X166167528Y-101258623D01*
X166127583Y-101118323D01*
X166125717Y-101110583D01*
X166086840Y-100954927D01*
X166051368Y-100824927D01*
X166027691Y-100750750D01*
X166021727Y-100689531D01*
X166041951Y-100676666D01*
X166067540Y-100682520D01*
X166089422Y-100711097D01*
X166114281Y-100778916D01*
X166148802Y-100902498D01*
X166176895Y-101010134D01*
X166211107Y-101116934D01*
X166244472Y-101152990D01*
X166282566Y-101115004D01*
X166330966Y-100999682D01*
X166365032Y-100898916D01*
X166414685Y-100758767D01*
X166454124Y-100686958D01*
X166487646Y-100686845D01*
X166519548Y-100761786D01*
X166554127Y-100915137D01*
X166581763Y-101068250D01*
X166607390Y-101170066D01*
X166636823Y-101224274D01*
X166643670Y-101227000D01*
X166673138Y-101191124D01*
X166718803Y-101100633D01*
X166770075Y-100981225D01*
X166816362Y-100858602D01*
X166847073Y-100758464D01*
X166853667Y-100717411D01*
X166885929Y-100677839D01*
X166896000Y-100676666D01*
X166922331Y-100679624D01*
G37*
X166922331Y-100679624D02*
X166932553Y-100698268D01*
X166923308Y-100747252D01*
X166891237Y-100841232D01*
X166832982Y-100994862D01*
X166808558Y-101058248D01*
X166729463Y-101252766D01*
X166669834Y-101372727D01*
X166625401Y-101424847D01*
X166591891Y-101415840D01*
X166586308Y-101407607D01*
X166568418Y-101349122D01*
X166545711Y-101239462D01*
X166536283Y-101184666D01*
X166504899Y-101023008D01*
X166473981Y-100944802D01*
X166439497Y-100948953D01*
X166397415Y-101034366D01*
X166362652Y-101137506D01*
X166314789Y-101270660D01*
X166269133Y-101363995D01*
X166238080Y-101395971D01*
X166207132Y-101358212D01*
X166167528Y-101258623D01*
X166127583Y-101118323D01*
X166125717Y-101110583D01*
X166086840Y-100954927D01*
X166051368Y-100824927D01*
X166027691Y-100750750D01*
X166021727Y-100689531D01*
X166041951Y-100676666D01*
X166067540Y-100682520D01*
X166089422Y-100711097D01*
X166114281Y-100778916D01*
X166148802Y-100902498D01*
X166176895Y-101010134D01*
X166211107Y-101116934D01*
X166244472Y-101152990D01*
X166282566Y-101115004D01*
X166330966Y-100999682D01*
X166365032Y-100898916D01*
X166414685Y-100758767D01*
X166454124Y-100686958D01*
X166487646Y-100686845D01*
X166519548Y-100761786D01*
X166554127Y-100915137D01*
X166581763Y-101068250D01*
X166607390Y-101170066D01*
X166636823Y-101224274D01*
X166643670Y-101227000D01*
X166673138Y-101191124D01*
X166718803Y-101100633D01*
X166770075Y-100981225D01*
X166816362Y-100858602D01*
X166847073Y-100758464D01*
X166853667Y-100717411D01*
X166885929Y-100677839D01*
X166896000Y-100676666D01*
X166922331Y-100679624D01*
X167131062Y-100671876D02*
X167145783Y-100765605D01*
X167145783Y-100765605D02*
X167146828Y-100802759D01*
X167146828Y-100802759D02*
X167150000Y-100909105D01*
X167150000Y-100909105D02*
X167169784Y-100948023D01*
X167169784Y-100948023D02*
X167221580Y-100936740D01*
X167221580Y-100936740D02*
X167253809Y-100922440D01*
X167253809Y-100922440D02*
X167343768Y-100896817D01*
X167343768Y-100896817D02*
X167404377Y-100924788D01*
X167404377Y-100924788D02*
X167444249Y-101016666D01*
X167444249Y-101016666D02*
X167471994Y-101182767D01*
X167471994Y-101182767D02*
X167472134Y-101183952D01*
X167472134Y-101183952D02*
X167483144Y-101317233D01*
X167483144Y-101317233D02*
X167474454Y-101377898D01*
X167474454Y-101377898D02*
X167449843Y-101379296D01*
X167449843Y-101379296D02*
X167420006Y-101321751D01*
X167420006Y-101321751D02*
X167402633Y-101212586D01*
X167402633Y-101212586D02*
X167400828Y-101161001D01*
X167400828Y-101161001D02*
X167390168Y-101030233D01*
X167390168Y-101030233D02*
X167356969Y-100975517D01*
X167356969Y-100975517D02*
X167343889Y-100973000D01*
X167343889Y-100973000D02*
X167256484Y-101010763D01*
X167256484Y-101010763D02*
X167185121Y-101105848D01*
X167185121Y-101105848D02*
X167148413Y-101230952D01*
X167148413Y-101230952D02*
X167146828Y-101262083D01*
X167146828Y-101262083D02*
X167135178Y-101354340D01*
X167135178Y-101354340D02*
X167106894Y-101396118D01*
X167106894Y-101396118D02*
X167104495Y-101396333D01*
X167104495Y-101396333D02*
X167084210Y-101356370D01*
X167084210Y-101356370D02*
X167069741Y-101245745D01*
X167069741Y-101245745D02*
X167062630Y-101078358D01*
X167062630Y-101078358D02*
X167062161Y-101015333D01*
X167062161Y-101015333D02*
X167066602Y-100832773D01*
X167066602Y-100832773D02*
X167078893Y-100702548D01*
X167078893Y-100702548D02*
X167097492Y-100638553D01*
X167097492Y-100638553D02*
X167104495Y-100634333D01*
X167104495Y-100634333D02*
X167131062Y-100671876D01*
X167131062Y-100671876D02*
X167131062Y-100671876D01*
G36*
X167131062Y-100671876D02*
G01*
X167145783Y-100765605D01*
X167146828Y-100802759D01*
X167150000Y-100909105D01*
X167169784Y-100948023D01*
X167221580Y-100936740D01*
X167253809Y-100922440D01*
X167343768Y-100896817D01*
X167404377Y-100924788D01*
X167444249Y-101016666D01*
X167471994Y-101182767D01*
X167472134Y-101183952D01*
X167483144Y-101317233D01*
X167474454Y-101377898D01*
X167449843Y-101379296D01*
X167420006Y-101321751D01*
X167402633Y-101212586D01*
X167400828Y-101161001D01*
X167390168Y-101030233D01*
X167356969Y-100975517D01*
X167343889Y-100973000D01*
X167256484Y-101010763D01*
X167185121Y-101105848D01*
X167148413Y-101230952D01*
X167146828Y-101262083D01*
X167135178Y-101354340D01*
X167106894Y-101396118D01*
X167104495Y-101396333D01*
X167084210Y-101356370D01*
X167069741Y-101245745D01*
X167062630Y-101078358D01*
X167062161Y-101015333D01*
X167066602Y-100832773D01*
X167078893Y-100702548D01*
X167097492Y-100638553D01*
X167104495Y-100634333D01*
X167131062Y-100671876D01*
G37*
X167131062Y-100671876D02*
X167145783Y-100765605D01*
X167146828Y-100802759D01*
X167150000Y-100909105D01*
X167169784Y-100948023D01*
X167221580Y-100936740D01*
X167253809Y-100922440D01*
X167343768Y-100896817D01*
X167404377Y-100924788D01*
X167444249Y-101016666D01*
X167471994Y-101182767D01*
X167472134Y-101183952D01*
X167483144Y-101317233D01*
X167474454Y-101377898D01*
X167449843Y-101379296D01*
X167420006Y-101321751D01*
X167402633Y-101212586D01*
X167400828Y-101161001D01*
X167390168Y-101030233D01*
X167356969Y-100975517D01*
X167343889Y-100973000D01*
X167256484Y-101010763D01*
X167185121Y-101105848D01*
X167148413Y-101230952D01*
X167146828Y-101262083D01*
X167135178Y-101354340D01*
X167106894Y-101396118D01*
X167104495Y-101396333D01*
X167084210Y-101356370D01*
X167069741Y-101245745D01*
X167062630Y-101078358D01*
X167062161Y-101015333D01*
X167066602Y-100832773D01*
X167078893Y-100702548D01*
X167097492Y-100638553D01*
X167104495Y-100634333D01*
X167131062Y-100671876D01*
X167636289Y-100897458D02*
X167642797Y-100909500D01*
X167642797Y-100909500D02*
X167673476Y-100970642D01*
X167673476Y-100970642D02*
X167730126Y-101069323D01*
X167730126Y-101069323D02*
X167746478Y-101096431D01*
X167746478Y-101096431D02*
X167834620Y-101241029D01*
X167834620Y-101241029D02*
X167916396Y-101058377D01*
X167916396Y-101058377D02*
X167969071Y-100957577D01*
X167969071Y-100957577D02*
X168011850Y-100904949D01*
X168011850Y-100904949D02*
X168026054Y-100903609D01*
X168026054Y-100903609D02*
X168023154Y-100952503D01*
X168023154Y-100952503D02*
X167991246Y-101058644D01*
X167991246Y-101058644D02*
X167936612Y-101202318D01*
X167936612Y-101202318D02*
X167912708Y-101259163D01*
X167912708Y-101259163D02*
X167819343Y-101467655D01*
X167819343Y-101467655D02*
X167753103Y-101596791D01*
X167753103Y-101596791D02*
X167713572Y-101647276D01*
X167713572Y-101647276D02*
X167700334Y-101619813D01*
X167700334Y-101619813D02*
X167700333Y-101619222D01*
X167700333Y-101619222D02*
X167714464Y-101546203D01*
X167714464Y-101546203D02*
X167742374Y-101460603D01*
X167742374Y-101460603D02*
X167759708Y-101377226D01*
X167759708Y-101377226D02*
X167741554Y-101282548D01*
X167741554Y-101282548D02*
X167682112Y-101148210D01*
X167682112Y-101148210D02*
X167676027Y-101136138D01*
X167676027Y-101136138D02*
X167621968Y-101015512D01*
X167621968Y-101015512D02*
X167595041Y-100926341D01*
X167595041Y-100926341D02*
X167597449Y-100894707D01*
X167597449Y-100894707D02*
X167636289Y-100897458D01*
X167636289Y-100897458D02*
X167636289Y-100897458D01*
G36*
X167636289Y-100897458D02*
G01*
X167642797Y-100909500D01*
X167673476Y-100970642D01*
X167730126Y-101069323D01*
X167746478Y-101096431D01*
X167834620Y-101241029D01*
X167916396Y-101058377D01*
X167969071Y-100957577D01*
X168011850Y-100904949D01*
X168026054Y-100903609D01*
X168023154Y-100952503D01*
X167991246Y-101058644D01*
X167936612Y-101202318D01*
X167912708Y-101259163D01*
X167819343Y-101467655D01*
X167753103Y-101596791D01*
X167713572Y-101647276D01*
X167700334Y-101619813D01*
X167700333Y-101619222D01*
X167714464Y-101546203D01*
X167742374Y-101460603D01*
X167759708Y-101377226D01*
X167741554Y-101282548D01*
X167682112Y-101148210D01*
X167676027Y-101136138D01*
X167621968Y-101015512D01*
X167595041Y-100926341D01*
X167597449Y-100894707D01*
X167636289Y-100897458D01*
G37*
X167636289Y-100897458D02*
X167642797Y-100909500D01*
X167673476Y-100970642D01*
X167730126Y-101069323D01*
X167746478Y-101096431D01*
X167834620Y-101241029D01*
X167916396Y-101058377D01*
X167969071Y-100957577D01*
X168011850Y-100904949D01*
X168026054Y-100903609D01*
X168023154Y-100952503D01*
X167991246Y-101058644D01*
X167936612Y-101202318D01*
X167912708Y-101259163D01*
X167819343Y-101467655D01*
X167753103Y-101596791D01*
X167713572Y-101647276D01*
X167700334Y-101619813D01*
X167700333Y-101619222D01*
X167714464Y-101546203D01*
X167742374Y-101460603D01*
X167759708Y-101377226D01*
X167741554Y-101282548D01*
X167682112Y-101148210D01*
X167676027Y-101136138D01*
X167621968Y-101015512D01*
X167595041Y-100926341D01*
X167597449Y-100894707D01*
X167636289Y-100897458D01*
X168422630Y-100707284D02*
X168476939Y-100754083D01*
X168476939Y-100754083D02*
X168540572Y-100875123D01*
X168540572Y-100875123D02*
X168521372Y-100998141D01*
X168521372Y-100998141D02*
X168451750Y-101086322D01*
X168451750Y-101086322D02*
X168335165Y-101181003D01*
X168335165Y-101181003D02*
X168267791Y-101211360D01*
X168267791Y-101211360D02*
X168250667Y-101188140D01*
X168250667Y-101188140D02*
X168282651Y-101135400D01*
X168282651Y-101135400D02*
X168352945Y-101077269D01*
X168352945Y-101077269D02*
X168456925Y-100983930D01*
X168456925Y-100983930D02*
X168477078Y-100893971D01*
X168477078Y-100893971D02*
X168432438Y-100822152D01*
X168432438Y-100822152D02*
X168331348Y-100772997D01*
X168331348Y-100772997D02*
X168233154Y-100777846D01*
X168233154Y-100777846D02*
X168148089Y-100791143D01*
X168148089Y-100791143D02*
X168136579Y-100779605D01*
X168136579Y-100779605D02*
X168184674Y-100739419D01*
X168184674Y-100739419D02*
X168309575Y-100681435D01*
X168309575Y-100681435D02*
X168422630Y-100707284D01*
X168422630Y-100707284D02*
X168422630Y-100707284D01*
G36*
X168422630Y-100707284D02*
G01*
X168476939Y-100754083D01*
X168540572Y-100875123D01*
X168521372Y-100998141D01*
X168451750Y-101086322D01*
X168335165Y-101181003D01*
X168267791Y-101211360D01*
X168250667Y-101188140D01*
X168282651Y-101135400D01*
X168352945Y-101077269D01*
X168456925Y-100983930D01*
X168477078Y-100893971D01*
X168432438Y-100822152D01*
X168331348Y-100772997D01*
X168233154Y-100777846D01*
X168148089Y-100791143D01*
X168136579Y-100779605D01*
X168184674Y-100739419D01*
X168309575Y-100681435D01*
X168422630Y-100707284D01*
G37*
X168422630Y-100707284D02*
X168476939Y-100754083D01*
X168540572Y-100875123D01*
X168521372Y-100998141D01*
X168451750Y-101086322D01*
X168335165Y-101181003D01*
X168267791Y-101211360D01*
X168250667Y-101188140D01*
X168282651Y-101135400D01*
X168352945Y-101077269D01*
X168456925Y-100983930D01*
X168477078Y-100893971D01*
X168432438Y-100822152D01*
X168331348Y-100772997D01*
X168233154Y-100777846D01*
X168148089Y-100791143D01*
X168136579Y-100779605D01*
X168184674Y-100739419D01*
X168309575Y-100681435D01*
X168422630Y-100707284D01*
X168291770Y-101343881D02*
X168293000Y-101354000D01*
X168293000Y-101354000D02*
X168260785Y-101395103D01*
X168260785Y-101395103D02*
X168250667Y-101396333D01*
X168250667Y-101396333D02*
X168209563Y-101364118D01*
X168209563Y-101364118D02*
X168208333Y-101354000D01*
X168208333Y-101354000D02*
X168240548Y-101312896D01*
X168240548Y-101312896D02*
X168250667Y-101311666D01*
X168250667Y-101311666D02*
X168291770Y-101343881D01*
X168291770Y-101343881D02*
X168291770Y-101343881D01*
G36*
X168291770Y-101343881D02*
G01*
X168293000Y-101354000D01*
X168260785Y-101395103D01*
X168250667Y-101396333D01*
X168209563Y-101364118D01*
X168208333Y-101354000D01*
X168240548Y-101312896D01*
X168250667Y-101311666D01*
X168291770Y-101343881D01*
G37*
X168291770Y-101343881D02*
X168293000Y-101354000D01*
X168260785Y-101395103D01*
X168250667Y-101396333D01*
X168209563Y-101364118D01*
X168208333Y-101354000D01*
X168240548Y-101312896D01*
X168250667Y-101311666D01*
X168291770Y-101343881D01*
X166800097Y-115245042D02*
X166868123Y-115249729D01*
X166868123Y-115249729D02*
X166928540Y-115257827D01*
X166928540Y-115257827D02*
X166946371Y-115261313D01*
X166946371Y-115261313D02*
X167063122Y-115292966D01*
X167063122Y-115292966D02*
X167171645Y-115336198D01*
X167171645Y-115336198D02*
X167273058Y-115391619D01*
X167273058Y-115391619D02*
X167368480Y-115459839D01*
X167368480Y-115459839D02*
X167458751Y-115541192D01*
X167458751Y-115541192D02*
X167540226Y-115631820D01*
X167540226Y-115631820D02*
X167608417Y-115727761D01*
X167608417Y-115727761D02*
X167663823Y-115829955D01*
X167663823Y-115829955D02*
X167706941Y-115939342D01*
X167706941Y-115939342D02*
X167738270Y-116056862D01*
X167738270Y-116056862D02*
X167741941Y-116075029D01*
X167741941Y-116075029D02*
X167750078Y-116132434D01*
X167750078Y-116132434D02*
X167754627Y-116199044D01*
X167754627Y-116199044D02*
X167755626Y-116270103D01*
X167755626Y-116270103D02*
X167753115Y-116340850D01*
X167753115Y-116340850D02*
X167747131Y-116406529D01*
X167747131Y-116406529D02*
X167738805Y-116457396D01*
X167738805Y-116457396D02*
X167706289Y-116576816D01*
X167706289Y-116576816D02*
X167661098Y-116689732D01*
X167661098Y-116689732D02*
X167603796Y-116795396D01*
X167603796Y-116795396D02*
X167534948Y-116893059D01*
X167534948Y-116893059D02*
X167455116Y-116981974D01*
X167455116Y-116981974D02*
X167364864Y-117061392D01*
X167364864Y-117061392D02*
X167264756Y-117130565D01*
X167264756Y-117130565D02*
X167207014Y-117163282D01*
X167207014Y-117163282D02*
X167136804Y-117196060D01*
X167136804Y-117196060D02*
X167059215Y-117225153D01*
X167059215Y-117225153D02*
X166980679Y-117248356D01*
X166980679Y-117248356D02*
X166921286Y-117261232D01*
X166921286Y-117261232D02*
X166870545Y-117268241D01*
X166870545Y-117268241D02*
X166812723Y-117273199D01*
X166812723Y-117273199D02*
X166752645Y-117275926D01*
X166752645Y-117275926D02*
X166695133Y-117276241D01*
X166695133Y-117276241D02*
X166645010Y-117273964D01*
X166645010Y-117273964D02*
X166627372Y-117272198D01*
X166627372Y-117272198D02*
X166505844Y-117250336D01*
X166505844Y-117250336D02*
X166390309Y-117215611D01*
X166390309Y-117215611D02*
X166281464Y-117168677D01*
X166281464Y-117168677D02*
X166180010Y-117110188D01*
X166180010Y-117110188D02*
X166086646Y-117040796D01*
X166086646Y-117040796D02*
X166002072Y-116961156D01*
X166002072Y-116961156D02*
X165926988Y-116871919D01*
X165926988Y-116871919D02*
X165862093Y-116773739D01*
X165862093Y-116773739D02*
X165808087Y-116667269D01*
X165808087Y-116667269D02*
X165765670Y-116553163D01*
X165765670Y-116553163D02*
X165737332Y-116441251D01*
X165737332Y-116441251D02*
X165729490Y-116387110D01*
X165729490Y-116387110D02*
X165725026Y-116323467D01*
X165725026Y-116323467D02*
X165723897Y-116254929D01*
X165723897Y-116254929D02*
X165723963Y-116252829D01*
X165723963Y-116252829D02*
X166160438Y-116252829D01*
X166160438Y-116252829D02*
X166166380Y-116347367D01*
X166166380Y-116347367D02*
X166185533Y-116436056D01*
X166185533Y-116436056D02*
X166217791Y-116518647D01*
X166217791Y-116518647D02*
X166263051Y-116594893D01*
X166263051Y-116594893D02*
X166321205Y-116664544D01*
X166321205Y-116664544D02*
X166344384Y-116687130D01*
X166344384Y-116687130D02*
X166414591Y-116742459D01*
X166414591Y-116742459D02*
X166492031Y-116785850D01*
X166492031Y-116785850D02*
X166575105Y-116816882D01*
X166575105Y-116816882D02*
X166662214Y-116835137D01*
X166662214Y-116835137D02*
X166751760Y-116840193D01*
X166751760Y-116840193D02*
X166842144Y-116831632D01*
X166842144Y-116831632D02*
X166872037Y-116825712D01*
X166872037Y-116825712D02*
X166956950Y-116799403D01*
X166956950Y-116799403D02*
X167035847Y-116760495D01*
X167035847Y-116760495D02*
X167107606Y-116710054D01*
X167107606Y-116710054D02*
X167171106Y-116649146D01*
X167171106Y-116649146D02*
X167225226Y-116578836D01*
X167225226Y-116578836D02*
X167268845Y-116500190D01*
X167268845Y-116500190D02*
X167299230Y-116419743D01*
X167299230Y-116419743D02*
X167307854Y-116388813D01*
X167307854Y-116388813D02*
X167313579Y-116361502D01*
X167313579Y-116361502D02*
X167316984Y-116333156D01*
X167316984Y-116333156D02*
X167318651Y-116299123D01*
X167318651Y-116299123D02*
X167319142Y-116260086D01*
X167319142Y-116260086D02*
X167315378Y-116177913D01*
X167315378Y-116177913D02*
X167302780Y-116104558D01*
X167302780Y-116104558D02*
X167280378Y-116036642D01*
X167280378Y-116036642D02*
X167247206Y-115970785D01*
X167247206Y-115970785D02*
X167227076Y-115938768D01*
X167227076Y-115938768D02*
X167171531Y-115867467D01*
X167171531Y-115867467D02*
X167108521Y-115807659D01*
X167108521Y-115807659D02*
X167039342Y-115759264D01*
X167039342Y-115759264D02*
X166965292Y-115722203D01*
X166965292Y-115722203D02*
X166887666Y-115696398D01*
X166887666Y-115696398D02*
X166807761Y-115681769D01*
X166807761Y-115681769D02*
X166726874Y-115678238D01*
X166726874Y-115678238D02*
X166646302Y-115685724D01*
X166646302Y-115685724D02*
X166567340Y-115704150D01*
X166567340Y-115704150D02*
X166491286Y-115733437D01*
X166491286Y-115733437D02*
X166419437Y-115773505D01*
X166419437Y-115773505D02*
X166353088Y-115824275D01*
X166353088Y-115824275D02*
X166293537Y-115885668D01*
X166293537Y-115885668D02*
X166242079Y-115957606D01*
X166242079Y-115957606D02*
X166218408Y-116000226D01*
X166218408Y-116000226D02*
X166186944Y-116076692D01*
X166186944Y-116076692D02*
X166167811Y-116157835D01*
X166167811Y-116157835D02*
X166160522Y-116245779D01*
X166160522Y-116245779D02*
X166160438Y-116252829D01*
X166160438Y-116252829D02*
X165723963Y-116252829D01*
X165723963Y-116252829D02*
X165726063Y-116186101D01*
X165726063Y-116186101D02*
X165731479Y-116121587D01*
X165731479Y-116121587D02*
X165740106Y-116065992D01*
X165740106Y-116065992D02*
X165740781Y-116062776D01*
X165740781Y-116062776D02*
X165773684Y-115942128D01*
X165773684Y-115942128D02*
X165818862Y-115828766D01*
X165818862Y-115828766D02*
X165875701Y-115723310D01*
X165875701Y-115723310D02*
X165943585Y-115626378D01*
X165943585Y-115626378D02*
X166021896Y-115538591D01*
X166021896Y-115538591D02*
X166110019Y-115460568D01*
X166110019Y-115460568D02*
X166207337Y-115392928D01*
X166207337Y-115392928D02*
X166313234Y-115336290D01*
X166313234Y-115336290D02*
X166427095Y-115291276D01*
X166427095Y-115291276D02*
X166538735Y-115260574D01*
X166538735Y-115260574D02*
X166593782Y-115251534D01*
X166593782Y-115251534D02*
X166658585Y-115245937D01*
X166658585Y-115245937D02*
X166728804Y-115243775D01*
X166728804Y-115243775D02*
X166800097Y-115245042D01*
X166800097Y-115245042D02*
X166800097Y-115245042D01*
G36*
X165731479Y-116121587D02*
G01*
X165740106Y-116065992D01*
X165740781Y-116062776D01*
X165773684Y-115942128D01*
X165818862Y-115828766D01*
X165875701Y-115723310D01*
X165943585Y-115626378D01*
X166021896Y-115538591D01*
X166110019Y-115460568D01*
X166207337Y-115392928D01*
X166313234Y-115336290D01*
X166427095Y-115291276D01*
X166538735Y-115260574D01*
X166593782Y-115251534D01*
X166658585Y-115245937D01*
X166728804Y-115243775D01*
X166800097Y-115245042D01*
X166868123Y-115249729D01*
X166928540Y-115257827D01*
X166946371Y-115261313D01*
X167063122Y-115292966D01*
X167171645Y-115336198D01*
X167273058Y-115391619D01*
X167368480Y-115459839D01*
X167458751Y-115541192D01*
X167540226Y-115631820D01*
X167608417Y-115727761D01*
X167663823Y-115829955D01*
X167706941Y-115939342D01*
X167738270Y-116056862D01*
X167741941Y-116075029D01*
X167750078Y-116132434D01*
X167754627Y-116199044D01*
X167755626Y-116270103D01*
X167753115Y-116340850D01*
X167747131Y-116406529D01*
X167738805Y-116457396D01*
X167706289Y-116576816D01*
X167661098Y-116689732D01*
X167603796Y-116795396D01*
X167534948Y-116893059D01*
X167455116Y-116981974D01*
X167364864Y-117061392D01*
X167264756Y-117130565D01*
X167207014Y-117163282D01*
X167136804Y-117196060D01*
X167059215Y-117225153D01*
X166980679Y-117248356D01*
X166921286Y-117261232D01*
X166870545Y-117268241D01*
X166812723Y-117273199D01*
X166752645Y-117275926D01*
X166695133Y-117276241D01*
X166645010Y-117273964D01*
X166627372Y-117272198D01*
X166505844Y-117250336D01*
X166390309Y-117215611D01*
X166281464Y-117168677D01*
X166180010Y-117110188D01*
X166086646Y-117040796D01*
X166002072Y-116961156D01*
X165926988Y-116871919D01*
X165862093Y-116773739D01*
X165808087Y-116667269D01*
X165765670Y-116553163D01*
X165737332Y-116441251D01*
X165729490Y-116387110D01*
X165725026Y-116323467D01*
X165723897Y-116254929D01*
X165723963Y-116252829D01*
X166160438Y-116252829D01*
X166166380Y-116347367D01*
X166185533Y-116436056D01*
X166217791Y-116518647D01*
X166263051Y-116594893D01*
X166321205Y-116664544D01*
X166344384Y-116687130D01*
X166414591Y-116742459D01*
X166492031Y-116785850D01*
X166575105Y-116816882D01*
X166662214Y-116835137D01*
X166751760Y-116840193D01*
X166842144Y-116831632D01*
X166872037Y-116825712D01*
X166956950Y-116799403D01*
X167035847Y-116760495D01*
X167107606Y-116710054D01*
X167171106Y-116649146D01*
X167225226Y-116578836D01*
X167268845Y-116500190D01*
X167299230Y-116419743D01*
X167307854Y-116388813D01*
X167313579Y-116361502D01*
X167316984Y-116333156D01*
X167318651Y-116299123D01*
X167319142Y-116260086D01*
X167315378Y-116177913D01*
X167302780Y-116104558D01*
X167280378Y-116036642D01*
X167247206Y-115970785D01*
X167227076Y-115938768D01*
X167171531Y-115867467D01*
X167108521Y-115807659D01*
X167039342Y-115759264D01*
X166965292Y-115722203D01*
X166887666Y-115696398D01*
X166807761Y-115681769D01*
X166726874Y-115678238D01*
X166646302Y-115685724D01*
X166567340Y-115704150D01*
X166491286Y-115733437D01*
X166419437Y-115773505D01*
X166353088Y-115824275D01*
X166293537Y-115885668D01*
X166242079Y-115957606D01*
X166218408Y-116000226D01*
X166186944Y-116076692D01*
X166167811Y-116157835D01*
X166160522Y-116245779D01*
X166160438Y-116252829D01*
X165723963Y-116252829D01*
X165726063Y-116186101D01*
X165731479Y-116121587D01*
G37*
X165731479Y-116121587D02*
X165740106Y-116065992D01*
X165740781Y-116062776D01*
X165773684Y-115942128D01*
X165818862Y-115828766D01*
X165875701Y-115723310D01*
X165943585Y-115626378D01*
X166021896Y-115538591D01*
X166110019Y-115460568D01*
X166207337Y-115392928D01*
X166313234Y-115336290D01*
X166427095Y-115291276D01*
X166538735Y-115260574D01*
X166593782Y-115251534D01*
X166658585Y-115245937D01*
X166728804Y-115243775D01*
X166800097Y-115245042D01*
X166868123Y-115249729D01*
X166928540Y-115257827D01*
X166946371Y-115261313D01*
X167063122Y-115292966D01*
X167171645Y-115336198D01*
X167273058Y-115391619D01*
X167368480Y-115459839D01*
X167458751Y-115541192D01*
X167540226Y-115631820D01*
X167608417Y-115727761D01*
X167663823Y-115829955D01*
X167706941Y-115939342D01*
X167738270Y-116056862D01*
X167741941Y-116075029D01*
X167750078Y-116132434D01*
X167754627Y-116199044D01*
X167755626Y-116270103D01*
X167753115Y-116340850D01*
X167747131Y-116406529D01*
X167738805Y-116457396D01*
X167706289Y-116576816D01*
X167661098Y-116689732D01*
X167603796Y-116795396D01*
X167534948Y-116893059D01*
X167455116Y-116981974D01*
X167364864Y-117061392D01*
X167264756Y-117130565D01*
X167207014Y-117163282D01*
X167136804Y-117196060D01*
X167059215Y-117225153D01*
X166980679Y-117248356D01*
X166921286Y-117261232D01*
X166870545Y-117268241D01*
X166812723Y-117273199D01*
X166752645Y-117275926D01*
X166695133Y-117276241D01*
X166645010Y-117273964D01*
X166627372Y-117272198D01*
X166505844Y-117250336D01*
X166390309Y-117215611D01*
X166281464Y-117168677D01*
X166180010Y-117110188D01*
X166086646Y-117040796D01*
X166002072Y-116961156D01*
X165926988Y-116871919D01*
X165862093Y-116773739D01*
X165808087Y-116667269D01*
X165765670Y-116553163D01*
X165737332Y-116441251D01*
X165729490Y-116387110D01*
X165725026Y-116323467D01*
X165723897Y-116254929D01*
X165723963Y-116252829D01*
X166160438Y-116252829D01*
X166166380Y-116347367D01*
X166185533Y-116436056D01*
X166217791Y-116518647D01*
X166263051Y-116594893D01*
X166321205Y-116664544D01*
X166344384Y-116687130D01*
X166414591Y-116742459D01*
X166492031Y-116785850D01*
X166575105Y-116816882D01*
X166662214Y-116835137D01*
X166751760Y-116840193D01*
X166842144Y-116831632D01*
X166872037Y-116825712D01*
X166956950Y-116799403D01*
X167035847Y-116760495D01*
X167107606Y-116710054D01*
X167171106Y-116649146D01*
X167225226Y-116578836D01*
X167268845Y-116500190D01*
X167299230Y-116419743D01*
X167307854Y-116388813D01*
X167313579Y-116361502D01*
X167316984Y-116333156D01*
X167318651Y-116299123D01*
X167319142Y-116260086D01*
X167315378Y-116177913D01*
X167302780Y-116104558D01*
X167280378Y-116036642D01*
X167247206Y-115970785D01*
X167227076Y-115938768D01*
X167171531Y-115867467D01*
X167108521Y-115807659D01*
X167039342Y-115759264D01*
X166965292Y-115722203D01*
X166887666Y-115696398D01*
X166807761Y-115681769D01*
X166726874Y-115678238D01*
X166646302Y-115685724D01*
X166567340Y-115704150D01*
X166491286Y-115733437D01*
X166419437Y-115773505D01*
X166353088Y-115824275D01*
X166293537Y-115885668D01*
X166242079Y-115957606D01*
X166218408Y-116000226D01*
X166186944Y-116076692D01*
X166167811Y-116157835D01*
X166160522Y-116245779D01*
X166160438Y-116252829D01*
X165723963Y-116252829D01*
X165726063Y-116186101D01*
X165731479Y-116121587D01*
X165357372Y-116844286D02*
X165538800Y-116844286D01*
X165538800Y-116844286D02*
X165538800Y-117279714D01*
X165538800Y-117279714D02*
X164921986Y-117279714D01*
X164921986Y-117279714D02*
X164920150Y-116080472D01*
X164920150Y-116080472D02*
X164918314Y-114881229D01*
X164918314Y-114881229D02*
X164740514Y-114877153D01*
X164740514Y-114877153D02*
X164740514Y-114442172D01*
X164740514Y-114442172D02*
X165357372Y-114442172D01*
X165357372Y-114442172D02*
X165357372Y-116844286D01*
X165357372Y-116844286D02*
X165357372Y-116844286D01*
G36*
X165357372Y-116844286D02*
G01*
X165538800Y-116844286D01*
X165538800Y-117279714D01*
X164921986Y-117279714D01*
X164920150Y-116080472D01*
X164918314Y-114881229D01*
X164740514Y-114877153D01*
X164740514Y-114442172D01*
X165357372Y-114442172D01*
X165357372Y-116844286D01*
G37*
X165357372Y-116844286D02*
X165538800Y-116844286D01*
X165538800Y-117279714D01*
X164921986Y-117279714D01*
X164920150Y-116080472D01*
X164918314Y-114881229D01*
X164740514Y-114877153D01*
X164740514Y-114442172D01*
X165357372Y-114442172D01*
X165357372Y-116844286D01*
X167756052Y-117760500D02*
X167738996Y-117841379D01*
X167738996Y-117841379D02*
X167709448Y-117915359D01*
X167709448Y-117915359D02*
X167668105Y-117981601D01*
X167668105Y-117981601D02*
X167615664Y-118039268D01*
X167615664Y-118039268D02*
X167552821Y-118087520D01*
X167552821Y-118087520D02*
X167480275Y-118125521D01*
X167480275Y-118125521D02*
X167440172Y-118140549D01*
X167440172Y-118140549D02*
X167430863Y-118143302D01*
X167430863Y-118143302D02*
X167420141Y-118145661D01*
X167420141Y-118145661D02*
X167406829Y-118147665D01*
X167406829Y-118147665D02*
X167389749Y-118149352D01*
X167389749Y-118149352D02*
X167367727Y-118150760D01*
X167367727Y-118150760D02*
X167339586Y-118151929D01*
X167339586Y-118151929D02*
X167304149Y-118152896D01*
X167304149Y-118152896D02*
X167260240Y-118153701D01*
X167260240Y-118153701D02*
X167206682Y-118154380D01*
X167206682Y-118154380D02*
X167142301Y-118154973D01*
X167142301Y-118154973D02*
X167065919Y-118155518D01*
X167065919Y-118155518D02*
X166976359Y-118156054D01*
X166976359Y-118156054D02*
X166963014Y-118156129D01*
X166963014Y-118156129D02*
X166525772Y-118158561D01*
X166525772Y-118158561D02*
X166525772Y-118124771D01*
X166525772Y-118124771D02*
X166532531Y-118063926D01*
X166532531Y-118063926D02*
X166551721Y-118001970D01*
X166551721Y-118001970D02*
X166581710Y-117941387D01*
X166581710Y-117941387D02*
X166620867Y-117884659D01*
X166620867Y-117884659D02*
X166667561Y-117834270D01*
X166667561Y-117834270D02*
X166720159Y-117792704D01*
X166720159Y-117792704D02*
X166758336Y-117770808D01*
X166758336Y-117770808D02*
X166778192Y-117761152D01*
X166778192Y-117761152D02*
X166796089Y-117752874D01*
X166796089Y-117752874D02*
X166813279Y-117745868D01*
X166813279Y-117745868D02*
X166831013Y-117740027D01*
X166831013Y-117740027D02*
X166850543Y-117735246D01*
X166850543Y-117735246D02*
X166873120Y-117731418D01*
X166873120Y-117731418D02*
X166899996Y-117728437D01*
X166899996Y-117728437D02*
X166932422Y-117726198D01*
X166932422Y-117726198D02*
X166971650Y-117724595D01*
X166971650Y-117724595D02*
X167018931Y-117723521D01*
X167018931Y-117723521D02*
X167075517Y-117722870D01*
X167075517Y-117722870D02*
X167142660Y-117722537D01*
X167142660Y-117722537D02*
X167221610Y-117722416D01*
X167221610Y-117722416D02*
X167313620Y-117722400D01*
X167313620Y-117722400D02*
X167760848Y-117722400D01*
X167760848Y-117722400D02*
X167756052Y-117760500D01*
X167756052Y-117760500D02*
X167756052Y-117760500D01*
G36*
X167756052Y-117760500D02*
G01*
X167738996Y-117841379D01*
X167709448Y-117915359D01*
X167668105Y-117981601D01*
X167615664Y-118039268D01*
X167552821Y-118087520D01*
X167480275Y-118125521D01*
X167440172Y-118140549D01*
X167430863Y-118143302D01*
X167420141Y-118145661D01*
X167406829Y-118147665D01*
X167389749Y-118149352D01*
X167367727Y-118150760D01*
X167339586Y-118151929D01*
X167304149Y-118152896D01*
X167260240Y-118153701D01*
X167206682Y-118154380D01*
X167142301Y-118154973D01*
X167065919Y-118155518D01*
X166976359Y-118156054D01*
X166963014Y-118156129D01*
X166525772Y-118158561D01*
X166525772Y-118124771D01*
X166532531Y-118063926D01*
X166551721Y-118001970D01*
X166581710Y-117941387D01*
X166620867Y-117884659D01*
X166667561Y-117834270D01*
X166720159Y-117792704D01*
X166758336Y-117770808D01*
X166778192Y-117761152D01*
X166796089Y-117752874D01*
X166813279Y-117745868D01*
X166831013Y-117740027D01*
X166850543Y-117735246D01*
X166873120Y-117731418D01*
X166899996Y-117728437D01*
X166932422Y-117726198D01*
X166971650Y-117724595D01*
X167018931Y-117723521D01*
X167075517Y-117722870D01*
X167142660Y-117722537D01*
X167221610Y-117722416D01*
X167313620Y-117722400D01*
X167760848Y-117722400D01*
X167756052Y-117760500D01*
G37*
X167756052Y-117760500D02*
X167738996Y-117841379D01*
X167709448Y-117915359D01*
X167668105Y-117981601D01*
X167615664Y-118039268D01*
X167552821Y-118087520D01*
X167480275Y-118125521D01*
X167440172Y-118140549D01*
X167430863Y-118143302D01*
X167420141Y-118145661D01*
X167406829Y-118147665D01*
X167389749Y-118149352D01*
X167367727Y-118150760D01*
X167339586Y-118151929D01*
X167304149Y-118152896D01*
X167260240Y-118153701D01*
X167206682Y-118154380D01*
X167142301Y-118154973D01*
X167065919Y-118155518D01*
X166976359Y-118156054D01*
X166963014Y-118156129D01*
X166525772Y-118158561D01*
X166525772Y-118124771D01*
X166532531Y-118063926D01*
X166551721Y-118001970D01*
X166581710Y-117941387D01*
X166620867Y-117884659D01*
X166667561Y-117834270D01*
X166720159Y-117792704D01*
X166758336Y-117770808D01*
X166778192Y-117761152D01*
X166796089Y-117752874D01*
X166813279Y-117745868D01*
X166831013Y-117740027D01*
X166850543Y-117735246D01*
X166873120Y-117731418D01*
X166899996Y-117728437D01*
X166932422Y-117726198D01*
X166971650Y-117724595D01*
X167018931Y-117723521D01*
X167075517Y-117722870D01*
X167142660Y-117722537D01*
X167221610Y-117722416D01*
X167313620Y-117722400D01*
X167760848Y-117722400D01*
X167756052Y-117760500D01*
%TD*%
D11*
%TO.P,USB1,13*%
%TO.N,GND*%
X163820000Y-96950000D03*
X155180000Y-96950000D03*
D12*
X163820000Y-101130000D03*
X155180000Y-101130000D03*
%TD*%
D13*
%TO.P,MX1,1*%
%TO.N,GND*%
X163310000Y-112090000D03*
%TO.P,MX1,2*%
%TO.N,Net-(MX1-Pad2)*%
X156960000Y-114630000D03*
%TD*%
D14*
%TO.N,GND*%
X162881001Y-103700807D03*
X165350000Y-107750000D03*
X154500000Y-115355001D03*
X167800000Y-111650000D03*
X157300000Y-105700000D03*
%TO.N,+5V*%
X155600000Y-106200000D03*
X157350000Y-111700000D03*
%TO.N,D+*%
X160040312Y-104959107D03*
X153350000Y-103700000D03*
%TO.N,D-*%
X157200000Y-104100000D03*
X154400000Y-103700000D03*
%TO.N,Net-(R4-Pad2)*%
X158650000Y-100500000D03*
X164545000Y-99111603D03*
%TO.N,Net-(R5-Pad2)*%
X160750000Y-100500000D03*
X164900000Y-102000000D03*
%TO.N,Net-(U1-Pad2)*%
X157350000Y-107750000D03*
X165300000Y-110000000D03*
%TD*%
D15*
%TO.N,+5V*%
X155600000Y-109950000D02*
X157350000Y-111700000D01*
X155600000Y-106200000D02*
X155600000Y-109950000D01*
D16*
%TO.N,D+*%
X154075001Y-102974999D02*
X153350000Y-103700000D01*
X158056204Y-102974999D02*
X154075001Y-102974999D01*
X160040312Y-104959107D02*
X158056204Y-102974999D01*
%TO.N,D-*%
X154800000Y-104100000D02*
X154400000Y-103700000D01*
X157200000Y-104100000D02*
X154800000Y-104100000D01*
%TO.N,Net-(R4-Pad2)*%
X160038397Y-99111603D02*
X164545000Y-99111603D01*
X158650000Y-100500000D02*
X160038397Y-99111603D01*
%TO.N,Net-(R5-Pad2)*%
X164900000Y-100493260D02*
X164900000Y-102000000D01*
X164161730Y-99754990D02*
X164900000Y-100493260D01*
X161495010Y-99754990D02*
X164161730Y-99754990D01*
X160750000Y-100500000D02*
X161495010Y-99754990D01*
%TO.N,Net-(U1-Pad2)*%
X157868901Y-107231099D02*
X157350000Y-107750000D01*
X162531099Y-107231099D02*
X157868901Y-107231099D01*
X165300000Y-110000000D02*
X162531099Y-107231099D01*
%TD*%
%TA.AperFunction,Conductor*%
%TO.N,GND*%
G36*
X162772453Y-96318002D02*
G01*
X162818946Y-96371658D01*
X162828678Y-96439346D01*
X162829257Y-96439411D01*
X162829007Y-96441636D01*
X162829050Y-96441932D01*
X162828845Y-96443084D01*
X162812393Y-96589761D01*
X162812000Y-96596785D01*
X162812000Y-96677885D01*
X162816475Y-96693124D01*
X162817865Y-96694329D01*
X162825548Y-96696000D01*
X163948000Y-96696000D01*
X164016121Y-96716002D01*
X164062614Y-96769658D01*
X164074000Y-96822000D01*
X164074000Y-97078000D01*
X164053998Y-97146121D01*
X164000342Y-97192614D01*
X163948000Y-97204000D01*
X162830115Y-97204000D01*
X162814876Y-97208475D01*
X162813671Y-97209865D01*
X162812000Y-97217548D01*
X162812000Y-97296657D01*
X162812301Y-97302805D01*
X162825812Y-97440603D01*
X162828195Y-97452638D01*
X162881767Y-97630076D01*
X162886441Y-97641416D01*
X162973460Y-97805077D01*
X162980249Y-97815294D01*
X163097397Y-97958933D01*
X163106041Y-97967637D01*
X163248856Y-98085784D01*
X163259027Y-98092644D01*
X163422076Y-98180804D01*
X163433381Y-98185556D01*
X163582571Y-98231738D01*
X163641731Y-98270989D01*
X163670278Y-98335993D01*
X163659150Y-98406112D01*
X163611878Y-98459084D01*
X163545312Y-98478103D01*
X160117164Y-98478103D01*
X160105981Y-98477576D01*
X160098488Y-98475901D01*
X160090562Y-98476150D01*
X160090561Y-98476150D01*
X160030398Y-98478041D01*
X160026440Y-98478103D01*
X159998541Y-98478103D01*
X159994551Y-98478607D01*
X159982717Y-98479539D01*
X159938508Y-98480929D01*
X159930894Y-98483141D01*
X159930889Y-98483142D01*
X159919056Y-98486580D01*
X159899693Y-98490591D01*
X159879600Y-98493129D01*
X159872233Y-98496046D01*
X159872228Y-98496047D01*
X159838489Y-98509405D01*
X159827262Y-98513249D01*
X159784804Y-98525585D01*
X159777978Y-98529622D01*
X159767369Y-98535896D01*
X159749621Y-98544591D01*
X159730780Y-98552051D01*
X159724364Y-98556713D01*
X159724363Y-98556713D01*
X159695010Y-98578039D01*
X159685090Y-98584555D01*
X159653862Y-98603023D01*
X159653859Y-98603025D01*
X159647035Y-98607061D01*
X159632714Y-98621382D01*
X159617681Y-98634222D01*
X159601290Y-98646131D01*
X159596240Y-98652235D01*
X159596235Y-98652240D01*
X159573104Y-98680201D01*
X159565114Y-98688982D01*
X158699499Y-99554596D01*
X158637187Y-99588621D01*
X158610404Y-99591500D01*
X158554513Y-99591500D01*
X158548061Y-99592872D01*
X158548056Y-99592872D01*
X158461113Y-99611353D01*
X158367712Y-99631206D01*
X158361682Y-99633891D01*
X158361681Y-99633891D01*
X158199278Y-99706197D01*
X158199276Y-99706198D01*
X158193248Y-99708882D01*
X158187907Y-99712762D01*
X158187906Y-99712763D01*
X158155482Y-99736321D01*
X158038747Y-99821134D01*
X158034326Y-99826044D01*
X158034325Y-99826045D01*
X157941910Y-99928683D01*
X157910960Y-99963056D01*
X157815473Y-100128444D01*
X157756458Y-100310072D01*
X157755768Y-100316633D01*
X157755768Y-100316635D01*
X157741946Y-100448147D01*
X157736496Y-100500000D01*
X157737186Y-100506565D01*
X157739337Y-100527026D01*
X157756458Y-100689928D01*
X157815473Y-100871556D01*
X157910960Y-101036944D01*
X157915378Y-101041851D01*
X157915379Y-101041852D01*
X157922110Y-101049327D01*
X158038747Y-101178866D01*
X158134914Y-101248736D01*
X158183768Y-101284230D01*
X158193248Y-101291118D01*
X158199276Y-101293802D01*
X158199278Y-101293803D01*
X158361681Y-101366109D01*
X158367712Y-101368794D01*
X158444910Y-101385203D01*
X158548056Y-101407128D01*
X158548061Y-101407128D01*
X158554513Y-101408500D01*
X158745487Y-101408500D01*
X158751939Y-101407128D01*
X158751944Y-101407128D01*
X158855090Y-101385203D01*
X158932288Y-101368794D01*
X158938319Y-101366109D01*
X159100722Y-101293803D01*
X159100724Y-101293802D01*
X159106752Y-101291118D01*
X159116233Y-101284230D01*
X159165086Y-101248736D01*
X159261253Y-101178866D01*
X159377890Y-101049327D01*
X159384621Y-101041852D01*
X159384622Y-101041851D01*
X159389040Y-101036944D01*
X159484527Y-100871556D01*
X159543542Y-100689928D01*
X159560907Y-100524706D01*
X159587920Y-100459050D01*
X159597122Y-100448782D01*
X159622091Y-100423813D01*
X159684403Y-100389787D01*
X159755218Y-100394852D01*
X159812054Y-100437399D01*
X159835444Y-100500111D01*
X159836496Y-100500000D01*
X159839337Y-100527026D01*
X159856458Y-100689928D01*
X159915473Y-100871556D01*
X160010960Y-101036944D01*
X160015378Y-101041851D01*
X160015379Y-101041852D01*
X160022110Y-101049327D01*
X160138747Y-101178866D01*
X160234914Y-101248736D01*
X160283768Y-101284230D01*
X160293248Y-101291118D01*
X160299276Y-101293802D01*
X160299278Y-101293803D01*
X160461681Y-101366109D01*
X160467712Y-101368794D01*
X160544910Y-101385203D01*
X160648056Y-101407128D01*
X160648061Y-101407128D01*
X160654513Y-101408500D01*
X160845487Y-101408500D01*
X160851939Y-101407128D01*
X160851944Y-101407128D01*
X160955090Y-101385203D01*
X161032288Y-101368794D01*
X161038319Y-101366109D01*
X161200722Y-101293803D01*
X161200724Y-101293802D01*
X161206752Y-101291118D01*
X161216233Y-101284230D01*
X161265086Y-101248736D01*
X161361253Y-101178866D01*
X161489040Y-101036944D01*
X161491263Y-101038946D01*
X161537232Y-101003550D01*
X161607973Y-100997524D01*
X161670741Y-101030701D01*
X161691980Y-101057995D01*
X161711970Y-101092618D01*
X161716388Y-101097525D01*
X161716389Y-101097526D01*
X161789629Y-101178866D01*
X161829208Y-101222823D01*
X161834547Y-101226702D01*
X161923208Y-101291118D01*
X161970954Y-101325808D01*
X161976982Y-101328492D01*
X161976984Y-101328493D01*
X162119817Y-101392086D01*
X162131016Y-101397072D01*
X162196815Y-101411058D01*
X162295939Y-101432128D01*
X162295943Y-101432128D01*
X162302396Y-101433500D01*
X162477604Y-101433500D01*
X162484057Y-101432128D01*
X162484061Y-101432128D01*
X162583185Y-101411058D01*
X162648984Y-101397072D01*
X162649360Y-101396905D01*
X162718035Y-101394944D01*
X162778832Y-101431608D01*
X162810155Y-101495321D01*
X162812000Y-101516804D01*
X162812000Y-101726657D01*
X162812301Y-101732805D01*
X162825812Y-101870603D01*
X162828195Y-101882638D01*
X162881767Y-102060076D01*
X162886441Y-102071416D01*
X162973460Y-102235077D01*
X162980249Y-102245294D01*
X163097397Y-102388933D01*
X163106041Y-102397637D01*
X163248856Y-102515784D01*
X163259027Y-102522644D01*
X163422076Y-102610804D01*
X163433381Y-102615556D01*
X163548692Y-102651250D01*
X163562795Y-102651456D01*
X163566000Y-102644701D01*
X163566000Y-101002000D01*
X163586002Y-100933879D01*
X163639658Y-100887386D01*
X163692000Y-100876000D01*
X163948000Y-100876000D01*
X164016121Y-100896002D01*
X164062614Y-100949658D01*
X164074000Y-101002000D01*
X164074000Y-101584207D01*
X164064654Y-101628178D01*
X164065473Y-101628444D01*
X164006458Y-101810072D01*
X164005768Y-101816633D01*
X164005768Y-101816635D01*
X163989234Y-101973952D01*
X163986496Y-102000000D01*
X163987186Y-102006565D01*
X164003889Y-102165482D01*
X164006458Y-102189928D01*
X164008498Y-102196206D01*
X164065473Y-102371556D01*
X164064654Y-102371822D01*
X164074000Y-102415793D01*
X164074000Y-102637924D01*
X164077973Y-102651455D01*
X164085769Y-102652576D01*
X164151394Y-102633261D01*
X164222391Y-102633215D01*
X164280605Y-102669824D01*
X164288747Y-102678866D01*
X164443248Y-102791118D01*
X164449276Y-102793802D01*
X164449278Y-102793803D01*
X164539318Y-102833891D01*
X164617712Y-102868794D01*
X164711112Y-102888647D01*
X164798056Y-102907128D01*
X164798061Y-102907128D01*
X164804513Y-102908500D01*
X164995487Y-102908500D01*
X165001939Y-102907128D01*
X165001944Y-102907128D01*
X165088887Y-102888647D01*
X165182288Y-102868794D01*
X165260682Y-102833891D01*
X165350722Y-102793803D01*
X165350724Y-102793802D01*
X165356752Y-102791118D01*
X165511253Y-102678866D01*
X165603423Y-102576501D01*
X165634621Y-102541852D01*
X165634622Y-102541851D01*
X165639040Y-102536944D01*
X165708987Y-102415793D01*
X165731223Y-102377279D01*
X165731224Y-102377278D01*
X165734527Y-102371556D01*
X165793542Y-102189928D01*
X165796112Y-102165482D01*
X165812814Y-102006565D01*
X165813504Y-102000000D01*
X165812123Y-101986859D01*
X165810633Y-101972679D01*
X165823406Y-101902840D01*
X165871909Y-101850994D01*
X165940742Y-101833601D01*
X165991592Y-101846465D01*
X166001486Y-101851337D01*
X166005329Y-101853312D01*
X166060301Y-101882801D01*
X166068767Y-101884586D01*
X166069635Y-101884886D01*
X166077397Y-101888708D01*
X166138825Y-101899441D01*
X166143103Y-101900266D01*
X166204084Y-101913129D01*
X166212704Y-101912468D01*
X166213629Y-101912512D01*
X166222150Y-101914001D01*
X166284103Y-101907064D01*
X166288449Y-101906654D01*
X166341649Y-101902571D01*
X166341650Y-101902571D01*
X166350599Y-101901884D01*
X166357331Y-101899341D01*
X166366049Y-101897889D01*
X166368184Y-101897650D01*
X166368202Y-101897648D01*
X166368347Y-101898946D01*
X166384427Y-101900217D01*
X166418313Y-101900387D01*
X166420121Y-101900875D01*
X166420139Y-101900883D01*
X166422746Y-101901584D01*
X166441235Y-101906576D01*
X166460625Y-101913558D01*
X166479521Y-101922168D01*
X166488409Y-101923448D01*
X166488411Y-101923449D01*
X166513742Y-101927098D01*
X166514254Y-101927204D01*
X166514339Y-101927214D01*
X166517043Y-101927574D01*
X166521273Y-101928183D01*
X166529108Y-101930298D01*
X166531346Y-101930251D01*
X166552574Y-101932819D01*
X166556579Y-101933303D01*
X166559413Y-101933678D01*
X166616085Y-101941842D01*
X166616088Y-101941842D01*
X166624966Y-101943121D01*
X166630848Y-101942284D01*
X166636755Y-101942998D01*
X166663801Y-101938518D01*
X166702096Y-101932175D01*
X166704928Y-101931739D01*
X166737528Y-101927098D01*
X166770446Y-101922412D01*
X166775861Y-101919956D01*
X166781726Y-101918984D01*
X166795337Y-101912432D01*
X166841393Y-101890262D01*
X166843975Y-101889055D01*
X166846551Y-101887886D01*
X166916849Y-101877950D01*
X166946509Y-101886079D01*
X166956665Y-101890252D01*
X166977465Y-101898799D01*
X166985719Y-101899672D01*
X166990010Y-101900665D01*
X166997812Y-101903509D01*
X167006774Y-101904093D01*
X167007401Y-101904225D01*
X167011358Y-101904702D01*
X167016912Y-101906522D01*
X167025877Y-101906811D01*
X167025887Y-101906813D01*
X167060612Y-101907933D01*
X167069802Y-101908566D01*
X167114672Y-101913312D01*
X167123596Y-101914256D01*
X167132426Y-101912658D01*
X167137866Y-101912457D01*
X167148355Y-101911685D01*
X167154812Y-101910972D01*
X167163782Y-101911261D01*
X167172473Y-101909021D01*
X167181393Y-101908036D01*
X167181601Y-101909921D01*
X167241387Y-101911917D01*
X167299799Y-101952272D01*
X167306473Y-101961310D01*
X167328634Y-101994308D01*
X167333547Y-101998404D01*
X167337244Y-102003627D01*
X167344275Y-102009202D01*
X167388690Y-102044420D01*
X167391084Y-102046366D01*
X167441506Y-102088398D01*
X167447370Y-102090949D01*
X167452386Y-102094927D01*
X167484756Y-102108079D01*
X167513252Y-102119657D01*
X167516094Y-102120853D01*
X167576250Y-102147027D01*
X167582597Y-102147830D01*
X167588525Y-102150239D01*
X167597453Y-102151148D01*
X167597454Y-102151148D01*
X167653827Y-102156886D01*
X167656891Y-102157236D01*
X167713121Y-102164354D01*
X167713122Y-102164354D01*
X167722033Y-102165482D01*
X167728353Y-102164471D01*
X167734716Y-102165119D01*
X167799288Y-102153165D01*
X167802324Y-102152642D01*
X167811667Y-102151148D01*
X167867136Y-102142278D01*
X167872914Y-102139536D01*
X167879208Y-102138371D01*
X167887218Y-102134327D01*
X167887221Y-102134326D01*
X167937836Y-102108771D01*
X167940608Y-102107414D01*
X167991780Y-102083132D01*
X167991781Y-102083131D01*
X167999895Y-102079281D01*
X168004672Y-102075027D01*
X168010384Y-102072143D01*
X168058352Y-102027274D01*
X168060610Y-102025213D01*
X168102934Y-101987523D01*
X168102936Y-101987521D01*
X168109635Y-101981555D01*
X168116525Y-101970536D01*
X168119507Y-101967886D01*
X168120182Y-101967086D01*
X168120297Y-101967183D01*
X168169594Y-101923381D01*
X168217506Y-101911470D01*
X168242282Y-101910318D01*
X168260950Y-101910836D01*
X168272763Y-101912044D01*
X168272769Y-101912044D01*
X168281692Y-101912956D01*
X168303086Y-101909006D01*
X168305614Y-101908539D01*
X168322637Y-101906581D01*
X168328254Y-101906320D01*
X168347895Y-101905406D01*
X168368456Y-101898341D01*
X168386514Y-101893600D01*
X168393124Y-101892380D01*
X168463744Y-101899682D01*
X168519206Y-101944005D01*
X168542000Y-102016286D01*
X168542000Y-118000673D01*
X168540500Y-118020057D01*
X168538195Y-118034858D01*
X168538195Y-118034862D01*
X168536814Y-118043731D01*
X168537978Y-118052633D01*
X168537978Y-118052637D01*
X168537991Y-118052733D01*
X168538262Y-118083170D01*
X168531254Y-118145375D01*
X168524976Y-118172882D01*
X168500885Y-118241730D01*
X168497966Y-118250071D01*
X168485724Y-118275491D01*
X168442213Y-118344738D01*
X168424621Y-118366797D01*
X168366797Y-118424621D01*
X168344738Y-118442213D01*
X168275491Y-118485724D01*
X168250070Y-118497966D01*
X168194242Y-118517501D01*
X168123338Y-118521121D01*
X168061733Y-118485831D01*
X168028986Y-118422838D01*
X168035494Y-118352140D01*
X168059409Y-118313800D01*
X168072422Y-118299490D01*
X168074937Y-118295781D01*
X168076025Y-118294398D01*
X168078695Y-118291160D01*
X168078967Y-118290791D01*
X168082142Y-118287115D01*
X168094487Y-118267336D01*
X168096345Y-118264359D01*
X168098918Y-118260404D01*
X168111576Y-118241731D01*
X168111577Y-118241730D01*
X168112996Y-118242692D01*
X168114092Y-118240252D01*
X168113519Y-118239913D01*
X168116449Y-118234963D01*
X168116512Y-118234864D01*
X168116526Y-118234834D01*
X168118092Y-118232188D01*
X168118650Y-118231493D01*
X168120583Y-118228444D01*
X168128960Y-118216087D01*
X168128961Y-118216085D01*
X168133997Y-118208656D01*
X168136157Y-118201941D01*
X168137789Y-118198911D01*
X168148004Y-118181653D01*
X168149523Y-118179154D01*
X168150936Y-118176890D01*
X168164145Y-118155726D01*
X168165958Y-118151618D01*
X168166045Y-118151454D01*
X168168385Y-118147277D01*
X168168550Y-118146942D01*
X168171032Y-118142749D01*
X168181214Y-118117257D01*
X168182947Y-118113134D01*
X168191781Y-118093123D01*
X168191782Y-118093121D01*
X168193474Y-118093868D01*
X168193853Y-118092359D01*
X168192691Y-118091919D01*
X168192692Y-118091917D01*
X168193795Y-118089006D01*
X168196111Y-118083355D01*
X168196135Y-118083260D01*
X168208463Y-118055335D01*
X168209365Y-118048497D01*
X168210788Y-118044174D01*
X168217535Y-118026374D01*
X168218342Y-118024299D01*
X168227402Y-118001615D01*
X168227403Y-118001613D01*
X168229065Y-117997451D01*
X168229873Y-117994117D01*
X168230903Y-117991163D01*
X168230982Y-117990893D01*
X168232710Y-117986335D01*
X168238699Y-117957935D01*
X168239531Y-117954262D01*
X168252795Y-117899525D01*
X168254909Y-117890801D01*
X168254753Y-117887466D01*
X168257455Y-117873232D01*
X168258699Y-117868901D01*
X168260044Y-117864219D01*
X168261021Y-117856462D01*
X168261737Y-117850770D01*
X168263464Y-117840497D01*
X168264687Y-117834701D01*
X168264688Y-117834695D01*
X168265612Y-117830313D01*
X168265681Y-117829259D01*
X168269115Y-117813439D01*
X168270858Y-117807609D01*
X168270859Y-117807604D01*
X168273430Y-117799006D01*
X168273556Y-117778429D01*
X168273663Y-117760914D01*
X168273845Y-117754872D01*
X168273872Y-117754371D01*
X168274432Y-117749925D01*
X168274210Y-117736853D01*
X168273940Y-117721042D01*
X168273924Y-117718125D01*
X168274273Y-117661036D01*
X168274328Y-117652062D01*
X168272667Y-117646250D01*
X168272564Y-117640203D01*
X168269901Y-117631639D01*
X168269900Y-117631635D01*
X168252935Y-117577085D01*
X168252102Y-117574294D01*
X168236414Y-117519404D01*
X168236414Y-117519403D01*
X168233947Y-117510773D01*
X168230722Y-117505662D01*
X168228926Y-117499886D01*
X168192315Y-117444730D01*
X168190811Y-117442406D01*
X168155534Y-117386496D01*
X168151004Y-117382495D01*
X168147659Y-117377456D01*
X168140799Y-117371674D01*
X168140797Y-117371672D01*
X168097095Y-117334839D01*
X168094888Y-117332935D01*
X168052121Y-117295164D01*
X168045393Y-117289222D01*
X168041006Y-117287163D01*
X168036839Y-117284055D01*
X168035290Y-117282749D01*
X168036791Y-117280969D01*
X167998046Y-117237422D01*
X167987021Y-117167286D01*
X168008982Y-117110980D01*
X168015616Y-117101570D01*
X168018372Y-117097811D01*
X168035702Y-117075079D01*
X168038023Y-117070800D01*
X168038351Y-117070292D01*
X168040226Y-117067017D01*
X168041726Y-117064531D01*
X168044307Y-117060870D01*
X168057886Y-117034256D01*
X168059349Y-117031477D01*
X168105720Y-116945970D01*
X168108096Y-116941780D01*
X168120045Y-116921625D01*
X168120046Y-116921624D01*
X168122523Y-116917445D01*
X168124332Y-116912923D01*
X168124610Y-116912360D01*
X168125987Y-116909133D01*
X168127474Y-116905854D01*
X168129614Y-116901909D01*
X168139884Y-116874176D01*
X168141020Y-116871227D01*
X168177491Y-116780100D01*
X168179417Y-116775550D01*
X168190770Y-116750148D01*
X168192048Y-116745456D01*
X168193381Y-116741723D01*
X168193215Y-116741670D01*
X168194584Y-116737390D01*
X168196248Y-116733232D01*
X168203091Y-116705077D01*
X168203952Y-116701734D01*
X168229306Y-116608619D01*
X168231147Y-116602480D01*
X168237096Y-116584330D01*
X168237099Y-116584317D01*
X168238613Y-116579698D01*
X168239717Y-116572955D01*
X168241880Y-116563007D01*
X168242285Y-116560951D01*
X168243462Y-116556630D01*
X168246540Y-116531850D01*
X168247233Y-116527032D01*
X168249024Y-116516089D01*
X168251143Y-116505838D01*
X168253205Y-116497601D01*
X168254389Y-116492872D01*
X168255945Y-116475799D01*
X168257079Y-116466890D01*
X168258621Y-116457467D01*
X168258622Y-116457457D01*
X168259344Y-116453045D01*
X168259628Y-116438854D01*
X168260122Y-116429949D01*
X168261088Y-116419348D01*
X168262832Y-116407006D01*
X168264375Y-116398982D01*
X168265166Y-116376711D01*
X168265605Y-116369775D01*
X168267341Y-116350715D01*
X168266881Y-116341765D01*
X168266794Y-116330836D01*
X168267099Y-116322226D01*
X168268261Y-116309045D01*
X168269137Y-116302849D01*
X168269065Y-116297672D01*
X168268798Y-116278721D01*
X168268865Y-116272482D01*
X168269451Y-116255958D01*
X168269610Y-116251488D01*
X168269134Y-116247041D01*
X168269133Y-116247027D01*
X168268858Y-116244464D01*
X168268154Y-116232821D01*
X168268034Y-116224318D01*
X168268490Y-116211679D01*
X168268738Y-116208812D01*
X168269158Y-116203959D01*
X168267615Y-116181354D01*
X168267334Y-116174553D01*
X168267122Y-116159474D01*
X168267122Y-116159473D01*
X168267059Y-116155002D01*
X168265725Y-116146541D01*
X168264483Y-116135515D01*
X168263702Y-116124074D01*
X168263421Y-116113773D01*
X168263543Y-116104865D01*
X168263543Y-116104861D01*
X168263609Y-116100003D01*
X168262186Y-116089960D01*
X168261258Y-116083417D01*
X168260304Y-116074320D01*
X168259681Y-116065203D01*
X168259376Y-116060733D01*
X168256329Y-116046469D01*
X168254800Y-116037856D01*
X168254229Y-116033833D01*
X168253106Y-116021780D01*
X168252912Y-116017460D01*
X168252912Y-116017459D01*
X168252693Y-116012590D01*
X168248481Y-115991746D01*
X168247235Y-115984491D01*
X168245295Y-115970804D01*
X168244694Y-115966563D01*
X168244540Y-115966032D01*
X168244252Y-115963331D01*
X168238987Y-115943580D01*
X168237237Y-115936103D01*
X168234700Y-115923546D01*
X168234697Y-115923537D01*
X168233811Y-115919150D01*
X168230176Y-115908926D01*
X168227151Y-115899183D01*
X168206141Y-115820369D01*
X168204961Y-115815562D01*
X168199923Y-115793140D01*
X168199922Y-115793136D01*
X168198856Y-115788393D01*
X168197072Y-115783868D01*
X168195920Y-115780120D01*
X168195756Y-115780177D01*
X168194296Y-115775936D01*
X168193142Y-115771608D01*
X168191388Y-115767492D01*
X168191386Y-115767485D01*
X168181767Y-115744908D01*
X168180465Y-115741732D01*
X168145417Y-115652821D01*
X168143950Y-115648911D01*
X168135489Y-115625168D01*
X168135483Y-115625155D01*
X168133852Y-115620578D01*
X168131531Y-115616298D01*
X168131352Y-115615896D01*
X168129192Y-115611661D01*
X168127576Y-115607561D01*
X168121494Y-115596881D01*
X168111975Y-115580168D01*
X168110696Y-115577867D01*
X168065060Y-115493694D01*
X168063118Y-115489966D01*
X168051887Y-115467493D01*
X168051887Y-115467492D01*
X168049709Y-115463135D01*
X168046885Y-115459162D01*
X168046653Y-115458776D01*
X168043968Y-115454792D01*
X168041844Y-115450873D01*
X168023069Y-115425607D01*
X168021560Y-115423531D01*
X167966371Y-115345883D01*
X167963546Y-115341734D01*
X167951103Y-115322650D01*
X167951100Y-115322646D01*
X167948441Y-115318568D01*
X167945178Y-115314939D01*
X167942639Y-115311634D01*
X167942615Y-115311603D01*
X167942478Y-115311716D01*
X167939622Y-115308248D01*
X167937028Y-115304599D01*
X167917202Y-115283745D01*
X167914820Y-115281168D01*
X167851354Y-115210574D01*
X167847317Y-115205855D01*
X167831869Y-115186863D01*
X167827129Y-115182591D01*
X167821149Y-115176602D01*
X167818616Y-115174159D01*
X167815624Y-115170831D01*
X167796075Y-115154488D01*
X167792541Y-115151420D01*
X167722545Y-115088340D01*
X167718718Y-115084744D01*
X167702826Y-115069174D01*
X167702817Y-115069166D01*
X167699341Y-115065761D01*
X167695377Y-115062927D01*
X167693308Y-115061192D01*
X167691505Y-115059743D01*
X167691416Y-115059857D01*
X167687881Y-115057100D01*
X167684551Y-115054099D01*
X167661082Y-115038343D01*
X167658059Y-115036247D01*
X167610703Y-115002392D01*
X167581209Y-114981307D01*
X167577784Y-114978769D01*
X167558000Y-114963584D01*
X167557990Y-114963577D01*
X167554134Y-114960618D01*
X167549864Y-114958284D01*
X167549481Y-114958035D01*
X167545339Y-114955636D01*
X167545092Y-114955484D01*
X167541447Y-114952879D01*
X167537475Y-114950819D01*
X167537470Y-114950816D01*
X167513760Y-114938520D01*
X167511392Y-114937260D01*
X167428100Y-114891742D01*
X167424458Y-114889671D01*
X167402820Y-114876889D01*
X167402807Y-114876882D01*
X167398621Y-114874410D01*
X167394094Y-114872607D01*
X167393689Y-114872408D01*
X167389239Y-114870505D01*
X167385332Y-114868370D01*
X167381140Y-114866802D01*
X167381133Y-114866799D01*
X167355951Y-114857381D01*
X167353458Y-114856419D01*
X167265811Y-114821503D01*
X167261156Y-114819539D01*
X167240374Y-114810278D01*
X167240366Y-114810275D01*
X167235927Y-114808297D01*
X167231235Y-114807025D01*
X167227547Y-114805712D01*
X167227245Y-114805612D01*
X167227193Y-114805776D01*
X167222925Y-114804418D01*
X167218756Y-114802758D01*
X167190756Y-114796000D01*
X167187362Y-114795130D01*
X167136766Y-114781413D01*
X167106612Y-114773238D01*
X167096671Y-114770095D01*
X167088603Y-114767172D01*
X167088597Y-114767170D01*
X167084019Y-114765512D01*
X167067274Y-114762238D01*
X167058484Y-114760189D01*
X167049396Y-114757725D01*
X167049392Y-114757724D01*
X167045057Y-114756549D01*
X167040854Y-114756032D01*
X167036297Y-114754683D01*
X167015641Y-114751914D01*
X167008226Y-114750694D01*
X166990820Y-114747291D01*
X166986350Y-114747064D01*
X166986345Y-114747063D01*
X166981008Y-114746792D01*
X166980419Y-114746762D01*
X166970095Y-114745810D01*
X166965248Y-114745160D01*
X166954094Y-114743151D01*
X166943251Y-114740689D01*
X166929518Y-114739743D01*
X166923913Y-114739356D01*
X166915846Y-114738538D01*
X166913704Y-114738251D01*
X166899766Y-114736383D01*
X166895284Y-114736423D01*
X166895280Y-114736423D01*
X166888106Y-114736488D01*
X166887854Y-114736490D01*
X166878065Y-114736197D01*
X166868743Y-114735555D01*
X166855818Y-114733990D01*
X166849167Y-114732833D01*
X166831500Y-114732519D01*
X166825528Y-114732413D01*
X166819104Y-114732135D01*
X166811293Y-114731597D01*
X166798612Y-114730723D01*
X166794143Y-114731052D01*
X166794142Y-114731052D01*
X166793934Y-114731067D01*
X166791082Y-114731277D01*
X166779606Y-114731597D01*
X166772162Y-114731465D01*
X166758857Y-114730522D01*
X166752958Y-114729788D01*
X166728524Y-114730540D01*
X166722429Y-114730580D01*
X166701091Y-114730201D01*
X166694451Y-114731032D01*
X166694395Y-114731039D01*
X166682639Y-114731954D01*
X166674877Y-114732193D01*
X166662414Y-114731959D01*
X166654254Y-114731401D01*
X166632041Y-114733320D01*
X166625088Y-114733726D01*
X166605981Y-114734314D01*
X166597161Y-114735856D01*
X166586324Y-114737268D01*
X166574938Y-114738251D01*
X166565157Y-114738714D01*
X166550081Y-114738839D01*
X166534811Y-114741347D01*
X166525249Y-114742543D01*
X166517409Y-114743220D01*
X166517407Y-114743220D01*
X166512941Y-114743606D01*
X166508573Y-114744621D01*
X166508569Y-114744622D01*
X166497436Y-114747210D01*
X166489351Y-114748812D01*
X166471829Y-114751690D01*
X166465755Y-114752535D01*
X166446086Y-114754785D01*
X166446071Y-114754788D01*
X166441236Y-114755341D01*
X166436538Y-114756633D01*
X166436528Y-114756635D01*
X166435255Y-114756985D01*
X166427688Y-114758642D01*
X166423674Y-114759598D01*
X166419255Y-114760324D01*
X166402778Y-114765512D01*
X166394790Y-114768027D01*
X166390360Y-114769333D01*
X166306178Y-114792484D01*
X166300512Y-114793901D01*
X166280407Y-114798439D01*
X166280402Y-114798440D01*
X166275651Y-114799513D01*
X166271121Y-114801304D01*
X166271111Y-114801307D01*
X166270636Y-114801495D01*
X166264089Y-114803683D01*
X166264104Y-114803724D01*
X166259878Y-114805217D01*
X166255550Y-114806407D01*
X166231229Y-114816996D01*
X166227256Y-114818646D01*
X166137418Y-114854163D01*
X166132715Y-114855915D01*
X166111128Y-114863470D01*
X166111123Y-114863472D01*
X166106529Y-114865080D01*
X166102231Y-114867379D01*
X166098504Y-114869016D01*
X166098580Y-114869174D01*
X166094536Y-114871115D01*
X166090374Y-114872761D01*
X166086490Y-114874978D01*
X166086482Y-114874982D01*
X166065250Y-114887103D01*
X166062228Y-114888773D01*
X166055797Y-114892213D01*
X165986296Y-114906703D01*
X165919993Y-114881318D01*
X165877940Y-114824116D01*
X165870372Y-114781107D01*
X165870372Y-114450822D01*
X165870374Y-114450052D01*
X165870797Y-114380809D01*
X165870852Y-114371834D01*
X165862632Y-114343072D01*
X165859056Y-114326319D01*
X165858132Y-114319871D01*
X165854815Y-114296709D01*
X165851101Y-114288541D01*
X165851100Y-114288537D01*
X165844058Y-114273049D01*
X165837610Y-114255524D01*
X165830471Y-114230545D01*
X165814511Y-114205250D01*
X165806372Y-114190165D01*
X165797709Y-114171111D01*
X165797708Y-114171109D01*
X165793994Y-114162941D01*
X165788135Y-114156141D01*
X165788133Y-114156138D01*
X165777030Y-114143252D01*
X165765929Y-114128251D01*
X165752058Y-114106268D01*
X165729638Y-114086467D01*
X165717598Y-114074279D01*
X165698073Y-114051619D01*
X165676265Y-114037483D01*
X165661396Y-114026197D01*
X165648644Y-114014935D01*
X165641917Y-114008994D01*
X165614838Y-113996280D01*
X165599870Y-113987966D01*
X165574764Y-113971694D01*
X165566164Y-113969122D01*
X165566160Y-113969120D01*
X165549868Y-113964247D01*
X165532425Y-113957587D01*
X165517027Y-113950358D01*
X165508901Y-113946543D01*
X165486604Y-113943071D01*
X165479345Y-113941941D01*
X165462629Y-113938158D01*
X165442583Y-113932163D01*
X165442580Y-113932163D01*
X165433978Y-113929590D01*
X165425003Y-113929535D01*
X165425002Y-113929535D01*
X165414637Y-113929472D01*
X165399242Y-113929378D01*
X165398438Y-113929344D01*
X165397333Y-113929172D01*
X165366022Y-113929172D01*
X165365252Y-113929170D01*
X165291000Y-113928716D01*
X165290997Y-113928716D01*
X165287034Y-113928692D01*
X165285681Y-113929079D01*
X165284315Y-113929172D01*
X164749164Y-113929172D01*
X164748394Y-113929170D01*
X164747650Y-113929165D01*
X164670176Y-113928692D01*
X164641414Y-113936912D01*
X164624661Y-113940488D01*
X164618213Y-113941412D01*
X164595051Y-113944729D01*
X164586883Y-113948443D01*
X164586879Y-113948444D01*
X164571391Y-113955486D01*
X164553867Y-113961934D01*
X164528887Y-113969073D01*
X164521297Y-113973862D01*
X164503592Y-113985033D01*
X164488507Y-113993172D01*
X164469453Y-114001835D01*
X164469451Y-114001836D01*
X164461283Y-114005550D01*
X164454483Y-114011409D01*
X164454480Y-114011411D01*
X164441594Y-114022514D01*
X164426593Y-114033615D01*
X164404610Y-114047486D01*
X164398667Y-114054215D01*
X164384809Y-114069906D01*
X164372621Y-114081946D01*
X164349961Y-114101471D01*
X164335825Y-114123279D01*
X164324540Y-114138147D01*
X164307336Y-114157627D01*
X164294622Y-114184706D01*
X164286308Y-114199674D01*
X164270036Y-114224780D01*
X164267464Y-114233380D01*
X164267462Y-114233384D01*
X164262589Y-114249676D01*
X164255929Y-114267119D01*
X164244885Y-114290643D01*
X164243504Y-114299514D01*
X164240283Y-114320199D01*
X164236500Y-114336915D01*
X164234658Y-114343077D01*
X164227932Y-114365566D01*
X164227877Y-114374541D01*
X164227877Y-114374542D01*
X164227720Y-114400296D01*
X164227686Y-114401106D01*
X164227514Y-114402211D01*
X164227514Y-114433522D01*
X164227512Y-114434292D01*
X164227034Y-114512510D01*
X164227421Y-114513863D01*
X164227514Y-114515229D01*
X164227514Y-114866474D01*
X164227461Y-114870131D01*
X164226863Y-114890738D01*
X164225557Y-114935704D01*
X164227825Y-114944387D01*
X164227825Y-114944390D01*
X164234972Y-114971757D01*
X164237788Y-114985730D01*
X164243071Y-115022616D01*
X164246785Y-115030786D01*
X164246786Y-115030788D01*
X164250777Y-115039566D01*
X164257984Y-115059866D01*
X164262689Y-115077882D01*
X164267302Y-115085579D01*
X164267304Y-115085583D01*
X164281846Y-115109845D01*
X164288471Y-115122468D01*
X164300176Y-115148212D01*
X164303892Y-115156384D01*
X164309751Y-115163184D01*
X164309753Y-115163187D01*
X164316042Y-115170486D01*
X164328660Y-115187952D01*
X164338233Y-115203923D01*
X164344822Y-115210017D01*
X164344823Y-115210018D01*
X164365539Y-115229177D01*
X164401969Y-115290114D01*
X164405987Y-115321487D01*
X164406180Y-115447267D01*
X164407069Y-116027826D01*
X164407089Y-116041100D01*
X164407089Y-116041489D01*
X164408974Y-117272724D01*
X164408972Y-117273686D01*
X164408506Y-117350052D01*
X164416338Y-117377456D01*
X164416859Y-117379278D01*
X164420409Y-117395845D01*
X164424766Y-117425938D01*
X164435355Y-117449133D01*
X164441880Y-117466826D01*
X164448887Y-117491341D01*
X164465110Y-117517053D01*
X164473162Y-117531947D01*
X164485792Y-117559613D01*
X164491663Y-117566406D01*
X164491664Y-117566407D01*
X164502461Y-117578900D01*
X164513694Y-117594055D01*
X164522265Y-117607638D01*
X164527300Y-117615618D01*
X164550089Y-117635745D01*
X164561999Y-117647783D01*
X164581883Y-117670788D01*
X164603295Y-117684620D01*
X164618333Y-117696016D01*
X164637441Y-117712892D01*
X164645565Y-117716706D01*
X164645568Y-117716708D01*
X164664963Y-117725814D01*
X164679785Y-117734032D01*
X164697769Y-117745650D01*
X164697773Y-117745652D01*
X164705315Y-117750524D01*
X164729749Y-117757791D01*
X164747372Y-117764504D01*
X164770457Y-117775343D01*
X164779326Y-117776724D01*
X164779330Y-117776725D01*
X164795057Y-117779173D01*
X164800500Y-117780020D01*
X164817025Y-117783746D01*
X164846165Y-117792412D01*
X164880737Y-117792570D01*
X164881233Y-117792591D01*
X164882025Y-117792714D01*
X164911746Y-117792714D01*
X164912323Y-117792715D01*
X164990028Y-117793071D01*
X164990030Y-117793071D01*
X164993110Y-117793085D01*
X164994147Y-117792787D01*
X164995204Y-117792714D01*
X165530150Y-117792714D01*
X165530920Y-117792716D01*
X165609138Y-117793194D01*
X165637900Y-117784974D01*
X165654653Y-117781398D01*
X165661101Y-117780474D01*
X165684263Y-117777157D01*
X165692431Y-117773443D01*
X165692435Y-117773442D01*
X165707923Y-117766400D01*
X165725448Y-117759952D01*
X165750427Y-117752813D01*
X165775722Y-117736853D01*
X165790807Y-117728714D01*
X165809861Y-117720051D01*
X165809863Y-117720050D01*
X165818031Y-117716336D01*
X165824831Y-117710477D01*
X165824834Y-117710475D01*
X165837720Y-117699372D01*
X165852721Y-117688271D01*
X165874704Y-117674400D01*
X165876416Y-117672462D01*
X165938318Y-117644853D01*
X166008500Y-117655580D01*
X166061740Y-117702548D01*
X166081137Y-117770843D01*
X166073105Y-117811893D01*
X166073511Y-117812019D01*
X166064007Y-117842707D01*
X166063374Y-117844693D01*
X166063004Y-117845819D01*
X166060591Y-117852190D01*
X166056662Y-117858603D01*
X166047321Y-117893009D01*
X166045438Y-117899289D01*
X166044177Y-117903128D01*
X166043397Y-117905503D01*
X166041375Y-117911657D01*
X166040487Y-117911365D01*
X166038829Y-117914704D01*
X166041253Y-117915362D01*
X166040063Y-117919746D01*
X166038829Y-117923995D01*
X166031601Y-117947330D01*
X166030895Y-117951759D01*
X166029876Y-117956124D01*
X166029827Y-117956112D01*
X166028451Y-117962514D01*
X166028356Y-117962866D01*
X166027079Y-117967571D01*
X166026542Y-117972409D01*
X166024438Y-117991351D01*
X166023636Y-117997283D01*
X166014321Y-118055699D01*
X166015227Y-118062831D01*
X166015053Y-118064875D01*
X166015405Y-118067591D01*
X166015400Y-118067936D01*
X166012773Y-118084804D01*
X166012772Y-118084807D01*
X166012767Y-118094951D01*
X166012479Y-118096722D01*
X166012338Y-118100273D01*
X166011842Y-118104741D01*
X166011984Y-118109231D01*
X166012681Y-118131281D01*
X166012744Y-118135324D01*
X166012691Y-118231754D01*
X166015205Y-118240367D01*
X166015205Y-118240370D01*
X166020569Y-118258750D01*
X166024343Y-118276190D01*
X166026487Y-118291160D01*
X166028329Y-118304024D01*
X166032044Y-118312194D01*
X166032045Y-118312198D01*
X166039822Y-118329301D01*
X166046078Y-118346159D01*
X166053857Y-118372817D01*
X166052527Y-118373205D01*
X166061161Y-118434205D01*
X166031526Y-118498721D01*
X165971716Y-118536974D01*
X165936483Y-118542000D01*
X151049327Y-118542000D01*
X151029943Y-118540500D01*
X151015142Y-118538195D01*
X151015138Y-118538195D01*
X151006269Y-118536814D01*
X150997367Y-118537978D01*
X150997363Y-118537978D01*
X150997267Y-118537991D01*
X150966830Y-118538262D01*
X150904625Y-118531254D01*
X150877118Y-118524976D01*
X150799928Y-118497966D01*
X150774509Y-118485724D01*
X150705262Y-118442213D01*
X150683203Y-118424621D01*
X150625379Y-118366797D01*
X150607787Y-118344738D01*
X150564276Y-118275491D01*
X150552034Y-118250070D01*
X150525025Y-118172883D01*
X150518746Y-118145376D01*
X150513264Y-118096722D01*
X150512478Y-118089744D01*
X150511695Y-118074103D01*
X150511804Y-118065145D01*
X150513186Y-118056271D01*
X150509064Y-118024749D01*
X150508000Y-118008412D01*
X150508000Y-114630000D01*
X155321449Y-114630000D01*
X155341622Y-114886326D01*
X155342776Y-114891133D01*
X155342777Y-114891139D01*
X155364427Y-114981316D01*
X155401645Y-115136340D01*
X155403538Y-115140911D01*
X155403539Y-115140913D01*
X155486722Y-115341734D01*
X155500040Y-115373887D01*
X155634384Y-115593116D01*
X155801369Y-115788631D01*
X155996884Y-115955616D01*
X156216113Y-116089960D01*
X156220683Y-116091853D01*
X156220687Y-116091855D01*
X156449087Y-116186461D01*
X156453660Y-116188355D01*
X156527482Y-116206078D01*
X156698861Y-116247223D01*
X156698867Y-116247224D01*
X156703674Y-116248378D01*
X156960000Y-116268551D01*
X157216326Y-116248378D01*
X157221133Y-116247224D01*
X157221139Y-116247223D01*
X157392518Y-116206078D01*
X157466340Y-116188355D01*
X157470913Y-116186461D01*
X157699313Y-116091855D01*
X157699317Y-116091853D01*
X157703887Y-116089960D01*
X157923116Y-115955616D01*
X158118631Y-115788631D01*
X158285616Y-115593116D01*
X158419960Y-115373887D01*
X158433279Y-115341734D01*
X158516461Y-115140913D01*
X158516462Y-115140911D01*
X158518355Y-115136340D01*
X158555573Y-114981316D01*
X158577223Y-114891139D01*
X158577224Y-114891133D01*
X158578378Y-114886326D01*
X158598551Y-114630000D01*
X158578378Y-114373674D01*
X158576432Y-114365566D01*
X158528460Y-114165750D01*
X158518355Y-114123660D01*
X158509164Y-114101471D01*
X158421855Y-113890687D01*
X158421853Y-113890683D01*
X158419960Y-113886113D01*
X158285616Y-113666884D01*
X158118631Y-113471369D01*
X158052012Y-113414471D01*
X162350884Y-113414471D01*
X162354570Y-113419740D01*
X162562121Y-113546927D01*
X162570915Y-113551408D01*
X162799242Y-113645984D01*
X162808627Y-113649033D01*
X163048940Y-113706728D01*
X163058687Y-113708271D01*
X163305070Y-113727662D01*
X163314930Y-113727662D01*
X163561313Y-113708271D01*
X163571060Y-113706728D01*
X163811373Y-113649033D01*
X163820758Y-113645984D01*
X164049085Y-113551408D01*
X164057879Y-113546927D01*
X164263928Y-113420660D01*
X164269190Y-113412599D01*
X164263183Y-113402393D01*
X163322812Y-112462022D01*
X163308868Y-112454408D01*
X163307035Y-112454539D01*
X163300420Y-112458790D01*
X162358276Y-113400934D01*
X162350884Y-113414471D01*
X158052012Y-113414471D01*
X157923116Y-113304384D01*
X157703887Y-113170040D01*
X157699317Y-113168147D01*
X157699313Y-113168145D01*
X157470913Y-113073539D01*
X157470911Y-113073538D01*
X157466340Y-113071645D01*
X157357147Y-113045430D01*
X157221139Y-113012777D01*
X157221133Y-113012776D01*
X157216326Y-113011622D01*
X156960000Y-112991449D01*
X156703674Y-113011622D01*
X156698867Y-113012776D01*
X156698861Y-113012777D01*
X156562853Y-113045430D01*
X156453660Y-113071645D01*
X156449089Y-113073538D01*
X156449087Y-113073539D01*
X156220687Y-113168145D01*
X156220683Y-113168147D01*
X156216113Y-113170040D01*
X155996884Y-113304384D01*
X155801369Y-113471369D01*
X155634384Y-113666884D01*
X155500040Y-113886113D01*
X155498147Y-113890683D01*
X155498145Y-113890687D01*
X155410836Y-114101471D01*
X155401645Y-114123660D01*
X155391540Y-114165750D01*
X155343569Y-114365566D01*
X155341622Y-114373674D01*
X155321449Y-114630000D01*
X150508000Y-114630000D01*
X150508000Y-106200000D01*
X154686496Y-106200000D01*
X154706458Y-106389928D01*
X154765473Y-106571556D01*
X154768776Y-106577278D01*
X154768777Y-106577279D01*
X154783418Y-106602638D01*
X154860960Y-106736944D01*
X154868637Y-106745470D01*
X154899353Y-106809476D01*
X154901000Y-106829779D01*
X154901000Y-109921401D01*
X154900708Y-109929971D01*
X154899426Y-109948782D01*
X154896830Y-109986852D01*
X154898135Y-109994328D01*
X154898135Y-109994332D01*
X154907663Y-110048924D01*
X154908626Y-110055449D01*
X154916191Y-110117960D01*
X154918875Y-110125062D01*
X154919719Y-110128500D01*
X154923583Y-110142623D01*
X154924613Y-110146034D01*
X154925919Y-110153517D01*
X154928972Y-110160472D01*
X154951239Y-110211198D01*
X154953730Y-110217304D01*
X154975994Y-110276222D01*
X154980293Y-110282477D01*
X154981935Y-110285618D01*
X154989033Y-110298372D01*
X154990870Y-110301478D01*
X154993923Y-110308433D01*
X154998548Y-110314460D01*
X154998550Y-110314464D01*
X155032265Y-110358402D01*
X155036129Y-110363720D01*
X155071821Y-110415652D01*
X155117707Y-110456535D01*
X155122963Y-110461498D01*
X156413757Y-111752293D01*
X156447783Y-111814605D01*
X156449972Y-111828217D01*
X156456458Y-111889928D01*
X156458498Y-111896205D01*
X156458498Y-111896207D01*
X156470983Y-111934630D01*
X156515473Y-112071556D01*
X156518776Y-112077278D01*
X156518777Y-112077279D01*
X156528968Y-112094930D01*
X156610960Y-112236944D01*
X156738747Y-112378866D01*
X156837843Y-112450864D01*
X156848753Y-112458790D01*
X156893248Y-112491118D01*
X156899276Y-112493802D01*
X156899278Y-112493803D01*
X157061681Y-112566109D01*
X157067712Y-112568794D01*
X157161113Y-112588647D01*
X157248056Y-112607128D01*
X157248061Y-112607128D01*
X157254513Y-112608500D01*
X157445487Y-112608500D01*
X157451939Y-112607128D01*
X157451944Y-112607128D01*
X157538887Y-112588647D01*
X157632288Y-112568794D01*
X157638319Y-112566109D01*
X157800722Y-112493803D01*
X157800724Y-112493802D01*
X157806752Y-112491118D01*
X157851248Y-112458790D01*
X157862157Y-112450864D01*
X157961253Y-112378866D01*
X158089040Y-112236944D01*
X158171032Y-112094930D01*
X158176725Y-112085070D01*
X161672338Y-112085070D01*
X161672338Y-112094930D01*
X161691729Y-112341313D01*
X161693272Y-112351060D01*
X161750967Y-112591373D01*
X161754016Y-112600758D01*
X161848592Y-112829085D01*
X161853073Y-112837879D01*
X161979340Y-113043928D01*
X161987401Y-113049190D01*
X161997607Y-113043183D01*
X162937978Y-112102812D01*
X162944356Y-112091132D01*
X163674408Y-112091132D01*
X163674539Y-112092965D01*
X163678790Y-112099580D01*
X164620934Y-113041724D01*
X164634471Y-113049116D01*
X164639740Y-113045430D01*
X164766927Y-112837879D01*
X164771408Y-112829085D01*
X164865984Y-112600758D01*
X164869033Y-112591373D01*
X164926728Y-112351060D01*
X164928271Y-112341313D01*
X164947662Y-112094930D01*
X164947662Y-112085070D01*
X164928271Y-111838687D01*
X164926728Y-111828940D01*
X164869033Y-111588627D01*
X164865984Y-111579242D01*
X164771408Y-111350915D01*
X164766927Y-111342121D01*
X164640660Y-111136072D01*
X164632599Y-111130810D01*
X164622393Y-111136817D01*
X163682022Y-112077188D01*
X163674408Y-112091132D01*
X162944356Y-112091132D01*
X162945592Y-112088868D01*
X162945461Y-112087035D01*
X162941210Y-112080420D01*
X161999066Y-111138276D01*
X161985529Y-111130884D01*
X161980260Y-111134570D01*
X161853073Y-111342121D01*
X161848592Y-111350915D01*
X161754016Y-111579242D01*
X161750967Y-111588627D01*
X161693272Y-111828940D01*
X161691729Y-111838687D01*
X161672338Y-112085070D01*
X158176725Y-112085070D01*
X158181223Y-112077279D01*
X158181224Y-112077278D01*
X158184527Y-112071556D01*
X158243542Y-111889928D01*
X158245409Y-111890535D01*
X158274688Y-111836315D01*
X158336841Y-111802000D01*
X158407680Y-111806734D01*
X158424901Y-111814581D01*
X158432423Y-111818716D01*
X158725187Y-111934630D01*
X159030170Y-112012936D01*
X159342562Y-112052400D01*
X159657438Y-112052400D01*
X159969830Y-112012936D01*
X160274813Y-111934630D01*
X160567577Y-111818716D01*
X160575095Y-111814583D01*
X160840032Y-111668933D01*
X160840035Y-111668931D01*
X160843504Y-111667024D01*
X161098244Y-111481945D01*
X161327778Y-111266398D01*
X161528487Y-111023782D01*
X161691192Y-110767401D01*
X162350810Y-110767401D01*
X162356817Y-110777607D01*
X163297188Y-111717978D01*
X163311132Y-111725592D01*
X163312965Y-111725461D01*
X163319580Y-111721210D01*
X164261724Y-110779066D01*
X164269116Y-110765529D01*
X164265430Y-110760260D01*
X164057879Y-110633073D01*
X164049085Y-110628592D01*
X163820758Y-110534016D01*
X163811373Y-110530967D01*
X163571060Y-110473272D01*
X163561313Y-110471729D01*
X163314930Y-110452338D01*
X163305070Y-110452338D01*
X163058687Y-110471729D01*
X163048940Y-110473272D01*
X162808627Y-110530967D01*
X162799242Y-110534016D01*
X162570915Y-110628592D01*
X162562121Y-110633073D01*
X162356072Y-110759340D01*
X162350810Y-110767401D01*
X161691192Y-110767401D01*
X161697206Y-110757924D01*
X161698890Y-110754345D01*
X161698894Y-110754338D01*
X161829584Y-110476606D01*
X161829586Y-110476602D01*
X161831273Y-110473016D01*
X161835016Y-110461498D01*
X161923254Y-110189928D01*
X161928575Y-110173552D01*
X161987577Y-109864254D01*
X162007348Y-109550000D01*
X161987577Y-109235746D01*
X161928575Y-108926448D01*
X161841661Y-108658955D01*
X161832499Y-108630757D01*
X161832499Y-108630756D01*
X161831273Y-108626984D01*
X161790868Y-108541118D01*
X161698894Y-108345662D01*
X161698890Y-108345655D01*
X161697206Y-108342076D01*
X161528487Y-108076218D01*
X161525969Y-108073174D01*
X161525963Y-108073166D01*
X161524101Y-108070916D01*
X161523773Y-108070153D01*
X161523634Y-108069961D01*
X161523677Y-108069929D01*
X161496090Y-108005679D01*
X161507795Y-107935654D01*
X161555501Y-107883074D01*
X161621184Y-107864599D01*
X162216505Y-107864599D01*
X162284626Y-107884601D01*
X162305600Y-107901504D01*
X164352878Y-109948782D01*
X164386904Y-110011094D01*
X164389092Y-110024703D01*
X164406458Y-110189928D01*
X164465473Y-110371556D01*
X164560960Y-110536944D01*
X164688747Y-110678866D01*
X164787843Y-110750864D01*
X164799510Y-110759340D01*
X164843248Y-110791118D01*
X164849276Y-110793802D01*
X164849278Y-110793803D01*
X165011681Y-110866109D01*
X165017712Y-110868794D01*
X165111113Y-110888647D01*
X165198056Y-110907128D01*
X165198061Y-110907128D01*
X165204513Y-110908500D01*
X165395487Y-110908500D01*
X165401939Y-110907128D01*
X165401944Y-110907128D01*
X165488887Y-110888647D01*
X165582288Y-110868794D01*
X165588319Y-110866109D01*
X165750722Y-110793803D01*
X165750724Y-110793802D01*
X165756752Y-110791118D01*
X165800491Y-110759340D01*
X165812157Y-110750864D01*
X165911253Y-110678866D01*
X166039040Y-110536944D01*
X166134527Y-110371556D01*
X166193542Y-110189928D01*
X166213504Y-110000000D01*
X166193542Y-109810072D01*
X166134527Y-109628444D01*
X166122883Y-109608275D01*
X166042341Y-109468774D01*
X166039040Y-109463056D01*
X165911253Y-109321134D01*
X165756752Y-109208882D01*
X165750724Y-109206198D01*
X165750722Y-109206197D01*
X165588319Y-109133891D01*
X165588318Y-109133891D01*
X165582288Y-109131206D01*
X165488888Y-109111353D01*
X165401944Y-109092872D01*
X165401939Y-109092872D01*
X165395487Y-109091500D01*
X165339595Y-109091500D01*
X165271474Y-109071498D01*
X165250500Y-109054595D01*
X163034751Y-106838846D01*
X163027211Y-106830560D01*
X163023099Y-106824081D01*
X162973447Y-106777455D01*
X162970606Y-106774701D01*
X162950869Y-106754964D01*
X162947672Y-106752484D01*
X162938650Y-106744779D01*
X162925221Y-106732168D01*
X162906420Y-106714513D01*
X162899474Y-106710694D01*
X162899471Y-106710692D01*
X162888665Y-106704751D01*
X162872146Y-106693900D01*
X162871682Y-106693540D01*
X162856140Y-106681485D01*
X162848871Y-106678340D01*
X162848867Y-106678337D01*
X162815562Y-106663925D01*
X162804912Y-106658708D01*
X162766159Y-106637404D01*
X162746536Y-106632366D01*
X162727833Y-106625962D01*
X162716519Y-106621066D01*
X162716518Y-106621066D01*
X162709244Y-106617918D01*
X162701421Y-106616679D01*
X162701411Y-106616676D01*
X162665575Y-106611000D01*
X162653955Y-106608594D01*
X162618810Y-106599571D01*
X162618809Y-106599571D01*
X162611129Y-106597599D01*
X162590875Y-106597599D01*
X162571164Y-106596048D01*
X162558985Y-106594119D01*
X162551156Y-106592879D01*
X162521885Y-106595646D01*
X162507138Y-106597040D01*
X162495280Y-106597599D01*
X157947668Y-106597599D01*
X157936485Y-106597072D01*
X157928992Y-106595397D01*
X157921066Y-106595646D01*
X157921065Y-106595646D01*
X157860902Y-106597537D01*
X157856944Y-106597599D01*
X157829045Y-106597599D01*
X157825055Y-106598103D01*
X157813221Y-106599035D01*
X157769012Y-106600425D01*
X157761398Y-106602637D01*
X157761393Y-106602638D01*
X157749560Y-106606076D01*
X157730197Y-106610087D01*
X157710104Y-106612625D01*
X157702737Y-106615542D01*
X157702732Y-106615543D01*
X157668993Y-106628901D01*
X157657766Y-106632745D01*
X157615308Y-106645081D01*
X157608482Y-106649118D01*
X157597873Y-106655392D01*
X157580125Y-106664087D01*
X157561284Y-106671547D01*
X157554868Y-106676209D01*
X157554867Y-106676209D01*
X157525514Y-106697535D01*
X157515594Y-106704051D01*
X157484366Y-106722519D01*
X157484363Y-106722521D01*
X157477539Y-106726557D01*
X157463218Y-106740878D01*
X157448185Y-106753718D01*
X157431794Y-106765627D01*
X157426741Y-106771735D01*
X157426739Y-106771737D01*
X157406819Y-106795816D01*
X157347985Y-106835554D01*
X157309735Y-106841500D01*
X157254513Y-106841500D01*
X157248061Y-106842872D01*
X157248056Y-106842872D01*
X157161112Y-106861353D01*
X157067712Y-106881206D01*
X157061682Y-106883891D01*
X157061681Y-106883891D01*
X156899278Y-106956197D01*
X156899276Y-106956198D01*
X156893248Y-106958882D01*
X156738747Y-107071134D01*
X156610960Y-107213056D01*
X156607659Y-107218774D01*
X156534119Y-107346148D01*
X156482736Y-107395141D01*
X156413023Y-107408577D01*
X156347112Y-107382191D01*
X156305930Y-107324358D01*
X156299000Y-107283148D01*
X156299000Y-106829779D01*
X156319002Y-106761658D01*
X156331359Y-106745475D01*
X156339040Y-106736944D01*
X156416582Y-106602638D01*
X156431223Y-106577279D01*
X156431224Y-106577278D01*
X156434527Y-106571556D01*
X156493542Y-106389928D01*
X156513504Y-106200000D01*
X156493542Y-106010072D01*
X156434527Y-105828444D01*
X156339040Y-105663056D01*
X156319952Y-105641856D01*
X156215675Y-105526045D01*
X156215674Y-105526044D01*
X156211253Y-105521134D01*
X156056752Y-105408882D01*
X156050724Y-105406198D01*
X156050722Y-105406197D01*
X155888319Y-105333891D01*
X155888318Y-105333891D01*
X155882288Y-105331206D01*
X155788888Y-105311353D01*
X155701944Y-105292872D01*
X155701939Y-105292872D01*
X155695487Y-105291500D01*
X155504513Y-105291500D01*
X155498061Y-105292872D01*
X155498056Y-105292872D01*
X155411112Y-105311353D01*
X155317712Y-105331206D01*
X155311682Y-105333891D01*
X155311681Y-105333891D01*
X155149278Y-105406197D01*
X155149276Y-105406198D01*
X155143248Y-105408882D01*
X154988747Y-105521134D01*
X154984326Y-105526044D01*
X154984325Y-105526045D01*
X154880049Y-105641856D01*
X154860960Y-105663056D01*
X154765473Y-105828444D01*
X154706458Y-106010072D01*
X154686496Y-106200000D01*
X150508000Y-106200000D01*
X150508000Y-103700000D01*
X152436496Y-103700000D01*
X152456458Y-103889928D01*
X152515473Y-104071556D01*
X152518776Y-104077278D01*
X152518777Y-104077279D01*
X152530896Y-104098270D01*
X152610960Y-104236944D01*
X152615378Y-104241851D01*
X152615379Y-104241852D01*
X152658667Y-104289928D01*
X152738747Y-104378866D01*
X152893248Y-104491118D01*
X152899276Y-104493802D01*
X152899278Y-104493803D01*
X153061681Y-104566109D01*
X153067712Y-104568794D01*
X153155956Y-104587551D01*
X153248056Y-104607128D01*
X153248061Y-104607128D01*
X153254513Y-104608500D01*
X153445487Y-104608500D01*
X153451939Y-104607128D01*
X153451944Y-104607128D01*
X153544044Y-104587551D01*
X153632288Y-104568794D01*
X153638319Y-104566109D01*
X153800724Y-104493802D01*
X153800725Y-104493801D01*
X153806752Y-104491118D01*
X153812027Y-104487286D01*
X153880992Y-104470553D01*
X153937970Y-104487283D01*
X153943248Y-104491118D01*
X153949275Y-104493801D01*
X153949276Y-104493802D01*
X154111681Y-104566109D01*
X154117712Y-104568794D01*
X154205956Y-104587551D01*
X154298056Y-104607128D01*
X154298061Y-104607128D01*
X154304513Y-104608500D01*
X154377620Y-104608500D01*
X154438331Y-104624091D01*
X154442441Y-104626351D01*
X154458956Y-104637199D01*
X154474959Y-104649613D01*
X154515543Y-104667176D01*
X154526173Y-104672383D01*
X154564940Y-104693695D01*
X154572617Y-104695666D01*
X154572622Y-104695668D01*
X154584558Y-104698732D01*
X154603266Y-104705137D01*
X154621855Y-104713181D01*
X154629680Y-104714420D01*
X154629682Y-104714421D01*
X154665519Y-104720097D01*
X154677140Y-104722504D01*
X154712289Y-104731528D01*
X154719970Y-104733500D01*
X154740231Y-104733500D01*
X154759940Y-104735051D01*
X154779943Y-104738219D01*
X154787835Y-104737473D01*
X154793062Y-104736979D01*
X154823954Y-104734059D01*
X154835811Y-104733500D01*
X156491800Y-104733500D01*
X156559921Y-104753502D01*
X156579147Y-104769843D01*
X156579420Y-104769540D01*
X156584332Y-104773963D01*
X156588747Y-104778866D01*
X156743248Y-104891118D01*
X156749276Y-104893802D01*
X156749278Y-104893803D01*
X156911681Y-104966109D01*
X156917712Y-104968794D01*
X157011112Y-104988647D01*
X157098056Y-105007128D01*
X157098061Y-105007128D01*
X157104513Y-105008500D01*
X157295487Y-105008500D01*
X157301939Y-105007128D01*
X157301944Y-105007128D01*
X157388888Y-104988647D01*
X157482288Y-104968794D01*
X157488319Y-104966109D01*
X157650722Y-104893803D01*
X157650724Y-104893802D01*
X157656752Y-104891118D01*
X157811253Y-104778866D01*
X157847852Y-104738219D01*
X157934621Y-104641852D01*
X157934622Y-104641851D01*
X157939040Y-104636944D01*
X158034527Y-104471556D01*
X158093542Y-104289928D01*
X158102231Y-104207259D01*
X158129245Y-104141602D01*
X158187466Y-104100973D01*
X158258411Y-104098270D01*
X158316636Y-104131335D01*
X159093190Y-104907889D01*
X159127216Y-104970201D01*
X159129404Y-104983810D01*
X159146770Y-105149035D01*
X159205785Y-105330663D01*
X159301272Y-105496051D01*
X159305690Y-105500958D01*
X159305691Y-105500959D01*
X159323857Y-105521134D01*
X159429059Y-105637973D01*
X159583560Y-105750225D01*
X159589588Y-105752909D01*
X159589590Y-105752910D01*
X159746389Y-105822721D01*
X159758024Y-105827901D01*
X159851425Y-105847754D01*
X159938368Y-105866235D01*
X159938373Y-105866235D01*
X159944825Y-105867607D01*
X160135799Y-105867607D01*
X160142251Y-105866235D01*
X160142256Y-105866235D01*
X160229199Y-105847754D01*
X160322600Y-105827901D01*
X160334235Y-105822721D01*
X160491034Y-105752910D01*
X160491036Y-105752909D01*
X160497064Y-105750225D01*
X160651565Y-105637973D01*
X160756767Y-105521134D01*
X160774933Y-105500959D01*
X160774934Y-105500958D01*
X160779352Y-105496051D01*
X160874839Y-105330663D01*
X160933854Y-105149035D01*
X160953816Y-104959107D01*
X160933854Y-104769179D01*
X160874839Y-104587551D01*
X160862460Y-104566109D01*
X160816955Y-104487293D01*
X160779352Y-104422163D01*
X160735946Y-104373955D01*
X160655987Y-104285152D01*
X160655986Y-104285151D01*
X160651565Y-104280241D01*
X160497064Y-104167989D01*
X160491036Y-104165305D01*
X160491034Y-104165304D01*
X160328631Y-104092998D01*
X160328630Y-104092998D01*
X160322600Y-104090313D01*
X160229200Y-104070460D01*
X160142256Y-104051979D01*
X160142251Y-104051979D01*
X160135799Y-104050607D01*
X160079907Y-104050607D01*
X160011786Y-104030605D01*
X159990812Y-104013702D01*
X158559856Y-102582746D01*
X158552316Y-102574460D01*
X158548204Y-102567981D01*
X158498552Y-102521355D01*
X158495711Y-102518601D01*
X158475974Y-102498864D01*
X158472777Y-102496384D01*
X158463755Y-102488679D01*
X158450320Y-102476063D01*
X158431525Y-102458413D01*
X158424579Y-102454594D01*
X158424576Y-102454592D01*
X158413770Y-102448651D01*
X158397251Y-102437800D01*
X158396787Y-102437440D01*
X158381245Y-102425385D01*
X158373976Y-102422240D01*
X158373972Y-102422237D01*
X158340667Y-102407825D01*
X158330017Y-102402608D01*
X158291264Y-102381304D01*
X158271641Y-102376266D01*
X158252938Y-102369862D01*
X158241624Y-102364966D01*
X158241623Y-102364966D01*
X158234349Y-102361818D01*
X158226526Y-102360579D01*
X158226516Y-102360576D01*
X158190680Y-102354900D01*
X158179060Y-102352494D01*
X158143915Y-102343471D01*
X158143914Y-102343471D01*
X158136234Y-102341499D01*
X158115980Y-102341499D01*
X158096269Y-102339948D01*
X158084090Y-102338019D01*
X158076261Y-102336779D01*
X158046990Y-102339546D01*
X158032243Y-102340940D01*
X158020385Y-102341499D01*
X156179723Y-102341499D01*
X156111602Y-102321497D01*
X156065109Y-102267841D01*
X156055005Y-102197567D01*
X156069308Y-102154798D01*
X156108006Y-102084407D01*
X156112834Y-102073142D01*
X156168880Y-101896462D01*
X156171430Y-101884468D01*
X156187607Y-101740239D01*
X156188000Y-101733215D01*
X156188000Y-101516804D01*
X156208002Y-101448683D01*
X156261658Y-101402190D01*
X156331932Y-101392086D01*
X156348440Y-101395925D01*
X156351016Y-101397072D01*
X156416815Y-101411058D01*
X156515939Y-101432128D01*
X156515943Y-101432128D01*
X156522396Y-101433500D01*
X156697604Y-101433500D01*
X156704057Y-101432128D01*
X156704061Y-101432128D01*
X156803185Y-101411058D01*
X156868984Y-101397072D01*
X156880183Y-101392086D01*
X157023016Y-101328493D01*
X157023018Y-101328492D01*
X157029046Y-101325808D01*
X157076793Y-101291118D01*
X157165453Y-101226702D01*
X157170792Y-101222823D01*
X157210372Y-101178866D01*
X157283611Y-101097526D01*
X157283612Y-101097525D01*
X157288030Y-101092618D01*
X157291331Y-101086901D01*
X157291333Y-101086898D01*
X157372331Y-100946603D01*
X157375634Y-100940882D01*
X157377910Y-100933879D01*
X157421433Y-100799929D01*
X157429777Y-100774249D01*
X157431731Y-100755664D01*
X157447401Y-100606565D01*
X157448091Y-100600000D01*
X157444336Y-100564276D01*
X157430468Y-100432321D01*
X157430467Y-100432317D01*
X157429777Y-100425751D01*
X157375634Y-100259118D01*
X157348632Y-100212349D01*
X157291333Y-100113102D01*
X157291330Y-100113098D01*
X157288030Y-100107382D01*
X157259647Y-100075860D01*
X157175207Y-99982080D01*
X157175205Y-99982079D01*
X157170792Y-99977177D01*
X157102637Y-99927659D01*
X157034388Y-99878073D01*
X157034387Y-99878072D01*
X157029046Y-99874192D01*
X157023018Y-99871508D01*
X157023016Y-99871507D01*
X156875015Y-99805613D01*
X156875014Y-99805613D01*
X156868984Y-99802928D01*
X156783294Y-99784714D01*
X156704061Y-99767872D01*
X156704057Y-99767872D01*
X156697604Y-99766500D01*
X156522396Y-99766500D01*
X156515943Y-99767872D01*
X156515939Y-99767872D01*
X156436706Y-99784714D01*
X156351016Y-99802928D01*
X156344987Y-99805613D01*
X156344985Y-99805613D01*
X156196985Y-99871507D01*
X156196983Y-99871508D01*
X156190955Y-99874192D01*
X156115955Y-99928683D01*
X156107889Y-99934543D01*
X156041021Y-99958402D01*
X155971870Y-99942321D01*
X155936185Y-99912243D01*
X155902603Y-99871068D01*
X155893959Y-99862363D01*
X155751144Y-99744216D01*
X155740973Y-99737356D01*
X155577924Y-99649196D01*
X155566619Y-99644444D01*
X155451308Y-99608750D01*
X155437205Y-99608544D01*
X155434000Y-99615299D01*
X155434000Y-101258000D01*
X155413998Y-101326121D01*
X155360342Y-101372614D01*
X155308000Y-101384000D01*
X154190115Y-101384000D01*
X154174876Y-101388475D01*
X154173671Y-101389865D01*
X154172000Y-101397548D01*
X154172000Y-101726657D01*
X154172301Y-101732805D01*
X154185812Y-101870603D01*
X154188195Y-101882638D01*
X154241767Y-102060076D01*
X154246443Y-102071421D01*
X154291598Y-102156347D01*
X154305917Y-102225884D01*
X154280369Y-102292125D01*
X154223064Y-102334037D01*
X154180346Y-102341499D01*
X154153768Y-102341499D01*
X154142585Y-102340972D01*
X154135092Y-102339297D01*
X154127166Y-102339546D01*
X154127165Y-102339546D01*
X154067015Y-102341437D01*
X154063056Y-102341499D01*
X154035145Y-102341499D01*
X154031211Y-102341996D01*
X154031210Y-102341996D01*
X154031145Y-102342004D01*
X154019308Y-102342937D01*
X153987491Y-102343937D01*
X153983030Y-102344077D01*
X153975111Y-102344326D01*
X153957455Y-102349455D01*
X153955659Y-102349977D01*
X153936307Y-102353985D01*
X153929236Y-102354879D01*
X153916204Y-102356525D01*
X153908835Y-102359442D01*
X153908833Y-102359443D01*
X153875098Y-102372799D01*
X153863870Y-102376644D01*
X153821408Y-102388981D01*
X153814586Y-102393015D01*
X153814580Y-102393018D01*
X153803969Y-102399293D01*
X153786219Y-102407989D01*
X153774757Y-102412527D01*
X153774752Y-102412530D01*
X153767384Y-102415447D01*
X153749971Y-102428098D01*
X153731626Y-102441426D01*
X153721708Y-102447942D01*
X153710464Y-102454592D01*
X153683638Y-102470457D01*
X153669314Y-102484781D01*
X153654282Y-102497620D01*
X153637894Y-102509527D01*
X153609713Y-102543592D01*
X153601723Y-102552372D01*
X153399500Y-102754595D01*
X153337188Y-102788621D01*
X153310405Y-102791500D01*
X153254513Y-102791500D01*
X153248061Y-102792872D01*
X153248056Y-102792872D01*
X153161113Y-102811353D01*
X153067712Y-102831206D01*
X153061682Y-102833891D01*
X153061681Y-102833891D01*
X152899278Y-102906197D01*
X152899276Y-102906198D01*
X152893248Y-102908882D01*
X152738747Y-103021134D01*
X152610960Y-103163056D01*
X152515473Y-103328444D01*
X152456458Y-103510072D01*
X152436496Y-103700000D01*
X150508000Y-103700000D01*
X150508000Y-101049327D01*
X150509500Y-101029943D01*
X150511805Y-101015142D01*
X150511805Y-101015138D01*
X150513186Y-101006269D01*
X150512022Y-100997367D01*
X150512022Y-100997363D01*
X150512009Y-100997267D01*
X150511738Y-100966830D01*
X150518746Y-100904625D01*
X150525025Y-100877115D01*
X150527468Y-100870135D01*
X150552034Y-100799928D01*
X150564276Y-100774509D01*
X150607787Y-100705262D01*
X150625379Y-100683203D01*
X150683203Y-100625379D01*
X150705262Y-100607787D01*
X150774509Y-100564276D01*
X150799930Y-100552034D01*
X150877117Y-100525025D01*
X150904624Y-100518746D01*
X150928572Y-100516048D01*
X150960256Y-100512478D01*
X150975897Y-100511695D01*
X150984855Y-100511804D01*
X150993729Y-100513186D01*
X151025251Y-100509064D01*
X151041588Y-100508000D01*
X153516298Y-100508000D01*
X153517069Y-100508002D01*
X153594652Y-100508476D01*
X153603281Y-100506010D01*
X153603286Y-100506009D01*
X153623048Y-100500361D01*
X153639809Y-100496783D01*
X153660152Y-100493870D01*
X153660162Y-100493867D01*
X153669045Y-100492595D01*
X153692395Y-100481979D01*
X153709907Y-100475536D01*
X153725937Y-100470954D01*
X153734565Y-100468488D01*
X153759548Y-100452726D01*
X153774614Y-100444596D01*
X153801510Y-100432367D01*
X153820939Y-100415626D01*
X153835947Y-100404521D01*
X153850039Y-100395630D01*
X153857631Y-100390840D01*
X153877182Y-100368703D01*
X153889374Y-100356659D01*
X153904949Y-100343239D01*
X153904950Y-100343237D01*
X153911747Y-100337381D01*
X153916626Y-100329853D01*
X153916629Y-100329850D01*
X153925696Y-100315861D01*
X153936986Y-100300987D01*
X153948012Y-100288502D01*
X153953956Y-100281772D01*
X153957773Y-100273643D01*
X153962698Y-100266145D01*
X153965620Y-100268064D01*
X154001529Y-100227482D01*
X154069854Y-100208189D01*
X154137763Y-100228897D01*
X154183696Y-100283033D01*
X154191791Y-100360380D01*
X154188571Y-100375530D01*
X154172393Y-100519761D01*
X154172000Y-100526785D01*
X154172000Y-100857885D01*
X154176475Y-100873124D01*
X154177865Y-100874329D01*
X154185548Y-100876000D01*
X154907885Y-100876000D01*
X154923124Y-100871525D01*
X154924329Y-100870135D01*
X154926000Y-100862452D01*
X154926000Y-99622076D01*
X154922027Y-99608545D01*
X154914232Y-99607425D01*
X154806479Y-99639138D01*
X154795111Y-99643731D01*
X154630846Y-99729607D01*
X154620585Y-99736321D01*
X154476127Y-99852468D01*
X154467368Y-99861046D01*
X154348222Y-100003039D01*
X154341292Y-100013160D01*
X154267494Y-100147397D01*
X154217149Y-100197456D01*
X154147732Y-100212349D01*
X154081283Y-100187348D01*
X154038899Y-100130391D01*
X154033270Y-100075864D01*
X154032587Y-100075860D01*
X154032625Y-100069617D01*
X154032797Y-100041444D01*
X154032830Y-100040672D01*
X154033000Y-100039577D01*
X154033000Y-100008702D01*
X154033002Y-100007932D01*
X154033452Y-99934284D01*
X154033452Y-99934283D01*
X154033476Y-99930348D01*
X154033092Y-99929004D01*
X154033000Y-99927659D01*
X154033000Y-97745352D01*
X154053002Y-97677231D01*
X154106658Y-97630738D01*
X154176932Y-97620634D01*
X154241512Y-97650128D01*
X154270252Y-97686199D01*
X154333460Y-97805077D01*
X154340249Y-97815294D01*
X154457397Y-97958933D01*
X154466041Y-97967637D01*
X154608856Y-98085784D01*
X154619027Y-98092644D01*
X154782076Y-98180804D01*
X154793381Y-98185556D01*
X154908692Y-98221250D01*
X154922795Y-98221456D01*
X154926000Y-98214701D01*
X154926000Y-97217548D01*
X155434000Y-97217548D01*
X155434000Y-98207924D01*
X155437973Y-98221455D01*
X155445768Y-98222575D01*
X155553521Y-98190862D01*
X155564889Y-98186269D01*
X155729154Y-98100393D01*
X155739415Y-98093679D01*
X155883873Y-97977532D01*
X155892632Y-97968954D01*
X156011778Y-97826961D01*
X156018708Y-97816841D01*
X156108002Y-97654415D01*
X156112834Y-97643142D01*
X156168880Y-97466462D01*
X156171430Y-97454468D01*
X156187607Y-97310239D01*
X156188000Y-97303215D01*
X156188000Y-97222115D01*
X156183525Y-97206876D01*
X156182135Y-97205671D01*
X156174452Y-97204000D01*
X155452115Y-97204000D01*
X155436876Y-97208475D01*
X155435671Y-97209865D01*
X155434000Y-97217548D01*
X154926000Y-97217548D01*
X154926000Y-96822000D01*
X154946002Y-96753879D01*
X154999658Y-96707386D01*
X155052000Y-96696000D01*
X156169885Y-96696000D01*
X156185124Y-96691525D01*
X156186329Y-96690135D01*
X156188000Y-96682452D01*
X156188000Y-96603343D01*
X156187699Y-96597195D01*
X156174188Y-96459392D01*
X156172026Y-96448474D01*
X156178415Y-96377765D01*
X156222018Y-96321736D01*
X156295626Y-96298000D01*
X162704332Y-96298000D01*
X162772453Y-96318002D01*
G37*
%TD.AperFunction*%
%TD*%
M02*
