%TF.GenerationSoftware,KiCad,Pcbnew,(5.99.0-12118-g897269f33f)*%
%TF.CreationDate,2021-09-15T19:12:53-04:00*%
%TF.ProjectId,why,7768792e-6b69-4636-9164-5f7063625858,rev?*%
%TF.SameCoordinates,Original*%
%TF.FileFunction,Soldermask,Top*%
%TF.FilePolarity,Negative*%
%FSLAX46Y46*%
G04 Gerber Fmt 4.6, Leading zero omitted, Abs format (unit mm)*
G04 Created by KiCad (PCBNEW (5.99.0-12118-g897269f33f)) date 2021-09-15 19:12:53*
%MOMM*%
%LPD*%
G01*
G04 APERTURE LIST*
%ADD10C,0.010000*%
%ADD11O,1.000000X1.600000*%
%ADD12O,1.000000X2.100000*%
%ADD13C,0.650000*%
%ADD14C,3.987800*%
G04 APERTURE END LIST*
D10*
%TO.C,G\u002A\u002A\u002A*%
X168422630Y-100707284D02*
X168476939Y-100754083D01*
X168476939Y-100754083D02*
X168540572Y-100875123D01*
X168540572Y-100875123D02*
X168521372Y-100998141D01*
X168521372Y-100998141D02*
X168451750Y-101086322D01*
X168451750Y-101086322D02*
X168335165Y-101181003D01*
X168335165Y-101181003D02*
X168267791Y-101211360D01*
X168267791Y-101211360D02*
X168250667Y-101188140D01*
X168250667Y-101188140D02*
X168282651Y-101135400D01*
X168282651Y-101135400D02*
X168352945Y-101077269D01*
X168352945Y-101077269D02*
X168456925Y-100983930D01*
X168456925Y-100983930D02*
X168477078Y-100893971D01*
X168477078Y-100893971D02*
X168432438Y-100822152D01*
X168432438Y-100822152D02*
X168331348Y-100772997D01*
X168331348Y-100772997D02*
X168233154Y-100777846D01*
X168233154Y-100777846D02*
X168148089Y-100791143D01*
X168148089Y-100791143D02*
X168136579Y-100779605D01*
X168136579Y-100779605D02*
X168184674Y-100739419D01*
X168184674Y-100739419D02*
X168309575Y-100681435D01*
X168309575Y-100681435D02*
X168422630Y-100707284D01*
X168422630Y-100707284D02*
X168422630Y-100707284D01*
G36*
X168422630Y-100707284D02*
G01*
X168476939Y-100754083D01*
X168540572Y-100875123D01*
X168521372Y-100998141D01*
X168451750Y-101086322D01*
X168335165Y-101181003D01*
X168267791Y-101211360D01*
X168250667Y-101188140D01*
X168282651Y-101135400D01*
X168352945Y-101077269D01*
X168456925Y-100983930D01*
X168477078Y-100893971D01*
X168432438Y-100822152D01*
X168331348Y-100772997D01*
X168233154Y-100777846D01*
X168148089Y-100791143D01*
X168136579Y-100779605D01*
X168184674Y-100739419D01*
X168309575Y-100681435D01*
X168422630Y-100707284D01*
G37*
X168422630Y-100707284D02*
X168476939Y-100754083D01*
X168540572Y-100875123D01*
X168521372Y-100998141D01*
X168451750Y-101086322D01*
X168335165Y-101181003D01*
X168267791Y-101211360D01*
X168250667Y-101188140D01*
X168282651Y-101135400D01*
X168352945Y-101077269D01*
X168456925Y-100983930D01*
X168477078Y-100893971D01*
X168432438Y-100822152D01*
X168331348Y-100772997D01*
X168233154Y-100777846D01*
X168148089Y-100791143D01*
X168136579Y-100779605D01*
X168184674Y-100739419D01*
X168309575Y-100681435D01*
X168422630Y-100707284D01*
X168291770Y-101343881D02*
X168293000Y-101354000D01*
X168293000Y-101354000D02*
X168260785Y-101395103D01*
X168260785Y-101395103D02*
X168250667Y-101396333D01*
X168250667Y-101396333D02*
X168209563Y-101364118D01*
X168209563Y-101364118D02*
X168208333Y-101354000D01*
X168208333Y-101354000D02*
X168240548Y-101312896D01*
X168240548Y-101312896D02*
X168250667Y-101311666D01*
X168250667Y-101311666D02*
X168291770Y-101343881D01*
X168291770Y-101343881D02*
X168291770Y-101343881D01*
G36*
X168291770Y-101343881D02*
G01*
X168293000Y-101354000D01*
X168260785Y-101395103D01*
X168250667Y-101396333D01*
X168209563Y-101364118D01*
X168208333Y-101354000D01*
X168240548Y-101312896D01*
X168250667Y-101311666D01*
X168291770Y-101343881D01*
G37*
X168291770Y-101343881D02*
X168293000Y-101354000D01*
X168260785Y-101395103D01*
X168250667Y-101396333D01*
X168209563Y-101364118D01*
X168208333Y-101354000D01*
X168240548Y-101312896D01*
X168250667Y-101311666D01*
X168291770Y-101343881D01*
X167134234Y-100671876D02*
X167148955Y-100765605D01*
X167148955Y-100765605D02*
X167150000Y-100802759D01*
X167150000Y-100802759D02*
X167153172Y-100909105D01*
X167153172Y-100909105D02*
X167172956Y-100948023D01*
X167172956Y-100948023D02*
X167224752Y-100936740D01*
X167224752Y-100936740D02*
X167256981Y-100922440D01*
X167256981Y-100922440D02*
X167346940Y-100896817D01*
X167346940Y-100896817D02*
X167407549Y-100924788D01*
X167407549Y-100924788D02*
X167447421Y-101016666D01*
X167447421Y-101016666D02*
X167475166Y-101182767D01*
X167475166Y-101182767D02*
X167475306Y-101183952D01*
X167475306Y-101183952D02*
X167486316Y-101317233D01*
X167486316Y-101317233D02*
X167477626Y-101377898D01*
X167477626Y-101377898D02*
X167453015Y-101379296D01*
X167453015Y-101379296D02*
X167423178Y-101321751D01*
X167423178Y-101321751D02*
X167405805Y-101212586D01*
X167405805Y-101212586D02*
X167404000Y-101161001D01*
X167404000Y-101161001D02*
X167393340Y-101030233D01*
X167393340Y-101030233D02*
X167360141Y-100975517D01*
X167360141Y-100975517D02*
X167347061Y-100973000D01*
X167347061Y-100973000D02*
X167259656Y-101010763D01*
X167259656Y-101010763D02*
X167188293Y-101105848D01*
X167188293Y-101105848D02*
X167151585Y-101230952D01*
X167151585Y-101230952D02*
X167150000Y-101262083D01*
X167150000Y-101262083D02*
X167138350Y-101354340D01*
X167138350Y-101354340D02*
X167110066Y-101396118D01*
X167110066Y-101396118D02*
X167107667Y-101396333D01*
X167107667Y-101396333D02*
X167087382Y-101356370D01*
X167087382Y-101356370D02*
X167072913Y-101245745D01*
X167072913Y-101245745D02*
X167065802Y-101078358D01*
X167065802Y-101078358D02*
X167065333Y-101015333D01*
X167065333Y-101015333D02*
X167069774Y-100832773D01*
X167069774Y-100832773D02*
X167082065Y-100702548D01*
X167082065Y-100702548D02*
X167100664Y-100638553D01*
X167100664Y-100638553D02*
X167107667Y-100634333D01*
X167107667Y-100634333D02*
X167134234Y-100671876D01*
X167134234Y-100671876D02*
X167134234Y-100671876D01*
G36*
X167134234Y-100671876D02*
G01*
X167148955Y-100765605D01*
X167150000Y-100802759D01*
X167153172Y-100909105D01*
X167172956Y-100948023D01*
X167224752Y-100936740D01*
X167256981Y-100922440D01*
X167346940Y-100896817D01*
X167407549Y-100924788D01*
X167447421Y-101016666D01*
X167475166Y-101182767D01*
X167475306Y-101183952D01*
X167486316Y-101317233D01*
X167477626Y-101377898D01*
X167453015Y-101379296D01*
X167423178Y-101321751D01*
X167405805Y-101212586D01*
X167404000Y-101161001D01*
X167393340Y-101030233D01*
X167360141Y-100975517D01*
X167347061Y-100973000D01*
X167259656Y-101010763D01*
X167188293Y-101105848D01*
X167151585Y-101230952D01*
X167150000Y-101262083D01*
X167138350Y-101354340D01*
X167110066Y-101396118D01*
X167107667Y-101396333D01*
X167087382Y-101356370D01*
X167072913Y-101245745D01*
X167065802Y-101078358D01*
X167065333Y-101015333D01*
X167069774Y-100832773D01*
X167082065Y-100702548D01*
X167100664Y-100638553D01*
X167107667Y-100634333D01*
X167134234Y-100671876D01*
G37*
X167134234Y-100671876D02*
X167148955Y-100765605D01*
X167150000Y-100802759D01*
X167153172Y-100909105D01*
X167172956Y-100948023D01*
X167224752Y-100936740D01*
X167256981Y-100922440D01*
X167346940Y-100896817D01*
X167407549Y-100924788D01*
X167447421Y-101016666D01*
X167475166Y-101182767D01*
X167475306Y-101183952D01*
X167486316Y-101317233D01*
X167477626Y-101377898D01*
X167453015Y-101379296D01*
X167423178Y-101321751D01*
X167405805Y-101212586D01*
X167404000Y-101161001D01*
X167393340Y-101030233D01*
X167360141Y-100975517D01*
X167347061Y-100973000D01*
X167259656Y-101010763D01*
X167188293Y-101105848D01*
X167151585Y-101230952D01*
X167150000Y-101262083D01*
X167138350Y-101354340D01*
X167110066Y-101396118D01*
X167107667Y-101396333D01*
X167087382Y-101356370D01*
X167072913Y-101245745D01*
X167065802Y-101078358D01*
X167065333Y-101015333D01*
X167069774Y-100832773D01*
X167082065Y-100702548D01*
X167100664Y-100638553D01*
X167107667Y-100634333D01*
X167134234Y-100671876D01*
X166922331Y-100679624D02*
X166932553Y-100698268D01*
X166932553Y-100698268D02*
X166923308Y-100747252D01*
X166923308Y-100747252D02*
X166891237Y-100841232D01*
X166891237Y-100841232D02*
X166832982Y-100994862D01*
X166832982Y-100994862D02*
X166808558Y-101058248D01*
X166808558Y-101058248D02*
X166729463Y-101252766D01*
X166729463Y-101252766D02*
X166669834Y-101372727D01*
X166669834Y-101372727D02*
X166625401Y-101424847D01*
X166625401Y-101424847D02*
X166591891Y-101415840D01*
X166591891Y-101415840D02*
X166586308Y-101407607D01*
X166586308Y-101407607D02*
X166568418Y-101349122D01*
X166568418Y-101349122D02*
X166545711Y-101239462D01*
X166545711Y-101239462D02*
X166536283Y-101184666D01*
X166536283Y-101184666D02*
X166504899Y-101023008D01*
X166504899Y-101023008D02*
X166473981Y-100944802D01*
X166473981Y-100944802D02*
X166439497Y-100948953D01*
X166439497Y-100948953D02*
X166397415Y-101034366D01*
X166397415Y-101034366D02*
X166362652Y-101137506D01*
X166362652Y-101137506D02*
X166314789Y-101270660D01*
X166314789Y-101270660D02*
X166269133Y-101363995D01*
X166269133Y-101363995D02*
X166238080Y-101395971D01*
X166238080Y-101395971D02*
X166207132Y-101358212D01*
X166207132Y-101358212D02*
X166167528Y-101258623D01*
X166167528Y-101258623D02*
X166127583Y-101118323D01*
X166127583Y-101118323D02*
X166125717Y-101110583D01*
X166125717Y-101110583D02*
X166086840Y-100954927D01*
X166086840Y-100954927D02*
X166051368Y-100824927D01*
X166051368Y-100824927D02*
X166027691Y-100750750D01*
X166027691Y-100750750D02*
X166021727Y-100689531D01*
X166021727Y-100689531D02*
X166041951Y-100676666D01*
X166041951Y-100676666D02*
X166067540Y-100682520D01*
X166067540Y-100682520D02*
X166089422Y-100711097D01*
X166089422Y-100711097D02*
X166114281Y-100778916D01*
X166114281Y-100778916D02*
X166148802Y-100902498D01*
X166148802Y-100902498D02*
X166176895Y-101010134D01*
X166176895Y-101010134D02*
X166211107Y-101116934D01*
X166211107Y-101116934D02*
X166244472Y-101152990D01*
X166244472Y-101152990D02*
X166282566Y-101115004D01*
X166282566Y-101115004D02*
X166330966Y-100999682D01*
X166330966Y-100999682D02*
X166365032Y-100898916D01*
X166365032Y-100898916D02*
X166414685Y-100758767D01*
X166414685Y-100758767D02*
X166454124Y-100686958D01*
X166454124Y-100686958D02*
X166487646Y-100686845D01*
X166487646Y-100686845D02*
X166519548Y-100761786D01*
X166519548Y-100761786D02*
X166554127Y-100915137D01*
X166554127Y-100915137D02*
X166581763Y-101068250D01*
X166581763Y-101068250D02*
X166607390Y-101170066D01*
X166607390Y-101170066D02*
X166636823Y-101224274D01*
X166636823Y-101224274D02*
X166643670Y-101227000D01*
X166643670Y-101227000D02*
X166673138Y-101191124D01*
X166673138Y-101191124D02*
X166718803Y-101100633D01*
X166718803Y-101100633D02*
X166770075Y-100981225D01*
X166770075Y-100981225D02*
X166816362Y-100858602D01*
X166816362Y-100858602D02*
X166847073Y-100758464D01*
X166847073Y-100758464D02*
X166853667Y-100717411D01*
X166853667Y-100717411D02*
X166885929Y-100677839D01*
X166885929Y-100677839D02*
X166896000Y-100676666D01*
X166896000Y-100676666D02*
X166922331Y-100679624D01*
X166922331Y-100679624D02*
X166922331Y-100679624D01*
G36*
X166922331Y-100679624D02*
G01*
X166932553Y-100698268D01*
X166923308Y-100747252D01*
X166891237Y-100841232D01*
X166832982Y-100994862D01*
X166808558Y-101058248D01*
X166729463Y-101252766D01*
X166669834Y-101372727D01*
X166625401Y-101424847D01*
X166591891Y-101415840D01*
X166586308Y-101407607D01*
X166568418Y-101349122D01*
X166545711Y-101239462D01*
X166536283Y-101184666D01*
X166504899Y-101023008D01*
X166473981Y-100944802D01*
X166439497Y-100948953D01*
X166397415Y-101034366D01*
X166362652Y-101137506D01*
X166314789Y-101270660D01*
X166269133Y-101363995D01*
X166238080Y-101395971D01*
X166207132Y-101358212D01*
X166167528Y-101258623D01*
X166127583Y-101118323D01*
X166125717Y-101110583D01*
X166086840Y-100954927D01*
X166051368Y-100824927D01*
X166027691Y-100750750D01*
X166021727Y-100689531D01*
X166041951Y-100676666D01*
X166067540Y-100682520D01*
X166089422Y-100711097D01*
X166114281Y-100778916D01*
X166148802Y-100902498D01*
X166176895Y-101010134D01*
X166211107Y-101116934D01*
X166244472Y-101152990D01*
X166282566Y-101115004D01*
X166330966Y-100999682D01*
X166365032Y-100898916D01*
X166414685Y-100758767D01*
X166454124Y-100686958D01*
X166487646Y-100686845D01*
X166519548Y-100761786D01*
X166554127Y-100915137D01*
X166581763Y-101068250D01*
X166607390Y-101170066D01*
X166636823Y-101224274D01*
X166643670Y-101227000D01*
X166673138Y-101191124D01*
X166718803Y-101100633D01*
X166770075Y-100981225D01*
X166816362Y-100858602D01*
X166847073Y-100758464D01*
X166853667Y-100717411D01*
X166885929Y-100677839D01*
X166896000Y-100676666D01*
X166922331Y-100679624D01*
G37*
X166922331Y-100679624D02*
X166932553Y-100698268D01*
X166923308Y-100747252D01*
X166891237Y-100841232D01*
X166832982Y-100994862D01*
X166808558Y-101058248D01*
X166729463Y-101252766D01*
X166669834Y-101372727D01*
X166625401Y-101424847D01*
X166591891Y-101415840D01*
X166586308Y-101407607D01*
X166568418Y-101349122D01*
X166545711Y-101239462D01*
X166536283Y-101184666D01*
X166504899Y-101023008D01*
X166473981Y-100944802D01*
X166439497Y-100948953D01*
X166397415Y-101034366D01*
X166362652Y-101137506D01*
X166314789Y-101270660D01*
X166269133Y-101363995D01*
X166238080Y-101395971D01*
X166207132Y-101358212D01*
X166167528Y-101258623D01*
X166127583Y-101118323D01*
X166125717Y-101110583D01*
X166086840Y-100954927D01*
X166051368Y-100824927D01*
X166027691Y-100750750D01*
X166021727Y-100689531D01*
X166041951Y-100676666D01*
X166067540Y-100682520D01*
X166089422Y-100711097D01*
X166114281Y-100778916D01*
X166148802Y-100902498D01*
X166176895Y-101010134D01*
X166211107Y-101116934D01*
X166244472Y-101152990D01*
X166282566Y-101115004D01*
X166330966Y-100999682D01*
X166365032Y-100898916D01*
X166414685Y-100758767D01*
X166454124Y-100686958D01*
X166487646Y-100686845D01*
X166519548Y-100761786D01*
X166554127Y-100915137D01*
X166581763Y-101068250D01*
X166607390Y-101170066D01*
X166636823Y-101224274D01*
X166643670Y-101227000D01*
X166673138Y-101191124D01*
X166718803Y-101100633D01*
X166770075Y-100981225D01*
X166816362Y-100858602D01*
X166847073Y-100758464D01*
X166853667Y-100717411D01*
X166885929Y-100677839D01*
X166896000Y-100676666D01*
X166922331Y-100679624D01*
X167636289Y-100897458D02*
X167642797Y-100909500D01*
X167642797Y-100909500D02*
X167673476Y-100970642D01*
X167673476Y-100970642D02*
X167730126Y-101069323D01*
X167730126Y-101069323D02*
X167746478Y-101096431D01*
X167746478Y-101096431D02*
X167834620Y-101241029D01*
X167834620Y-101241029D02*
X167916396Y-101058377D01*
X167916396Y-101058377D02*
X167969071Y-100957577D01*
X167969071Y-100957577D02*
X168011850Y-100904949D01*
X168011850Y-100904949D02*
X168026054Y-100903609D01*
X168026054Y-100903609D02*
X168023154Y-100952503D01*
X168023154Y-100952503D02*
X167991246Y-101058644D01*
X167991246Y-101058644D02*
X167936612Y-101202318D01*
X167936612Y-101202318D02*
X167912708Y-101259163D01*
X167912708Y-101259163D02*
X167819343Y-101467655D01*
X167819343Y-101467655D02*
X167753103Y-101596791D01*
X167753103Y-101596791D02*
X167713572Y-101647276D01*
X167713572Y-101647276D02*
X167700334Y-101619813D01*
X167700334Y-101619813D02*
X167700333Y-101619222D01*
X167700333Y-101619222D02*
X167714464Y-101546203D01*
X167714464Y-101546203D02*
X167742374Y-101460603D01*
X167742374Y-101460603D02*
X167759708Y-101377226D01*
X167759708Y-101377226D02*
X167741554Y-101282548D01*
X167741554Y-101282548D02*
X167682112Y-101148210D01*
X167682112Y-101148210D02*
X167676027Y-101136138D01*
X167676027Y-101136138D02*
X167621968Y-101015512D01*
X167621968Y-101015512D02*
X167595041Y-100926341D01*
X167595041Y-100926341D02*
X167597449Y-100894707D01*
X167597449Y-100894707D02*
X167636289Y-100897458D01*
X167636289Y-100897458D02*
X167636289Y-100897458D01*
G36*
X167636289Y-100897458D02*
G01*
X167642797Y-100909500D01*
X167673476Y-100970642D01*
X167730126Y-101069323D01*
X167746478Y-101096431D01*
X167834620Y-101241029D01*
X167916396Y-101058377D01*
X167969071Y-100957577D01*
X168011850Y-100904949D01*
X168026054Y-100903609D01*
X168023154Y-100952503D01*
X167991246Y-101058644D01*
X167936612Y-101202318D01*
X167912708Y-101259163D01*
X167819343Y-101467655D01*
X167753103Y-101596791D01*
X167713572Y-101647276D01*
X167700334Y-101619813D01*
X167700333Y-101619222D01*
X167714464Y-101546203D01*
X167742374Y-101460603D01*
X167759708Y-101377226D01*
X167741554Y-101282548D01*
X167682112Y-101148210D01*
X167676027Y-101136138D01*
X167621968Y-101015512D01*
X167595041Y-100926341D01*
X167597449Y-100894707D01*
X167636289Y-100897458D01*
G37*
X167636289Y-100897458D02*
X167642797Y-100909500D01*
X167673476Y-100970642D01*
X167730126Y-101069323D01*
X167746478Y-101096431D01*
X167834620Y-101241029D01*
X167916396Y-101058377D01*
X167969071Y-100957577D01*
X168011850Y-100904949D01*
X168026054Y-100903609D01*
X168023154Y-100952503D01*
X167991246Y-101058644D01*
X167936612Y-101202318D01*
X167912708Y-101259163D01*
X167819343Y-101467655D01*
X167753103Y-101596791D01*
X167713572Y-101647276D01*
X167700334Y-101619813D01*
X167700333Y-101619222D01*
X167714464Y-101546203D01*
X167742374Y-101460603D01*
X167759708Y-101377226D01*
X167741554Y-101282548D01*
X167682112Y-101148210D01*
X167676027Y-101136138D01*
X167621968Y-101015512D01*
X167595041Y-100926341D01*
X167597449Y-100894707D01*
X167636289Y-100897458D01*
X166800097Y-115245042D02*
X166868123Y-115249729D01*
X166868123Y-115249729D02*
X166928540Y-115257827D01*
X166928540Y-115257827D02*
X166946371Y-115261313D01*
X166946371Y-115261313D02*
X167063122Y-115292966D01*
X167063122Y-115292966D02*
X167171645Y-115336198D01*
X167171645Y-115336198D02*
X167273058Y-115391619D01*
X167273058Y-115391619D02*
X167368480Y-115459839D01*
X167368480Y-115459839D02*
X167458751Y-115541192D01*
X167458751Y-115541192D02*
X167540226Y-115631820D01*
X167540226Y-115631820D02*
X167608417Y-115727761D01*
X167608417Y-115727761D02*
X167663823Y-115829955D01*
X167663823Y-115829955D02*
X167706941Y-115939342D01*
X167706941Y-115939342D02*
X167738270Y-116056862D01*
X167738270Y-116056862D02*
X167741941Y-116075029D01*
X167741941Y-116075029D02*
X167750078Y-116132434D01*
X167750078Y-116132434D02*
X167754627Y-116199044D01*
X167754627Y-116199044D02*
X167755626Y-116270103D01*
X167755626Y-116270103D02*
X167753115Y-116340850D01*
X167753115Y-116340850D02*
X167747131Y-116406529D01*
X167747131Y-116406529D02*
X167738805Y-116457396D01*
X167738805Y-116457396D02*
X167706289Y-116576816D01*
X167706289Y-116576816D02*
X167661098Y-116689732D01*
X167661098Y-116689732D02*
X167603796Y-116795396D01*
X167603796Y-116795396D02*
X167534948Y-116893059D01*
X167534948Y-116893059D02*
X167455116Y-116981974D01*
X167455116Y-116981974D02*
X167364864Y-117061392D01*
X167364864Y-117061392D02*
X167264756Y-117130565D01*
X167264756Y-117130565D02*
X167207014Y-117163282D01*
X167207014Y-117163282D02*
X167136804Y-117196060D01*
X167136804Y-117196060D02*
X167059215Y-117225153D01*
X167059215Y-117225153D02*
X166980679Y-117248356D01*
X166980679Y-117248356D02*
X166921286Y-117261232D01*
X166921286Y-117261232D02*
X166870545Y-117268241D01*
X166870545Y-117268241D02*
X166812723Y-117273199D01*
X166812723Y-117273199D02*
X166752645Y-117275926D01*
X166752645Y-117275926D02*
X166695133Y-117276241D01*
X166695133Y-117276241D02*
X166645010Y-117273964D01*
X166645010Y-117273964D02*
X166627372Y-117272198D01*
X166627372Y-117272198D02*
X166505844Y-117250336D01*
X166505844Y-117250336D02*
X166390309Y-117215611D01*
X166390309Y-117215611D02*
X166281464Y-117168677D01*
X166281464Y-117168677D02*
X166180010Y-117110188D01*
X166180010Y-117110188D02*
X166086646Y-117040796D01*
X166086646Y-117040796D02*
X166002072Y-116961156D01*
X166002072Y-116961156D02*
X165926988Y-116871919D01*
X165926988Y-116871919D02*
X165862093Y-116773739D01*
X165862093Y-116773739D02*
X165808087Y-116667269D01*
X165808087Y-116667269D02*
X165765670Y-116553163D01*
X165765670Y-116553163D02*
X165737332Y-116441251D01*
X165737332Y-116441251D02*
X165729490Y-116387110D01*
X165729490Y-116387110D02*
X165725026Y-116323467D01*
X165725026Y-116323467D02*
X165723897Y-116254929D01*
X165723897Y-116254929D02*
X165723963Y-116252829D01*
X165723963Y-116252829D02*
X166160438Y-116252829D01*
X166160438Y-116252829D02*
X166166380Y-116347367D01*
X166166380Y-116347367D02*
X166185533Y-116436056D01*
X166185533Y-116436056D02*
X166217791Y-116518647D01*
X166217791Y-116518647D02*
X166263051Y-116594893D01*
X166263051Y-116594893D02*
X166321205Y-116664544D01*
X166321205Y-116664544D02*
X166344384Y-116687130D01*
X166344384Y-116687130D02*
X166414591Y-116742459D01*
X166414591Y-116742459D02*
X166492031Y-116785850D01*
X166492031Y-116785850D02*
X166575105Y-116816882D01*
X166575105Y-116816882D02*
X166662214Y-116835137D01*
X166662214Y-116835137D02*
X166751760Y-116840193D01*
X166751760Y-116840193D02*
X166842144Y-116831632D01*
X166842144Y-116831632D02*
X166872037Y-116825712D01*
X166872037Y-116825712D02*
X166956950Y-116799403D01*
X166956950Y-116799403D02*
X167035847Y-116760495D01*
X167035847Y-116760495D02*
X167107606Y-116710054D01*
X167107606Y-116710054D02*
X167171106Y-116649146D01*
X167171106Y-116649146D02*
X167225226Y-116578836D01*
X167225226Y-116578836D02*
X167268845Y-116500190D01*
X167268845Y-116500190D02*
X167299230Y-116419743D01*
X167299230Y-116419743D02*
X167307854Y-116388813D01*
X167307854Y-116388813D02*
X167313579Y-116361502D01*
X167313579Y-116361502D02*
X167316984Y-116333156D01*
X167316984Y-116333156D02*
X167318651Y-116299123D01*
X167318651Y-116299123D02*
X167319142Y-116260086D01*
X167319142Y-116260086D02*
X167315378Y-116177913D01*
X167315378Y-116177913D02*
X167302780Y-116104558D01*
X167302780Y-116104558D02*
X167280378Y-116036642D01*
X167280378Y-116036642D02*
X167247206Y-115970785D01*
X167247206Y-115970785D02*
X167227076Y-115938768D01*
X167227076Y-115938768D02*
X167171531Y-115867467D01*
X167171531Y-115867467D02*
X167108521Y-115807659D01*
X167108521Y-115807659D02*
X167039342Y-115759264D01*
X167039342Y-115759264D02*
X166965292Y-115722203D01*
X166965292Y-115722203D02*
X166887666Y-115696398D01*
X166887666Y-115696398D02*
X166807761Y-115681769D01*
X166807761Y-115681769D02*
X166726874Y-115678238D01*
X166726874Y-115678238D02*
X166646302Y-115685724D01*
X166646302Y-115685724D02*
X166567340Y-115704150D01*
X166567340Y-115704150D02*
X166491286Y-115733437D01*
X166491286Y-115733437D02*
X166419437Y-115773505D01*
X166419437Y-115773505D02*
X166353088Y-115824275D01*
X166353088Y-115824275D02*
X166293537Y-115885668D01*
X166293537Y-115885668D02*
X166242079Y-115957606D01*
X166242079Y-115957606D02*
X166218408Y-116000226D01*
X166218408Y-116000226D02*
X166186944Y-116076692D01*
X166186944Y-116076692D02*
X166167811Y-116157835D01*
X166167811Y-116157835D02*
X166160522Y-116245779D01*
X166160522Y-116245779D02*
X166160438Y-116252829D01*
X166160438Y-116252829D02*
X165723963Y-116252829D01*
X165723963Y-116252829D02*
X165726063Y-116186101D01*
X165726063Y-116186101D02*
X165731479Y-116121587D01*
X165731479Y-116121587D02*
X165740106Y-116065992D01*
X165740106Y-116065992D02*
X165740781Y-116062776D01*
X165740781Y-116062776D02*
X165773684Y-115942128D01*
X165773684Y-115942128D02*
X165818862Y-115828766D01*
X165818862Y-115828766D02*
X165875701Y-115723310D01*
X165875701Y-115723310D02*
X165943585Y-115626378D01*
X165943585Y-115626378D02*
X166021896Y-115538591D01*
X166021896Y-115538591D02*
X166110019Y-115460568D01*
X166110019Y-115460568D02*
X166207337Y-115392928D01*
X166207337Y-115392928D02*
X166313234Y-115336290D01*
X166313234Y-115336290D02*
X166427095Y-115291276D01*
X166427095Y-115291276D02*
X166538735Y-115260574D01*
X166538735Y-115260574D02*
X166593782Y-115251534D01*
X166593782Y-115251534D02*
X166658585Y-115245937D01*
X166658585Y-115245937D02*
X166728804Y-115243775D01*
X166728804Y-115243775D02*
X166800097Y-115245042D01*
X166800097Y-115245042D02*
X166800097Y-115245042D01*
G36*
X165731479Y-116121587D02*
G01*
X165740106Y-116065992D01*
X165740781Y-116062776D01*
X165773684Y-115942128D01*
X165818862Y-115828766D01*
X165875701Y-115723310D01*
X165943585Y-115626378D01*
X166021896Y-115538591D01*
X166110019Y-115460568D01*
X166207337Y-115392928D01*
X166313234Y-115336290D01*
X166427095Y-115291276D01*
X166538735Y-115260574D01*
X166593782Y-115251534D01*
X166658585Y-115245937D01*
X166728804Y-115243775D01*
X166800097Y-115245042D01*
X166868123Y-115249729D01*
X166928540Y-115257827D01*
X166946371Y-115261313D01*
X167063122Y-115292966D01*
X167171645Y-115336198D01*
X167273058Y-115391619D01*
X167368480Y-115459839D01*
X167458751Y-115541192D01*
X167540226Y-115631820D01*
X167608417Y-115727761D01*
X167663823Y-115829955D01*
X167706941Y-115939342D01*
X167738270Y-116056862D01*
X167741941Y-116075029D01*
X167750078Y-116132434D01*
X167754627Y-116199044D01*
X167755626Y-116270103D01*
X167753115Y-116340850D01*
X167747131Y-116406529D01*
X167738805Y-116457396D01*
X167706289Y-116576816D01*
X167661098Y-116689732D01*
X167603796Y-116795396D01*
X167534948Y-116893059D01*
X167455116Y-116981974D01*
X167364864Y-117061392D01*
X167264756Y-117130565D01*
X167207014Y-117163282D01*
X167136804Y-117196060D01*
X167059215Y-117225153D01*
X166980679Y-117248356D01*
X166921286Y-117261232D01*
X166870545Y-117268241D01*
X166812723Y-117273199D01*
X166752645Y-117275926D01*
X166695133Y-117276241D01*
X166645010Y-117273964D01*
X166627372Y-117272198D01*
X166505844Y-117250336D01*
X166390309Y-117215611D01*
X166281464Y-117168677D01*
X166180010Y-117110188D01*
X166086646Y-117040796D01*
X166002072Y-116961156D01*
X165926988Y-116871919D01*
X165862093Y-116773739D01*
X165808087Y-116667269D01*
X165765670Y-116553163D01*
X165737332Y-116441251D01*
X165729490Y-116387110D01*
X165725026Y-116323467D01*
X165723897Y-116254929D01*
X165723963Y-116252829D01*
X166160438Y-116252829D01*
X166166380Y-116347367D01*
X166185533Y-116436056D01*
X166217791Y-116518647D01*
X166263051Y-116594893D01*
X166321205Y-116664544D01*
X166344384Y-116687130D01*
X166414591Y-116742459D01*
X166492031Y-116785850D01*
X166575105Y-116816882D01*
X166662214Y-116835137D01*
X166751760Y-116840193D01*
X166842144Y-116831632D01*
X166872037Y-116825712D01*
X166956950Y-116799403D01*
X167035847Y-116760495D01*
X167107606Y-116710054D01*
X167171106Y-116649146D01*
X167225226Y-116578836D01*
X167268845Y-116500190D01*
X167299230Y-116419743D01*
X167307854Y-116388813D01*
X167313579Y-116361502D01*
X167316984Y-116333156D01*
X167318651Y-116299123D01*
X167319142Y-116260086D01*
X167315378Y-116177913D01*
X167302780Y-116104558D01*
X167280378Y-116036642D01*
X167247206Y-115970785D01*
X167227076Y-115938768D01*
X167171531Y-115867467D01*
X167108521Y-115807659D01*
X167039342Y-115759264D01*
X166965292Y-115722203D01*
X166887666Y-115696398D01*
X166807761Y-115681769D01*
X166726874Y-115678238D01*
X166646302Y-115685724D01*
X166567340Y-115704150D01*
X166491286Y-115733437D01*
X166419437Y-115773505D01*
X166353088Y-115824275D01*
X166293537Y-115885668D01*
X166242079Y-115957606D01*
X166218408Y-116000226D01*
X166186944Y-116076692D01*
X166167811Y-116157835D01*
X166160522Y-116245779D01*
X166160438Y-116252829D01*
X165723963Y-116252829D01*
X165726063Y-116186101D01*
X165731479Y-116121587D01*
G37*
X165731479Y-116121587D02*
X165740106Y-116065992D01*
X165740781Y-116062776D01*
X165773684Y-115942128D01*
X165818862Y-115828766D01*
X165875701Y-115723310D01*
X165943585Y-115626378D01*
X166021896Y-115538591D01*
X166110019Y-115460568D01*
X166207337Y-115392928D01*
X166313234Y-115336290D01*
X166427095Y-115291276D01*
X166538735Y-115260574D01*
X166593782Y-115251534D01*
X166658585Y-115245937D01*
X166728804Y-115243775D01*
X166800097Y-115245042D01*
X166868123Y-115249729D01*
X166928540Y-115257827D01*
X166946371Y-115261313D01*
X167063122Y-115292966D01*
X167171645Y-115336198D01*
X167273058Y-115391619D01*
X167368480Y-115459839D01*
X167458751Y-115541192D01*
X167540226Y-115631820D01*
X167608417Y-115727761D01*
X167663823Y-115829955D01*
X167706941Y-115939342D01*
X167738270Y-116056862D01*
X167741941Y-116075029D01*
X167750078Y-116132434D01*
X167754627Y-116199044D01*
X167755626Y-116270103D01*
X167753115Y-116340850D01*
X167747131Y-116406529D01*
X167738805Y-116457396D01*
X167706289Y-116576816D01*
X167661098Y-116689732D01*
X167603796Y-116795396D01*
X167534948Y-116893059D01*
X167455116Y-116981974D01*
X167364864Y-117061392D01*
X167264756Y-117130565D01*
X167207014Y-117163282D01*
X167136804Y-117196060D01*
X167059215Y-117225153D01*
X166980679Y-117248356D01*
X166921286Y-117261232D01*
X166870545Y-117268241D01*
X166812723Y-117273199D01*
X166752645Y-117275926D01*
X166695133Y-117276241D01*
X166645010Y-117273964D01*
X166627372Y-117272198D01*
X166505844Y-117250336D01*
X166390309Y-117215611D01*
X166281464Y-117168677D01*
X166180010Y-117110188D01*
X166086646Y-117040796D01*
X166002072Y-116961156D01*
X165926988Y-116871919D01*
X165862093Y-116773739D01*
X165808087Y-116667269D01*
X165765670Y-116553163D01*
X165737332Y-116441251D01*
X165729490Y-116387110D01*
X165725026Y-116323467D01*
X165723897Y-116254929D01*
X165723963Y-116252829D01*
X166160438Y-116252829D01*
X166166380Y-116347367D01*
X166185533Y-116436056D01*
X166217791Y-116518647D01*
X166263051Y-116594893D01*
X166321205Y-116664544D01*
X166344384Y-116687130D01*
X166414591Y-116742459D01*
X166492031Y-116785850D01*
X166575105Y-116816882D01*
X166662214Y-116835137D01*
X166751760Y-116840193D01*
X166842144Y-116831632D01*
X166872037Y-116825712D01*
X166956950Y-116799403D01*
X167035847Y-116760495D01*
X167107606Y-116710054D01*
X167171106Y-116649146D01*
X167225226Y-116578836D01*
X167268845Y-116500190D01*
X167299230Y-116419743D01*
X167307854Y-116388813D01*
X167313579Y-116361502D01*
X167316984Y-116333156D01*
X167318651Y-116299123D01*
X167319142Y-116260086D01*
X167315378Y-116177913D01*
X167302780Y-116104558D01*
X167280378Y-116036642D01*
X167247206Y-115970785D01*
X167227076Y-115938768D01*
X167171531Y-115867467D01*
X167108521Y-115807659D01*
X167039342Y-115759264D01*
X166965292Y-115722203D01*
X166887666Y-115696398D01*
X166807761Y-115681769D01*
X166726874Y-115678238D01*
X166646302Y-115685724D01*
X166567340Y-115704150D01*
X166491286Y-115733437D01*
X166419437Y-115773505D01*
X166353088Y-115824275D01*
X166293537Y-115885668D01*
X166242079Y-115957606D01*
X166218408Y-116000226D01*
X166186944Y-116076692D01*
X166167811Y-116157835D01*
X166160522Y-116245779D01*
X166160438Y-116252829D01*
X165723963Y-116252829D01*
X165726063Y-116186101D01*
X165731479Y-116121587D01*
X165357372Y-116844286D02*
X165538800Y-116844286D01*
X165538800Y-116844286D02*
X165538800Y-117279714D01*
X165538800Y-117279714D02*
X164921986Y-117279714D01*
X164921986Y-117279714D02*
X164920150Y-116080472D01*
X164920150Y-116080472D02*
X164918314Y-114881229D01*
X164918314Y-114881229D02*
X164740514Y-114877153D01*
X164740514Y-114877153D02*
X164740514Y-114442172D01*
X164740514Y-114442172D02*
X165357372Y-114442172D01*
X165357372Y-114442172D02*
X165357372Y-116844286D01*
X165357372Y-116844286D02*
X165357372Y-116844286D01*
G36*
X165357372Y-116844286D02*
G01*
X165538800Y-116844286D01*
X165538800Y-117279714D01*
X164921986Y-117279714D01*
X164920150Y-116080472D01*
X164918314Y-114881229D01*
X164740514Y-114877153D01*
X164740514Y-114442172D01*
X165357372Y-114442172D01*
X165357372Y-116844286D01*
G37*
X165357372Y-116844286D02*
X165538800Y-116844286D01*
X165538800Y-117279714D01*
X164921986Y-117279714D01*
X164920150Y-116080472D01*
X164918314Y-114881229D01*
X164740514Y-114877153D01*
X164740514Y-114442172D01*
X165357372Y-114442172D01*
X165357372Y-116844286D01*
X167756052Y-117760500D02*
X167738996Y-117841379D01*
X167738996Y-117841379D02*
X167709448Y-117915359D01*
X167709448Y-117915359D02*
X167668105Y-117981601D01*
X167668105Y-117981601D02*
X167615664Y-118039268D01*
X167615664Y-118039268D02*
X167552821Y-118087520D01*
X167552821Y-118087520D02*
X167480275Y-118125521D01*
X167480275Y-118125521D02*
X167440172Y-118140549D01*
X167440172Y-118140549D02*
X167430863Y-118143302D01*
X167430863Y-118143302D02*
X167420141Y-118145661D01*
X167420141Y-118145661D02*
X167406829Y-118147665D01*
X167406829Y-118147665D02*
X167389749Y-118149352D01*
X167389749Y-118149352D02*
X167367727Y-118150760D01*
X167367727Y-118150760D02*
X167339586Y-118151929D01*
X167339586Y-118151929D02*
X167304149Y-118152896D01*
X167304149Y-118152896D02*
X167260240Y-118153701D01*
X167260240Y-118153701D02*
X167206682Y-118154380D01*
X167206682Y-118154380D02*
X167142301Y-118154973D01*
X167142301Y-118154973D02*
X167065919Y-118155518D01*
X167065919Y-118155518D02*
X166976359Y-118156054D01*
X166976359Y-118156054D02*
X166963014Y-118156129D01*
X166963014Y-118156129D02*
X166525772Y-118158561D01*
X166525772Y-118158561D02*
X166525772Y-118124771D01*
X166525772Y-118124771D02*
X166532531Y-118063926D01*
X166532531Y-118063926D02*
X166551721Y-118001970D01*
X166551721Y-118001970D02*
X166581710Y-117941387D01*
X166581710Y-117941387D02*
X166620867Y-117884659D01*
X166620867Y-117884659D02*
X166667561Y-117834270D01*
X166667561Y-117834270D02*
X166720159Y-117792704D01*
X166720159Y-117792704D02*
X166758336Y-117770808D01*
X166758336Y-117770808D02*
X166778192Y-117761152D01*
X166778192Y-117761152D02*
X166796089Y-117752874D01*
X166796089Y-117752874D02*
X166813279Y-117745868D01*
X166813279Y-117745868D02*
X166831013Y-117740027D01*
X166831013Y-117740027D02*
X166850543Y-117735246D01*
X166850543Y-117735246D02*
X166873120Y-117731418D01*
X166873120Y-117731418D02*
X166899996Y-117728437D01*
X166899996Y-117728437D02*
X166932422Y-117726198D01*
X166932422Y-117726198D02*
X166971650Y-117724595D01*
X166971650Y-117724595D02*
X167018931Y-117723521D01*
X167018931Y-117723521D02*
X167075517Y-117722870D01*
X167075517Y-117722870D02*
X167142660Y-117722537D01*
X167142660Y-117722537D02*
X167221610Y-117722416D01*
X167221610Y-117722416D02*
X167313620Y-117722400D01*
X167313620Y-117722400D02*
X167760848Y-117722400D01*
X167760848Y-117722400D02*
X167756052Y-117760500D01*
X167756052Y-117760500D02*
X167756052Y-117760500D01*
G36*
X167756052Y-117760500D02*
G01*
X167738996Y-117841379D01*
X167709448Y-117915359D01*
X167668105Y-117981601D01*
X167615664Y-118039268D01*
X167552821Y-118087520D01*
X167480275Y-118125521D01*
X167440172Y-118140549D01*
X167430863Y-118143302D01*
X167420141Y-118145661D01*
X167406829Y-118147665D01*
X167389749Y-118149352D01*
X167367727Y-118150760D01*
X167339586Y-118151929D01*
X167304149Y-118152896D01*
X167260240Y-118153701D01*
X167206682Y-118154380D01*
X167142301Y-118154973D01*
X167065919Y-118155518D01*
X166976359Y-118156054D01*
X166963014Y-118156129D01*
X166525772Y-118158561D01*
X166525772Y-118124771D01*
X166532531Y-118063926D01*
X166551721Y-118001970D01*
X166581710Y-117941387D01*
X166620867Y-117884659D01*
X166667561Y-117834270D01*
X166720159Y-117792704D01*
X166758336Y-117770808D01*
X166778192Y-117761152D01*
X166796089Y-117752874D01*
X166813279Y-117745868D01*
X166831013Y-117740027D01*
X166850543Y-117735246D01*
X166873120Y-117731418D01*
X166899996Y-117728437D01*
X166932422Y-117726198D01*
X166971650Y-117724595D01*
X167018931Y-117723521D01*
X167075517Y-117722870D01*
X167142660Y-117722537D01*
X167221610Y-117722416D01*
X167313620Y-117722400D01*
X167760848Y-117722400D01*
X167756052Y-117760500D01*
G37*
X167756052Y-117760500D02*
X167738996Y-117841379D01*
X167709448Y-117915359D01*
X167668105Y-117981601D01*
X167615664Y-118039268D01*
X167552821Y-118087520D01*
X167480275Y-118125521D01*
X167440172Y-118140549D01*
X167430863Y-118143302D01*
X167420141Y-118145661D01*
X167406829Y-118147665D01*
X167389749Y-118149352D01*
X167367727Y-118150760D01*
X167339586Y-118151929D01*
X167304149Y-118152896D01*
X167260240Y-118153701D01*
X167206682Y-118154380D01*
X167142301Y-118154973D01*
X167065919Y-118155518D01*
X166976359Y-118156054D01*
X166963014Y-118156129D01*
X166525772Y-118158561D01*
X166525772Y-118124771D01*
X166532531Y-118063926D01*
X166551721Y-118001970D01*
X166581710Y-117941387D01*
X166620867Y-117884659D01*
X166667561Y-117834270D01*
X166720159Y-117792704D01*
X166758336Y-117770808D01*
X166778192Y-117761152D01*
X166796089Y-117752874D01*
X166813279Y-117745868D01*
X166831013Y-117740027D01*
X166850543Y-117735246D01*
X166873120Y-117731418D01*
X166899996Y-117728437D01*
X166932422Y-117726198D01*
X166971650Y-117724595D01*
X167018931Y-117723521D01*
X167075517Y-117722870D01*
X167142660Y-117722537D01*
X167221610Y-117722416D01*
X167313620Y-117722400D01*
X167760848Y-117722400D01*
X167756052Y-117760500D01*
%TD*%
D11*
%TO.C,USB1*%
X163820000Y-96950000D03*
X155180000Y-96950000D03*
D12*
X163820000Y-101130000D03*
X155180000Y-101130000D03*
D13*
X156610000Y-100600000D03*
X162390000Y-100600000D03*
%TD*%
D14*
%TO.C,MX1*%
X159500000Y-109550000D03*
%TD*%
M02*
