%TF.GenerationSoftware,KiCad,Pcbnew,(5.99.0-12118-g897269f33f)*%
%TF.CreationDate,2021-09-15T19:12:53-04:00*%
%TF.ProjectId,why,7768792e-6b69-4636-9164-5f7063625858,rev?*%
%TF.SameCoordinates,Original*%
%TF.FileFunction,Legend,Top*%
%TF.FilePolarity,Positive*%
%FSLAX46Y46*%
G04 Gerber Fmt 4.6, Leading zero omitted, Abs format (unit mm)*
G04 Created by KiCad (PCBNEW (5.99.0-12118-g897269f33f)) date 2021-09-15 19:12:53*
%MOMM*%
%LPD*%
G01*
G04 APERTURE LIST*
%ADD10C,0.010000*%
G04 APERTURE END LIST*
D10*
%TO.C,G\u002A\u002A\u002A*%
X163361914Y-114386214D02*
X163408177Y-114419123D01*
X163408177Y-114419123D02*
X163448403Y-114462626D01*
X163448403Y-114462626D02*
X163476578Y-114509729D01*
X163476578Y-114509729D02*
X163482767Y-114526750D01*
X163482767Y-114526750D02*
X163484317Y-114542944D01*
X163484317Y-114542944D02*
X163485708Y-114580283D01*
X163485708Y-114580283D02*
X163486940Y-114638746D01*
X163486940Y-114638746D02*
X163488013Y-114718311D01*
X163488013Y-114718311D02*
X163488926Y-114818958D01*
X163488926Y-114818958D02*
X163489680Y-114940665D01*
X163489680Y-114940665D02*
X163490274Y-115083410D01*
X163490274Y-115083410D02*
X163490708Y-115247174D01*
X163490708Y-115247174D02*
X163490983Y-115431934D01*
X163490983Y-115431934D02*
X163491097Y-115637669D01*
X163491097Y-115637669D02*
X163491052Y-115864359D01*
X163491052Y-115864359D02*
X163490847Y-116111981D01*
X163490847Y-116111981D02*
X163490482Y-116380516D01*
X163490482Y-116380516D02*
X163490405Y-116427232D01*
X163490405Y-116427232D02*
X163487292Y-118290673D01*
X163487292Y-118290673D02*
X163458097Y-118334788D01*
X163458097Y-118334788D02*
X163430004Y-118368916D01*
X163430004Y-118368916D02*
X163395366Y-118400470D01*
X163395366Y-118400470D02*
X163384788Y-118408097D01*
X163384788Y-118408097D02*
X163340673Y-118437292D01*
X163340673Y-118437292D02*
X161466649Y-118439570D01*
X161466649Y-118439570D02*
X161226103Y-118439838D01*
X161226103Y-118439838D02*
X161005884Y-118440030D01*
X161005884Y-118440030D02*
X160805154Y-118440139D01*
X160805154Y-118440139D02*
X160623074Y-118440161D01*
X160623074Y-118440161D02*
X160458804Y-118440091D01*
X160458804Y-118440091D02*
X160311506Y-118439923D01*
X160311506Y-118439923D02*
X160180339Y-118439653D01*
X160180339Y-118439653D02*
X160064467Y-118439275D01*
X160064467Y-118439275D02*
X159963048Y-118438784D01*
X159963048Y-118438784D02*
X159875245Y-118438176D01*
X159875245Y-118438176D02*
X159800219Y-118437444D01*
X159800219Y-118437444D02*
X159737129Y-118436584D01*
X159737129Y-118436584D02*
X159685138Y-118435591D01*
X159685138Y-118435591D02*
X159643407Y-118434459D01*
X159643407Y-118434459D02*
X159611095Y-118433184D01*
X159611095Y-118433184D02*
X159587365Y-118431760D01*
X159587365Y-118431760D02*
X159571377Y-118430182D01*
X159571377Y-118430182D02*
X159562292Y-118428445D01*
X159562292Y-118428445D02*
X159560875Y-118427931D01*
X159560875Y-118427931D02*
X159506970Y-118394627D01*
X159506970Y-118394627D02*
X159459996Y-118347641D01*
X159459996Y-118347641D02*
X159436057Y-118311606D01*
X159436057Y-118311606D02*
X159412708Y-118267958D01*
X159412708Y-118267958D02*
X159412708Y-116082751D01*
X159412708Y-116082751D02*
X159578643Y-116082751D01*
X159578643Y-116082751D02*
X159578783Y-116250589D01*
X159578783Y-116250589D02*
X159579217Y-116422961D01*
X159579217Y-116422961D02*
X159579730Y-116580029D01*
X159579730Y-116580029D02*
X159580220Y-116717333D01*
X159580220Y-116717333D02*
X159580727Y-116836277D01*
X159580727Y-116836277D02*
X159581286Y-116938263D01*
X159581286Y-116938263D02*
X159581936Y-117024696D01*
X159581936Y-117024696D02*
X159582715Y-117096977D01*
X159582715Y-117096977D02*
X159583659Y-117156511D01*
X159583659Y-117156511D02*
X159584806Y-117204700D01*
X159584806Y-117204700D02*
X159586195Y-117242947D01*
X159586195Y-117242947D02*
X159587861Y-117272656D01*
X159587861Y-117272656D02*
X159589844Y-117295229D01*
X159589844Y-117295229D02*
X159592180Y-117312070D01*
X159592180Y-117312070D02*
X159594908Y-117324582D01*
X159594908Y-117324582D02*
X159598064Y-117334167D01*
X159598064Y-117334167D02*
X159601686Y-117342230D01*
X159601686Y-117342230D02*
X159603934Y-117346608D01*
X159603934Y-117346608D02*
X159634652Y-117390834D01*
X159634652Y-117390834D02*
X159676234Y-117423102D01*
X159676234Y-117423102D02*
X159720237Y-117443111D01*
X159720237Y-117443111D02*
X159734949Y-117447324D01*
X159734949Y-117447324D02*
X159755180Y-117450621D01*
X159755180Y-117450621D02*
X159783113Y-117453061D01*
X159783113Y-117453061D02*
X159820935Y-117454703D01*
X159820935Y-117454703D02*
X159870831Y-117455606D01*
X159870831Y-117455606D02*
X159934985Y-117455830D01*
X159934985Y-117455830D02*
X160015585Y-117455434D01*
X160015585Y-117455434D02*
X160114813Y-117454478D01*
X160114813Y-117454478D02*
X160132375Y-117454279D01*
X160132375Y-117454279D02*
X160234474Y-117452979D01*
X160234474Y-117452979D02*
X160318152Y-117451565D01*
X160318152Y-117451565D02*
X160386152Y-117449882D01*
X160386152Y-117449882D02*
X160441220Y-117447779D01*
X160441220Y-117447779D02*
X160486100Y-117445103D01*
X160486100Y-117445103D02*
X160523536Y-117441704D01*
X160523536Y-117441704D02*
X160556274Y-117437428D01*
X160556274Y-117437428D02*
X160587058Y-117432123D01*
X160587058Y-117432123D02*
X160607983Y-117427911D01*
X160607983Y-117427911D02*
X160750955Y-117391570D01*
X160750955Y-117391570D02*
X160876230Y-117345999D01*
X160876230Y-117345999D02*
X160985565Y-117290306D01*
X160985565Y-117290306D02*
X161080719Y-117223597D01*
X161080719Y-117223597D02*
X161161862Y-117146723D01*
X161161862Y-117146723D02*
X161232193Y-117058293D01*
X161232193Y-117058293D02*
X161288998Y-116960887D01*
X161288998Y-116960887D02*
X161332949Y-116852535D01*
X161332949Y-116852535D02*
X161364721Y-116731263D01*
X161364721Y-116731263D02*
X161384988Y-116595098D01*
X161384988Y-116595098D02*
X161393577Y-116468792D01*
X161393577Y-116468792D02*
X161393321Y-116405292D01*
X161393321Y-116405292D02*
X161465875Y-116405292D01*
X161465875Y-116405292D02*
X161465875Y-117304875D01*
X161465875Y-117304875D02*
X161491930Y-117350377D01*
X161491930Y-117350377D02*
X161532192Y-117400118D01*
X161532192Y-117400118D02*
X161586533Y-117436196D01*
X161586533Y-117436196D02*
X161616836Y-117447795D01*
X161616836Y-117447795D02*
X161645473Y-117452693D01*
X161645473Y-117452693D02*
X161688687Y-117455782D01*
X161688687Y-117455782D02*
X161740352Y-117457093D01*
X161740352Y-117457093D02*
X161794341Y-117456659D01*
X161794341Y-117456659D02*
X161844526Y-117454512D01*
X161844526Y-117454512D02*
X161884781Y-117450683D01*
X161884781Y-117450683D02*
X161906150Y-117446288D01*
X161906150Y-117446288D02*
X161966251Y-117415561D01*
X161966251Y-117415561D02*
X162013095Y-117368484D01*
X162013095Y-117368484D02*
X162033646Y-117334267D01*
X162033646Y-117334267D02*
X162039519Y-117321988D01*
X162039519Y-117321988D02*
X162044410Y-117309818D01*
X162044410Y-117309818D02*
X162048433Y-117295752D01*
X162048433Y-117295752D02*
X162051702Y-117277782D01*
X162051702Y-117277782D02*
X162054330Y-117253903D01*
X162054330Y-117253903D02*
X162056433Y-117222107D01*
X162056433Y-117222107D02*
X162058123Y-117180388D01*
X162058123Y-117180388D02*
X162059516Y-117126741D01*
X162059516Y-117126741D02*
X162060726Y-117059157D01*
X162060726Y-117059157D02*
X162061865Y-116975632D01*
X162061865Y-116975632D02*
X162063049Y-116874158D01*
X162063049Y-116874158D02*
X162063833Y-116803420D01*
X162063833Y-116803420D02*
X162069125Y-116323132D01*
X162069125Y-116323132D02*
X162375675Y-116824168D01*
X162375675Y-116824168D02*
X162433683Y-116918726D01*
X162433683Y-116918726D02*
X162489136Y-117008633D01*
X162489136Y-117008633D02*
X162540921Y-117092118D01*
X162540921Y-117092118D02*
X162587926Y-117167410D01*
X162587926Y-117167410D02*
X162629038Y-117232737D01*
X162629038Y-117232737D02*
X162663143Y-117286329D01*
X162663143Y-117286329D02*
X162689130Y-117326412D01*
X162689130Y-117326412D02*
X162705887Y-117351218D01*
X162705887Y-117351218D02*
X162710967Y-117357940D01*
X162710967Y-117357940D02*
X162736783Y-117381646D01*
X162736783Y-117381646D02*
X162772169Y-117407320D01*
X162772169Y-117407320D02*
X162796000Y-117421793D01*
X162796000Y-117421793D02*
X162820607Y-117434680D01*
X162820607Y-117434680D02*
X162842816Y-117443581D01*
X162842816Y-117443581D02*
X162867568Y-117449382D01*
X162867568Y-117449382D02*
X162899805Y-117452968D01*
X162899805Y-117452968D02*
X162944466Y-117455223D01*
X162944466Y-117455223D02*
X162990372Y-117456608D01*
X162990372Y-117456608D02*
X163066405Y-117457375D01*
X163066405Y-117457375D02*
X163125382Y-117454514D01*
X163125382Y-117454514D02*
X163171230Y-117447185D01*
X163171230Y-117447185D02*
X163207875Y-117434545D01*
X163207875Y-117434545D02*
X163239244Y-117415754D01*
X163239244Y-117415754D02*
X163259719Y-117398894D01*
X163259719Y-117398894D02*
X163272583Y-117387443D01*
X163272583Y-117387443D02*
X163283882Y-117376891D01*
X163283882Y-117376891D02*
X163293712Y-117365863D01*
X163293712Y-117365863D02*
X163302171Y-117352985D01*
X163302171Y-117352985D02*
X163309356Y-117336883D01*
X163309356Y-117336883D02*
X163315363Y-117316181D01*
X163315363Y-117316181D02*
X163320289Y-117289506D01*
X163320289Y-117289506D02*
X163324232Y-117255483D01*
X163324232Y-117255483D02*
X163327288Y-117212738D01*
X163327288Y-117212738D02*
X163329555Y-117159896D01*
X163329555Y-117159896D02*
X163331129Y-117095582D01*
X163331129Y-117095582D02*
X163332107Y-117018423D01*
X163332107Y-117018423D02*
X163332587Y-116927044D01*
X163332587Y-116927044D02*
X163332664Y-116820071D01*
X163332664Y-116820071D02*
X163332437Y-116696128D01*
X163332437Y-116696128D02*
X163332002Y-116553842D01*
X163332002Y-116553842D02*
X163331457Y-116391838D01*
X163331457Y-116391838D02*
X163331426Y-116382485D01*
X163331426Y-116382485D02*
X163328542Y-115504035D01*
X163328542Y-115504035D02*
X163296792Y-115452913D01*
X163296792Y-115452913D02*
X163271723Y-115417633D01*
X163271723Y-115417633D02*
X163244331Y-115391921D01*
X163244331Y-115391921D02*
X163210722Y-115374220D01*
X163210722Y-115374220D02*
X163167003Y-115362974D01*
X163167003Y-115362974D02*
X163109279Y-115356627D01*
X163109279Y-115356627D02*
X163049304Y-115354002D01*
X163049304Y-115354002D02*
X162974685Y-115353692D01*
X162974685Y-115353692D02*
X162917072Y-115357932D01*
X162917072Y-115357932D02*
X162872620Y-115367644D01*
X162872620Y-115367644D02*
X162837482Y-115383750D01*
X162837482Y-115383750D02*
X162807812Y-115407171D01*
X162807812Y-115407171D02*
X162801736Y-115413292D01*
X162801736Y-115413292D02*
X162786999Y-115428984D01*
X162786999Y-115428984D02*
X162774653Y-115443936D01*
X162774653Y-115443936D02*
X162764463Y-115460109D01*
X162764463Y-115460109D02*
X162756195Y-115479465D01*
X162756195Y-115479465D02*
X162749612Y-115503967D01*
X162749612Y-115503967D02*
X162744480Y-115535576D01*
X162744480Y-115535576D02*
X162740563Y-115576255D01*
X162740563Y-115576255D02*
X162737626Y-115627966D01*
X162737626Y-115627966D02*
X162735433Y-115692670D01*
X162735433Y-115692670D02*
X162733749Y-115772330D01*
X162733749Y-115772330D02*
X162732339Y-115868908D01*
X162732339Y-115868908D02*
X162730968Y-115984366D01*
X162730968Y-115984366D02*
X162730729Y-116005337D01*
X162730729Y-116005337D02*
X162725292Y-116483799D01*
X162725292Y-116483799D02*
X162423667Y-115989779D01*
X162423667Y-115989779D02*
X162365912Y-115895522D01*
X162365912Y-115895522D02*
X162310463Y-115805674D01*
X162310463Y-115805674D02*
X162258474Y-115722060D01*
X162258474Y-115722060D02*
X162211098Y-115646506D01*
X162211098Y-115646506D02*
X162169488Y-115580837D01*
X162169488Y-115580837D02*
X162134797Y-115526880D01*
X162134797Y-115526880D02*
X162108180Y-115486458D01*
X162108180Y-115486458D02*
X162090789Y-115461399D01*
X162090789Y-115461399D02*
X162085885Y-115455168D01*
X162085885Y-115455168D02*
X162053590Y-115424362D01*
X162053590Y-115424362D02*
X162015185Y-115394947D01*
X162015185Y-115394947D02*
X162001218Y-115386060D01*
X162001218Y-115386060D02*
X161982605Y-115375558D01*
X161982605Y-115375558D02*
X161965506Y-115368013D01*
X161965506Y-115368013D02*
X161946073Y-115362936D01*
X161946073Y-115362936D02*
X161920452Y-115359839D01*
X161920452Y-115359839D02*
X161884794Y-115358233D01*
X161884794Y-115358233D02*
X161835247Y-115357630D01*
X161835247Y-115357630D02*
X161776370Y-115357542D01*
X161776370Y-115357542D02*
X161600032Y-115357542D01*
X161600032Y-115357542D02*
X161555063Y-115389292D01*
X161555063Y-115389292D02*
X161523250Y-115417258D01*
X161523250Y-115417258D02*
X161495800Y-115450511D01*
X161495800Y-115450511D02*
X161487984Y-115463375D01*
X161487984Y-115463375D02*
X161484084Y-115471156D01*
X161484084Y-115471156D02*
X161480672Y-115479516D01*
X161480672Y-115479516D02*
X161477715Y-115489843D01*
X161477715Y-115489843D02*
X161475181Y-115503526D01*
X161475181Y-115503526D02*
X161473037Y-115521953D01*
X161473037Y-115521953D02*
X161471251Y-115546512D01*
X161471251Y-115546512D02*
X161469789Y-115578593D01*
X161469789Y-115578593D02*
X161468620Y-115619585D01*
X161468620Y-115619585D02*
X161467710Y-115670874D01*
X161467710Y-115670874D02*
X161467027Y-115733851D01*
X161467027Y-115733851D02*
X161466539Y-115809904D01*
X161466539Y-115809904D02*
X161466213Y-115900421D01*
X161466213Y-115900421D02*
X161466016Y-116006791D01*
X161466016Y-116006791D02*
X161465916Y-116130403D01*
X161465916Y-116130403D02*
X161465879Y-116272645D01*
X161465879Y-116272645D02*
X161465875Y-116405292D01*
X161465875Y-116405292D02*
X161393321Y-116405292D01*
X161393321Y-116405292D02*
X161392882Y-116297037D01*
X161392882Y-116297037D02*
X161377278Y-116140260D01*
X161377278Y-116140260D02*
X161346606Y-115998254D01*
X161346606Y-115998254D02*
X161300704Y-115870811D01*
X161300704Y-115870811D02*
X161239409Y-115757724D01*
X161239409Y-115757724D02*
X161162562Y-115658787D01*
X161162562Y-115658787D02*
X161070000Y-115573791D01*
X161070000Y-115573791D02*
X160961562Y-115502531D01*
X160961562Y-115502531D02*
X160837088Y-115444798D01*
X160837088Y-115444798D02*
X160696415Y-115400387D01*
X160696415Y-115400387D02*
X160539382Y-115369089D01*
X160539382Y-115369089D02*
X160536475Y-115368655D01*
X160536475Y-115368655D02*
X160494520Y-115363442D01*
X160494520Y-115363442D02*
X160445168Y-115359360D01*
X160445168Y-115359360D02*
X160385839Y-115356316D01*
X160385839Y-115356316D02*
X160313948Y-115354218D01*
X160313948Y-115354218D02*
X160226914Y-115352973D01*
X160226914Y-115352973D02*
X160122155Y-115352490D01*
X160122155Y-115352490D02*
X160083392Y-115352482D01*
X160083392Y-115352482D02*
X159987881Y-115352640D01*
X159987881Y-115352640D02*
X159911115Y-115353053D01*
X159911115Y-115353053D02*
X159850672Y-115353845D01*
X159850672Y-115353845D02*
X159804130Y-115355138D01*
X159804130Y-115355138D02*
X159769067Y-115357057D01*
X159769067Y-115357057D02*
X159743062Y-115359726D01*
X159743062Y-115359726D02*
X159723693Y-115363267D01*
X159723693Y-115363267D02*
X159708537Y-115367804D01*
X159708537Y-115367804D02*
X159698020Y-115372143D01*
X159698020Y-115372143D02*
X159646933Y-115405882D01*
X159646933Y-115405882D02*
X159607830Y-115452990D01*
X159607830Y-115452990D02*
X159587433Y-115500047D01*
X159587433Y-115500047D02*
X159585131Y-115519823D01*
X159585131Y-115519823D02*
X159583178Y-115560760D01*
X159583178Y-115560760D02*
X159581574Y-115622855D01*
X159581574Y-115622855D02*
X159580318Y-115706105D01*
X159580318Y-115706105D02*
X159579411Y-115810506D01*
X159579411Y-115810506D02*
X159578853Y-115936056D01*
X159578853Y-115936056D02*
X159578643Y-116082751D01*
X159578643Y-116082751D02*
X159412708Y-116082751D01*
X159412708Y-116082751D02*
X159412708Y-114542625D01*
X159412708Y-114542625D02*
X159435551Y-114500292D01*
X159435551Y-114500292D02*
X159480569Y-114438775D01*
X159480569Y-114438775D02*
X159541316Y-114390523D01*
X159541316Y-114390523D02*
X159555583Y-114382437D01*
X159555583Y-114382437D02*
X159560771Y-114379969D01*
X159560771Y-114379969D02*
X159567278Y-114377716D01*
X159567278Y-114377716D02*
X159576043Y-114375668D01*
X159576043Y-114375668D02*
X159588004Y-114373814D01*
X159588004Y-114373814D02*
X159604100Y-114372146D01*
X159604100Y-114372146D02*
X159625269Y-114370654D01*
X159625269Y-114370654D02*
X159652450Y-114369328D01*
X159652450Y-114369328D02*
X159686582Y-114368157D01*
X159686582Y-114368157D02*
X159728603Y-114367133D01*
X159728603Y-114367133D02*
X159779452Y-114366246D01*
X159779452Y-114366246D02*
X159840067Y-114365486D01*
X159840067Y-114365486D02*
X159911387Y-114364842D01*
X159911387Y-114364842D02*
X159994350Y-114364307D01*
X159994350Y-114364307D02*
X160089895Y-114363868D01*
X160089895Y-114363868D02*
X160198961Y-114363518D01*
X160198961Y-114363518D02*
X160322486Y-114363246D01*
X160322486Y-114363246D02*
X160461408Y-114363042D01*
X160461408Y-114363042D02*
X160616667Y-114362897D01*
X160616667Y-114362897D02*
X160789201Y-114362801D01*
X160789201Y-114362801D02*
X160979948Y-114362744D01*
X160979948Y-114362744D02*
X161189847Y-114362716D01*
X161189847Y-114362716D02*
X161419836Y-114362708D01*
X161419836Y-114362708D02*
X163317958Y-114362708D01*
X163317958Y-114362708D02*
X163361914Y-114386214D01*
X163361914Y-114386214D02*
X163361914Y-114386214D01*
G36*
X159435551Y-114500292D02*
G01*
X159480569Y-114438775D01*
X159541316Y-114390523D01*
X159555583Y-114382437D01*
X159560771Y-114379969D01*
X159567278Y-114377716D01*
X159576043Y-114375668D01*
X159588004Y-114373814D01*
X159604100Y-114372146D01*
X159625269Y-114370654D01*
X159652450Y-114369328D01*
X159686582Y-114368157D01*
X159728603Y-114367133D01*
X159779452Y-114366246D01*
X159840067Y-114365486D01*
X159911387Y-114364842D01*
X159994350Y-114364307D01*
X160089895Y-114363868D01*
X160198961Y-114363518D01*
X160322486Y-114363246D01*
X160461408Y-114363042D01*
X160616667Y-114362897D01*
X160789201Y-114362801D01*
X160979948Y-114362744D01*
X161189847Y-114362716D01*
X161419836Y-114362708D01*
X163317958Y-114362708D01*
X163361914Y-114386214D01*
X163408177Y-114419123D01*
X163448403Y-114462626D01*
X163476578Y-114509729D01*
X163482767Y-114526750D01*
X163484317Y-114542944D01*
X163485708Y-114580283D01*
X163486940Y-114638746D01*
X163488013Y-114718311D01*
X163488926Y-114818958D01*
X163489680Y-114940665D01*
X163490274Y-115083410D01*
X163490708Y-115247174D01*
X163490983Y-115431934D01*
X163491097Y-115637669D01*
X163491052Y-115864359D01*
X163490847Y-116111981D01*
X163490482Y-116380516D01*
X163490405Y-116427232D01*
X163487292Y-118290673D01*
X163458097Y-118334788D01*
X163430004Y-118368916D01*
X163395366Y-118400470D01*
X163384788Y-118408097D01*
X163340673Y-118437292D01*
X161466649Y-118439570D01*
X161226103Y-118439838D01*
X161005884Y-118440030D01*
X160805154Y-118440139D01*
X160623074Y-118440161D01*
X160458804Y-118440091D01*
X160311506Y-118439923D01*
X160180339Y-118439653D01*
X160064467Y-118439275D01*
X159963048Y-118438784D01*
X159875245Y-118438176D01*
X159800219Y-118437444D01*
X159737129Y-118436584D01*
X159685138Y-118435591D01*
X159643407Y-118434459D01*
X159611095Y-118433184D01*
X159587365Y-118431760D01*
X159571377Y-118430182D01*
X159562292Y-118428445D01*
X159560875Y-118427931D01*
X159506970Y-118394627D01*
X159459996Y-118347641D01*
X159436057Y-118311606D01*
X159412708Y-118267958D01*
X159412708Y-116082751D01*
X159578643Y-116082751D01*
X159578783Y-116250589D01*
X159579217Y-116422961D01*
X159579730Y-116580029D01*
X159580220Y-116717333D01*
X159580727Y-116836277D01*
X159581286Y-116938263D01*
X159581936Y-117024696D01*
X159582715Y-117096977D01*
X159583659Y-117156511D01*
X159584806Y-117204700D01*
X159586195Y-117242947D01*
X159587861Y-117272656D01*
X159589844Y-117295229D01*
X159592180Y-117312070D01*
X159594908Y-117324582D01*
X159598064Y-117334167D01*
X159601686Y-117342230D01*
X159603934Y-117346608D01*
X159634652Y-117390834D01*
X159676234Y-117423102D01*
X159720237Y-117443111D01*
X159734949Y-117447324D01*
X159755180Y-117450621D01*
X159783113Y-117453061D01*
X159820935Y-117454703D01*
X159870831Y-117455606D01*
X159934985Y-117455830D01*
X160015585Y-117455434D01*
X160114813Y-117454478D01*
X160132375Y-117454279D01*
X160234474Y-117452979D01*
X160318152Y-117451565D01*
X160386152Y-117449882D01*
X160441220Y-117447779D01*
X160486100Y-117445103D01*
X160523536Y-117441704D01*
X160556274Y-117437428D01*
X160587058Y-117432123D01*
X160607983Y-117427911D01*
X160750955Y-117391570D01*
X160876230Y-117345999D01*
X160985565Y-117290306D01*
X161080719Y-117223597D01*
X161161862Y-117146723D01*
X161232193Y-117058293D01*
X161288998Y-116960887D01*
X161332949Y-116852535D01*
X161364721Y-116731263D01*
X161384988Y-116595098D01*
X161393577Y-116468792D01*
X161393321Y-116405292D01*
X161465875Y-116405292D01*
X161465875Y-117304875D01*
X161491930Y-117350377D01*
X161532192Y-117400118D01*
X161586533Y-117436196D01*
X161616836Y-117447795D01*
X161645473Y-117452693D01*
X161688687Y-117455782D01*
X161740352Y-117457093D01*
X161794341Y-117456659D01*
X161844526Y-117454512D01*
X161884781Y-117450683D01*
X161906150Y-117446288D01*
X161966251Y-117415561D01*
X162013095Y-117368484D01*
X162033646Y-117334267D01*
X162039519Y-117321988D01*
X162044410Y-117309818D01*
X162048433Y-117295752D01*
X162051702Y-117277782D01*
X162054330Y-117253903D01*
X162056433Y-117222107D01*
X162058123Y-117180388D01*
X162059516Y-117126741D01*
X162060726Y-117059157D01*
X162061865Y-116975632D01*
X162063049Y-116874158D01*
X162063833Y-116803420D01*
X162069125Y-116323132D01*
X162375675Y-116824168D01*
X162433683Y-116918726D01*
X162489136Y-117008633D01*
X162540921Y-117092118D01*
X162587926Y-117167410D01*
X162629038Y-117232737D01*
X162663143Y-117286329D01*
X162689130Y-117326412D01*
X162705887Y-117351218D01*
X162710967Y-117357940D01*
X162736783Y-117381646D01*
X162772169Y-117407320D01*
X162796000Y-117421793D01*
X162820607Y-117434680D01*
X162842816Y-117443581D01*
X162867568Y-117449382D01*
X162899805Y-117452968D01*
X162944466Y-117455223D01*
X162990372Y-117456608D01*
X163066405Y-117457375D01*
X163125382Y-117454514D01*
X163171230Y-117447185D01*
X163207875Y-117434545D01*
X163239244Y-117415754D01*
X163259719Y-117398894D01*
X163272583Y-117387443D01*
X163283882Y-117376891D01*
X163293712Y-117365863D01*
X163302171Y-117352985D01*
X163309356Y-117336883D01*
X163315363Y-117316181D01*
X163320289Y-117289506D01*
X163324232Y-117255483D01*
X163327288Y-117212738D01*
X163329555Y-117159896D01*
X163331129Y-117095582D01*
X163332107Y-117018423D01*
X163332587Y-116927044D01*
X163332664Y-116820071D01*
X163332437Y-116696128D01*
X163332002Y-116553842D01*
X163331457Y-116391838D01*
X163331426Y-116382485D01*
X163328542Y-115504035D01*
X163296792Y-115452913D01*
X163271723Y-115417633D01*
X163244331Y-115391921D01*
X163210722Y-115374220D01*
X163167003Y-115362974D01*
X163109279Y-115356627D01*
X163049304Y-115354002D01*
X162974685Y-115353692D01*
X162917072Y-115357932D01*
X162872620Y-115367644D01*
X162837482Y-115383750D01*
X162807812Y-115407171D01*
X162801736Y-115413292D01*
X162786999Y-115428984D01*
X162774653Y-115443936D01*
X162764463Y-115460109D01*
X162756195Y-115479465D01*
X162749612Y-115503967D01*
X162744480Y-115535576D01*
X162740563Y-115576255D01*
X162737626Y-115627966D01*
X162735433Y-115692670D01*
X162733749Y-115772330D01*
X162732339Y-115868908D01*
X162730968Y-115984366D01*
X162730729Y-116005337D01*
X162725292Y-116483799D01*
X162423667Y-115989779D01*
X162365912Y-115895522D01*
X162310463Y-115805674D01*
X162258474Y-115722060D01*
X162211098Y-115646506D01*
X162169488Y-115580837D01*
X162134797Y-115526880D01*
X162108180Y-115486458D01*
X162090789Y-115461399D01*
X162085885Y-115455168D01*
X162053590Y-115424362D01*
X162015185Y-115394947D01*
X162001218Y-115386060D01*
X161982605Y-115375558D01*
X161965506Y-115368013D01*
X161946073Y-115362936D01*
X161920452Y-115359839D01*
X161884794Y-115358233D01*
X161835247Y-115357630D01*
X161776370Y-115357542D01*
X161600032Y-115357542D01*
X161555063Y-115389292D01*
X161523250Y-115417258D01*
X161495800Y-115450511D01*
X161487984Y-115463375D01*
X161484084Y-115471156D01*
X161480672Y-115479516D01*
X161477715Y-115489843D01*
X161475181Y-115503526D01*
X161473037Y-115521953D01*
X161471251Y-115546512D01*
X161469789Y-115578593D01*
X161468620Y-115619585D01*
X161467710Y-115670874D01*
X161467027Y-115733851D01*
X161466539Y-115809904D01*
X161466213Y-115900421D01*
X161466016Y-116006791D01*
X161465916Y-116130403D01*
X161465879Y-116272645D01*
X161465875Y-116405292D01*
X161393321Y-116405292D01*
X161392882Y-116297037D01*
X161377278Y-116140260D01*
X161346606Y-115998254D01*
X161300704Y-115870811D01*
X161239409Y-115757724D01*
X161162562Y-115658787D01*
X161070000Y-115573791D01*
X160961562Y-115502531D01*
X160837088Y-115444798D01*
X160696415Y-115400387D01*
X160539382Y-115369089D01*
X160536475Y-115368655D01*
X160494520Y-115363442D01*
X160445168Y-115359360D01*
X160385839Y-115356316D01*
X160313948Y-115354218D01*
X160226914Y-115352973D01*
X160122155Y-115352490D01*
X160083392Y-115352482D01*
X159987881Y-115352640D01*
X159911115Y-115353053D01*
X159850672Y-115353845D01*
X159804130Y-115355138D01*
X159769067Y-115357057D01*
X159743062Y-115359726D01*
X159723693Y-115363267D01*
X159708537Y-115367804D01*
X159698020Y-115372143D01*
X159646933Y-115405882D01*
X159607830Y-115452990D01*
X159587433Y-115500047D01*
X159585131Y-115519823D01*
X159583178Y-115560760D01*
X159581574Y-115622855D01*
X159580318Y-115706105D01*
X159579411Y-115810506D01*
X159578853Y-115936056D01*
X159578643Y-116082751D01*
X159412708Y-116082751D01*
X159412708Y-114542625D01*
X159435551Y-114500292D01*
G37*
X159435551Y-114500292D02*
X159480569Y-114438775D01*
X159541316Y-114390523D01*
X159555583Y-114382437D01*
X159560771Y-114379969D01*
X159567278Y-114377716D01*
X159576043Y-114375668D01*
X159588004Y-114373814D01*
X159604100Y-114372146D01*
X159625269Y-114370654D01*
X159652450Y-114369328D01*
X159686582Y-114368157D01*
X159728603Y-114367133D01*
X159779452Y-114366246D01*
X159840067Y-114365486D01*
X159911387Y-114364842D01*
X159994350Y-114364307D01*
X160089895Y-114363868D01*
X160198961Y-114363518D01*
X160322486Y-114363246D01*
X160461408Y-114363042D01*
X160616667Y-114362897D01*
X160789201Y-114362801D01*
X160979948Y-114362744D01*
X161189847Y-114362716D01*
X161419836Y-114362708D01*
X163317958Y-114362708D01*
X163361914Y-114386214D01*
X163408177Y-114419123D01*
X163448403Y-114462626D01*
X163476578Y-114509729D01*
X163482767Y-114526750D01*
X163484317Y-114542944D01*
X163485708Y-114580283D01*
X163486940Y-114638746D01*
X163488013Y-114718311D01*
X163488926Y-114818958D01*
X163489680Y-114940665D01*
X163490274Y-115083410D01*
X163490708Y-115247174D01*
X163490983Y-115431934D01*
X163491097Y-115637669D01*
X163491052Y-115864359D01*
X163490847Y-116111981D01*
X163490482Y-116380516D01*
X163490405Y-116427232D01*
X163487292Y-118290673D01*
X163458097Y-118334788D01*
X163430004Y-118368916D01*
X163395366Y-118400470D01*
X163384788Y-118408097D01*
X163340673Y-118437292D01*
X161466649Y-118439570D01*
X161226103Y-118439838D01*
X161005884Y-118440030D01*
X160805154Y-118440139D01*
X160623074Y-118440161D01*
X160458804Y-118440091D01*
X160311506Y-118439923D01*
X160180339Y-118439653D01*
X160064467Y-118439275D01*
X159963048Y-118438784D01*
X159875245Y-118438176D01*
X159800219Y-118437444D01*
X159737129Y-118436584D01*
X159685138Y-118435591D01*
X159643407Y-118434459D01*
X159611095Y-118433184D01*
X159587365Y-118431760D01*
X159571377Y-118430182D01*
X159562292Y-118428445D01*
X159560875Y-118427931D01*
X159506970Y-118394627D01*
X159459996Y-118347641D01*
X159436057Y-118311606D01*
X159412708Y-118267958D01*
X159412708Y-116082751D01*
X159578643Y-116082751D01*
X159578783Y-116250589D01*
X159579217Y-116422961D01*
X159579730Y-116580029D01*
X159580220Y-116717333D01*
X159580727Y-116836277D01*
X159581286Y-116938263D01*
X159581936Y-117024696D01*
X159582715Y-117096977D01*
X159583659Y-117156511D01*
X159584806Y-117204700D01*
X159586195Y-117242947D01*
X159587861Y-117272656D01*
X159589844Y-117295229D01*
X159592180Y-117312070D01*
X159594908Y-117324582D01*
X159598064Y-117334167D01*
X159601686Y-117342230D01*
X159603934Y-117346608D01*
X159634652Y-117390834D01*
X159676234Y-117423102D01*
X159720237Y-117443111D01*
X159734949Y-117447324D01*
X159755180Y-117450621D01*
X159783113Y-117453061D01*
X159820935Y-117454703D01*
X159870831Y-117455606D01*
X159934985Y-117455830D01*
X160015585Y-117455434D01*
X160114813Y-117454478D01*
X160132375Y-117454279D01*
X160234474Y-117452979D01*
X160318152Y-117451565D01*
X160386152Y-117449882D01*
X160441220Y-117447779D01*
X160486100Y-117445103D01*
X160523536Y-117441704D01*
X160556274Y-117437428D01*
X160587058Y-117432123D01*
X160607983Y-117427911D01*
X160750955Y-117391570D01*
X160876230Y-117345999D01*
X160985565Y-117290306D01*
X161080719Y-117223597D01*
X161161862Y-117146723D01*
X161232193Y-117058293D01*
X161288998Y-116960887D01*
X161332949Y-116852535D01*
X161364721Y-116731263D01*
X161384988Y-116595098D01*
X161393577Y-116468792D01*
X161393321Y-116405292D01*
X161465875Y-116405292D01*
X161465875Y-117304875D01*
X161491930Y-117350377D01*
X161532192Y-117400118D01*
X161586533Y-117436196D01*
X161616836Y-117447795D01*
X161645473Y-117452693D01*
X161688687Y-117455782D01*
X161740352Y-117457093D01*
X161794341Y-117456659D01*
X161844526Y-117454512D01*
X161884781Y-117450683D01*
X161906150Y-117446288D01*
X161966251Y-117415561D01*
X162013095Y-117368484D01*
X162033646Y-117334267D01*
X162039519Y-117321988D01*
X162044410Y-117309818D01*
X162048433Y-117295752D01*
X162051702Y-117277782D01*
X162054330Y-117253903D01*
X162056433Y-117222107D01*
X162058123Y-117180388D01*
X162059516Y-117126741D01*
X162060726Y-117059157D01*
X162061865Y-116975632D01*
X162063049Y-116874158D01*
X162063833Y-116803420D01*
X162069125Y-116323132D01*
X162375675Y-116824168D01*
X162433683Y-116918726D01*
X162489136Y-117008633D01*
X162540921Y-117092118D01*
X162587926Y-117167410D01*
X162629038Y-117232737D01*
X162663143Y-117286329D01*
X162689130Y-117326412D01*
X162705887Y-117351218D01*
X162710967Y-117357940D01*
X162736783Y-117381646D01*
X162772169Y-117407320D01*
X162796000Y-117421793D01*
X162820607Y-117434680D01*
X162842816Y-117443581D01*
X162867568Y-117449382D01*
X162899805Y-117452968D01*
X162944466Y-117455223D01*
X162990372Y-117456608D01*
X163066405Y-117457375D01*
X163125382Y-117454514D01*
X163171230Y-117447185D01*
X163207875Y-117434545D01*
X163239244Y-117415754D01*
X163259719Y-117398894D01*
X163272583Y-117387443D01*
X163283882Y-117376891D01*
X163293712Y-117365863D01*
X163302171Y-117352985D01*
X163309356Y-117336883D01*
X163315363Y-117316181D01*
X163320289Y-117289506D01*
X163324232Y-117255483D01*
X163327288Y-117212738D01*
X163329555Y-117159896D01*
X163331129Y-117095582D01*
X163332107Y-117018423D01*
X163332587Y-116927044D01*
X163332664Y-116820071D01*
X163332437Y-116696128D01*
X163332002Y-116553842D01*
X163331457Y-116391838D01*
X163331426Y-116382485D01*
X163328542Y-115504035D01*
X163296792Y-115452913D01*
X163271723Y-115417633D01*
X163244331Y-115391921D01*
X163210722Y-115374220D01*
X163167003Y-115362974D01*
X163109279Y-115356627D01*
X163049304Y-115354002D01*
X162974685Y-115353692D01*
X162917072Y-115357932D01*
X162872620Y-115367644D01*
X162837482Y-115383750D01*
X162807812Y-115407171D01*
X162801736Y-115413292D01*
X162786999Y-115428984D01*
X162774653Y-115443936D01*
X162764463Y-115460109D01*
X162756195Y-115479465D01*
X162749612Y-115503967D01*
X162744480Y-115535576D01*
X162740563Y-115576255D01*
X162737626Y-115627966D01*
X162735433Y-115692670D01*
X162733749Y-115772330D01*
X162732339Y-115868908D01*
X162730968Y-115984366D01*
X162730729Y-116005337D01*
X162725292Y-116483799D01*
X162423667Y-115989779D01*
X162365912Y-115895522D01*
X162310463Y-115805674D01*
X162258474Y-115722060D01*
X162211098Y-115646506D01*
X162169488Y-115580837D01*
X162134797Y-115526880D01*
X162108180Y-115486458D01*
X162090789Y-115461399D01*
X162085885Y-115455168D01*
X162053590Y-115424362D01*
X162015185Y-115394947D01*
X162001218Y-115386060D01*
X161982605Y-115375558D01*
X161965506Y-115368013D01*
X161946073Y-115362936D01*
X161920452Y-115359839D01*
X161884794Y-115358233D01*
X161835247Y-115357630D01*
X161776370Y-115357542D01*
X161600032Y-115357542D01*
X161555063Y-115389292D01*
X161523250Y-115417258D01*
X161495800Y-115450511D01*
X161487984Y-115463375D01*
X161484084Y-115471156D01*
X161480672Y-115479516D01*
X161477715Y-115489843D01*
X161475181Y-115503526D01*
X161473037Y-115521953D01*
X161471251Y-115546512D01*
X161469789Y-115578593D01*
X161468620Y-115619585D01*
X161467710Y-115670874D01*
X161467027Y-115733851D01*
X161466539Y-115809904D01*
X161466213Y-115900421D01*
X161466016Y-116006791D01*
X161465916Y-116130403D01*
X161465879Y-116272645D01*
X161465875Y-116405292D01*
X161393321Y-116405292D01*
X161392882Y-116297037D01*
X161377278Y-116140260D01*
X161346606Y-115998254D01*
X161300704Y-115870811D01*
X161239409Y-115757724D01*
X161162562Y-115658787D01*
X161070000Y-115573791D01*
X160961562Y-115502531D01*
X160837088Y-115444798D01*
X160696415Y-115400387D01*
X160539382Y-115369089D01*
X160536475Y-115368655D01*
X160494520Y-115363442D01*
X160445168Y-115359360D01*
X160385839Y-115356316D01*
X160313948Y-115354218D01*
X160226914Y-115352973D01*
X160122155Y-115352490D01*
X160083392Y-115352482D01*
X159987881Y-115352640D01*
X159911115Y-115353053D01*
X159850672Y-115353845D01*
X159804130Y-115355138D01*
X159769067Y-115357057D01*
X159743062Y-115359726D01*
X159723693Y-115363267D01*
X159708537Y-115367804D01*
X159698020Y-115372143D01*
X159646933Y-115405882D01*
X159607830Y-115452990D01*
X159587433Y-115500047D01*
X159585131Y-115519823D01*
X159583178Y-115560760D01*
X159581574Y-115622855D01*
X159580318Y-115706105D01*
X159579411Y-115810506D01*
X159578853Y-115936056D01*
X159578643Y-116082751D01*
X159412708Y-116082751D01*
X159412708Y-114542625D01*
X159435551Y-114500292D01*
X160262021Y-115871202D02*
X160382333Y-115877434D01*
X160382333Y-115877434D02*
X160485791Y-115895571D01*
X160485791Y-115895571D02*
X160573033Y-115926314D01*
X160573033Y-115926314D02*
X160644698Y-115970368D01*
X160644698Y-115970368D02*
X160701425Y-116028434D01*
X160701425Y-116028434D02*
X160743852Y-116101217D01*
X160743852Y-116101217D02*
X160772618Y-116189419D01*
X160772618Y-116189419D02*
X160788361Y-116293743D01*
X160788361Y-116293743D02*
X160791720Y-116414892D01*
X160791720Y-116414892D02*
X160790485Y-116452917D01*
X160790485Y-116452917D02*
X160780389Y-116565756D01*
X160780389Y-116565756D02*
X160760104Y-116660783D01*
X160760104Y-116660783D02*
X160728413Y-116739194D01*
X160728413Y-116739194D02*
X160684101Y-116802186D01*
X160684101Y-116802186D02*
X160625951Y-116850958D01*
X160625951Y-116850958D02*
X160552748Y-116886706D01*
X160552748Y-116886706D02*
X160463275Y-116910628D01*
X160463275Y-116910628D02*
X160356318Y-116923922D01*
X160356318Y-116923922D02*
X160309646Y-116926482D01*
X160309646Y-116926482D02*
X160169417Y-116931928D01*
X160169417Y-116931928D02*
X160169417Y-115870833D01*
X160169417Y-115870833D02*
X160262021Y-115871202D01*
X160262021Y-115871202D02*
X160262021Y-115871202D01*
G36*
X160262021Y-115871202D02*
G01*
X160382333Y-115877434D01*
X160485791Y-115895571D01*
X160573033Y-115926314D01*
X160644698Y-115970368D01*
X160701425Y-116028434D01*
X160743852Y-116101217D01*
X160772618Y-116189419D01*
X160788361Y-116293743D01*
X160791720Y-116414892D01*
X160790485Y-116452917D01*
X160780389Y-116565756D01*
X160760104Y-116660783D01*
X160728413Y-116739194D01*
X160684101Y-116802186D01*
X160625951Y-116850958D01*
X160552748Y-116886706D01*
X160463275Y-116910628D01*
X160356318Y-116923922D01*
X160309646Y-116926482D01*
X160169417Y-116931928D01*
X160169417Y-115870833D01*
X160262021Y-115871202D01*
G37*
X160262021Y-115871202D02*
X160382333Y-115877434D01*
X160485791Y-115895571D01*
X160573033Y-115926314D01*
X160644698Y-115970368D01*
X160701425Y-116028434D01*
X160743852Y-116101217D01*
X160772618Y-116189419D01*
X160788361Y-116293743D01*
X160791720Y-116414892D01*
X160790485Y-116452917D01*
X160780389Y-116565756D01*
X160760104Y-116660783D01*
X160728413Y-116739194D01*
X160684101Y-116802186D01*
X160625951Y-116850958D01*
X160552748Y-116886706D01*
X160463275Y-116910628D01*
X160356318Y-116923922D01*
X160309646Y-116926482D01*
X160169417Y-116931928D01*
X160169417Y-115870833D01*
X160262021Y-115871202D01*
%TD*%
M02*
