%TF.GenerationSoftware,KiCad,Pcbnew,(5.99.0-12118-g897269f33f)*%
%TF.CreationDate,2021-09-15T19:12:53-04:00*%
%TF.ProjectId,why,7768792e-6b69-4636-9164-5f7063625858,rev?*%
%TF.SameCoordinates,Original*%
%TF.FileFunction,Soldermask,Bot*%
%TF.FilePolarity,Negative*%
%FSLAX46Y46*%
G04 Gerber Fmt 4.6, Leading zero omitted, Abs format (unit mm)*
G04 Created by KiCad (PCBNEW (5.99.0-12118-g897269f33f)) date 2021-09-15 19:12:53*
%MOMM*%
%LPD*%
G01*
G04 APERTURE LIST*
G04 Aperture macros list*
%AMRoundRect*
0 Rectangle with rounded corners*
0 $1 Rounding radius*
0 $2 $3 $4 $5 $6 $7 $8 $9 X,Y pos of 4 corners*
0 Add a 4 corners polygon primitive as box body*
4,1,4,$2,$3,$4,$5,$6,$7,$8,$9,$2,$3,0*
0 Add four circle primitives for the rounded corners*
1,1,$1+$1,$2,$3*
1,1,$1+$1,$4,$5*
1,1,$1+$1,$6,$7*
1,1,$1+$1,$8,$9*
0 Add four rect primitives between the rounded corners*
20,1,$1+$1,$2,$3,$4,$5,0*
20,1,$1+$1,$4,$5,$6,$7,0*
20,1,$1+$1,$6,$7,$8,$9,0*
20,1,$1+$1,$8,$9,$2,$3,0*%
G04 Aperture macros list end*
%ADD10C,0.010000*%
%ADD11C,0.650000*%
%ADD12R,0.300000X1.450000*%
%ADD13R,0.600000X1.450000*%
%ADD14RoundRect,0.062500X0.375000X0.062500X-0.375000X0.062500X-0.375000X-0.062500X0.375000X-0.062500X0*%
%ADD15RoundRect,0.062500X0.062500X0.375000X-0.062500X0.375000X-0.062500X-0.375000X0.062500X-0.375000X0*%
%ADD16R,3.100000X3.100000*%
%ADD17RoundRect,0.165000X-0.475000X0.165000X-0.475000X-0.165000X0.475000X-0.165000X0.475000X0.165000X0*%
%ADD18R,1.900000X0.400000*%
%ADD19RoundRect,0.135000X0.185000X-0.135000X0.185000X0.135000X-0.185000X0.135000X-0.185000X-0.135000X0*%
%ADD20RoundRect,0.135000X-0.185000X0.135000X-0.185000X-0.135000X0.185000X-0.135000X0.185000X0.135000X0*%
%ADD21RoundRect,0.243750X0.456250X-0.243750X0.456250X0.243750X-0.456250X0.243750X-0.456250X-0.243750X0*%
%ADD22R,1.400000X1.200000*%
%ADD23R,1.400000X1.000000*%
%ADD24RoundRect,0.140000X0.140000X0.170000X-0.140000X0.170000X-0.140000X-0.170000X0.140000X-0.170000X0*%
%ADD25C,2.250000*%
%ADD26C,3.987800*%
G04 APERTURE END LIST*
D10*
%TO.C,G\u002A\u002A\u002A*%
X166127370Y-100857284D02*
X166073061Y-100904083D01*
X166073061Y-100904083D02*
X166009428Y-101025123D01*
X166009428Y-101025123D02*
X166028628Y-101148141D01*
X166028628Y-101148141D02*
X166098250Y-101236322D01*
X166098250Y-101236322D02*
X166214835Y-101331003D01*
X166214835Y-101331003D02*
X166282209Y-101361360D01*
X166282209Y-101361360D02*
X166299333Y-101338140D01*
X166299333Y-101338140D02*
X166267349Y-101285400D01*
X166267349Y-101285400D02*
X166197055Y-101227269D01*
X166197055Y-101227269D02*
X166093075Y-101133930D01*
X166093075Y-101133930D02*
X166072922Y-101043971D01*
X166072922Y-101043971D02*
X166117562Y-100972152D01*
X166117562Y-100972152D02*
X166218652Y-100922997D01*
X166218652Y-100922997D02*
X166316846Y-100927846D01*
X166316846Y-100927846D02*
X166401911Y-100941143D01*
X166401911Y-100941143D02*
X166413421Y-100929605D01*
X166413421Y-100929605D02*
X166365326Y-100889419D01*
X166365326Y-100889419D02*
X166240425Y-100831435D01*
X166240425Y-100831435D02*
X166127370Y-100857284D01*
X166127370Y-100857284D02*
X166127370Y-100857284D01*
G36*
X166365326Y-100889419D02*
G01*
X166413421Y-100929605D01*
X166401911Y-100941143D01*
X166316846Y-100927846D01*
X166218652Y-100922997D01*
X166117562Y-100972152D01*
X166072922Y-101043971D01*
X166093075Y-101133930D01*
X166197055Y-101227269D01*
X166267349Y-101285400D01*
X166299333Y-101338140D01*
X166282209Y-101361360D01*
X166214835Y-101331003D01*
X166098250Y-101236322D01*
X166028628Y-101148141D01*
X166009428Y-101025123D01*
X166073061Y-100904083D01*
X166127370Y-100857284D01*
X166240425Y-100831435D01*
X166365326Y-100889419D01*
G37*
X166365326Y-100889419D02*
X166413421Y-100929605D01*
X166401911Y-100941143D01*
X166316846Y-100927846D01*
X166218652Y-100922997D01*
X166117562Y-100972152D01*
X166072922Y-101043971D01*
X166093075Y-101133930D01*
X166197055Y-101227269D01*
X166267349Y-101285400D01*
X166299333Y-101338140D01*
X166282209Y-101361360D01*
X166214835Y-101331003D01*
X166098250Y-101236322D01*
X166028628Y-101148141D01*
X166009428Y-101025123D01*
X166073061Y-100904083D01*
X166127370Y-100857284D01*
X166240425Y-100831435D01*
X166365326Y-100889419D01*
X166258230Y-101493881D02*
X166257000Y-101504000D01*
X166257000Y-101504000D02*
X166289215Y-101545103D01*
X166289215Y-101545103D02*
X166299333Y-101546333D01*
X166299333Y-101546333D02*
X166340437Y-101514118D01*
X166340437Y-101514118D02*
X166341667Y-101504000D01*
X166341667Y-101504000D02*
X166309452Y-101462896D01*
X166309452Y-101462896D02*
X166299333Y-101461666D01*
X166299333Y-101461666D02*
X166258230Y-101493881D01*
X166258230Y-101493881D02*
X166258230Y-101493881D01*
G36*
X166309452Y-101462896D02*
G01*
X166341667Y-101504000D01*
X166340437Y-101514118D01*
X166299333Y-101546333D01*
X166289215Y-101545103D01*
X166257000Y-101504000D01*
X166258230Y-101493881D01*
X166299333Y-101461666D01*
X166309452Y-101462896D01*
G37*
X166309452Y-101462896D02*
X166341667Y-101504000D01*
X166340437Y-101514118D01*
X166299333Y-101546333D01*
X166289215Y-101545103D01*
X166257000Y-101504000D01*
X166258230Y-101493881D01*
X166299333Y-101461666D01*
X166309452Y-101462896D01*
X167415766Y-100821876D02*
X167401045Y-100915605D01*
X167401045Y-100915605D02*
X167400000Y-100952759D01*
X167400000Y-100952759D02*
X167396828Y-101059105D01*
X167396828Y-101059105D02*
X167377044Y-101098023D01*
X167377044Y-101098023D02*
X167325248Y-101086740D01*
X167325248Y-101086740D02*
X167293019Y-101072440D01*
X167293019Y-101072440D02*
X167203060Y-101046817D01*
X167203060Y-101046817D02*
X167142451Y-101074788D01*
X167142451Y-101074788D02*
X167102579Y-101166666D01*
X167102579Y-101166666D02*
X167074834Y-101332767D01*
X167074834Y-101332767D02*
X167074694Y-101333952D01*
X167074694Y-101333952D02*
X167063684Y-101467233D01*
X167063684Y-101467233D02*
X167072374Y-101527898D01*
X167072374Y-101527898D02*
X167096985Y-101529296D01*
X167096985Y-101529296D02*
X167126822Y-101471751D01*
X167126822Y-101471751D02*
X167144195Y-101362586D01*
X167144195Y-101362586D02*
X167146000Y-101311001D01*
X167146000Y-101311001D02*
X167156660Y-101180233D01*
X167156660Y-101180233D02*
X167189859Y-101125517D01*
X167189859Y-101125517D02*
X167202939Y-101123000D01*
X167202939Y-101123000D02*
X167290344Y-101160763D01*
X167290344Y-101160763D02*
X167361707Y-101255848D01*
X167361707Y-101255848D02*
X167398415Y-101380952D01*
X167398415Y-101380952D02*
X167400000Y-101412083D01*
X167400000Y-101412083D02*
X167411650Y-101504340D01*
X167411650Y-101504340D02*
X167439934Y-101546118D01*
X167439934Y-101546118D02*
X167442333Y-101546333D01*
X167442333Y-101546333D02*
X167462618Y-101506370D01*
X167462618Y-101506370D02*
X167477087Y-101395745D01*
X167477087Y-101395745D02*
X167484198Y-101228358D01*
X167484198Y-101228358D02*
X167484667Y-101165333D01*
X167484667Y-101165333D02*
X167480226Y-100982773D01*
X167480226Y-100982773D02*
X167467935Y-100852548D01*
X167467935Y-100852548D02*
X167449336Y-100788553D01*
X167449336Y-100788553D02*
X167442333Y-100784333D01*
X167442333Y-100784333D02*
X167415766Y-100821876D01*
X167415766Y-100821876D02*
X167415766Y-100821876D01*
G36*
X167449336Y-100788553D02*
G01*
X167467935Y-100852548D01*
X167480226Y-100982773D01*
X167484667Y-101165333D01*
X167484198Y-101228358D01*
X167477087Y-101395745D01*
X167462618Y-101506370D01*
X167442333Y-101546333D01*
X167439934Y-101546118D01*
X167411650Y-101504340D01*
X167400000Y-101412083D01*
X167398415Y-101380952D01*
X167361707Y-101255848D01*
X167290344Y-101160763D01*
X167202939Y-101123000D01*
X167189859Y-101125517D01*
X167156660Y-101180233D01*
X167146000Y-101311001D01*
X167144195Y-101362586D01*
X167126822Y-101471751D01*
X167096985Y-101529296D01*
X167072374Y-101527898D01*
X167063684Y-101467233D01*
X167074694Y-101333952D01*
X167074834Y-101332767D01*
X167102579Y-101166666D01*
X167142451Y-101074788D01*
X167203060Y-101046817D01*
X167293019Y-101072440D01*
X167325248Y-101086740D01*
X167377044Y-101098023D01*
X167396828Y-101059105D01*
X167400000Y-100952759D01*
X167401045Y-100915605D01*
X167415766Y-100821876D01*
X167442333Y-100784333D01*
X167449336Y-100788553D01*
G37*
X167449336Y-100788553D02*
X167467935Y-100852548D01*
X167480226Y-100982773D01*
X167484667Y-101165333D01*
X167484198Y-101228358D01*
X167477087Y-101395745D01*
X167462618Y-101506370D01*
X167442333Y-101546333D01*
X167439934Y-101546118D01*
X167411650Y-101504340D01*
X167400000Y-101412083D01*
X167398415Y-101380952D01*
X167361707Y-101255848D01*
X167290344Y-101160763D01*
X167202939Y-101123000D01*
X167189859Y-101125517D01*
X167156660Y-101180233D01*
X167146000Y-101311001D01*
X167144195Y-101362586D01*
X167126822Y-101471751D01*
X167096985Y-101529296D01*
X167072374Y-101527898D01*
X167063684Y-101467233D01*
X167074694Y-101333952D01*
X167074834Y-101332767D01*
X167102579Y-101166666D01*
X167142451Y-101074788D01*
X167203060Y-101046817D01*
X167293019Y-101072440D01*
X167325248Y-101086740D01*
X167377044Y-101098023D01*
X167396828Y-101059105D01*
X167400000Y-100952759D01*
X167401045Y-100915605D01*
X167415766Y-100821876D01*
X167442333Y-100784333D01*
X167449336Y-100788553D01*
X167627669Y-100829624D02*
X167617447Y-100848268D01*
X167617447Y-100848268D02*
X167626692Y-100897252D01*
X167626692Y-100897252D02*
X167658763Y-100991232D01*
X167658763Y-100991232D02*
X167717018Y-101144862D01*
X167717018Y-101144862D02*
X167741442Y-101208248D01*
X167741442Y-101208248D02*
X167820537Y-101402766D01*
X167820537Y-101402766D02*
X167880166Y-101522727D01*
X167880166Y-101522727D02*
X167924599Y-101574847D01*
X167924599Y-101574847D02*
X167958109Y-101565840D01*
X167958109Y-101565840D02*
X167963692Y-101557607D01*
X167963692Y-101557607D02*
X167981582Y-101499122D01*
X167981582Y-101499122D02*
X168004289Y-101389462D01*
X168004289Y-101389462D02*
X168013717Y-101334666D01*
X168013717Y-101334666D02*
X168045101Y-101173008D01*
X168045101Y-101173008D02*
X168076019Y-101094802D01*
X168076019Y-101094802D02*
X168110503Y-101098953D01*
X168110503Y-101098953D02*
X168152585Y-101184366D01*
X168152585Y-101184366D02*
X168187348Y-101287506D01*
X168187348Y-101287506D02*
X168235211Y-101420660D01*
X168235211Y-101420660D02*
X168280867Y-101513995D01*
X168280867Y-101513995D02*
X168311920Y-101545971D01*
X168311920Y-101545971D02*
X168342868Y-101508212D01*
X168342868Y-101508212D02*
X168382472Y-101408623D01*
X168382472Y-101408623D02*
X168422417Y-101268323D01*
X168422417Y-101268323D02*
X168424283Y-101260583D01*
X168424283Y-101260583D02*
X168463160Y-101104927D01*
X168463160Y-101104927D02*
X168498632Y-100974927D01*
X168498632Y-100974927D02*
X168522309Y-100900750D01*
X168522309Y-100900750D02*
X168528273Y-100839531D01*
X168528273Y-100839531D02*
X168508049Y-100826666D01*
X168508049Y-100826666D02*
X168482460Y-100832520D01*
X168482460Y-100832520D02*
X168460578Y-100861097D01*
X168460578Y-100861097D02*
X168435719Y-100928916D01*
X168435719Y-100928916D02*
X168401198Y-101052498D01*
X168401198Y-101052498D02*
X168373105Y-101160134D01*
X168373105Y-101160134D02*
X168338893Y-101266934D01*
X168338893Y-101266934D02*
X168305528Y-101302990D01*
X168305528Y-101302990D02*
X168267434Y-101265004D01*
X168267434Y-101265004D02*
X168219034Y-101149682D01*
X168219034Y-101149682D02*
X168184968Y-101048916D01*
X168184968Y-101048916D02*
X168135315Y-100908767D01*
X168135315Y-100908767D02*
X168095876Y-100836958D01*
X168095876Y-100836958D02*
X168062354Y-100836845D01*
X168062354Y-100836845D02*
X168030452Y-100911786D01*
X168030452Y-100911786D02*
X167995873Y-101065137D01*
X167995873Y-101065137D02*
X167968237Y-101218250D01*
X167968237Y-101218250D02*
X167942610Y-101320066D01*
X167942610Y-101320066D02*
X167913177Y-101374274D01*
X167913177Y-101374274D02*
X167906330Y-101377000D01*
X167906330Y-101377000D02*
X167876862Y-101341124D01*
X167876862Y-101341124D02*
X167831197Y-101250633D01*
X167831197Y-101250633D02*
X167779925Y-101131225D01*
X167779925Y-101131225D02*
X167733638Y-101008602D01*
X167733638Y-101008602D02*
X167702927Y-100908464D01*
X167702927Y-100908464D02*
X167696333Y-100867411D01*
X167696333Y-100867411D02*
X167664071Y-100827839D01*
X167664071Y-100827839D02*
X167654000Y-100826666D01*
X167654000Y-100826666D02*
X167627669Y-100829624D01*
X167627669Y-100829624D02*
X167627669Y-100829624D01*
G36*
X168528273Y-100839531D02*
G01*
X168522309Y-100900750D01*
X168498632Y-100974927D01*
X168463160Y-101104927D01*
X168424283Y-101260583D01*
X168422417Y-101268323D01*
X168382472Y-101408623D01*
X168342868Y-101508212D01*
X168311920Y-101545971D01*
X168280867Y-101513995D01*
X168235211Y-101420660D01*
X168187348Y-101287506D01*
X168152585Y-101184366D01*
X168110503Y-101098953D01*
X168076019Y-101094802D01*
X168045101Y-101173008D01*
X168013717Y-101334666D01*
X168004289Y-101389462D01*
X167981582Y-101499122D01*
X167963692Y-101557607D01*
X167958109Y-101565840D01*
X167924599Y-101574847D01*
X167880166Y-101522727D01*
X167820537Y-101402766D01*
X167741442Y-101208248D01*
X167717018Y-101144862D01*
X167658763Y-100991232D01*
X167626692Y-100897252D01*
X167617447Y-100848268D01*
X167627669Y-100829624D01*
X167654000Y-100826666D01*
X167664071Y-100827839D01*
X167696333Y-100867411D01*
X167702927Y-100908464D01*
X167733638Y-101008602D01*
X167779925Y-101131225D01*
X167831197Y-101250633D01*
X167876862Y-101341124D01*
X167906330Y-101377000D01*
X167913177Y-101374274D01*
X167942610Y-101320066D01*
X167968237Y-101218250D01*
X167995873Y-101065137D01*
X168030452Y-100911786D01*
X168062354Y-100836845D01*
X168095876Y-100836958D01*
X168135315Y-100908767D01*
X168184968Y-101048916D01*
X168219034Y-101149682D01*
X168267434Y-101265004D01*
X168305528Y-101302990D01*
X168338893Y-101266934D01*
X168373105Y-101160134D01*
X168401198Y-101052498D01*
X168435719Y-100928916D01*
X168460578Y-100861097D01*
X168482460Y-100832520D01*
X168508049Y-100826666D01*
X168528273Y-100839531D01*
G37*
X168528273Y-100839531D02*
X168522309Y-100900750D01*
X168498632Y-100974927D01*
X168463160Y-101104927D01*
X168424283Y-101260583D01*
X168422417Y-101268323D01*
X168382472Y-101408623D01*
X168342868Y-101508212D01*
X168311920Y-101545971D01*
X168280867Y-101513995D01*
X168235211Y-101420660D01*
X168187348Y-101287506D01*
X168152585Y-101184366D01*
X168110503Y-101098953D01*
X168076019Y-101094802D01*
X168045101Y-101173008D01*
X168013717Y-101334666D01*
X168004289Y-101389462D01*
X167981582Y-101499122D01*
X167963692Y-101557607D01*
X167958109Y-101565840D01*
X167924599Y-101574847D01*
X167880166Y-101522727D01*
X167820537Y-101402766D01*
X167741442Y-101208248D01*
X167717018Y-101144862D01*
X167658763Y-100991232D01*
X167626692Y-100897252D01*
X167617447Y-100848268D01*
X167627669Y-100829624D01*
X167654000Y-100826666D01*
X167664071Y-100827839D01*
X167696333Y-100867411D01*
X167702927Y-100908464D01*
X167733638Y-101008602D01*
X167779925Y-101131225D01*
X167831197Y-101250633D01*
X167876862Y-101341124D01*
X167906330Y-101377000D01*
X167913177Y-101374274D01*
X167942610Y-101320066D01*
X167968237Y-101218250D01*
X167995873Y-101065137D01*
X168030452Y-100911786D01*
X168062354Y-100836845D01*
X168095876Y-100836958D01*
X168135315Y-100908767D01*
X168184968Y-101048916D01*
X168219034Y-101149682D01*
X168267434Y-101265004D01*
X168305528Y-101302990D01*
X168338893Y-101266934D01*
X168373105Y-101160134D01*
X168401198Y-101052498D01*
X168435719Y-100928916D01*
X168460578Y-100861097D01*
X168482460Y-100832520D01*
X168508049Y-100826666D01*
X168528273Y-100839531D01*
X166913711Y-101047458D02*
X166907203Y-101059500D01*
X166907203Y-101059500D02*
X166876524Y-101120642D01*
X166876524Y-101120642D02*
X166819874Y-101219323D01*
X166819874Y-101219323D02*
X166803522Y-101246431D01*
X166803522Y-101246431D02*
X166715380Y-101391029D01*
X166715380Y-101391029D02*
X166633604Y-101208377D01*
X166633604Y-101208377D02*
X166580929Y-101107577D01*
X166580929Y-101107577D02*
X166538150Y-101054949D01*
X166538150Y-101054949D02*
X166523946Y-101053609D01*
X166523946Y-101053609D02*
X166526846Y-101102503D01*
X166526846Y-101102503D02*
X166558754Y-101208644D01*
X166558754Y-101208644D02*
X166613388Y-101352318D01*
X166613388Y-101352318D02*
X166637292Y-101409163D01*
X166637292Y-101409163D02*
X166730657Y-101617655D01*
X166730657Y-101617655D02*
X166796897Y-101746791D01*
X166796897Y-101746791D02*
X166836428Y-101797276D01*
X166836428Y-101797276D02*
X166849666Y-101769813D01*
X166849666Y-101769813D02*
X166849667Y-101769222D01*
X166849667Y-101769222D02*
X166835536Y-101696203D01*
X166835536Y-101696203D02*
X166807626Y-101610603D01*
X166807626Y-101610603D02*
X166790292Y-101527226D01*
X166790292Y-101527226D02*
X166808446Y-101432548D01*
X166808446Y-101432548D02*
X166867888Y-101298210D01*
X166867888Y-101298210D02*
X166873973Y-101286138D01*
X166873973Y-101286138D02*
X166928032Y-101165512D01*
X166928032Y-101165512D02*
X166954959Y-101076341D01*
X166954959Y-101076341D02*
X166952551Y-101044707D01*
X166952551Y-101044707D02*
X166913711Y-101047458D01*
X166913711Y-101047458D02*
X166913711Y-101047458D01*
G36*
X166954959Y-101076341D02*
G01*
X166928032Y-101165512D01*
X166873973Y-101286138D01*
X166867888Y-101298210D01*
X166808446Y-101432548D01*
X166790292Y-101527226D01*
X166807626Y-101610603D01*
X166835536Y-101696203D01*
X166849667Y-101769222D01*
X166849666Y-101769813D01*
X166836428Y-101797276D01*
X166796897Y-101746791D01*
X166730657Y-101617655D01*
X166637292Y-101409163D01*
X166613388Y-101352318D01*
X166558754Y-101208644D01*
X166526846Y-101102503D01*
X166523946Y-101053609D01*
X166538150Y-101054949D01*
X166580929Y-101107577D01*
X166633604Y-101208377D01*
X166715380Y-101391029D01*
X166803522Y-101246431D01*
X166819874Y-101219323D01*
X166876524Y-101120642D01*
X166907203Y-101059500D01*
X166913711Y-101047458D01*
X166952551Y-101044707D01*
X166954959Y-101076341D01*
G37*
X166954959Y-101076341D02*
X166928032Y-101165512D01*
X166873973Y-101286138D01*
X166867888Y-101298210D01*
X166808446Y-101432548D01*
X166790292Y-101527226D01*
X166807626Y-101610603D01*
X166835536Y-101696203D01*
X166849667Y-101769222D01*
X166849666Y-101769813D01*
X166836428Y-101797276D01*
X166796897Y-101746791D01*
X166730657Y-101617655D01*
X166637292Y-101409163D01*
X166613388Y-101352318D01*
X166558754Y-101208644D01*
X166526846Y-101102503D01*
X166523946Y-101053609D01*
X166538150Y-101054949D01*
X166580929Y-101107577D01*
X166633604Y-101208377D01*
X166715380Y-101391029D01*
X166803522Y-101246431D01*
X166819874Y-101219323D01*
X166876524Y-101120642D01*
X166907203Y-101059500D01*
X166913711Y-101047458D01*
X166952551Y-101044707D01*
X166954959Y-101076341D01*
X165849903Y-115195042D02*
X165781877Y-115199729D01*
X165781877Y-115199729D02*
X165721460Y-115207827D01*
X165721460Y-115207827D02*
X165703629Y-115211313D01*
X165703629Y-115211313D02*
X165586878Y-115242966D01*
X165586878Y-115242966D02*
X165478355Y-115286198D01*
X165478355Y-115286198D02*
X165376942Y-115341619D01*
X165376942Y-115341619D02*
X165281520Y-115409839D01*
X165281520Y-115409839D02*
X165191249Y-115491192D01*
X165191249Y-115491192D02*
X165109774Y-115581820D01*
X165109774Y-115581820D02*
X165041583Y-115677761D01*
X165041583Y-115677761D02*
X164986177Y-115779955D01*
X164986177Y-115779955D02*
X164943059Y-115889342D01*
X164943059Y-115889342D02*
X164911730Y-116006862D01*
X164911730Y-116006862D02*
X164908059Y-116025029D01*
X164908059Y-116025029D02*
X164899922Y-116082434D01*
X164899922Y-116082434D02*
X164895373Y-116149044D01*
X164895373Y-116149044D02*
X164894374Y-116220103D01*
X164894374Y-116220103D02*
X164896885Y-116290850D01*
X164896885Y-116290850D02*
X164902869Y-116356529D01*
X164902869Y-116356529D02*
X164911195Y-116407396D01*
X164911195Y-116407396D02*
X164943711Y-116526816D01*
X164943711Y-116526816D02*
X164988902Y-116639732D01*
X164988902Y-116639732D02*
X165046204Y-116745396D01*
X165046204Y-116745396D02*
X165115052Y-116843059D01*
X165115052Y-116843059D02*
X165194884Y-116931974D01*
X165194884Y-116931974D02*
X165285136Y-117011392D01*
X165285136Y-117011392D02*
X165385244Y-117080565D01*
X165385244Y-117080565D02*
X165442986Y-117113282D01*
X165442986Y-117113282D02*
X165513196Y-117146060D01*
X165513196Y-117146060D02*
X165590785Y-117175153D01*
X165590785Y-117175153D02*
X165669321Y-117198356D01*
X165669321Y-117198356D02*
X165728714Y-117211232D01*
X165728714Y-117211232D02*
X165779455Y-117218241D01*
X165779455Y-117218241D02*
X165837277Y-117223199D01*
X165837277Y-117223199D02*
X165897355Y-117225926D01*
X165897355Y-117225926D02*
X165954867Y-117226241D01*
X165954867Y-117226241D02*
X166004990Y-117223964D01*
X166004990Y-117223964D02*
X166022628Y-117222198D01*
X166022628Y-117222198D02*
X166144156Y-117200336D01*
X166144156Y-117200336D02*
X166259691Y-117165611D01*
X166259691Y-117165611D02*
X166368536Y-117118677D01*
X166368536Y-117118677D02*
X166469990Y-117060188D01*
X166469990Y-117060188D02*
X166563354Y-116990796D01*
X166563354Y-116990796D02*
X166647928Y-116911156D01*
X166647928Y-116911156D02*
X166723012Y-116821919D01*
X166723012Y-116821919D02*
X166787907Y-116723739D01*
X166787907Y-116723739D02*
X166841913Y-116617269D01*
X166841913Y-116617269D02*
X166884330Y-116503163D01*
X166884330Y-116503163D02*
X166912668Y-116391251D01*
X166912668Y-116391251D02*
X166920510Y-116337110D01*
X166920510Y-116337110D02*
X166924974Y-116273467D01*
X166924974Y-116273467D02*
X166926103Y-116204929D01*
X166926103Y-116204929D02*
X166926037Y-116202829D01*
X166926037Y-116202829D02*
X166489562Y-116202829D01*
X166489562Y-116202829D02*
X166483620Y-116297367D01*
X166483620Y-116297367D02*
X166464467Y-116386056D01*
X166464467Y-116386056D02*
X166432209Y-116468647D01*
X166432209Y-116468647D02*
X166386949Y-116544893D01*
X166386949Y-116544893D02*
X166328795Y-116614544D01*
X166328795Y-116614544D02*
X166305616Y-116637130D01*
X166305616Y-116637130D02*
X166235409Y-116692459D01*
X166235409Y-116692459D02*
X166157969Y-116735850D01*
X166157969Y-116735850D02*
X166074895Y-116766882D01*
X166074895Y-116766882D02*
X165987786Y-116785137D01*
X165987786Y-116785137D02*
X165898240Y-116790193D01*
X165898240Y-116790193D02*
X165807856Y-116781632D01*
X165807856Y-116781632D02*
X165777963Y-116775712D01*
X165777963Y-116775712D02*
X165693050Y-116749403D01*
X165693050Y-116749403D02*
X165614153Y-116710495D01*
X165614153Y-116710495D02*
X165542394Y-116660054D01*
X165542394Y-116660054D02*
X165478894Y-116599146D01*
X165478894Y-116599146D02*
X165424774Y-116528836D01*
X165424774Y-116528836D02*
X165381155Y-116450190D01*
X165381155Y-116450190D02*
X165350770Y-116369743D01*
X165350770Y-116369743D02*
X165342146Y-116338813D01*
X165342146Y-116338813D02*
X165336421Y-116311502D01*
X165336421Y-116311502D02*
X165333016Y-116283156D01*
X165333016Y-116283156D02*
X165331349Y-116249123D01*
X165331349Y-116249123D02*
X165330858Y-116210086D01*
X165330858Y-116210086D02*
X165334622Y-116127913D01*
X165334622Y-116127913D02*
X165347220Y-116054558D01*
X165347220Y-116054558D02*
X165369622Y-115986642D01*
X165369622Y-115986642D02*
X165402794Y-115920785D01*
X165402794Y-115920785D02*
X165422924Y-115888768D01*
X165422924Y-115888768D02*
X165478469Y-115817467D01*
X165478469Y-115817467D02*
X165541479Y-115757659D01*
X165541479Y-115757659D02*
X165610658Y-115709264D01*
X165610658Y-115709264D02*
X165684708Y-115672203D01*
X165684708Y-115672203D02*
X165762334Y-115646398D01*
X165762334Y-115646398D02*
X165842239Y-115631769D01*
X165842239Y-115631769D02*
X165923126Y-115628238D01*
X165923126Y-115628238D02*
X166003698Y-115635724D01*
X166003698Y-115635724D02*
X166082660Y-115654150D01*
X166082660Y-115654150D02*
X166158714Y-115683437D01*
X166158714Y-115683437D02*
X166230563Y-115723505D01*
X166230563Y-115723505D02*
X166296912Y-115774275D01*
X166296912Y-115774275D02*
X166356463Y-115835668D01*
X166356463Y-115835668D02*
X166407921Y-115907606D01*
X166407921Y-115907606D02*
X166431592Y-115950226D01*
X166431592Y-115950226D02*
X166463056Y-116026692D01*
X166463056Y-116026692D02*
X166482189Y-116107835D01*
X166482189Y-116107835D02*
X166489478Y-116195779D01*
X166489478Y-116195779D02*
X166489562Y-116202829D01*
X166489562Y-116202829D02*
X166926037Y-116202829D01*
X166926037Y-116202829D02*
X166923937Y-116136101D01*
X166923937Y-116136101D02*
X166918521Y-116071587D01*
X166918521Y-116071587D02*
X166909894Y-116015992D01*
X166909894Y-116015992D02*
X166909219Y-116012776D01*
X166909219Y-116012776D02*
X166876316Y-115892128D01*
X166876316Y-115892128D02*
X166831138Y-115778766D01*
X166831138Y-115778766D02*
X166774299Y-115673310D01*
X166774299Y-115673310D02*
X166706415Y-115576378D01*
X166706415Y-115576378D02*
X166628104Y-115488591D01*
X166628104Y-115488591D02*
X166539981Y-115410568D01*
X166539981Y-115410568D02*
X166442663Y-115342928D01*
X166442663Y-115342928D02*
X166336766Y-115286290D01*
X166336766Y-115286290D02*
X166222905Y-115241276D01*
X166222905Y-115241276D02*
X166111265Y-115210574D01*
X166111265Y-115210574D02*
X166056218Y-115201534D01*
X166056218Y-115201534D02*
X165991415Y-115195937D01*
X165991415Y-115195937D02*
X165921196Y-115193775D01*
X165921196Y-115193775D02*
X165849903Y-115195042D01*
X165849903Y-115195042D02*
X165849903Y-115195042D01*
G36*
X166924974Y-116273467D02*
G01*
X166920510Y-116337110D01*
X166912668Y-116391251D01*
X166884330Y-116503163D01*
X166841913Y-116617269D01*
X166787907Y-116723739D01*
X166723012Y-116821919D01*
X166647928Y-116911156D01*
X166563354Y-116990796D01*
X166469990Y-117060188D01*
X166368536Y-117118677D01*
X166259691Y-117165611D01*
X166144156Y-117200336D01*
X166022628Y-117222198D01*
X166004990Y-117223964D01*
X165954867Y-117226241D01*
X165897355Y-117225926D01*
X165837277Y-117223199D01*
X165779455Y-117218241D01*
X165728714Y-117211232D01*
X165669321Y-117198356D01*
X165590785Y-117175153D01*
X165513196Y-117146060D01*
X165442986Y-117113282D01*
X165385244Y-117080565D01*
X165285136Y-117011392D01*
X165194884Y-116931974D01*
X165115052Y-116843059D01*
X165046204Y-116745396D01*
X164988902Y-116639732D01*
X164943711Y-116526816D01*
X164911195Y-116407396D01*
X164902869Y-116356529D01*
X164896885Y-116290850D01*
X164894374Y-116220103D01*
X164894515Y-116210086D01*
X165330858Y-116210086D01*
X165331349Y-116249123D01*
X165333016Y-116283156D01*
X165336421Y-116311502D01*
X165342146Y-116338813D01*
X165350770Y-116369743D01*
X165381155Y-116450190D01*
X165424774Y-116528836D01*
X165478894Y-116599146D01*
X165542394Y-116660054D01*
X165614153Y-116710495D01*
X165693050Y-116749403D01*
X165777963Y-116775712D01*
X165807856Y-116781632D01*
X165898240Y-116790193D01*
X165987786Y-116785137D01*
X166074895Y-116766882D01*
X166157969Y-116735850D01*
X166235409Y-116692459D01*
X166305616Y-116637130D01*
X166328795Y-116614544D01*
X166386949Y-116544893D01*
X166432209Y-116468647D01*
X166464467Y-116386056D01*
X166483620Y-116297367D01*
X166489562Y-116202829D01*
X166489478Y-116195779D01*
X166482189Y-116107835D01*
X166463056Y-116026692D01*
X166431592Y-115950226D01*
X166407921Y-115907606D01*
X166356463Y-115835668D01*
X166296912Y-115774275D01*
X166230563Y-115723505D01*
X166158714Y-115683437D01*
X166082660Y-115654150D01*
X166003698Y-115635724D01*
X165923126Y-115628238D01*
X165842239Y-115631769D01*
X165762334Y-115646398D01*
X165684708Y-115672203D01*
X165610658Y-115709264D01*
X165541479Y-115757659D01*
X165478469Y-115817467D01*
X165422924Y-115888768D01*
X165402794Y-115920785D01*
X165369622Y-115986642D01*
X165347220Y-116054558D01*
X165334622Y-116127913D01*
X165330858Y-116210086D01*
X164894515Y-116210086D01*
X164895373Y-116149044D01*
X164899922Y-116082434D01*
X164908059Y-116025029D01*
X164911730Y-116006862D01*
X164943059Y-115889342D01*
X164986177Y-115779955D01*
X165041583Y-115677761D01*
X165109774Y-115581820D01*
X165191249Y-115491192D01*
X165281520Y-115409839D01*
X165376942Y-115341619D01*
X165478355Y-115286198D01*
X165586878Y-115242966D01*
X165703629Y-115211313D01*
X165721460Y-115207827D01*
X165781877Y-115199729D01*
X165849903Y-115195042D01*
X165921196Y-115193775D01*
X165991415Y-115195937D01*
X166056218Y-115201534D01*
X166111265Y-115210574D01*
X166222905Y-115241276D01*
X166336766Y-115286290D01*
X166442663Y-115342928D01*
X166539981Y-115410568D01*
X166628104Y-115488591D01*
X166706415Y-115576378D01*
X166774299Y-115673310D01*
X166831138Y-115778766D01*
X166876316Y-115892128D01*
X166909219Y-116012776D01*
X166909894Y-116015992D01*
X166918521Y-116071587D01*
X166923937Y-116136101D01*
X166926037Y-116202829D01*
X166926103Y-116204929D01*
X166924974Y-116273467D01*
G37*
X166924974Y-116273467D02*
X166920510Y-116337110D01*
X166912668Y-116391251D01*
X166884330Y-116503163D01*
X166841913Y-116617269D01*
X166787907Y-116723739D01*
X166723012Y-116821919D01*
X166647928Y-116911156D01*
X166563354Y-116990796D01*
X166469990Y-117060188D01*
X166368536Y-117118677D01*
X166259691Y-117165611D01*
X166144156Y-117200336D01*
X166022628Y-117222198D01*
X166004990Y-117223964D01*
X165954867Y-117226241D01*
X165897355Y-117225926D01*
X165837277Y-117223199D01*
X165779455Y-117218241D01*
X165728714Y-117211232D01*
X165669321Y-117198356D01*
X165590785Y-117175153D01*
X165513196Y-117146060D01*
X165442986Y-117113282D01*
X165385244Y-117080565D01*
X165285136Y-117011392D01*
X165194884Y-116931974D01*
X165115052Y-116843059D01*
X165046204Y-116745396D01*
X164988902Y-116639732D01*
X164943711Y-116526816D01*
X164911195Y-116407396D01*
X164902869Y-116356529D01*
X164896885Y-116290850D01*
X164894374Y-116220103D01*
X164894515Y-116210086D01*
X165330858Y-116210086D01*
X165331349Y-116249123D01*
X165333016Y-116283156D01*
X165336421Y-116311502D01*
X165342146Y-116338813D01*
X165350770Y-116369743D01*
X165381155Y-116450190D01*
X165424774Y-116528836D01*
X165478894Y-116599146D01*
X165542394Y-116660054D01*
X165614153Y-116710495D01*
X165693050Y-116749403D01*
X165777963Y-116775712D01*
X165807856Y-116781632D01*
X165898240Y-116790193D01*
X165987786Y-116785137D01*
X166074895Y-116766882D01*
X166157969Y-116735850D01*
X166235409Y-116692459D01*
X166305616Y-116637130D01*
X166328795Y-116614544D01*
X166386949Y-116544893D01*
X166432209Y-116468647D01*
X166464467Y-116386056D01*
X166483620Y-116297367D01*
X166489562Y-116202829D01*
X166489478Y-116195779D01*
X166482189Y-116107835D01*
X166463056Y-116026692D01*
X166431592Y-115950226D01*
X166407921Y-115907606D01*
X166356463Y-115835668D01*
X166296912Y-115774275D01*
X166230563Y-115723505D01*
X166158714Y-115683437D01*
X166082660Y-115654150D01*
X166003698Y-115635724D01*
X165923126Y-115628238D01*
X165842239Y-115631769D01*
X165762334Y-115646398D01*
X165684708Y-115672203D01*
X165610658Y-115709264D01*
X165541479Y-115757659D01*
X165478469Y-115817467D01*
X165422924Y-115888768D01*
X165402794Y-115920785D01*
X165369622Y-115986642D01*
X165347220Y-116054558D01*
X165334622Y-116127913D01*
X165330858Y-116210086D01*
X164894515Y-116210086D01*
X164895373Y-116149044D01*
X164899922Y-116082434D01*
X164908059Y-116025029D01*
X164911730Y-116006862D01*
X164943059Y-115889342D01*
X164986177Y-115779955D01*
X165041583Y-115677761D01*
X165109774Y-115581820D01*
X165191249Y-115491192D01*
X165281520Y-115409839D01*
X165376942Y-115341619D01*
X165478355Y-115286198D01*
X165586878Y-115242966D01*
X165703629Y-115211313D01*
X165721460Y-115207827D01*
X165781877Y-115199729D01*
X165849903Y-115195042D01*
X165921196Y-115193775D01*
X165991415Y-115195937D01*
X166056218Y-115201534D01*
X166111265Y-115210574D01*
X166222905Y-115241276D01*
X166336766Y-115286290D01*
X166442663Y-115342928D01*
X166539981Y-115410568D01*
X166628104Y-115488591D01*
X166706415Y-115576378D01*
X166774299Y-115673310D01*
X166831138Y-115778766D01*
X166876316Y-115892128D01*
X166909219Y-116012776D01*
X166909894Y-116015992D01*
X166918521Y-116071587D01*
X166923937Y-116136101D01*
X166926037Y-116202829D01*
X166926103Y-116204929D01*
X166924974Y-116273467D01*
X167292628Y-116794286D02*
X167111200Y-116794286D01*
X167111200Y-116794286D02*
X167111200Y-117229714D01*
X167111200Y-117229714D02*
X167728014Y-117229714D01*
X167728014Y-117229714D02*
X167729850Y-116030472D01*
X167729850Y-116030472D02*
X167731686Y-114831229D01*
X167731686Y-114831229D02*
X167909486Y-114827153D01*
X167909486Y-114827153D02*
X167909486Y-114392172D01*
X167909486Y-114392172D02*
X167292628Y-114392172D01*
X167292628Y-114392172D02*
X167292628Y-116794286D01*
X167292628Y-116794286D02*
X167292628Y-116794286D01*
G36*
X167909486Y-114827153D02*
G01*
X167731686Y-114831229D01*
X167729850Y-116030472D01*
X167728014Y-117229714D01*
X167111200Y-117229714D01*
X167111200Y-116794286D01*
X167292628Y-116794286D01*
X167292628Y-114392172D01*
X167909486Y-114392172D01*
X167909486Y-114827153D01*
G37*
X167909486Y-114827153D02*
X167731686Y-114831229D01*
X167729850Y-116030472D01*
X167728014Y-117229714D01*
X167111200Y-117229714D01*
X167111200Y-116794286D01*
X167292628Y-116794286D01*
X167292628Y-114392172D01*
X167909486Y-114392172D01*
X167909486Y-114827153D01*
X164893948Y-117710500D02*
X164911004Y-117791379D01*
X164911004Y-117791379D02*
X164940552Y-117865359D01*
X164940552Y-117865359D02*
X164981895Y-117931601D01*
X164981895Y-117931601D02*
X165034336Y-117989268D01*
X165034336Y-117989268D02*
X165097179Y-118037520D01*
X165097179Y-118037520D02*
X165169725Y-118075521D01*
X165169725Y-118075521D02*
X165209828Y-118090549D01*
X165209828Y-118090549D02*
X165219137Y-118093302D01*
X165219137Y-118093302D02*
X165229859Y-118095661D01*
X165229859Y-118095661D02*
X165243171Y-118097665D01*
X165243171Y-118097665D02*
X165260251Y-118099352D01*
X165260251Y-118099352D02*
X165282273Y-118100760D01*
X165282273Y-118100760D02*
X165310414Y-118101929D01*
X165310414Y-118101929D02*
X165345851Y-118102896D01*
X165345851Y-118102896D02*
X165389760Y-118103701D01*
X165389760Y-118103701D02*
X165443318Y-118104380D01*
X165443318Y-118104380D02*
X165507699Y-118104973D01*
X165507699Y-118104973D02*
X165584081Y-118105518D01*
X165584081Y-118105518D02*
X165673641Y-118106054D01*
X165673641Y-118106054D02*
X165686986Y-118106129D01*
X165686986Y-118106129D02*
X166124228Y-118108561D01*
X166124228Y-118108561D02*
X166124228Y-118074771D01*
X166124228Y-118074771D02*
X166117469Y-118013926D01*
X166117469Y-118013926D02*
X166098279Y-117951970D01*
X166098279Y-117951970D02*
X166068290Y-117891387D01*
X166068290Y-117891387D02*
X166029133Y-117834659D01*
X166029133Y-117834659D02*
X165982439Y-117784270D01*
X165982439Y-117784270D02*
X165929841Y-117742704D01*
X165929841Y-117742704D02*
X165891664Y-117720808D01*
X165891664Y-117720808D02*
X165871808Y-117711152D01*
X165871808Y-117711152D02*
X165853911Y-117702874D01*
X165853911Y-117702874D02*
X165836721Y-117695868D01*
X165836721Y-117695868D02*
X165818987Y-117690027D01*
X165818987Y-117690027D02*
X165799457Y-117685246D01*
X165799457Y-117685246D02*
X165776880Y-117681418D01*
X165776880Y-117681418D02*
X165750004Y-117678437D01*
X165750004Y-117678437D02*
X165717578Y-117676198D01*
X165717578Y-117676198D02*
X165678350Y-117674595D01*
X165678350Y-117674595D02*
X165631069Y-117673521D01*
X165631069Y-117673521D02*
X165574483Y-117672870D01*
X165574483Y-117672870D02*
X165507340Y-117672537D01*
X165507340Y-117672537D02*
X165428390Y-117672416D01*
X165428390Y-117672416D02*
X165336380Y-117672400D01*
X165336380Y-117672400D02*
X164889152Y-117672400D01*
X164889152Y-117672400D02*
X164893948Y-117710500D01*
X164893948Y-117710500D02*
X164893948Y-117710500D01*
G36*
X165428390Y-117672416D02*
G01*
X165507340Y-117672537D01*
X165574483Y-117672870D01*
X165631069Y-117673521D01*
X165678350Y-117674595D01*
X165717578Y-117676198D01*
X165750004Y-117678437D01*
X165776880Y-117681418D01*
X165799457Y-117685246D01*
X165818987Y-117690027D01*
X165836721Y-117695868D01*
X165853911Y-117702874D01*
X165871808Y-117711152D01*
X165891664Y-117720808D01*
X165929841Y-117742704D01*
X165982439Y-117784270D01*
X166029133Y-117834659D01*
X166068290Y-117891387D01*
X166098279Y-117951970D01*
X166117469Y-118013926D01*
X166124228Y-118074771D01*
X166124228Y-118108561D01*
X165686986Y-118106129D01*
X165673641Y-118106054D01*
X165584081Y-118105518D01*
X165507699Y-118104973D01*
X165443318Y-118104380D01*
X165389760Y-118103701D01*
X165345851Y-118102896D01*
X165310414Y-118101929D01*
X165282273Y-118100760D01*
X165260251Y-118099352D01*
X165243171Y-118097665D01*
X165229859Y-118095661D01*
X165219137Y-118093302D01*
X165209828Y-118090549D01*
X165169725Y-118075521D01*
X165097179Y-118037520D01*
X165034336Y-117989268D01*
X164981895Y-117931601D01*
X164940552Y-117865359D01*
X164911004Y-117791379D01*
X164893948Y-117710500D01*
X164889152Y-117672400D01*
X165336380Y-117672400D01*
X165428390Y-117672416D01*
G37*
X165428390Y-117672416D02*
X165507340Y-117672537D01*
X165574483Y-117672870D01*
X165631069Y-117673521D01*
X165678350Y-117674595D01*
X165717578Y-117676198D01*
X165750004Y-117678437D01*
X165776880Y-117681418D01*
X165799457Y-117685246D01*
X165818987Y-117690027D01*
X165836721Y-117695868D01*
X165853911Y-117702874D01*
X165871808Y-117711152D01*
X165891664Y-117720808D01*
X165929841Y-117742704D01*
X165982439Y-117784270D01*
X166029133Y-117834659D01*
X166068290Y-117891387D01*
X166098279Y-117951970D01*
X166117469Y-118013926D01*
X166124228Y-118074771D01*
X166124228Y-118108561D01*
X165686986Y-118106129D01*
X165673641Y-118106054D01*
X165584081Y-118105518D01*
X165507699Y-118104973D01*
X165443318Y-118104380D01*
X165389760Y-118103701D01*
X165345851Y-118102896D01*
X165310414Y-118101929D01*
X165282273Y-118100760D01*
X165260251Y-118099352D01*
X165243171Y-118097665D01*
X165229859Y-118095661D01*
X165219137Y-118093302D01*
X165209828Y-118090549D01*
X165169725Y-118075521D01*
X165097179Y-118037520D01*
X165034336Y-117989268D01*
X164981895Y-117931601D01*
X164940552Y-117865359D01*
X164911004Y-117791379D01*
X164893948Y-117710500D01*
X164889152Y-117672400D01*
X165336380Y-117672400D01*
X165428390Y-117672416D01*
%TD*%
D11*
%TO.C,USB1*%
X156610000Y-100600000D03*
X162390000Y-100600000D03*
D12*
X159250000Y-102045000D03*
X159750000Y-102045000D03*
X160250000Y-102045000D03*
X158750000Y-102045000D03*
X160750000Y-102045000D03*
X158250000Y-102045000D03*
X161250000Y-102045000D03*
X157750000Y-102045000D03*
D13*
X157050000Y-102045000D03*
X161950000Y-102045000D03*
X156275000Y-102045000D03*
X162725000Y-102045000D03*
%TD*%
D14*
%TO.C,U1*%
X156037500Y-108250000D03*
X156037500Y-108750000D03*
X156037500Y-109250000D03*
X156037500Y-109750000D03*
X156037500Y-110250000D03*
X156037500Y-110750000D03*
X156037500Y-111250000D03*
X156037500Y-111750000D03*
D15*
X155350000Y-112437500D03*
X154850000Y-112437500D03*
X154350000Y-112437500D03*
X153850000Y-112437500D03*
X153350000Y-112437500D03*
X152850000Y-112437500D03*
X152350000Y-112437500D03*
X151850000Y-112437500D03*
D14*
X151162500Y-111750000D03*
X151162500Y-111250000D03*
X151162500Y-110750000D03*
X151162500Y-110250000D03*
X151162500Y-109750000D03*
X151162500Y-109250000D03*
X151162500Y-108750000D03*
X151162500Y-108250000D03*
D15*
X151850000Y-107562500D03*
X152350000Y-107562500D03*
X152850000Y-107562500D03*
X153350000Y-107562500D03*
X153850000Y-107562500D03*
X154350000Y-107562500D03*
X154850000Y-107562500D03*
X155350000Y-107562500D03*
D16*
X153600000Y-110000000D03*
%TD*%
D17*
%TO.C,C3*%
X151150000Y-104800000D03*
X151150000Y-105880000D03*
%TD*%
D18*
%TO.C,Y1*%
X163350000Y-107600000D03*
X163350000Y-108800000D03*
X163350000Y-110000000D03*
%TD*%
D19*
%TO.C,R6*%
X153400000Y-114390000D03*
X153400000Y-115410000D03*
%TD*%
%TO.C,R5*%
X164900000Y-103140000D03*
X164900000Y-104160000D03*
%TD*%
%TO.C,R4*%
X166050000Y-103140000D03*
X166050000Y-104160000D03*
%TD*%
%TO.C,R3*%
X154400000Y-104840000D03*
X154400000Y-105860000D03*
%TD*%
%TO.C,R2*%
X153350000Y-104840000D03*
X153350000Y-105860000D03*
%TD*%
D20*
%TO.C,R1*%
X152250000Y-115410000D03*
X152250000Y-114390000D03*
%TD*%
D21*
%TO.C,F1*%
X167100000Y-107950000D03*
X167100000Y-109825000D03*
%TD*%
D22*
%TO.C,D1*%
X158800000Y-105820000D03*
D23*
X158800000Y-104100000D03*
X161000000Y-104100000D03*
X161000000Y-106000000D03*
%TD*%
D24*
%TO.C,JP1*%
X152420000Y-116950000D03*
X153380000Y-116950000D03*
%TD*%
D25*
%TO.C,MX1*%
X163310000Y-112090000D03*
D26*
X159500000Y-109550000D03*
D25*
X156960000Y-114630000D03*
%TD*%
M02*
