M48
; DRILL file {KiCad (5.99.0-12118-g897269f33f)} date Wed Sep 15 19:12:55 2021
; FORMAT={-:-/ absolute / inch / decimal}
; #@! TF.CreationDate,2021-09-15T19:12:55-04:00
; #@! TF.GenerationSoftware,Kicad,Pcbnew,(5.99.0-12118-g897269f33f)
; #@! TF.FileFunction,Plated,1,2,PTH
FMAT,2
INCH
; #@! TA.AperFunction,Plated,PTH,ViaDrill
T1C0.0157
; #@! TA.AperFunction,Plated,PTH,ComponentDrill
T2C0.0236
; #@! TA.AperFunction,Plated,PTH,ComponentDrill
T3C0.0579
%
G90
G05
T1
X6.0374Y-4.0827
X6.0787Y-4.0827
X6.0827Y-4.5415
X6.126Y-4.1811
X6.189Y-4.0984
X6.1929Y-4.1614
X6.1949Y-4.2421
X6.1949Y-4.3976
X6.2461Y-3.9567
X6.3008Y-4.1322
X6.3287Y-3.9567
X6.4126Y-4.0827
X6.4781Y-3.902
X6.4921Y-4.0157
X6.5079Y-4.3307
X6.5098Y-4.2421
X6.6063Y-4.3957
T3
X6.1795Y-4.513
X6.4295Y-4.413
T2
G00X6.1094Y-3.8051
M15
G01X6.1094Y-3.8287
M16
G05
G00X6.1094Y-3.9598
M15
G01X6.1094Y-4.0031
M16
G05
G00X6.4496Y-3.8051
M15
G01X6.4496Y-3.8287
M16
G05
G00X6.4496Y-3.9598
M15
G01X6.4496Y-4.0031
M16
G05
T0
M30
