<?xml version="1.0" standalone="no"?>
 <!DOCTYPE svg PUBLIC "-//W3C//DTD SVG 1.1//EN" 
 "http://www.w3.org/Graphics/SVG/1.1/DTD/svg11.dtd"> 
<svg
  xmlns:svg="http://www.w3.org/2000/svg"
  xmlns="http://www.w3.org/2000/svg"
  xmlns:xlink="http://www.w3.org/1999/xlink"
  version="1.1"
  width="29.700220cm" height="21.000720cm" viewBox="0 0 297002200 210007200">
<title>SVG Picture created as why-F_Mask.svg date 2021/09/15 19:13:22 </title>
  <desc>Picture generated by PCBNEW </desc>
<g style="fill:#000000; fill-opacity:1.000000;stroke:#000000; stroke-opacity:1.000000;
stroke-linecap:round; stroke-linejoin:round;"
 transform="translate(0 0) scale(1 1)">
</g>
<g style="fill:#000000; fill-opacity:0.0; 
stroke:#000000; stroke-width:0.000000; stroke-opacity:1; 
stroke-linecap:round; stroke-linejoin:round;">
</g>
<g style="fill:#000000; fill-opacity:0.0; 
stroke:#000000; stroke-width:21200.000000; stroke-opacity:1; 
stroke-linecap:round; stroke-linejoin:round;">
</g>
<g style="fill:#000000; fill-opacity:0.0; 
stroke:#000000; stroke-width:150000.000000; stroke-opacity:1; 
stroke-linecap:round; stroke-linejoin:round;">
<rect x="177002200.000000" y="166007200.000000" width="108000000.000000" height="32000000.000000" rx="0.000000" />
</g>
<g style="fill:#000000; fill-opacity:0.0; 
stroke:#000000; stroke-width:21200.000000; stroke-opacity:1; 
stroke-linecap:round; stroke-linejoin:round;">
</g>
<g style="fill:#000000; fill-opacity:0.0; 
stroke:#000000; stroke-width:150000.000000; stroke-opacity:1; 
stroke-linecap:round; stroke-linejoin:round;">
<rect x="10000000.000000" y="10000000.000000" width="277002200.000000" height="190007200.000000" rx="0.000000" />
</g>
<g style="fill:#000000; fill-opacity:0.0; 
stroke:#000000; stroke-width:21200.000000; stroke-opacity:1; 
stroke-linecap:round; stroke-linejoin:round;">
</g>
<g style="fill:#000000; fill-opacity:0.0; 
stroke:#000000; stroke-width:150000.000000; stroke-opacity:1; 
stroke-linecap:round; stroke-linejoin:round;">
<rect x="12000000.000000" y="12000000.000000" width="273002200.000000" height="186007200.000000" rx="0.000000" />
</g>
<g style="fill:#000000; fill-opacity:0.0; 
stroke:#000000; stroke-width:21200.000000; stroke-opacity:1; 
stroke-linecap:round; stroke-linejoin:round;">
</g>
<g style="fill:#000000; fill-opacity:0.0; 
stroke:#000000; stroke-width:150000.000000; stroke-opacity:1; 
stroke-linecap:round; stroke-linejoin:round;">
<path d="M60000000 12000000
L60000000 10000000
" />
</g>
<g style="fill:#000000; fill-opacity:0.0; 
stroke:#000000; stroke-width:21200.000000; stroke-opacity:1; 
stroke-linecap:round; stroke-linejoin:round;">
</g>
<g style="fill:#000000; fill-opacity:0.0; 
stroke:#000000; stroke-width:150000.000000; stroke-opacity:1; 
stroke-linecap:round; stroke-linejoin:round;">
<path d="M110000000 12000000
L110000000 10000000
" />
</g>
<g style="fill:#000000; fill-opacity:0.0; 
stroke:#000000; stroke-width:21200.000000; stroke-opacity:1; 
stroke-linecap:round; stroke-linejoin:round;">
</g>
<g style="fill:#000000; fill-opacity:0.0; 
stroke:#000000; stroke-width:150000.000000; stroke-opacity:1; 
stroke-linecap:round; stroke-linejoin:round;">
<path d="M160000000 12000000
L160000000 10000000
" />
</g>
<g style="fill:#000000; fill-opacity:0.0; 
stroke:#000000; stroke-width:21200.000000; stroke-opacity:1; 
stroke-linecap:round; stroke-linejoin:round;">
</g>
<g style="fill:#000000; fill-opacity:0.0; 
stroke:#000000; stroke-width:150000.000000; stroke-opacity:1; 
stroke-linecap:round; stroke-linejoin:round;">
<path d="M210000000 12000000
L210000000 10000000
" />
</g>
<g style="fill:#000000; fill-opacity:0.0; 
stroke:#000000; stroke-width:21200.000000; stroke-opacity:1; 
stroke-linecap:round; stroke-linejoin:round;">
</g>
<g style="fill:#000000; fill-opacity:0.0; 
stroke:#000000; stroke-width:150000.000000; stroke-opacity:1; 
stroke-linecap:round; stroke-linejoin:round;">
<path d="M260000000 12000000
L260000000 10000000
" />
</g>
<g style="fill:#000000; fill-opacity:0.0; 
stroke:#000000; stroke-width:21200.000000; stroke-opacity:1; 
stroke-linecap:round; stroke-linejoin:round;">
</g>
<g style="fill:#000000; fill-opacity:0.0; 
stroke:#000000; stroke-width:150000.000000; stroke-opacity:1; 
stroke-linecap:round; stroke-linejoin:round;">
<text x="35000000.000000" y="11650000.000000"
textLength="1388095.000000" font-size="1733333.000000" lengthAdjust="spacingAndGlyphs"
text-anchor="start" opacity="0">1</text>
<g class="stroked-text"><desc>1</desc>
<path d="M36065476 11588095
L35322619 11588095
" />
<path d="M35694047 11588095
L35694047 10288095
L35570238 10473809
L35446428 10597619
L35322619 10659523
" />
</g></g>
<g style="fill:#000000; fill-opacity:0.0; 
stroke:#000000; stroke-width:21200.000000; stroke-opacity:1; 
stroke-linecap:round; stroke-linejoin:round;">
</g>
<g style="fill:#000000; fill-opacity:0.0; 
stroke:#000000; stroke-width:150000.000000; stroke-opacity:1; 
stroke-linecap:round; stroke-linejoin:round;">
<text x="85000000.000000" y="11650000.000000"
textLength="1388095.000000" font-size="1733333.000000" lengthAdjust="spacingAndGlyphs"
text-anchor="start" opacity="0">2</text>
<g class="stroked-text"><desc>2</desc>
<path d="M85322619 10411904
L85384523 10350000
L85508333 10288095
L85817857 10288095
L85941666 10350000
L86003571 10411904
L86065476 10535714
L86065476 10659523
L86003571 10845238
L85260714 11588095
L86065476 11588095
" />
</g></g>
<g style="fill:#000000; fill-opacity:0.0; 
stroke:#000000; stroke-width:21200.000000; stroke-opacity:1; 
stroke-linecap:round; stroke-linejoin:round;">
</g>
<g style="fill:#000000; fill-opacity:0.0; 
stroke:#000000; stroke-width:150000.000000; stroke-opacity:1; 
stroke-linecap:round; stroke-linejoin:round;">
<text x="135000000.000000" y="11650000.000000"
textLength="1388095.000000" font-size="1733333.000000" lengthAdjust="spacingAndGlyphs"
text-anchor="start" opacity="0">3</text>
<g class="stroked-text"><desc>3</desc>
<path d="M135260714 10288095
L136065476 10288095
L135632142 10783333
L135817857 10783333
L135941666 10845238
L136003571 10907142
L136065476 11030952
L136065476 11340476
L136003571 11464285
L135941666 11526190
L135817857 11588095
L135446428 11588095
L135322619 11526190
L135260714 11464285
" />
</g></g>
<g style="fill:#000000; fill-opacity:0.0; 
stroke:#000000; stroke-width:21200.000000; stroke-opacity:1; 
stroke-linecap:round; stroke-linejoin:round;">
</g>
<g style="fill:#000000; fill-opacity:0.0; 
stroke:#000000; stroke-width:150000.000000; stroke-opacity:1; 
stroke-linecap:round; stroke-linejoin:round;">
<text x="185000000.000000" y="11650000.000000"
textLength="1388095.000000" font-size="1733333.000000" lengthAdjust="spacingAndGlyphs"
text-anchor="start" opacity="0">4</text>
<g class="stroked-text"><desc>4</desc>
<path d="M185941666 10721428
L185941666 11588095
" />
<path d="M185632142 10226190
L185322619 11154761
L186127380 11154761
" />
</g></g>
<g style="fill:#000000; fill-opacity:0.0; 
stroke:#000000; stroke-width:21200.000000; stroke-opacity:1; 
stroke-linecap:round; stroke-linejoin:round;">
</g>
<g style="fill:#000000; fill-opacity:0.0; 
stroke:#000000; stroke-width:150000.000000; stroke-opacity:1; 
stroke-linecap:round; stroke-linejoin:round;">
<text x="235000000.000000" y="11650000.000000"
textLength="1388095.000000" font-size="1733333.000000" lengthAdjust="spacingAndGlyphs"
text-anchor="start" opacity="0">5</text>
<g class="stroked-text"><desc>5</desc>
<path d="M236003571 10288095
L235384523 10288095
L235322619 10907142
L235384523 10845238
L235508333 10783333
L235817857 10783333
L235941666 10845238
L236003571 10907142
L236065476 11030952
L236065476 11340476
L236003571 11464285
L235941666 11526190
L235817857 11588095
L235508333 11588095
L235384523 11526190
L235322619 11464285
" />
</g></g>
<g style="fill:#000000; fill-opacity:0.0; 
stroke:#000000; stroke-width:21200.000000; stroke-opacity:1; 
stroke-linecap:round; stroke-linejoin:round;">
</g>
<g style="fill:#000000; fill-opacity:0.0; 
stroke:#000000; stroke-width:150000.000000; stroke-opacity:1; 
stroke-linecap:round; stroke-linejoin:round;">
<text x="285000000.000000" y="11650000.000000"
textLength="1388095.000000" font-size="1733333.000000" lengthAdjust="spacingAndGlyphs"
text-anchor="start" opacity="0">6</text>
<g class="stroked-text"><desc>6</desc>
<path d="M285941666 10288095
L285694047 10288095
L285570238 10350000
L285508333 10411904
L285384523 10597619
L285322619 10845238
L285322619 11340476
L285384523 11464285
L285446428 11526190
L285570238 11588095
L285817857 11588095
L285941666 11526190
L286003571 11464285
L286065476 11340476
L286065476 11030952
L286003571 10907142
L285941666 10845238
L285817857 10783333
L285570238 10783333
L285446428 10845238
L285384523 10907142
L285322619 11030952
" />
</g></g>
<g style="fill:#000000; fill-opacity:0.0; 
stroke:#000000; stroke-width:21200.000000; stroke-opacity:1; 
stroke-linecap:round; stroke-linejoin:round;">
</g>
<g style="fill:#000000; fill-opacity:0.0; 
stroke:#000000; stroke-width:150000.000000; stroke-opacity:1; 
stroke-linecap:round; stroke-linejoin:round;">
<path d="M60000000 198007200
L60000000 200007200
" />
</g>
<g style="fill:#000000; fill-opacity:0.0; 
stroke:#000000; stroke-width:21200.000000; stroke-opacity:1; 
stroke-linecap:round; stroke-linejoin:round;">
</g>
<g style="fill:#000000; fill-opacity:0.0; 
stroke:#000000; stroke-width:150000.000000; stroke-opacity:1; 
stroke-linecap:round; stroke-linejoin:round;">
<path d="M110000000 198007200
L110000000 200007200
" />
</g>
<g style="fill:#000000; fill-opacity:0.0; 
stroke:#000000; stroke-width:21200.000000; stroke-opacity:1; 
stroke-linecap:round; stroke-linejoin:round;">
</g>
<g style="fill:#000000; fill-opacity:0.0; 
stroke:#000000; stroke-width:150000.000000; stroke-opacity:1; 
stroke-linecap:round; stroke-linejoin:round;">
<path d="M160000000 198007200
L160000000 200007200
" />
</g>
<g style="fill:#000000; fill-opacity:0.0; 
stroke:#000000; stroke-width:21200.000000; stroke-opacity:1; 
stroke-linecap:round; stroke-linejoin:round;">
</g>
<g style="fill:#000000; fill-opacity:0.0; 
stroke:#000000; stroke-width:150000.000000; stroke-opacity:1; 
stroke-linecap:round; stroke-linejoin:round;">
<path d="M210000000 198007200
L210000000 200007200
" />
</g>
<g style="fill:#000000; fill-opacity:0.0; 
stroke:#000000; stroke-width:21200.000000; stroke-opacity:1; 
stroke-linecap:round; stroke-linejoin:round;">
</g>
<g style="fill:#000000; fill-opacity:0.0; 
stroke:#000000; stroke-width:150000.000000; stroke-opacity:1; 
stroke-linecap:round; stroke-linejoin:round;">
<path d="M260000000 198007200
L260000000 200007200
" />
</g>
<g style="fill:#000000; fill-opacity:0.0; 
stroke:#000000; stroke-width:21200.000000; stroke-opacity:1; 
stroke-linecap:round; stroke-linejoin:round;">
</g>
<g style="fill:#000000; fill-opacity:0.0; 
stroke:#000000; stroke-width:150000.000000; stroke-opacity:1; 
stroke-linecap:round; stroke-linejoin:round;">
<text x="35000000.000000" y="199657200.000000"
textLength="1388095.000000" font-size="1733333.000000" lengthAdjust="spacingAndGlyphs"
text-anchor="start" opacity="0">1</text>
<g class="stroked-text"><desc>1</desc>
<path d="M36065476 199595295
L35322619 199595295
" />
<path d="M35694047 199595295
L35694047 198295295
L35570238 198481009
L35446428 198604819
L35322619 198666723
" />
</g></g>
<g style="fill:#000000; fill-opacity:0.0; 
stroke:#000000; stroke-width:21200.000000; stroke-opacity:1; 
stroke-linecap:round; stroke-linejoin:round;">
</g>
<g style="fill:#000000; fill-opacity:0.0; 
stroke:#000000; stroke-width:150000.000000; stroke-opacity:1; 
stroke-linecap:round; stroke-linejoin:round;">
<text x="85000000.000000" y="199657200.000000"
textLength="1388095.000000" font-size="1733333.000000" lengthAdjust="spacingAndGlyphs"
text-anchor="start" opacity="0">2</text>
<g class="stroked-text"><desc>2</desc>
<path d="M85322619 198419104
L85384523 198357200
L85508333 198295295
L85817857 198295295
L85941666 198357200
L86003571 198419104
L86065476 198542914
L86065476 198666723
L86003571 198852438
L85260714 199595295
L86065476 199595295
" />
</g></g>
<g style="fill:#000000; fill-opacity:0.0; 
stroke:#000000; stroke-width:21200.000000; stroke-opacity:1; 
stroke-linecap:round; stroke-linejoin:round;">
</g>
<g style="fill:#000000; fill-opacity:0.0; 
stroke:#000000; stroke-width:150000.000000; stroke-opacity:1; 
stroke-linecap:round; stroke-linejoin:round;">
<text x="135000000.000000" y="199657200.000000"
textLength="1388095.000000" font-size="1733333.000000" lengthAdjust="spacingAndGlyphs"
text-anchor="start" opacity="0">3</text>
<g class="stroked-text"><desc>3</desc>
<path d="M135260714 198295295
L136065476 198295295
L135632142 198790533
L135817857 198790533
L135941666 198852438
L136003571 198914342
L136065476 199038152
L136065476 199347676
L136003571 199471485
L135941666 199533390
L135817857 199595295
L135446428 199595295
L135322619 199533390
L135260714 199471485
" />
</g></g>
<g style="fill:#000000; fill-opacity:0.0; 
stroke:#000000; stroke-width:21200.000000; stroke-opacity:1; 
stroke-linecap:round; stroke-linejoin:round;">
</g>
<g style="fill:#000000; fill-opacity:0.0; 
stroke:#000000; stroke-width:150000.000000; stroke-opacity:1; 
stroke-linecap:round; stroke-linejoin:round;">
<text x="185000000.000000" y="199657200.000000"
textLength="1388095.000000" font-size="1733333.000000" lengthAdjust="spacingAndGlyphs"
text-anchor="start" opacity="0">4</text>
<g class="stroked-text"><desc>4</desc>
<path d="M185941666 198728628
L185941666 199595295
" />
<path d="M185632142 198233390
L185322619 199161961
L186127380 199161961
" />
</g></g>
<g style="fill:#000000; fill-opacity:0.0; 
stroke:#000000; stroke-width:21200.000000; stroke-opacity:1; 
stroke-linecap:round; stroke-linejoin:round;">
</g>
<g style="fill:#000000; fill-opacity:0.0; 
stroke:#000000; stroke-width:150000.000000; stroke-opacity:1; 
stroke-linecap:round; stroke-linejoin:round;">
<text x="235000000.000000" y="199657200.000000"
textLength="1388095.000000" font-size="1733333.000000" lengthAdjust="spacingAndGlyphs"
text-anchor="start" opacity="0">5</text>
<g class="stroked-text"><desc>5</desc>
<path d="M236003571 198295295
L235384523 198295295
L235322619 198914342
L235384523 198852438
L235508333 198790533
L235817857 198790533
L235941666 198852438
L236003571 198914342
L236065476 199038152
L236065476 199347676
L236003571 199471485
L235941666 199533390
L235817857 199595295
L235508333 199595295
L235384523 199533390
L235322619 199471485
" />
</g></g>
<g style="fill:#000000; fill-opacity:0.0; 
stroke:#000000; stroke-width:21200.000000; stroke-opacity:1; 
stroke-linecap:round; stroke-linejoin:round;">
</g>
<g style="fill:#000000; fill-opacity:0.0; 
stroke:#000000; stroke-width:150000.000000; stroke-opacity:1; 
stroke-linecap:round; stroke-linejoin:round;">
<text x="285000000.000000" y="199657200.000000"
textLength="1388095.000000" font-size="1733333.000000" lengthAdjust="spacingAndGlyphs"
text-anchor="start" opacity="0">6</text>
<g class="stroked-text"><desc>6</desc>
<path d="M285941666 198295295
L285694047 198295295
L285570238 198357200
L285508333 198419104
L285384523 198604819
L285322619 198852438
L285322619 199347676
L285384523 199471485
L285446428 199533390
L285570238 199595295
L285817857 199595295
L285941666 199533390
L286003571 199471485
L286065476 199347676
L286065476 199038152
L286003571 198914342
L285941666 198852438
L285817857 198790533
L285570238 198790533
L285446428 198852438
L285384523 198914342
L285322619 199038152
" />
</g></g>
<g style="fill:#000000; fill-opacity:0.0; 
stroke:#000000; stroke-width:21200.000000; stroke-opacity:1; 
stroke-linecap:round; stroke-linejoin:round;">
</g>
<g style="fill:#000000; fill-opacity:0.0; 
stroke:#000000; stroke-width:150000.000000; stroke-opacity:1; 
stroke-linecap:round; stroke-linejoin:round;">
<path d="M10000000 60000000
L12000000 60000000
" />
</g>
<g style="fill:#000000; fill-opacity:0.0; 
stroke:#000000; stroke-width:21200.000000; stroke-opacity:1; 
stroke-linecap:round; stroke-linejoin:round;">
</g>
<g style="fill:#000000; fill-opacity:0.0; 
stroke:#000000; stroke-width:150000.000000; stroke-opacity:1; 
stroke-linecap:round; stroke-linejoin:round;">
<path d="M10000000 110000000
L12000000 110000000
" />
</g>
<g style="fill:#000000; fill-opacity:0.0; 
stroke:#000000; stroke-width:21200.000000; stroke-opacity:1; 
stroke-linecap:round; stroke-linejoin:round;">
</g>
<g style="fill:#000000; fill-opacity:0.0; 
stroke:#000000; stroke-width:150000.000000; stroke-opacity:1; 
stroke-linecap:round; stroke-linejoin:round;">
<path d="M10000000 160000000
L12000000 160000000
" />
</g>
<g style="fill:#000000; fill-opacity:0.0; 
stroke:#000000; stroke-width:21200.000000; stroke-opacity:1; 
stroke-linecap:round; stroke-linejoin:round;">
</g>
<g style="fill:#000000; fill-opacity:0.0; 
stroke:#000000; stroke-width:150000.000000; stroke-opacity:1; 
stroke-linecap:round; stroke-linejoin:round;">
<text x="11000000.000000" y="35650000.000000"
textLength="1264286.000000" font-size="1733333.000000" lengthAdjust="spacingAndGlyphs"
text-anchor="middle" opacity="0">A</text>
<g class="stroked-text"><desc>A</desc>
<path d="M10690476 35216666
L11309523 35216666
" />
<path d="M10566666 35588095
L11000000 34288095
L11433333 35588095
" />
</g></g>
<g style="fill:#000000; fill-opacity:0.0; 
stroke:#000000; stroke-width:21200.000000; stroke-opacity:1; 
stroke-linecap:round; stroke-linejoin:round;">
</g>
<g style="fill:#000000; fill-opacity:0.0; 
stroke:#000000; stroke-width:150000.000000; stroke-opacity:1; 
stroke-linecap:round; stroke-linejoin:round;">
<text x="11000000.000000" y="85650000.000000"
textLength="1450000.000000" font-size="1733333.000000" lengthAdjust="spacingAndGlyphs"
text-anchor="middle" opacity="0">B</text>
<g class="stroked-text"><desc>B</desc>
<path d="M11092857 84907142
L11278571 84969047
L11340476 85030952
L11402380 85154761
L11402380 85340476
L11340476 85464285
L11278571 85526190
L11154761 85588095
L10659523 85588095
L10659523 84288095
L11092857 84288095
L11216666 84350000
L11278571 84411904
L11340476 84535714
L11340476 84659523
L11278571 84783333
L11216666 84845238
L11092857 84907142
L10659523 84907142
" />
</g></g>
<g style="fill:#000000; fill-opacity:0.0; 
stroke:#000000; stroke-width:21200.000000; stroke-opacity:1; 
stroke-linecap:round; stroke-linejoin:round;">
</g>
<g style="fill:#000000; fill-opacity:0.0; 
stroke:#000000; stroke-width:150000.000000; stroke-opacity:1; 
stroke-linecap:round; stroke-linejoin:round;">
<text x="11000000.000000" y="135650000.000000"
textLength="1450000.000000" font-size="1733333.000000" lengthAdjust="spacingAndGlyphs"
text-anchor="middle" opacity="0">C</text>
<g class="stroked-text"><desc>C</desc>
<path d="M11402380 135464285
L11340476 135526190
L11154761 135588095
L11030952 135588095
L10845238 135526190
L10721428 135402380
L10659523 135278571
L10597619 135030952
L10597619 134845238
L10659523 134597619
L10721428 134473809
L10845238 134350000
L11030952 134288095
L11154761 134288095
L11340476 134350000
L11402380 134411904
" />
</g></g>
<g style="fill:#000000; fill-opacity:0.0; 
stroke:#000000; stroke-width:21200.000000; stroke-opacity:1; 
stroke-linecap:round; stroke-linejoin:round;">
</g>
<g style="fill:#000000; fill-opacity:0.0; 
stroke:#000000; stroke-width:150000.000000; stroke-opacity:1; 
stroke-linecap:round; stroke-linejoin:round;">
<text x="11000000.000000" y="185650000.000000"
textLength="1450000.000000" font-size="1733333.000000" lengthAdjust="spacingAndGlyphs"
text-anchor="middle" opacity="0">D</text>
<g class="stroked-text"><desc>D</desc>
<path d="M10659523 185588095
L10659523 184288095
L10969047 184288095
L11154761 184350000
L11278571 184473809
L11340476 184597619
L11402380 184845238
L11402380 185030952
L11340476 185278571
L11278571 185402380
L11154761 185526190
L10969047 185588095
L10659523 185588095
" />
</g></g>
<g style="fill:#000000; fill-opacity:0.0; 
stroke:#000000; stroke-width:21200.000000; stroke-opacity:1; 
stroke-linecap:round; stroke-linejoin:round;">
</g>
<g style="fill:#000000; fill-opacity:0.0; 
stroke:#000000; stroke-width:150000.000000; stroke-opacity:1; 
stroke-linecap:round; stroke-linejoin:round;">
<path d="M287002200 60000000
L285002200 60000000
" />
</g>
<g style="fill:#000000; fill-opacity:0.0; 
stroke:#000000; stroke-width:21200.000000; stroke-opacity:1; 
stroke-linecap:round; stroke-linejoin:round;">
</g>
<g style="fill:#000000; fill-opacity:0.0; 
stroke:#000000; stroke-width:150000.000000; stroke-opacity:1; 
stroke-linecap:round; stroke-linejoin:round;">
<path d="M287002200 110000000
L285002200 110000000
" />
</g>
<g style="fill:#000000; fill-opacity:0.0; 
stroke:#000000; stroke-width:21200.000000; stroke-opacity:1; 
stroke-linecap:round; stroke-linejoin:round;">
</g>
<g style="fill:#000000; fill-opacity:0.0; 
stroke:#000000; stroke-width:150000.000000; stroke-opacity:1; 
stroke-linecap:round; stroke-linejoin:round;">
<path d="M287002200 160000000
L285002200 160000000
" />
</g>
<g style="fill:#000000; fill-opacity:0.0; 
stroke:#000000; stroke-width:21200.000000; stroke-opacity:1; 
stroke-linecap:round; stroke-linejoin:round;">
</g>
<g style="fill:#000000; fill-opacity:0.0; 
stroke:#000000; stroke-width:150000.000000; stroke-opacity:1; 
stroke-linecap:round; stroke-linejoin:round;">
<text x="286002200.000000" y="35650000.000000"
textLength="1264286.000000" font-size="1733333.000000" lengthAdjust="spacingAndGlyphs"
text-anchor="middle" opacity="0">A</text>
<g class="stroked-text"><desc>A</desc>
<path d="M285692676 35216666
L286311723 35216666
" />
<path d="M285568866 35588095
L286002200 34288095
L286435533 35588095
" />
</g></g>
<g style="fill:#000000; fill-opacity:0.0; 
stroke:#000000; stroke-width:21200.000000; stroke-opacity:1; 
stroke-linecap:round; stroke-linejoin:round;">
</g>
<g style="fill:#000000; fill-opacity:0.0; 
stroke:#000000; stroke-width:150000.000000; stroke-opacity:1; 
stroke-linecap:round; stroke-linejoin:round;">
<text x="286002200.000000" y="85650000.000000"
textLength="1450000.000000" font-size="1733333.000000" lengthAdjust="spacingAndGlyphs"
text-anchor="middle" opacity="0">B</text>
<g class="stroked-text"><desc>B</desc>
<path d="M286095057 84907142
L286280771 84969047
L286342676 85030952
L286404580 85154761
L286404580 85340476
L286342676 85464285
L286280771 85526190
L286156961 85588095
L285661723 85588095
L285661723 84288095
L286095057 84288095
L286218866 84350000
L286280771 84411904
L286342676 84535714
L286342676 84659523
L286280771 84783333
L286218866 84845238
L286095057 84907142
L285661723 84907142
" />
</g></g>
<g style="fill:#000000; fill-opacity:0.0; 
stroke:#000000; stroke-width:21200.000000; stroke-opacity:1; 
stroke-linecap:round; stroke-linejoin:round;">
</g>
<g style="fill:#000000; fill-opacity:0.0; 
stroke:#000000; stroke-width:150000.000000; stroke-opacity:1; 
stroke-linecap:round; stroke-linejoin:round;">
<text x="286002200.000000" y="135650000.000000"
textLength="1450000.000000" font-size="1733333.000000" lengthAdjust="spacingAndGlyphs"
text-anchor="middle" opacity="0">C</text>
<g class="stroked-text"><desc>C</desc>
<path d="M286404580 135464285
L286342676 135526190
L286156961 135588095
L286033152 135588095
L285847438 135526190
L285723628 135402380
L285661723 135278571
L285599819 135030952
L285599819 134845238
L285661723 134597619
L285723628 134473809
L285847438 134350000
L286033152 134288095
L286156961 134288095
L286342676 134350000
L286404580 134411904
" />
</g></g>
<g style="fill:#000000; fill-opacity:0.0; 
stroke:#000000; stroke-width:21200.000000; stroke-opacity:1; 
stroke-linecap:round; stroke-linejoin:round;">
</g>
<g style="fill:#000000; fill-opacity:0.0; 
stroke:#000000; stroke-width:150000.000000; stroke-opacity:1; 
stroke-linecap:round; stroke-linejoin:round;">
<text x="286002200.000000" y="185650000.000000"
textLength="1450000.000000" font-size="1733333.000000" lengthAdjust="spacingAndGlyphs"
text-anchor="middle" opacity="0">D</text>
<g class="stroked-text"><desc>D</desc>
<path d="M285661723 185588095
L285661723 184288095
L285971247 184288095
L286156961 184350000
L286280771 184473809
L286342676 184597619
L286404580 184845238
L286404580 185030952
L286342676 185278571
L286280771 185402380
L286156961 185526190
L285971247 185588095
L285661723 185588095
" />
</g></g>
<g style="fill:#000000; fill-opacity:0.0; 
stroke:#000000; stroke-width:21200.000000; stroke-opacity:1; 
stroke-linecap:round; stroke-linejoin:round;">
</g>
<g style="fill:#000000; fill-opacity:0.0; 
stroke:#000000; stroke-width:150000.000000; stroke-opacity:1; 
stroke-linecap:round; stroke-linejoin:round;">
<text x="200002200.000000" y="193857200.000000"
textLength="7007143.000000" font-size="2000000.000000" lengthAdjust="spacingAndGlyphs"
text-anchor="start" opacity="0">Date: </text>
<g class="stroked-text"><desc>Date: </desc>
<path d="M200434342 193785771
L200434342 192285771
L200791485 192285771
L201005771 192357200
L201148628 192500057
L201220057 192642914
L201291485 192928628
L201291485 193142914
L201220057 193428628
L201148628 193571485
L201005771 193714342
L200791485 193785771
L200434342 193785771
" />
<path d="M202577200 193785771
L202577200 193000057
L202505771 192857200
L202362914 192785771
L202077200 192785771
L201934342 192857200
" />
<path d="M202577200 193714342
L202434342 193785771
L202077200 193785771
L201934342 193714342
L201862914 193571485
L201862914 193428628
L201934342 193285771
L202077200 193214342
L202434342 193214342
L202577200 193142914
" />
<path d="M203077200 192785771
L203648628 192785771
" />
<path d="M203291485 192285771
L203291485 193571485
L203362914 193714342
L203505771 193785771
L203648628 193785771
" />
<path d="M204720057 193714342
L204577200 193785771
L204291485 193785771
L204148628 193714342
L204077200 193571485
L204077200 193000057
L204148628 192857200
L204291485 192785771
L204577200 192785771
L204720057 192857200
L204791485 193000057
L204791485 193142914
L204077200 193285771
" />
<path d="M205434342 193642914
L205505771 193714342
L205434342 193785771
L205362914 193714342
L205434342 193642914
L205434342 193785771
" />
<path d="M205434342 192857200
L205505771 192928628
L205434342 193000057
L205362914 192928628
L205434342 192857200
L205434342 193000057
" />
</g></g>
<g style="fill:#000000; fill-opacity:0.0; 
stroke:#000000; stroke-width:21200.000000; stroke-opacity:1; 
stroke-linecap:round; stroke-linejoin:round;">
</g>
<g style="fill:#000000; fill-opacity:0.0; 
stroke:#000000; stroke-width:150000.000000; stroke-opacity:1; 
stroke-linecap:round; stroke-linejoin:round;">
<path d="M177002200 194507200
L285002200 194507200
" />
</g>
<g style="fill:#000000; fill-opacity:0.0; 
stroke:#000000; stroke-width:21200.000000; stroke-opacity:1; 
stroke-linecap:round; stroke-linejoin:round;">
</g>
<g style="fill:#000000; fill-opacity:0.0; 
stroke:#000000; stroke-width:150000.000000; stroke-opacity:1; 
stroke-linecap:round; stroke-linejoin:round;">
<text x="178002200.000000" y="196657200.000000"
textLength="57864286.000000" font-size="2000000.000000" lengthAdjust="spacingAndGlyphs"
text-anchor="start" opacity="0">KiCad E.D.A.  kicad (5.99.0-12118-g897269f33f)</text>
<g class="stroked-text"><desc>KiCad E.D.A.  kicad (5.99.0-12118-g897269f33f)</desc>
<path d="M178434342 196585771
L178434342 195085771
" />
<path d="M179291485 196585771
L178648628 195728628
" />
<path d="M179291485 195085771
L178434342 195942914
" />
<path d="M179934342 196585771
L179934342 195585771
" />
<path d="M179934342 195085771
L179862914 195157200
L179934342 195228628
L180005771 195157200
L179934342 195085771
L179934342 195228628
" />
<path d="M181505771 196442914
L181434342 196514342
L181220057 196585771
L181077200 196585771
L180862914 196514342
L180720057 196371485
L180648628 196228628
L180577200 195942914
L180577200 195728628
L180648628 195442914
L180720057 195300057
L180862914 195157200
L181077200 195085771
L181220057 195085771
L181434342 195157200
L181505771 195228628
" />
<path d="M182791485 196585771
L182791485 195800057
L182720057 195657200
L182577200 195585771
L182291485 195585771
L182148628 195657200
" />
<path d="M182791485 196514342
L182648628 196585771
L182291485 196585771
L182148628 196514342
L182077200 196371485
L182077200 196228628
L182148628 196085771
L182291485 196014342
L182648628 196014342
L182791485 195942914
" />
<path d="M184148628 196585771
L184148628 195085771
" />
<path d="M184148628 196514342
L184005771 196585771
L183720057 196585771
L183577200 196514342
L183505771 196442914
L183434342 196300057
L183434342 195871485
L183505771 195728628
L183577200 195657200
L183720057 195585771
L184005771 195585771
L184148628 195657200
" />
<path d="M186005771 195800057
L186505771 195800057
" />
<path d="M186720057 196585771
L186005771 196585771
L186005771 195085771
L186720057 195085771
" />
<path d="M187362914 196442914
L187434342 196514342
L187362914 196585771
L187291485 196514342
L187362914 196442914
L187362914 196585771
" />
<path d="M188077200 196585771
L188077200 195085771
L188434342 195085771
L188648628 195157200
L188791485 195300057
L188862914 195442914
L188934342 195728628
L188934342 195942914
L188862914 196228628
L188791485 196371485
L188648628 196514342
L188434342 196585771
L188077200 196585771
" />
<path d="M189577200 196442914
L189648628 196514342
L189577200 196585771
L189505771 196514342
L189577200 196442914
L189577200 196585771
" />
<path d="M190220057 196157200
L190934342 196157200
" />
<path d="M190077200 196585771
L190577200 195085771
L191077200 196585771
" />
<path d="M191577200 196442914
L191648628 196514342
L191577200 196585771
L191505771 196514342
L191577200 196442914
L191577200 196585771
" />
<path d="M194577200 196585771
L194577200 195085771
" />
<path d="M194720057 196014342
L195148628 196585771
" />
<path d="M195148628 195585771
L194577200 196157200
" />
<path d="M195791485 196585771
L195791485 195585771
" />
<path d="M195791485 195085771
L195720057 195157200
L195791485 195228628
L195862914 195157200
L195791485 195085771
L195791485 195228628
" />
<path d="M197148628 196514342
L197005771 196585771
L196720057 196585771
L196577200 196514342
L196505771 196442914
L196434342 196300057
L196434342 195871485
L196505771 195728628
L196577200 195657200
L196720057 195585771
L197005771 195585771
L197148628 195657200
" />
<path d="M198434342 196585771
L198434342 195800057
L198362914 195657200
L198220057 195585771
L197934342 195585771
L197791485 195657200
" />
<path d="M198434342 196514342
L198291485 196585771
L197934342 196585771
L197791485 196514342
L197720057 196371485
L197720057 196228628
L197791485 196085771
L197934342 196014342
L198291485 196014342
L198434342 195942914
" />
<path d="M199791485 196585771
L199791485 195085771
" />
<path d="M199791485 196514342
L199648628 196585771
L199362914 196585771
L199220057 196514342
L199148628 196442914
L199077200 196300057
L199077200 195871485
L199148628 195728628
L199220057 195657200
L199362914 195585771
L199648628 195585771
L199791485 195657200
" />
<path d="M202077200 197157200
L202005771 197085771
L201862914 196871485
L201791485 196728628
L201720057 196514342
L201648628 196157200
L201648628 195871485
L201720057 195514342
L201791485 195300057
L201862914 195157200
L202005771 194942914
L202077200 194871485
" />
<path d="M203362914 195085771
L202648628 195085771
L202577200 195800057
L202648628 195728628
L202791485 195657200
L203148628 195657200
L203291485 195728628
L203362914 195800057
L203434342 195942914
L203434342 196300057
L203362914 196442914
L203291485 196514342
L203148628 196585771
L202791485 196585771
L202648628 196514342
L202577200 196442914
" />
<path d="M204077200 196442914
L204148628 196514342
L204077200 196585771
L204005771 196514342
L204077200 196442914
L204077200 196585771
" />
<path d="M204862914 196585771
L205148628 196585771
L205291485 196514342
L205362914 196442914
L205505771 196228628
L205577200 195942914
L205577200 195371485
L205505771 195228628
L205434342 195157200
L205291485 195085771
L205005771 195085771
L204862914 195157200
L204791485 195228628
L204720057 195371485
L204720057 195728628
L204791485 195871485
L204862914 195942914
L205005771 196014342
L205291485 196014342
L205434342 195942914
L205505771 195871485
L205577200 195728628
" />
<path d="M206291485 196585771
L206577200 196585771
L206720057 196514342
L206791485 196442914
L206934342 196228628
L207005771 195942914
L207005771 195371485
L206934342 195228628
L206862914 195157200
L206720057 195085771
L206434342 195085771
L206291485 195157200
L206220057 195228628
L206148628 195371485
L206148628 195728628
L206220057 195871485
L206291485 195942914
L206434342 196014342
L206720057 196014342
L206862914 195942914
L206934342 195871485
L207005771 195728628
" />
<path d="M207648628 196442914
L207720057 196514342
L207648628 196585771
L207577200 196514342
L207648628 196442914
L207648628 196585771
" />
<path d="M208648628 195085771
L208791485 195085771
L208934342 195157200
L209005771 195228628
L209077200 195371485
L209148628 195657200
L209148628 196014342
L209077200 196300057
L209005771 196442914
L208934342 196514342
L208791485 196585771
L208648628 196585771
L208505771 196514342
L208434342 196442914
L208362914 196300057
L208291485 196014342
L208291485 195657200
L208362914 195371485
L208434342 195228628
L208505771 195157200
L208648628 195085771
" />
<path d="M209791485 196014342
L210934342 196014342
" />
<path d="M212434342 196585771
L211577200 196585771
" />
<path d="M212005771 196585771
L212005771 195085771
L211862914 195300057
L211720057 195442914
L211577200 195514342
" />
<path d="M213005771 195228628
L213077200 195157200
L213220057 195085771
L213577200 195085771
L213720057 195157200
L213791485 195228628
L213862914 195371485
L213862914 195514342
L213791485 195728628
L212934342 196585771
L213862914 196585771
" />
<path d="M215291485 196585771
L214434342 196585771
" />
<path d="M214862914 196585771
L214862914 195085771
L214720057 195300057
L214577200 195442914
L214434342 195514342
" />
<path d="M216720057 196585771
L215862914 196585771
" />
<path d="M216291485 196585771
L216291485 195085771
L216148628 195300057
L216005771 195442914
L215862914 195514342
" />
<path d="M217577200 195728628
L217434342 195657200
L217362914 195585771
L217291485 195442914
L217291485 195371485
L217362914 195228628
L217434342 195157200
L217577200 195085771
L217862914 195085771
L218005771 195157200
L218077200 195228628
L218148628 195371485
L218148628 195442914
L218077200 195585771
L218005771 195657200
L217862914 195728628
L217577200 195728628
L217434342 195800057
L217362914 195871485
L217291485 196014342
L217291485 196300057
L217362914 196442914
L217434342 196514342
L217577200 196585771
L217862914 196585771
L218005771 196514342
L218077200 196442914
L218148628 196300057
L218148628 196014342
L218077200 195871485
L218005771 195800057
L217862914 195728628
" />
<path d="M218791485 196014342
L219934342 196014342
" />
<path d="M221291485 195585771
L221291485 196800057
L221220057 196942914
L221148628 197014342
L221005771 197085771
L220791485 197085771
L220648628 197014342
" />
<path d="M221291485 196514342
L221148628 196585771
L220862914 196585771
L220720057 196514342
L220648628 196442914
L220577200 196300057
L220577200 195871485
L220648628 195728628
L220720057 195657200
L220862914 195585771
L221148628 195585771
L221291485 195657200
" />
<path d="M222220057 195728628
L222077200 195657200
L222005771 195585771
L221934342 195442914
L221934342 195371485
L222005771 195228628
L222077200 195157200
L222220057 195085771
L222505771 195085771
L222648628 195157200
L222720057 195228628
L222791485 195371485
L222791485 195442914
L222720057 195585771
L222648628 195657200
L222505771 195728628
L222220057 195728628
L222077200 195800057
L222005771 195871485
L221934342 196014342
L221934342 196300057
L222005771 196442914
L222077200 196514342
L222220057 196585771
L222505771 196585771
L222648628 196514342
L222720057 196442914
L222791485 196300057
L222791485 196014342
L222720057 195871485
L222648628 195800057
L222505771 195728628
" />
<path d="M223505771 196585771
L223791485 196585771
L223934342 196514342
L224005771 196442914
L224148628 196228628
L224220057 195942914
L224220057 195371485
L224148628 195228628
L224077200 195157200
L223934342 195085771
L223648628 195085771
L223505771 195157200
L223434342 195228628
L223362914 195371485
L223362914 195728628
L223434342 195871485
L223505771 195942914
L223648628 196014342
L223934342 196014342
L224077200 195942914
L224148628 195871485
L224220057 195728628
" />
<path d="M224720057 195085771
L225720057 195085771
L225077200 196585771
" />
<path d="M226220057 195228628
L226291485 195157200
L226434342 195085771
L226791485 195085771
L226934342 195157200
L227005771 195228628
L227077199 195371485
L227077199 195514342
L227005771 195728628
L226148628 196585771
L227077199 196585771
" />
<path d="M228362914 195085771
L228077199 195085771
L227934342 195157200
L227862914 195228628
L227720057 195442914
L227648628 195728628
L227648628 196300057
L227720057 196442914
L227791485 196514342
L227934342 196585771
L228220057 196585771
L228362914 196514342
L228434342 196442914
L228505771 196300057
L228505771 195942914
L228434342 195800057
L228362914 195728628
L228220057 195657200
L227934342 195657200
L227791485 195728628
L227720057 195800057
L227648628 195942914
" />
<path d="M229220057 196585771
L229505771 196585771
L229648628 196514342
L229720057 196442914
L229862914 196228628
L229934342 195942914
L229934342 195371485
L229862914 195228628
L229791485 195157200
L229648628 195085771
L229362914 195085771
L229220057 195157200
L229148628 195228628
L229077199 195371485
L229077199 195728628
L229148628 195871485
L229220057 195942914
L229362914 196014342
L229648628 196014342
L229791485 195942914
L229862914 195871485
L229934342 195728628
" />
<path d="M230362914 195585771
L230934342 195585771
" />
<path d="M230577199 196585771
L230577199 195300057
L230648628 195157200
L230791485 195085771
L230934342 195085771
" />
<path d="M231291485 195085771
L232220057 195085771
L231720057 195657200
L231934342 195657200
L232077199 195728628
L232148628 195800057
L232220057 195942914
L232220057 196300057
L232148628 196442914
L232077199 196514342
L231934342 196585771
L231505771 196585771
L231362914 196514342
L231291485 196442914
" />
<path d="M232720057 195085771
L233648628 195085771
L233148628 195657200
L233362914 195657200
L233505771 195728628
L233577199 195800057
L233648628 195942914
L233648628 196300057
L233577199 196442914
L233505771 196514342
L233362914 196585771
L232934342 196585771
L232791485 196514342
L232720057 196442914
" />
<path d="M234077199 195585771
L234648628 195585771
" />
<path d="M234291485 196585771
L234291485 195300057
L234362914 195157200
L234505771 195085771
L234648628 195085771
" />
<path d="M235005771 197157200
L235077199 197085771
L235220057 196871485
L235291485 196728628
L235362914 196514342
L235434342 196157200
L235434342 195871485
L235362914 195514342
L235291485 195300057
L235220057 195157200
L235077199 194942914
L235005771 194871485
" />
</g></g>
<g style="fill:#000000; fill-opacity:0.0; 
stroke:#000000; stroke-width:21200.000000; stroke-opacity:1; 
stroke-linecap:round; stroke-linejoin:round;">
</g>
<g style="fill:#000000; fill-opacity:0.0; 
stroke:#000000; stroke-width:150000.000000; stroke-opacity:1; 
stroke-linecap:round; stroke-linejoin:round;">
<path d="M177002200 191507200
L285002200 191507200
" />
</g>
<g style="fill:#000000; fill-opacity:0.0; 
stroke:#000000; stroke-width:21200.000000; stroke-opacity:1; 
stroke-linecap:round; stroke-linejoin:round;">
</g>
<g style="fill:#000000; fill-opacity:0.0; 
stroke:#000000; stroke-width:300000.000000; stroke-opacity:1; 
stroke-linecap:round; stroke-linejoin:round;">
<text x="263002200.000000" y="193857200.000000"
textLength="5935714.000000" font-size="2000000.000000" lengthAdjust="spacingAndGlyphs"
text-anchor="start" opacity="0">Rev: </text>
<g class="stroked-text"><desc>Rev: </desc>
<path d="M264411485 193785771
L263911485 193071485
" />
<path d="M263554342 193785771
L263554342 192285771
L264125771 192285771
L264268628 192357200
L264340057 192428628
L264411485 192571485
L264411485 192785771
L264340057 192928628
L264268628 193000057
L264125771 193071485
L263554342 193071485
" />
<path d="M265625771 193714342
L265482914 193785771
L265197200 193785771
L265054342 193714342
L264982914 193571485
L264982914 193000057
L265054342 192857200
L265197200 192785771
L265482914 192785771
L265625771 192857200
L265697200 193000057
L265697200 193142914
L264982914 193285771
" />
<path d="M266197200 192785771
L266554342 193785771
L266911485 192785771
" />
<path d="M267482914 193642914
L267554342 193714342
L267482914 193785771
L267411485 193714342
L267482914 193642914
L267482914 193785771
" />
<path d="M267482914 192857200
L267554342 192928628
L267482914 193000057
L267411485 192928628
L267482914 192857200
L267482914 193000057
" />
</g></g>
<g style="fill:#000000; fill-opacity:0.0; 
stroke:#000000; stroke-width:21200.000000; stroke-opacity:1; 
stroke-linecap:round; stroke-linejoin:round;">
</g>
<g style="fill:#000000; fill-opacity:0.0; 
stroke:#000000; stroke-width:150000.000000; stroke-opacity:1; 
stroke-linecap:round; stroke-linejoin:round;">
<text x="178002200.000000" y="193857200.000000"
textLength="9604286.000000" font-size="2000000.000000" lengthAdjust="spacingAndGlyphs"
text-anchor="start" opacity="0">Size: A4</text>
<g class="stroked-text"><desc>Size: A4</desc>
<path d="M178362914 193714342
L178577200 193785771
L178934342 193785771
L179077200 193714342
L179148628 193642914
L179220057 193500057
L179220057 193357200
L179148628 193214342
L179077200 193142914
L178934342 193071485
L178648628 193000057
L178505771 192928628
L178434342 192857200
L178362914 192714342
L178362914 192571485
L178434342 192428628
L178505771 192357200
L178648628 192285771
L179005771 192285771
L179220057 192357200
" />
<path d="M179862914 193785771
L179862914 192785771
" />
<path d="M179862914 192285771
L179791485 192357200
L179862914 192428628
L179934342 192357200
L179862914 192285771
L179862914 192428628
" />
<path d="M180434342 192785771
L181220057 192785771
L180434342 193785771
L181220057 193785771
" />
<path d="M182362914 193714342
L182220057 193785771
L181934342 193785771
L181791485 193714342
L181720057 193571485
L181720057 193000057
L181791485 192857200
L181934342 192785771
L182220057 192785771
L182362914 192857200
L182434342 193000057
L182434342 193142914
L181720057 193285771
" />
<path d="M183077200 193642914
L183148628 193714342
L183077200 193785771
L183005771 193714342
L183077200 193642914
L183077200 193785771
" />
<path d="M183077200 192857200
L183148628 192928628
L183077200 193000057
L183005771 192928628
L183077200 192857200
L183077200 193000057
" />
<path d="M184862914 193357200
L185577200 193357200
" />
<path d="M184720057 193785771
L185220057 192285771
L185720057 193785771
" />
<path d="M186862914 192785771
L186862914 193785771
" />
<path d="M186505771 192214342
L186148628 193285771
L187077200 193285771
" />
</g></g>
<g style="fill:#000000; fill-opacity:0.0; 
stroke:#000000; stroke-width:21200.000000; stroke-opacity:1; 
stroke-linecap:round; stroke-linejoin:round;">
</g>
<g style="fill:#000000; fill-opacity:0.0; 
stroke:#000000; stroke-width:150000.000000; stroke-opacity:1; 
stroke-linecap:round; stroke-linejoin:round;">
<text x="263002200.000000" y="196657200.000000"
textLength="8507143.000000" font-size="2000000.000000" lengthAdjust="spacingAndGlyphs"
text-anchor="start" opacity="0">Id: 1/1</text>
<g class="stroked-text"><desc>Id: 1/1</desc>
<path d="M263434342 196585771
L263434342 195085771
" />
<path d="M264791485 196585771
L264791485 195085771
" />
<path d="M264791485 196514342
L264648628 196585771
L264362914 196585771
L264220057 196514342
L264148628 196442914
L264077200 196300057
L264077200 195871485
L264148628 195728628
L264220057 195657200
L264362914 195585771
L264648628 195585771
L264791485 195657200
" />
<path d="M265505771 196442914
L265577200 196514342
L265505771 196585771
L265434342 196514342
L265505771 196442914
L265505771 196585771
" />
<path d="M265505771 195657200
L265577200 195728628
L265505771 195800057
L265434342 195728628
L265505771 195657200
L265505771 195800057
" />
<path d="M268148628 196585771
L267291485 196585771
" />
<path d="M267720057 196585771
L267720057 195085771
L267577200 195300057
L267434342 195442914
L267291485 195514342
" />
<path d="M269862914 195014342
L268577200 196942914
" />
<path d="M271148628 196585771
L270291485 196585771
" />
<path d="M270720057 196585771
L270720057 195085771
L270577200 195300057
L270434342 195442914
L270291485 195514342
" />
</g></g>
<g style="fill:#000000; fill-opacity:0.0; 
stroke:#000000; stroke-width:21200.000000; stroke-opacity:1; 
stroke-linecap:round; stroke-linejoin:round;">
</g>
<g style="fill:#000000; fill-opacity:0.0; 
stroke:#000000; stroke-width:150000.000000; stroke-opacity:1; 
stroke-linecap:round; stroke-linejoin:round;">
<path d="M177002200 187507200
L285002200 187507200
" />
</g>
<g style="fill:#000000; fill-opacity:0.0; 
stroke:#000000; stroke-width:21200.000000; stroke-opacity:1; 
stroke-linecap:round; stroke-linejoin:round;">
</g>
<g style="fill:#000000; fill-opacity:0.0; 
stroke:#000000; stroke-width:400000.000000; stroke-opacity:1; 
stroke-linecap:round; stroke-linejoin:round;">
<text x="178002200.000000" y="190307200.000000"
textLength="9409643.000000" font-size="2666666.000000" lengthAdjust="spacingAndGlyphs"
text-anchor="start" opacity="0">Title: </text>
<g class="stroked-text"><desc>Title: </desc>
<path d="M178714580 188211961
L179857438 188211961
" />
<path d="M179036009 190211961
L179286009 188211961
" />
<path d="M180274104 190211961
L180440771 188878628
" />
<path d="M180524104 188211961
L180416961 188307200
L180500295 188402438
L180607438 188307200
L180524104 188211961
L180500295 188402438
" />
<path d="M181107438 188878628
L181869342 188878628
" />
<path d="M181476485 188211961
L181262200 189926247
L181333628 190116723
L181512200 190211961
L181702676 190211961
" />
<path d="M182655057 190211961
L182476485 190116723
L182405057 189926247
L182619342 188211961
" />
<path d="M184190771 190116723
L183988390 190211961
L183607438 190211961
L183428866 190116723
L183357438 189926247
L183452676 189164342
L183571723 188973866
L183774104 188878628
L184155057 188878628
L184333628 188973866
L184405057 189164342
L184381247 189354819
L183405057 189545295
" />
<path d="M185155057 190021485
L185238390 190116723
L185131247 190211961
L185047914 190116723
L185155057 190021485
L185131247 190211961
" />
<path d="M185286009 188973866
L185369342 189069104
L185262200 189164342
L185178866 189069104
L185286009 188973866
L185262200 189164342
" />
</g></g>
<g style="fill:#000000; fill-opacity:0.0; 
stroke:#000000; stroke-width:21200.000000; stroke-opacity:1; 
stroke-linecap:round; stroke-linejoin:round;">
</g>
<g style="fill:#000000; fill-opacity:0.0; 
stroke:#000000; stroke-width:150000.000000; stroke-opacity:1; 
stroke-linecap:round; stroke-linejoin:round;">
<text x="178002200.000000" y="186457200.000000"
textLength="22305714.000000" font-size="2000000.000000" lengthAdjust="spacingAndGlyphs"
text-anchor="start" opacity="0">File: why.kicad_pcb</text>
<g class="stroked-text"><desc>File: why.kicad_pcb</desc>
<path d="M178934342 185600057
L178434342 185600057
" />
<path d="M178434342 186385771
L178434342 184885771
L179148628 184885771
" />
<path d="M179720057 186385771
L179720057 185385771
" />
<path d="M179720057 184885771
L179648628 184957200
L179720057 185028628
L179791485 184957200
L179720057 184885771
L179720057 185028628
" />
<path d="M180648628 186385771
L180505771 186314342
L180434342 186171485
L180434342 184885771
" />
<path d="M181791485 186314342
L181648628 186385771
L181362914 186385771
L181220057 186314342
L181148628 186171485
L181148628 185600057
L181220057 185457200
L181362914 185385771
L181648628 185385771
L181791485 185457200
L181862914 185600057
L181862914 185742914
L181148628 185885771
" />
<path d="M182505771 186242914
L182577200 186314342
L182505771 186385771
L182434342 186314342
L182505771 186242914
L182505771 186385771
" />
<path d="M182505771 185457200
L182577200 185528628
L182505771 185600057
L182434342 185528628
L182505771 185457200
L182505771 185600057
" />
<path d="M184220057 185385771
L184505771 186385771
L184791485 185671485
L185077200 186385771
L185362914 185385771
" />
<path d="M185934342 186385771
L185934342 184885771
" />
<path d="M186577200 186385771
L186577200 185600057
L186505771 185457200
L186362914 185385771
L186148628 185385771
L186005771 185457200
L185934342 185528628
" />
<path d="M187148628 185385771
L187505771 186385771
" />
<path d="M187862914 185385771
L187505771 186385771
L187362914 186742914
L187291485 186814342
L187148628 186885771
" />
<path d="M188434342 186242914
L188505771 186314342
L188434342 186385771
L188362914 186314342
L188434342 186242914
L188434342 186385771
" />
<path d="M189148628 186385771
L189148628 184885771
" />
<path d="M189291485 185814342
L189720057 186385771
" />
<path d="M189720057 185385771
L189148628 185957200
" />
<path d="M190362914 186385771
L190362914 185385771
" />
<path d="M190362914 184885771
L190291485 184957200
L190362914 185028628
L190434342 184957200
L190362914 184885771
L190362914 185028628
" />
<path d="M191720057 186314342
L191577200 186385771
L191291485 186385771
L191148628 186314342
L191077200 186242914
L191005771 186100057
L191005771 185671485
L191077200 185528628
L191148628 185457200
L191291485 185385771
L191577200 185385771
L191720057 185457200
" />
<path d="M193005771 186385771
L193005771 185600057
L192934342 185457200
L192791485 185385771
L192505771 185385771
L192362914 185457200
" />
<path d="M193005771 186314342
L192862914 186385771
L192505771 186385771
L192362914 186314342
L192291485 186171485
L192291485 186028628
L192362914 185885771
L192505771 185814342
L192862914 185814342
L193005771 185742914
" />
<path d="M194362914 186385771
L194362914 184885771
" />
<path d="M194362914 186314342
L194220057 186385771
L193934342 186385771
L193791485 186314342
L193720057 186242914
L193648628 186100057
L193648628 185671485
L193720057 185528628
L193791485 185457200
L193934342 185385771
L194220057 185385771
L194362914 185457200
" />
<path d="M194720057 186528628
L195862914 186528628
" />
<path d="M196220057 185385771
L196220057 186885771
" />
<path d="M196220057 185457200
L196362914 185385771
L196648628 185385771
L196791485 185457200
L196862914 185528628
L196934342 185671485
L196934342 186100057
L196862914 186242914
L196791485 186314342
L196648628 186385771
L196362914 186385771
L196220057 186314342
" />
<path d="M198220057 186314342
L198077200 186385771
L197791485 186385771
L197648628 186314342
L197577200 186242914
L197505771 186100057
L197505771 185671485
L197577200 185528628
L197648628 185457200
L197791485 185385771
L198077200 185385771
L198220057 185457200
" />
<path d="M198862914 186385771
L198862914 184885771
" />
<path d="M198862914 185457200
L199005771 185385771
L199291485 185385771
L199434342 185457200
L199505771 185528628
L199577200 185671485
L199577200 186100057
L199505771 186242914
L199434342 186314342
L199291485 186385771
L199005771 186385771
L198862914 186314342
" />
</g></g>
<g style="fill:#000000; fill-opacity:0.0; 
stroke:#000000; stroke-width:21200.000000; stroke-opacity:1; 
stroke-linecap:round; stroke-linejoin:round;">
</g>
<g style="fill:#000000; fill-opacity:0.0; 
stroke:#000000; stroke-width:150000.000000; stroke-opacity:1; 
stroke-linecap:round; stroke-linejoin:round;">
<path d="M177002200 181507200
L285002200 181507200
" />
</g>
<g style="fill:#000000; fill-opacity:0.0; 
stroke:#000000; stroke-width:21200.000000; stroke-opacity:1; 
stroke-linecap:round; stroke-linejoin:round;">
</g>
<g style="fill:#000000; fill-opacity:0.0; 
stroke:#000000; stroke-width:150000.000000; stroke-opacity:1; 
stroke-linecap:round; stroke-linejoin:round;">
<text x="178002200.000000" y="183757200.000000"
textLength="8221429.000000" font-size="2000000.000000" lengthAdjust="spacingAndGlyphs"
text-anchor="start" opacity="0">Sheet: </text>
<g class="stroked-text"><desc>Sheet: </desc>
<path d="M178362914 183614342
L178577200 183685771
L178934342 183685771
L179077200 183614342
L179148628 183542914
L179220057 183400057
L179220057 183257200
L179148628 183114342
L179077200 183042914
L178934342 182971485
L178648628 182900057
L178505771 182828628
L178434342 182757200
L178362914 182614342
L178362914 182471485
L178434342 182328628
L178505771 182257200
L178648628 182185771
L179005771 182185771
L179220057 182257200
" />
<path d="M179862914 183685771
L179862914 182185771
" />
<path d="M180505771 183685771
L180505771 182900057
L180434342 182757200
L180291485 182685771
L180077200 182685771
L179934342 182757200
L179862914 182828628
" />
<path d="M181791485 183614342
L181648628 183685771
L181362914 183685771
L181220057 183614342
L181148628 183471485
L181148628 182900057
L181220057 182757200
L181362914 182685771
L181648628 182685771
L181791485 182757200
L181862914 182900057
L181862914 183042914
L181148628 183185771
" />
<path d="M183077200 183614342
L182934342 183685771
L182648628 183685771
L182505771 183614342
L182434342 183471485
L182434342 182900057
L182505771 182757200
L182648628 182685771
L182934342 182685771
L183077200 182757200
L183148628 182900057
L183148628 183042914
L182434342 183185771
" />
<path d="M183577200 182685771
L184148628 182685771
" />
<path d="M183791485 182185771
L183791485 183471485
L183862914 183614342
L184005771 183685771
L184148628 183685771
" />
<path d="M184648628 183542914
L184720057 183614342
L184648628 183685771
L184577200 183614342
L184648628 183542914
L184648628 183685771
" />
<path d="M184648628 182757200
L184720057 182828628
L184648628 182900057
L184577200 182828628
L184648628 182757200
L184648628 182900057
" />
</g></g>
<g style="fill:#000000; fill-opacity:0.0; 
stroke:#000000; stroke-width:21200.000000; stroke-opacity:1; 
stroke-linecap:round; stroke-linejoin:round;">
</g>
<g style="fill:#000000; fill-opacity:0.0; 
stroke:#000000; stroke-width:300000.000000; stroke-opacity:1; 
stroke-linecap:round; stroke-linejoin:round;">
<text x="178002200.000000" y="180757200.000000"
textLength="150000.000000" font-size="2000000.000000" lengthAdjust="spacingAndGlyphs"
text-anchor="start" opacity="0"></text>
<g class="stroked-text"><desc></desc>
</g></g>
<g style="fill:#000000; fill-opacity:0.0; 
stroke:#000000; stroke-width:21200.000000; stroke-opacity:1; 
stroke-linecap:round; stroke-linejoin:round;">
</g>
<g style="fill:#000000; fill-opacity:0.0; 
stroke:#000000; stroke-width:150000.000000; stroke-opacity:1; 
stroke-linecap:round; stroke-linejoin:round;">
<text x="178002200.000000" y="177757200.000000"
textLength="300000.000000" font-size="2000000.000000" lengthAdjust="spacingAndGlyphs"
text-anchor="start" opacity="0"></text>
<g class="stroked-text"><desc></desc>
</g></g>
<g style="fill:#000000; fill-opacity:0.0; 
stroke:#000000; stroke-width:21200.000000; stroke-opacity:1; 
stroke-linecap:round; stroke-linejoin:round;">
</g>
<g style="fill:#000000; fill-opacity:0.0; 
stroke:#000000; stroke-width:150000.000000; stroke-opacity:1; 
stroke-linecap:round; stroke-linejoin:round;">
<text x="178002200.000000" y="174757200.000000"
textLength="150000.000000" font-size="2000000.000000" lengthAdjust="spacingAndGlyphs"
text-anchor="start" opacity="0"></text>
<g class="stroked-text"><desc></desc>
</g></g>
<g style="fill:#000000; fill-opacity:0.0; 
stroke:#000000; stroke-width:21200.000000; stroke-opacity:1; 
stroke-linecap:round; stroke-linejoin:round;">
</g>
<g style="fill:#000000; fill-opacity:0.0; 
stroke:#000000; stroke-width:150000.000000; stroke-opacity:1; 
stroke-linecap:round; stroke-linejoin:round;">
<text x="178002200.000000" y="171757200.000000"
textLength="150000.000000" font-size="2000000.000000" lengthAdjust="spacingAndGlyphs"
text-anchor="start" opacity="0"></text>
<g class="stroked-text"><desc></desc>
</g></g>
<g style="fill:#000000; fill-opacity:0.0; 
stroke:#000000; stroke-width:21200.000000; stroke-opacity:1; 
stroke-linecap:round; stroke-linejoin:round;">
</g>
<g style="fill:#000000; fill-opacity:0.0; 
stroke:#000000; stroke-width:150000.000000; stroke-opacity:1; 
stroke-linecap:round; stroke-linejoin:round;">
<text x="178002200.000000" y="168757200.000000"
textLength="150000.000000" font-size="2000000.000000" lengthAdjust="spacingAndGlyphs"
text-anchor="start" opacity="0"></text>
<g class="stroked-text"><desc></desc>
</g></g>
<g style="fill:#000000; fill-opacity:0.0; 
stroke:#000000; stroke-width:21200.000000; stroke-opacity:1; 
stroke-linecap:round; stroke-linejoin:round;">
</g>
<g style="fill:#000000; fill-opacity:0.0; 
stroke:#000000; stroke-width:150000.000000; stroke-opacity:1; 
stroke-linecap:round; stroke-linejoin:round;">
<path d="M197002200 191507200
L197002200 194507200
" />
</g>
<g style="fill:#000000; fill-opacity:0.0; 
stroke:#000000; stroke-width:21200.000000; stroke-opacity:1; 
stroke-linecap:round; stroke-linejoin:round;">
</g>
<g style="fill:#000000; fill-opacity:0.0; 
stroke:#000000; stroke-width:150000.000000; stroke-opacity:1; 
stroke-linecap:round; stroke-linejoin:round;">
<path d="M261002200 191507200
L261002200 198007200
" />
</g>
<g style="fill:#B44A4C; fill-opacity:0.0; 
stroke:#B44A4C; stroke-width:150000.000000; stroke-opacity:1; 
stroke-linecap:round; stroke-linejoin:round;">
</g>
<g style="fill:#B44A4C; fill-opacity:0.0; 
stroke:#B44A4C; stroke-width:10000.000000; stroke-opacity:1; 
stroke-linecap:round; stroke-linejoin:round;">
<path d="M168422630 100707284
L168476939 100754083
" />
<path d="M168476939 100754083
L168540572 100875123
" />
<path d="M168540572 100875123
L168521372 100998141
" />
<path d="M168521372 100998141
L168451750 101086322
" />
<path d="M168451750 101086322
L168335165 101181003
" />
<path d="M168335165 101181003
L168267791 101211360
" />
<path d="M168267791 101211360
L168250667 101188140
" />
<path d="M168250667 101188140
L168282651 101135400
" />
<path d="M168282651 101135400
L168352945 101077269
" />
<path d="M168352945 101077269
L168456925 100983930
" />
<path d="M168456925 100983930
L168477078 100893971
" />
<path d="M168477078 100893971
L168432438 100822152
" />
<path d="M168432438 100822152
L168331348 100772997
" />
<path d="M168331348 100772997
L168233154 100777846
" />
<path d="M168233154 100777846
L168148089 100791143
" />
<path d="M168148089 100791143
L168136579 100779605
" />
<path d="M168136579 100779605
L168184674 100739419
" />
<path d="M168184674 100739419
L168309575 100681435
" />
<path d="M168309575 100681435
L168422630 100707284
" />
</g>
<g style="fill:#B44A4C; fill-opacity:1.0; 
stroke:#B44A4C; stroke-width:1.000000; stroke-opacity:1; 
stroke-linecap:round; stroke-linejoin:round;">
<circle cx="168422630.000000" cy="100707284.000000" r="5000.000000" /> 
</g>
<g style="fill:#B44A4C; fill-opacity:1.0; 
stroke:#B44A4C; stroke-width:10000.000000; stroke-opacity:1; 
stroke-linecap:round; stroke-linejoin:round;">
<path style="fill:#B44A4C; fill-opacity:1.0; 
stroke:#B44A4C; stroke-width:10000.000000; stroke-opacity:1; 
stroke-linecap:round; stroke-linejoin:round;fill-rule:evenodd;"
d="M 168422630.000000,100707284.000000
168476939.000000,100754083.000000
168540572.000000,100875123.000000
168521372.000000,100998141.000000
168451750.000000,101086322.000000
168335165.000000,101181003.000000
168267791.000000,101211360.000000
168250667.000000,101188140.000000
168282651.000000,101135400.000000
168352945.000000,101077269.000000
168456925.000000,100983930.000000
168477078.000000,100893971.000000
168432438.000000,100822152.000000
168331348.000000,100772997.000000
168233154.000000,100777846.000000
168148089.000000,100791143.000000
168136579.000000,100779605.000000
168184674.000000,100739419.000000
168309575.000000,100681435.000000
Z" /> 
</g>
<g style="fill:#B44A4C; fill-opacity:0.0; 
stroke:#B44A4C; stroke-width:10000.000000; stroke-opacity:1; 
stroke-linecap:round; stroke-linejoin:round;">
<path d="M168291770 101343881
L168293000 101354000
" />
<path d="M168293000 101354000
L168260785 101395103
" />
<path d="M168260785 101395103
L168250667 101396333
" />
<path d="M168250667 101396333
L168209563 101364118
" />
<path d="M168209563 101364118
L168208333 101354000
" />
<path d="M168208333 101354000
L168240548 101312896
" />
<path d="M168240548 101312896
L168250667 101311666
" />
<path d="M168250667 101311666
L168291770 101343881
" />
</g>
<g style="fill:#B44A4C; fill-opacity:1.0; 
stroke:#B44A4C; stroke-width:1.000000; stroke-opacity:1; 
stroke-linecap:round; stroke-linejoin:round;">
<circle cx="168291770.000000" cy="101343881.000000" r="5000.000000" /> 
</g>
<g style="fill:#B44A4C; fill-opacity:1.0; 
stroke:#B44A4C; stroke-width:10000.000000; stroke-opacity:1; 
stroke-linecap:round; stroke-linejoin:round;">
<path style="fill:#B44A4C; fill-opacity:1.0; 
stroke:#B44A4C; stroke-width:10000.000000; stroke-opacity:1; 
stroke-linecap:round; stroke-linejoin:round;fill-rule:evenodd;"
d="M 168291770.000000,101343881.000000
168293000.000000,101354000.000000
168260785.000000,101395103.000000
168250667.000000,101396333.000000
168209563.000000,101364118.000000
168208333.000000,101354000.000000
168240548.000000,101312896.000000
168250667.000000,101311666.000000
Z" /> 
</g>
<g style="fill:#B44A4C; fill-opacity:0.0; 
stroke:#B44A4C; stroke-width:10000.000000; stroke-opacity:1; 
stroke-linecap:round; stroke-linejoin:round;">
<path d="M167134234 100671876
L167148955 100765605
" />
<path d="M167148955 100765605
L167150000 100802759
" />
<path d="M167150000 100802759
L167153172 100909105
" />
<path d="M167153172 100909105
L167172956 100948023
" />
<path d="M167172956 100948023
L167224752 100936740
" />
<path d="M167224752 100936740
L167256981 100922440
" />
<path d="M167256981 100922440
L167346940 100896817
" />
<path d="M167346940 100896817
L167407549 100924788
" />
<path d="M167407549 100924788
L167447421 101016666
" />
<path d="M167447421 101016666
L167475166 101182767
" />
<path d="M167475166 101182767
L167475306 101183952
" />
<path d="M167475306 101183952
L167486316 101317233
" />
<path d="M167486316 101317233
L167477626 101377898
" />
<path d="M167477626 101377898
L167453015 101379296
" />
<path d="M167453015 101379296
L167423178 101321751
" />
<path d="M167423178 101321751
L167405805 101212586
" />
<path d="M167405805 101212586
L167404000 101161001
" />
<path d="M167404000 101161001
L167393340 101030233
" />
<path d="M167393340 101030233
L167360141 100975517
" />
<path d="M167360141 100975517
L167347061 100973000
" />
<path d="M167347061 100973000
L167259656 101010763
" />
<path d="M167259656 101010763
L167188293 101105848
" />
<path d="M167188293 101105848
L167151585 101230952
" />
<path d="M167151585 101230952
L167150000 101262083
" />
<path d="M167150000 101262083
L167138350 101354340
" />
<path d="M167138350 101354340
L167110066 101396118
" />
<path d="M167110066 101396118
L167107667 101396333
" />
<path d="M167107667 101396333
L167087382 101356370
" />
<path d="M167087382 101356370
L167072913 101245745
" />
<path d="M167072913 101245745
L167065802 101078358
" />
<path d="M167065802 101078358
L167065333 101015333
" />
<path d="M167065333 101015333
L167069774 100832773
" />
<path d="M167069774 100832773
L167082065 100702548
" />
<path d="M167082065 100702548
L167100664 100638553
" />
<path d="M167100664 100638553
L167107667 100634333
" />
<path d="M167107667 100634333
L167134234 100671876
" />
</g>
<g style="fill:#B44A4C; fill-opacity:1.0; 
stroke:#B44A4C; stroke-width:1.000000; stroke-opacity:1; 
stroke-linecap:round; stroke-linejoin:round;">
<circle cx="167134234.000000" cy="100671876.000000" r="5000.000000" /> 
</g>
<g style="fill:#B44A4C; fill-opacity:1.0; 
stroke:#B44A4C; stroke-width:10000.000000; stroke-opacity:1; 
stroke-linecap:round; stroke-linejoin:round;">
<path style="fill:#B44A4C; fill-opacity:1.0; 
stroke:#B44A4C; stroke-width:10000.000000; stroke-opacity:1; 
stroke-linecap:round; stroke-linejoin:round;fill-rule:evenodd;"
d="M 167134234.000000,100671876.000000
167148955.000000,100765605.000000
167150000.000000,100802759.000000
167153172.000000,100909105.000000
167172956.000000,100948023.000000
167224752.000000,100936740.000000
167256981.000000,100922440.000000
167346940.000000,100896817.000000
167407549.000000,100924788.000000
167447421.000000,101016666.000000
167475166.000000,101182767.000000
167475306.000000,101183952.000000
167486316.000000,101317233.000000
167477626.000000,101377898.000000
167453015.000000,101379296.000000
167423178.000000,101321751.000000
167405805.000000,101212586.000000
167404000.000000,101161001.000000
167393340.000000,101030233.000000
167360141.000000,100975517.000000
167347061.000000,100973000.000000
167259656.000000,101010763.000000
167188293.000000,101105848.000000
167151585.000000,101230952.000000
167150000.000000,101262083.000000
167138350.000000,101354340.000000
167110066.000000,101396118.000000
167107667.000000,101396333.000000
167087382.000000,101356370.000000
167072913.000000,101245745.000000
167065802.000000,101078358.000000
167065333.000000,101015333.000000
167069774.000000,100832773.000000
167082065.000000,100702548.000000
167100664.000000,100638553.000000
167107667.000000,100634333.000000
Z" /> 
</g>
<g style="fill:#B44A4C; fill-opacity:0.0; 
stroke:#B44A4C; stroke-width:10000.000000; stroke-opacity:1; 
stroke-linecap:round; stroke-linejoin:round;">
<path d="M166922331 100679624
L166932553 100698268
" />
<path d="M166932553 100698268
L166923308 100747252
" />
<path d="M166923308 100747252
L166891237 100841232
" />
<path d="M166891237 100841232
L166832982 100994862
" />
<path d="M166832982 100994862
L166808558 101058248
" />
<path d="M166808558 101058248
L166729463 101252766
" />
<path d="M166729463 101252766
L166669834 101372727
" />
<path d="M166669834 101372727
L166625401 101424847
" />
<path d="M166625401 101424847
L166591891 101415840
" />
<path d="M166591891 101415840
L166586308 101407607
" />
<path d="M166586308 101407607
L166568418 101349122
" />
<path d="M166568418 101349122
L166545711 101239462
" />
<path d="M166545711 101239462
L166536283 101184666
" />
<path d="M166536283 101184666
L166504899 101023008
" />
<path d="M166504899 101023008
L166473981 100944802
" />
<path d="M166473981 100944802
L166439497 100948953
" />
<path d="M166439497 100948953
L166397415 101034366
" />
<path d="M166397415 101034366
L166362652 101137506
" />
<path d="M166362652 101137506
L166314789 101270660
" />
<path d="M166314789 101270660
L166269133 101363995
" />
<path d="M166269133 101363995
L166238080 101395971
" />
<path d="M166238080 101395971
L166207132 101358212
" />
<path d="M166207132 101358212
L166167528 101258623
" />
<path d="M166167528 101258623
L166127583 101118323
" />
<path d="M166127583 101118323
L166125717 101110583
" />
<path d="M166125717 101110583
L166086840 100954927
" />
<path d="M166086840 100954927
L166051368 100824927
" />
<path d="M166051368 100824927
L166027691 100750750
" />
<path d="M166027691 100750750
L166021727 100689531
" />
<path d="M166021727 100689531
L166041951 100676666
" />
<path d="M166041951 100676666
L166067540 100682520
" />
<path d="M166067540 100682520
L166089422 100711097
" />
<path d="M166089422 100711097
L166114281 100778916
" />
<path d="M166114281 100778916
L166148802 100902498
" />
<path d="M166148802 100902498
L166176895 101010134
" />
<path d="M166176895 101010134
L166211107 101116934
" />
<path d="M166211107 101116934
L166244472 101152990
" />
<path d="M166244472 101152990
L166282566 101115004
" />
<path d="M166282566 101115004
L166330966 100999682
" />
<path d="M166330966 100999682
L166365032 100898916
" />
<path d="M166365032 100898916
L166414685 100758767
" />
<path d="M166414685 100758767
L166454124 100686958
" />
<path d="M166454124 100686958
L166487646 100686845
" />
<path d="M166487646 100686845
L166519548 100761786
" />
<path d="M166519548 100761786
L166554127 100915137
" />
<path d="M166554127 100915137
L166581763 101068250
" />
<path d="M166581763 101068250
L166607390 101170066
" />
<path d="M166607390 101170066
L166636823 101224274
" />
<path d="M166636823 101224274
L166643670 101227000
" />
<path d="M166643670 101227000
L166673138 101191124
" />
<path d="M166673138 101191124
L166718803 101100633
" />
<path d="M166718803 101100633
L166770075 100981225
" />
<path d="M166770075 100981225
L166816362 100858602
" />
<path d="M166816362 100858602
L166847073 100758464
" />
<path d="M166847073 100758464
L166853667 100717411
" />
<path d="M166853667 100717411
L166885929 100677839
" />
<path d="M166885929 100677839
L166896000 100676666
" />
<path d="M166896000 100676666
L166922331 100679624
" />
</g>
<g style="fill:#B44A4C; fill-opacity:1.0; 
stroke:#B44A4C; stroke-width:1.000000; stroke-opacity:1; 
stroke-linecap:round; stroke-linejoin:round;">
<circle cx="166922331.000000" cy="100679624.000000" r="5000.000000" /> 
</g>
<g style="fill:#B44A4C; fill-opacity:1.0; 
stroke:#B44A4C; stroke-width:10000.000000; stroke-opacity:1; 
stroke-linecap:round; stroke-linejoin:round;">
<path style="fill:#B44A4C; fill-opacity:1.0; 
stroke:#B44A4C; stroke-width:10000.000000; stroke-opacity:1; 
stroke-linecap:round; stroke-linejoin:round;fill-rule:evenodd;"
d="M 166922331.000000,100679624.000000
166932553.000000,100698268.000000
166923308.000000,100747252.000000
166891237.000000,100841232.000000
166832982.000000,100994862.000000
166808558.000000,101058248.000000
166729463.000000,101252766.000000
166669834.000000,101372727.000000
166625401.000000,101424847.000000
166591891.000000,101415840.000000
166586308.000000,101407607.000000
166568418.000000,101349122.000000
166545711.000000,101239462.000000
166536283.000000,101184666.000000
166504899.000000,101023008.000000
166473981.000000,100944802.000000
166439497.000000,100948953.000000
166397415.000000,101034366.000000
166362652.000000,101137506.000000
166314789.000000,101270660.000000
166269133.000000,101363995.000000
166238080.000000,101395971.000000
166207132.000000,101358212.000000
166167528.000000,101258623.000000
166127583.000000,101118323.000000
166125717.000000,101110583.000000
166086840.000000,100954927.000000
166051368.000000,100824927.000000
166027691.000000,100750750.000000
166021727.000000,100689531.000000
166041951.000000,100676666.000000
166067540.000000,100682520.000000
166089422.000000,100711097.000000
166114281.000000,100778916.000000
166148802.000000,100902498.000000
166176895.000000,101010134.000000
166211107.000000,101116934.000000
166244472.000000,101152990.000000
166282566.000000,101115004.000000
166330966.000000,100999682.000000
166365032.000000,100898916.000000
166414685.000000,100758767.000000
166454124.000000,100686958.000000
166487646.000000,100686845.000000
166519548.000000,100761786.000000
166554127.000000,100915137.000000
166581763.000000,101068250.000000
166607390.000000,101170066.000000
166636823.000000,101224274.000000
166643670.000000,101227000.000000
166673138.000000,101191124.000000
166718803.000000,101100633.000000
166770075.000000,100981225.000000
166816362.000000,100858602.000000
166847073.000000,100758464.000000
166853667.000000,100717411.000000
166885929.000000,100677839.000000
166896000.000000,100676666.000000
Z" /> 
</g>
<g style="fill:#B44A4C; fill-opacity:0.0; 
stroke:#B44A4C; stroke-width:10000.000000; stroke-opacity:1; 
stroke-linecap:round; stroke-linejoin:round;">
<path d="M167636289 100897458
L167642797 100909500
" />
<path d="M167642797 100909500
L167673476 100970642
" />
<path d="M167673476 100970642
L167730126 101069323
" />
<path d="M167730126 101069323
L167746478 101096431
" />
<path d="M167746478 101096431
L167834620 101241029
" />
<path d="M167834620 101241029
L167916396 101058377
" />
<path d="M167916396 101058377
L167969071 100957577
" />
<path d="M167969071 100957577
L168011850 100904949
" />
<path d="M168011850 100904949
L168026054 100903609
" />
<path d="M168026054 100903609
L168023154 100952503
" />
<path d="M168023154 100952503
L167991246 101058644
" />
<path d="M167991246 101058644
L167936612 101202318
" />
<path d="M167936612 101202318
L167912708 101259163
" />
<path d="M167912708 101259163
L167819343 101467655
" />
<path d="M167819343 101467655
L167753103 101596791
" />
<path d="M167753103 101596791
L167713572 101647276
" />
<path d="M167713572 101647276
L167700334 101619813
" />
<path d="M167700334 101619813
L167700333 101619222
" />
<path d="M167700333 101619222
L167714464 101546203
" />
<path d="M167714464 101546203
L167742374 101460603
" />
<path d="M167742374 101460603
L167759708 101377226
" />
<path d="M167759708 101377226
L167741554 101282548
" />
<path d="M167741554 101282548
L167682112 101148210
" />
<path d="M167682112 101148210
L167676027 101136138
" />
<path d="M167676027 101136138
L167621968 101015512
" />
<path d="M167621968 101015512
L167595041 100926341
" />
<path d="M167595041 100926341
L167597449 100894707
" />
<path d="M167597449 100894707
L167636289 100897458
" />
</g>
<g style="fill:#B44A4C; fill-opacity:1.0; 
stroke:#B44A4C; stroke-width:1.000000; stroke-opacity:1; 
stroke-linecap:round; stroke-linejoin:round;">
<circle cx="167636289.000000" cy="100897458.000000" r="5000.000000" /> 
</g>
<g style="fill:#B44A4C; fill-opacity:1.0; 
stroke:#B44A4C; stroke-width:10000.000000; stroke-opacity:1; 
stroke-linecap:round; stroke-linejoin:round;">
<path style="fill:#B44A4C; fill-opacity:1.0; 
stroke:#B44A4C; stroke-width:10000.000000; stroke-opacity:1; 
stroke-linecap:round; stroke-linejoin:round;fill-rule:evenodd;"
d="M 167636289.000000,100897458.000000
167642797.000000,100909500.000000
167673476.000000,100970642.000000
167730126.000000,101069323.000000
167746478.000000,101096431.000000
167834620.000000,101241029.000000
167916396.000000,101058377.000000
167969071.000000,100957577.000000
168011850.000000,100904949.000000
168026054.000000,100903609.000000
168023154.000000,100952503.000000
167991246.000000,101058644.000000
167936612.000000,101202318.000000
167912708.000000,101259163.000000
167819343.000000,101467655.000000
167753103.000000,101596791.000000
167713572.000000,101647276.000000
167700334.000000,101619813.000000
167700333.000000,101619222.000000
167714464.000000,101546203.000000
167742374.000000,101460603.000000
167759708.000000,101377226.000000
167741554.000000,101282548.000000
167682112.000000,101148210.000000
167676027.000000,101136138.000000
167621968.000000,101015512.000000
167595041.000000,100926341.000000
167597449.000000,100894707.000000
Z" /> 
</g>
<g style="fill:#B44A4C; fill-opacity:0.0; 
stroke:#B44A4C; stroke-width:10000.000000; stroke-opacity:1; 
stroke-linecap:round; stroke-linejoin:round;">
<path d="M166800097 115245042
L166868123 115249729
" />
<path d="M166868123 115249729
L166928540 115257827
" />
<path d="M166928540 115257827
L166946371 115261313
" />
<path d="M166946371 115261313
L167063122 115292966
" />
<path d="M167063122 115292966
L167171645 115336198
" />
<path d="M167171645 115336198
L167273058 115391619
" />
<path d="M167273058 115391619
L167368480 115459839
" />
<path d="M167368480 115459839
L167458751 115541192
" />
<path d="M167458751 115541192
L167540226 115631820
" />
<path d="M167540226 115631820
L167608417 115727761
" />
<path d="M167608417 115727761
L167663823 115829955
" />
<path d="M167663823 115829955
L167706941 115939342
" />
<path d="M167706941 115939342
L167738270 116056862
" />
<path d="M167738270 116056862
L167741941 116075029
" />
<path d="M167741941 116075029
L167750078 116132434
" />
<path d="M167750078 116132434
L167754627 116199044
" />
<path d="M167754627 116199044
L167755626 116270103
" />
<path d="M167755626 116270103
L167753115 116340850
" />
<path d="M167753115 116340850
L167747131 116406529
" />
<path d="M167747131 116406529
L167738805 116457396
" />
<path d="M167738805 116457396
L167706289 116576816
" />
<path d="M167706289 116576816
L167661098 116689732
" />
<path d="M167661098 116689732
L167603796 116795396
" />
<path d="M167603796 116795396
L167534948 116893059
" />
<path d="M167534948 116893059
L167455116 116981974
" />
<path d="M167455116 116981974
L167364864 117061392
" />
<path d="M167364864 117061392
L167264756 117130565
" />
<path d="M167264756 117130565
L167207014 117163282
" />
<path d="M167207014 117163282
L167136804 117196060
" />
<path d="M167136804 117196060
L167059215 117225153
" />
<path d="M167059215 117225153
L166980679 117248356
" />
<path d="M166980679 117248356
L166921286 117261232
" />
<path d="M166921286 117261232
L166870545 117268241
" />
<path d="M166870545 117268241
L166812723 117273199
" />
<path d="M166812723 117273199
L166752645 117275926
" />
<path d="M166752645 117275926
L166695133 117276241
" />
<path d="M166695133 117276241
L166645010 117273964
" />
<path d="M166645010 117273964
L166627372 117272198
" />
<path d="M166627372 117272198
L166505844 117250336
" />
<path d="M166505844 117250336
L166390309 117215611
" />
<path d="M166390309 117215611
L166281464 117168677
" />
<path d="M166281464 117168677
L166180010 117110188
" />
<path d="M166180010 117110188
L166086646 117040796
" />
<path d="M166086646 117040796
L166002072 116961156
" />
<path d="M166002072 116961156
L165926988 116871919
" />
<path d="M165926988 116871919
L165862093 116773739
" />
<path d="M165862093 116773739
L165808087 116667269
" />
<path d="M165808087 116667269
L165765670 116553163
" />
<path d="M165765670 116553163
L165737332 116441251
" />
<path d="M165737332 116441251
L165729490 116387110
" />
<path d="M165729490 116387110
L165725026 116323467
" />
<path d="M165725026 116323467
L165723897 116254929
" />
<path d="M165723897 116254929
L165723963 116252829
" />
<path d="M165723963 116252829
L166160438 116252829
" />
<path d="M166160438 116252829
L166166380 116347367
" />
<path d="M166166380 116347367
L166185533 116436056
" />
<path d="M166185533 116436056
L166217791 116518647
" />
<path d="M166217791 116518647
L166263051 116594893
" />
<path d="M166263051 116594893
L166321205 116664544
" />
<path d="M166321205 116664544
L166344384 116687130
" />
<path d="M166344384 116687130
L166414591 116742459
" />
<path d="M166414591 116742459
L166492031 116785850
" />
<path d="M166492031 116785850
L166575105 116816882
" />
<path d="M166575105 116816882
L166662214 116835137
" />
<path d="M166662214 116835137
L166751760 116840193
" />
<path d="M166751760 116840193
L166842144 116831632
" />
<path d="M166842144 116831632
L166872037 116825712
" />
<path d="M166872037 116825712
L166956950 116799403
" />
<path d="M166956950 116799403
L167035847 116760495
" />
<path d="M167035847 116760495
L167107606 116710054
" />
<path d="M167107606 116710054
L167171106 116649146
" />
<path d="M167171106 116649146
L167225226 116578836
" />
<path d="M167225226 116578836
L167268845 116500190
" />
<path d="M167268845 116500190
L167299230 116419743
" />
<path d="M167299230 116419743
L167307854 116388813
" />
<path d="M167307854 116388813
L167313579 116361502
" />
<path d="M167313579 116361502
L167316984 116333156
" />
<path d="M167316984 116333156
L167318651 116299123
" />
<path d="M167318651 116299123
L167319142 116260086
" />
<path d="M167319142 116260086
L167315378 116177913
" />
<path d="M167315378 116177913
L167302780 116104558
" />
<path d="M167302780 116104558
L167280378 116036642
" />
<path d="M167280378 116036642
L167247206 115970785
" />
<path d="M167247206 115970785
L167227076 115938768
" />
<path d="M167227076 115938768
L167171531 115867467
" />
<path d="M167171531 115867467
L167108521 115807659
" />
<path d="M167108521 115807659
L167039342 115759264
" />
<path d="M167039342 115759264
L166965292 115722203
" />
<path d="M166965292 115722203
L166887666 115696398
" />
<path d="M166887666 115696398
L166807761 115681769
" />
<path d="M166807761 115681769
L166726874 115678238
" />
<path d="M166726874 115678238
L166646302 115685724
" />
<path d="M166646302 115685724
L166567340 115704150
" />
<path d="M166567340 115704150
L166491286 115733437
" />
<path d="M166491286 115733437
L166419437 115773505
" />
<path d="M166419437 115773505
L166353088 115824275
" />
<path d="M166353088 115824275
L166293537 115885668
" />
<path d="M166293537 115885668
L166242079 115957606
" />
<path d="M166242079 115957606
L166218408 116000226
" />
<path d="M166218408 116000226
L166186944 116076692
" />
<path d="M166186944 116076692
L166167811 116157835
" />
<path d="M166167811 116157835
L166160522 116245779
" />
<path d="M166160522 116245779
L166160438 116252829
" />
<path d="M166160438 116252829
L165723963 116252829
" />
<path d="M165723963 116252829
L165726063 116186101
" />
<path d="M165726063 116186101
L165731479 116121587
" />
<path d="M165731479 116121587
L165740106 116065992
" />
<path d="M165740106 116065992
L165740781 116062776
" />
<path d="M165740781 116062776
L165773684 115942128
" />
<path d="M165773684 115942128
L165818862 115828766
" />
<path d="M165818862 115828766
L165875701 115723310
" />
<path d="M165875701 115723310
L165943585 115626378
" />
<path d="M165943585 115626378
L166021896 115538591
" />
<path d="M166021896 115538591
L166110019 115460568
" />
<path d="M166110019 115460568
L166207337 115392928
" />
<path d="M166207337 115392928
L166313234 115336290
" />
<path d="M166313234 115336290
L166427095 115291276
" />
<path d="M166427095 115291276
L166538735 115260574
" />
<path d="M166538735 115260574
L166593782 115251534
" />
<path d="M166593782 115251534
L166658585 115245937
" />
<path d="M166658585 115245937
L166728804 115243775
" />
<path d="M166728804 115243775
L166800097 115245042
" />
</g>
<g style="fill:#B44A4C; fill-opacity:1.0; 
stroke:#B44A4C; stroke-width:1.000000; stroke-opacity:1; 
stroke-linecap:round; stroke-linejoin:round;">
<circle cx="166800097.000000" cy="115245042.000000" r="5000.000000" /> 
</g>
<g style="fill:#B44A4C; fill-opacity:1.0; 
stroke:#B44A4C; stroke-width:10000.000000; stroke-opacity:1; 
stroke-linecap:round; stroke-linejoin:round;">
<path style="fill:#B44A4C; fill-opacity:1.0; 
stroke:#B44A4C; stroke-width:10000.000000; stroke-opacity:1; 
stroke-linecap:round; stroke-linejoin:round;fill-rule:evenodd;"
d="M 165731479.000000,116121587.000000
165740106.000000,116065992.000000
165740781.000000,116062776.000000
165773684.000000,115942128.000000
165818862.000000,115828766.000000
165875701.000000,115723310.000000
165943585.000000,115626378.000000
166021896.000000,115538591.000000
166110019.000000,115460568.000000
166207337.000000,115392928.000000
166313234.000000,115336290.000000
166427095.000000,115291276.000000
166538735.000000,115260574.000000
166593782.000000,115251534.000000
166658585.000000,115245937.000000
166728804.000000,115243775.000000
166800097.000000,115245042.000000
166868123.000000,115249729.000000
166928540.000000,115257827.000000
166946371.000000,115261313.000000
167063122.000000,115292966.000000
167171645.000000,115336198.000000
167273058.000000,115391619.000000
167368480.000000,115459839.000000
167458751.000000,115541192.000000
167540226.000000,115631820.000000
167608417.000000,115727761.000000
167663823.000000,115829955.000000
167706941.000000,115939342.000000
167738270.000000,116056862.000000
167741941.000000,116075029.000000
167750078.000000,116132434.000000
167754627.000000,116199044.000000
167755626.000000,116270103.000000
167753115.000000,116340850.000000
167747131.000000,116406529.000000
167738805.000000,116457396.000000
167706289.000000,116576816.000000
167661098.000000,116689732.000000
167603796.000000,116795396.000000
167534948.000000,116893059.000000
167455116.000000,116981974.000000
167364864.000000,117061392.000000
167264756.000000,117130565.000000
167207014.000000,117163282.000000
167136804.000000,117196060.000000
167059215.000000,117225153.000000
166980679.000000,117248356.000000
166921286.000000,117261232.000000
166870545.000000,117268241.000000
166812723.000000,117273199.000000
166752645.000000,117275926.000000
166695133.000000,117276241.000000
166645010.000000,117273964.000000
166627372.000000,117272198.000000
166505844.000000,117250336.000000
166390309.000000,117215611.000000
166281464.000000,117168677.000000
166180010.000000,117110188.000000
166086646.000000,117040796.000000
166002072.000000,116961156.000000
165926988.000000,116871919.000000
165862093.000000,116773739.000000
165808087.000000,116667269.000000
165765670.000000,116553163.000000
165737332.000000,116441251.000000
165729490.000000,116387110.000000
165725026.000000,116323467.000000
165723897.000000,116254929.000000
165723963.000000,116252829.000000
166160438.000000,116252829.000000
166166380.000000,116347367.000000
166185533.000000,116436056.000000
166217791.000000,116518647.000000
166263051.000000,116594893.000000
166321205.000000,116664544.000000
166344384.000000,116687130.000000
166414591.000000,116742459.000000
166492031.000000,116785850.000000
166575105.000000,116816882.000000
166662214.000000,116835137.000000
166751760.000000,116840193.000000
166842144.000000,116831632.000000
166872037.000000,116825712.000000
166956950.000000,116799403.000000
167035847.000000,116760495.000000
167107606.000000,116710054.000000
167171106.000000,116649146.000000
167225226.000000,116578836.000000
167268845.000000,116500190.000000
167299230.000000,116419743.000000
167307854.000000,116388813.000000
167313579.000000,116361502.000000
167316984.000000,116333156.000000
167318651.000000,116299123.000000
167319142.000000,116260086.000000
167315378.000000,116177913.000000
167302780.000000,116104558.000000
167280378.000000,116036642.000000
167247206.000000,115970785.000000
167227076.000000,115938768.000000
167171531.000000,115867467.000000
167108521.000000,115807659.000000
167039342.000000,115759264.000000
166965292.000000,115722203.000000
166887666.000000,115696398.000000
166807761.000000,115681769.000000
166726874.000000,115678238.000000
166646302.000000,115685724.000000
166567340.000000,115704150.000000
166491286.000000,115733437.000000
166419437.000000,115773505.000000
166353088.000000,115824275.000000
166293537.000000,115885668.000000
166242079.000000,115957606.000000
166218408.000000,116000226.000000
166186944.000000,116076692.000000
166167811.000000,116157835.000000
166160522.000000,116245779.000000
166160438.000000,116252829.000000
165723963.000000,116252829.000000
165726063.000000,116186101.000000
Z" /> 
</g>
<g style="fill:#B44A4C; fill-opacity:0.0; 
stroke:#B44A4C; stroke-width:10000.000000; stroke-opacity:1; 
stroke-linecap:round; stroke-linejoin:round;">
<path d="M165357372 116844286
L165538800 116844286
" />
<path d="M165538800 116844286
L165538800 117279714
" />
<path d="M165538800 117279714
L164921986 117279714
" />
<path d="M164921986 117279714
L164920150 116080472
" />
<path d="M164920150 116080472
L164918314 114881229
" />
<path d="M164918314 114881229
L164740514 114877153
" />
<path d="M164740514 114877153
L164740514 114442172
" />
<path d="M164740514 114442172
L165357372 114442172
" />
<path d="M165357372 114442172
L165357372 116844286
" />
</g>
<g style="fill:#B44A4C; fill-opacity:1.0; 
stroke:#B44A4C; stroke-width:1.000000; stroke-opacity:1; 
stroke-linecap:round; stroke-linejoin:round;">
<circle cx="165357372.000000" cy="116844286.000000" r="5000.000000" /> 
</g>
<g style="fill:#B44A4C; fill-opacity:1.0; 
stroke:#B44A4C; stroke-width:10000.000000; stroke-opacity:1; 
stroke-linecap:round; stroke-linejoin:round;">
<path style="fill:#B44A4C; fill-opacity:1.0; 
stroke:#B44A4C; stroke-width:10000.000000; stroke-opacity:1; 
stroke-linecap:round; stroke-linejoin:round;fill-rule:evenodd;"
d="M 165357372.000000,116844286.000000
165538800.000000,116844286.000000
165538800.000000,117279714.000000
164921986.000000,117279714.000000
164920150.000000,116080472.000000
164918314.000000,114881229.000000
164740514.000000,114877153.000000
164740514.000000,114442172.000000
165357372.000000,114442172.000000
Z" /> 
</g>
<g style="fill:#B44A4C; fill-opacity:0.0; 
stroke:#B44A4C; stroke-width:10000.000000; stroke-opacity:1; 
stroke-linecap:round; stroke-linejoin:round;">
<path d="M167756052 117760500
L167738996 117841379
" />
<path d="M167738996 117841379
L167709448 117915359
" />
<path d="M167709448 117915359
L167668105 117981601
" />
<path d="M167668105 117981601
L167615664 118039268
" />
<path d="M167615664 118039268
L167552821 118087520
" />
<path d="M167552821 118087520
L167480275 118125521
" />
<path d="M167480275 118125521
L167440172 118140549
" />
<path d="M167440172 118140549
L167430863 118143302
" />
<path d="M167430863 118143302
L167420141 118145661
" />
<path d="M167420141 118145661
L167406829 118147665
" />
<path d="M167406829 118147665
L167389749 118149352
" />
<path d="M167389749 118149352
L167367727 118150760
" />
<path d="M167367727 118150760
L167339586 118151929
" />
<path d="M167339586 118151929
L167304149 118152896
" />
<path d="M167304149 118152896
L167260240 118153701
" />
<path d="M167260240 118153701
L167206682 118154380
" />
<path d="M167206682 118154380
L167142301 118154973
" />
<path d="M167142301 118154973
L167065919 118155518
" />
<path d="M167065919 118155518
L166976359 118156054
" />
<path d="M166976359 118156054
L166963014 118156129
" />
<path d="M166963014 118156129
L166525772 118158561
" />
<path d="M166525772 118158561
L166525772 118124771
" />
<path d="M166525772 118124771
L166532531 118063926
" />
<path d="M166532531 118063926
L166551721 118001970
" />
<path d="M166551721 118001970
L166581710 117941387
" />
<path d="M166581710 117941387
L166620867 117884659
" />
<path d="M166620867 117884659
L166667561 117834270
" />
<path d="M166667561 117834270
L166720159 117792704
" />
<path d="M166720159 117792704
L166758336 117770808
" />
<path d="M166758336 117770808
L166778192 117761152
" />
<path d="M166778192 117761152
L166796089 117752874
" />
<path d="M166796089 117752874
L166813279 117745868
" />
<path d="M166813279 117745868
L166831013 117740027
" />
<path d="M166831013 117740027
L166850543 117735246
" />
<path d="M166850543 117735246
L166873120 117731418
" />
<path d="M166873120 117731418
L166899996 117728437
" />
<path d="M166899996 117728437
L166932422 117726198
" />
<path d="M166932422 117726198
L166971650 117724595
" />
<path d="M166971650 117724595
L167018931 117723521
" />
<path d="M167018931 117723521
L167075517 117722870
" />
<path d="M167075517 117722870
L167142660 117722537
" />
<path d="M167142660 117722537
L167221610 117722416
" />
<path d="M167221610 117722416
L167313620 117722400
" />
<path d="M167313620 117722400
L167760848 117722400
" />
<path d="M167760848 117722400
L167756052 117760500
" />
</g>
<g style="fill:#B44A4C; fill-opacity:1.0; 
stroke:#B44A4C; stroke-width:1.000000; stroke-opacity:1; 
stroke-linecap:round; stroke-linejoin:round;">
<circle cx="167756052.000000" cy="117760500.000000" r="5000.000000" /> 
</g>
<g style="fill:#B44A4C; fill-opacity:1.0; 
stroke:#B44A4C; stroke-width:10000.000000; stroke-opacity:1; 
stroke-linecap:round; stroke-linejoin:round;">
<path style="fill:#B44A4C; fill-opacity:1.0; 
stroke:#B44A4C; stroke-width:10000.000000; stroke-opacity:1; 
stroke-linecap:round; stroke-linejoin:round;fill-rule:evenodd;"
d="M 167756052.000000,117760500.000000
167738996.000000,117841379.000000
167709448.000000,117915359.000000
167668105.000000,117981601.000000
167615664.000000,118039268.000000
167552821.000000,118087520.000000
167480275.000000,118125521.000000
167440172.000000,118140549.000000
167430863.000000,118143302.000000
167420141.000000,118145661.000000
167406829.000000,118147665.000000
167389749.000000,118149352.000000
167367727.000000,118150760.000000
167339586.000000,118151929.000000
167304149.000000,118152896.000000
167260240.000000,118153701.000000
167206682.000000,118154380.000000
167142301.000000,118154973.000000
167065919.000000,118155518.000000
166976359.000000,118156054.000000
166963014.000000,118156129.000000
166525772.000000,118158561.000000
166525772.000000,118124771.000000
166532531.000000,118063926.000000
166551721.000000,118001970.000000
166581710.000000,117941387.000000
166620867.000000,117884659.000000
166667561.000000,117834270.000000
166720159.000000,117792704.000000
166758336.000000,117770808.000000
166778192.000000,117761152.000000
166796089.000000,117752874.000000
166813279.000000,117745868.000000
166831013.000000,117740027.000000
166850543.000000,117735246.000000
166873120.000000,117731418.000000
166899996.000000,117728437.000000
166932422.000000,117726198.000000
166971650.000000,117724595.000000
167018931.000000,117723521.000000
167075517.000000,117722870.000000
167142660.000000,117722537.000000
167221610.000000,117722416.000000
167313620.000000,117722400.000000
167760848.000000,117722400.000000
Z" /> 
<g >
</g>
<g >
</g>
<g >
</g>
<g style="fill:#000000; fill-opacity:1.0; 
stroke:#000000; stroke-width:10000.000000; stroke-opacity:1; 
stroke-linecap:round; stroke-linejoin:round;">
</g>
<g style="fill:#000000; fill-opacity:1.0; 
stroke:#000000; stroke-width:1000000.000000; stroke-opacity:1; 
stroke-linecap:round; stroke-linejoin:round;">
</g>
<g style="fill:#000000; fill-opacity:0.0; 
stroke:#000000; stroke-width:1000000.000000; stroke-opacity:1; 
stroke-linecap:round; stroke-linejoin:round;">
<path d="M163820000 96650000
L163820000 97250000
" />
<path d="M155180000 96650000
L155180000 97250000
" />
<path d="M163820000 100580000
L163820000 101680000
" />
<path d="M155180000 100580000
L155180000 101680000
" />
</g>
<g style="fill:#000000; fill-opacity:1.0; 
stroke:#000000; stroke-width:1.000000; stroke-opacity:1; 
stroke-linecap:round; stroke-linejoin:round;">
<circle cx="156610000.000000" cy="100600000.000000" r="325000.000000" /> 
</g>
<g style="fill:#000000; fill-opacity:1.0; 
stroke:#000000; stroke-width:21200.000000; stroke-opacity:1; 
stroke-linecap:round; stroke-linejoin:round;">
</g>
<g style="fill:#000000; fill-opacity:1.0; 
stroke:#000000; stroke-width:1.000000; stroke-opacity:1; 
stroke-linecap:round; stroke-linejoin:round;">
<circle cx="162390000.000000" cy="100600000.000000" r="325000.000000" /> 
</g>
<g style="fill:#000000; fill-opacity:1.0; 
stroke:#000000; stroke-width:21200.000000; stroke-opacity:1; 
stroke-linecap:round; stroke-linejoin:round;">
</g>
<g >
</g>
<g >
</g>
<g >
</g>
<g >
</g>
<g >
</g>
<g >
</g>
<g >
</g>
<g >
</g>
<g >
</g>
<g >
</g>
<g >
</g>
<g >
</g>
<g >
</g>
<g >
</g>
<g >
</g>
<g >
</g>
<g >
</g>
<g style="fill:#000000; fill-opacity:1.0; 
stroke:#000000; stroke-width:21200.000000; stroke-opacity:1; 
stroke-linecap:round; stroke-linejoin:round;">
</g>
<g style="fill:#000000; fill-opacity:1.0; 
stroke:#000000; stroke-width:1.000000; stroke-opacity:1; 
stroke-linecap:round; stroke-linejoin:round;">
<circle cx="159500000.000000" cy="109550000.000000" r="1993900.000000" /> 
</g>
<g style="fill:#000000; fill-opacity:1.0; 
stroke:#000000; stroke-width:21200.000000; stroke-opacity:1; 
stroke-linecap:round; stroke-linejoin:round;">
</g>
<g >
</g>
<g >
</g>
<g >
</g>
</g>
<g style="fill:#000000; fill-opacity:1.0; 
stroke:#000000; stroke-width:21200.000000; stroke-opacity:1; 
stroke-linecap:round; stroke-linejoin:round;">
</g>
<g style="fill:#C8A339; fill-opacity:1.0; 
stroke:#C8A339; stroke-width:21200.000000; stroke-opacity:1; 
stroke-linecap:round; stroke-linejoin:round;">
</g>
<g style="fill:#C8A339; fill-opacity:0.0; 
stroke:#C8A339; stroke-width:100000.000000; stroke-opacity:1; 
stroke-linecap:round; stroke-linejoin:round;">
<path d="M150000000.000000 118050000.000000 A1000000.000000 1000000.000000 0.0 0 0 151000000.000000 119050000.000000" />
<path d="M168050000.000000 119050000.000000 A1000000.000000 1000000.000000 0.0 0 0 169050000.000000 118050000.000000" />
<path d="M169050000.000000 101000000.000000 A1000000.000000 1000000.000000 0.0 0 0 168050000.000000 100000000.000000" />
<path d="M151000000.000000 100000000.000000 A1000000.000000 1000000.000000 0.0 0 0 150000000.000000 101000000.000000" />
<path d="M169050000 101000000
L169050000 118050000
" />
<path d="M150000000 101000000
L150000000 118050000
" />
<path d="M151000000 119050000
L168050000 119050000
" />
<path d="M165525000 100000000
L168050000 100000000
" />
<path d="M151000000 100000000
L153525000 100000000
" />
<path d="M165525000.000000 96790000.000000 A1000000.000000 1000000.000000 0.0 0 0 164525000.000000 95790000.000000" />
<path d="M154525000.000000 95790000.000000 A1000000.000000 1000000.000000 0.0 0 0 153525000.000000 96790000.000000" />
<path d="M154525000 95790000
L164525000 95790000
" />
<path d="M165525000 96790000
L165525000 100000000
" />
<path d="M153525000 96790000
L153525000 100000000
" />
<g >
</g>
<g >
</g>
<g >
</g>
<g >
</g>
<g >
</g>
<g >
</g>
<g >
</g>
<g >
</g>
<g >
</g>
<g >
</g>
<g >
</g>
<g >
</g>
<g >
</g>
<g >
</g>
<g >
</g>
<g >
</g>
<g >
</g>
<g >
</g>
<g >
</g>
<g >
</g>
<g >
</g>
<g >
</g>
<g >
</g>
</g> 
</svg>
