<?xml version="1.0" standalone="no"?>
 <!DOCTYPE svg PUBLIC "-//W3C//DTD SVG 1.1//EN" 
 "http://www.w3.org/Graphics/SVG/1.1/DTD/svg11.dtd"> 
<svg
  xmlns:svg="http://www.w3.org/2000/svg"
  xmlns="http://www.w3.org/2000/svg"
  xmlns:xlink="http://www.w3.org/1999/xlink"
  version="1.1"
  width="29.700220cm" height="21.000720cm" viewBox="0 0 297002200 210007200">
<title>SVG Picture created as why-F_Silkscreen.svg date 2021/09/15 19:13:22 </title>
  <desc>Picture generated by PCBNEW </desc>
<g style="fill:#000000; fill-opacity:1.000000;stroke:#000000; stroke-opacity:1.000000;
stroke-linecap:round; stroke-linejoin:round;"
 transform="translate(0 0) scale(1 1)">
</g>
<g style="fill:#000000; fill-opacity:0.0; 
stroke:#000000; stroke-width:0.000000; stroke-opacity:1; 
stroke-linecap:round; stroke-linejoin:round;">
</g>
<g style="fill:#000000; fill-opacity:0.0; 
stroke:#000000; stroke-width:21200.000000; stroke-opacity:1; 
stroke-linecap:round; stroke-linejoin:round;">
</g>
<g style="fill:#000000; fill-opacity:0.0; 
stroke:#000000; stroke-width:150000.000000; stroke-opacity:1; 
stroke-linecap:round; stroke-linejoin:round;">
<rect x="177002200.000000" y="166007200.000000" width="108000000.000000" height="32000000.000000" rx="0.000000" />
</g>
<g style="fill:#000000; fill-opacity:0.0; 
stroke:#000000; stroke-width:21200.000000; stroke-opacity:1; 
stroke-linecap:round; stroke-linejoin:round;">
</g>
<g style="fill:#000000; fill-opacity:0.0; 
stroke:#000000; stroke-width:150000.000000; stroke-opacity:1; 
stroke-linecap:round; stroke-linejoin:round;">
<rect x="10000000.000000" y="10000000.000000" width="277002200.000000" height="190007200.000000" rx="0.000000" />
</g>
<g style="fill:#000000; fill-opacity:0.0; 
stroke:#000000; stroke-width:21200.000000; stroke-opacity:1; 
stroke-linecap:round; stroke-linejoin:round;">
</g>
<g style="fill:#000000; fill-opacity:0.0; 
stroke:#000000; stroke-width:150000.000000; stroke-opacity:1; 
stroke-linecap:round; stroke-linejoin:round;">
<rect x="12000000.000000" y="12000000.000000" width="273002200.000000" height="186007200.000000" rx="0.000000" />
</g>
<g style="fill:#000000; fill-opacity:0.0; 
stroke:#000000; stroke-width:21200.000000; stroke-opacity:1; 
stroke-linecap:round; stroke-linejoin:round;">
</g>
<g style="fill:#000000; fill-opacity:0.0; 
stroke:#000000; stroke-width:150000.000000; stroke-opacity:1; 
stroke-linecap:round; stroke-linejoin:round;">
<path d="M60000000 12000000
L60000000 10000000
" />
</g>
<g style="fill:#000000; fill-opacity:0.0; 
stroke:#000000; stroke-width:21200.000000; stroke-opacity:1; 
stroke-linecap:round; stroke-linejoin:round;">
</g>
<g style="fill:#000000; fill-opacity:0.0; 
stroke:#000000; stroke-width:150000.000000; stroke-opacity:1; 
stroke-linecap:round; stroke-linejoin:round;">
<path d="M110000000 12000000
L110000000 10000000
" />
</g>
<g style="fill:#000000; fill-opacity:0.0; 
stroke:#000000; stroke-width:21200.000000; stroke-opacity:1; 
stroke-linecap:round; stroke-linejoin:round;">
</g>
<g style="fill:#000000; fill-opacity:0.0; 
stroke:#000000; stroke-width:150000.000000; stroke-opacity:1; 
stroke-linecap:round; stroke-linejoin:round;">
<path d="M160000000 12000000
L160000000 10000000
" />
</g>
<g style="fill:#000000; fill-opacity:0.0; 
stroke:#000000; stroke-width:21200.000000; stroke-opacity:1; 
stroke-linecap:round; stroke-linejoin:round;">
</g>
<g style="fill:#000000; fill-opacity:0.0; 
stroke:#000000; stroke-width:150000.000000; stroke-opacity:1; 
stroke-linecap:round; stroke-linejoin:round;">
<path d="M210000000 12000000
L210000000 10000000
" />
</g>
<g style="fill:#000000; fill-opacity:0.0; 
stroke:#000000; stroke-width:21200.000000; stroke-opacity:1; 
stroke-linecap:round; stroke-linejoin:round;">
</g>
<g style="fill:#000000; fill-opacity:0.0; 
stroke:#000000; stroke-width:150000.000000; stroke-opacity:1; 
stroke-linecap:round; stroke-linejoin:round;">
<path d="M260000000 12000000
L260000000 10000000
" />
</g>
<g style="fill:#000000; fill-opacity:0.0; 
stroke:#000000; stroke-width:21200.000000; stroke-opacity:1; 
stroke-linecap:round; stroke-linejoin:round;">
</g>
<g style="fill:#000000; fill-opacity:0.0; 
stroke:#000000; stroke-width:150000.000000; stroke-opacity:1; 
stroke-linecap:round; stroke-linejoin:round;">
<text x="35000000.000000" y="11650000.000000"
textLength="1433095.000000" font-size="1733333.000000" lengthAdjust="spacingAndGlyphs"
text-anchor="start" opacity="0">1</text>
<g class="stroked-text"><desc>1</desc>
<path d="M36065476 11588095
L35322619 11588095
" />
<path d="M35694047 11588095
L35694047 10288095
L35570238 10473809
L35446428 10597619
L35322619 10659523
" />
</g></g>
<g style="fill:#000000; fill-opacity:0.0; 
stroke:#000000; stroke-width:21200.000000; stroke-opacity:1; 
stroke-linecap:round; stroke-linejoin:round;">
</g>
<g style="fill:#000000; fill-opacity:0.0; 
stroke:#000000; stroke-width:150000.000000; stroke-opacity:1; 
stroke-linecap:round; stroke-linejoin:round;">
<text x="85000000.000000" y="11650000.000000"
textLength="1388095.000000" font-size="1733333.000000" lengthAdjust="spacingAndGlyphs"
text-anchor="start" opacity="0">2</text>
<g class="stroked-text"><desc>2</desc>
<path d="M85322619 10411904
L85384523 10350000
L85508333 10288095
L85817857 10288095
L85941666 10350000
L86003571 10411904
L86065476 10535714
L86065476 10659523
L86003571 10845238
L85260714 11588095
L86065476 11588095
" />
</g></g>
<g style="fill:#000000; fill-opacity:0.0; 
stroke:#000000; stroke-width:21200.000000; stroke-opacity:1; 
stroke-linecap:round; stroke-linejoin:round;">
</g>
<g style="fill:#000000; fill-opacity:0.0; 
stroke:#000000; stroke-width:150000.000000; stroke-opacity:1; 
stroke-linecap:round; stroke-linejoin:round;">
<text x="135000000.000000" y="11650000.000000"
textLength="1388095.000000" font-size="1733333.000000" lengthAdjust="spacingAndGlyphs"
text-anchor="start" opacity="0">3</text>
<g class="stroked-text"><desc>3</desc>
<path d="M135260714 10288095
L136065476 10288095
L135632142 10783333
L135817857 10783333
L135941666 10845238
L136003571 10907142
L136065476 11030952
L136065476 11340476
L136003571 11464285
L135941666 11526190
L135817857 11588095
L135446428 11588095
L135322619 11526190
L135260714 11464285
" />
</g></g>
<g style="fill:#000000; fill-opacity:0.0; 
stroke:#000000; stroke-width:21200.000000; stroke-opacity:1; 
stroke-linecap:round; stroke-linejoin:round;">
</g>
<g style="fill:#000000; fill-opacity:0.0; 
stroke:#000000; stroke-width:150000.000000; stroke-opacity:1; 
stroke-linecap:round; stroke-linejoin:round;">
<text x="185000000.000000" y="11650000.000000"
textLength="1388095.000000" font-size="1733333.000000" lengthAdjust="spacingAndGlyphs"
text-anchor="start" opacity="0">4</text>
<g class="stroked-text"><desc>4</desc>
<path d="M185941666 10721428
L185941666 11588095
" />
<path d="M185632142 10226190
L185322619 11154761
L186127380 11154761
" />
</g></g>
<g style="fill:#000000; fill-opacity:0.0; 
stroke:#000000; stroke-width:21200.000000; stroke-opacity:1; 
stroke-linecap:round; stroke-linejoin:round;">
</g>
<g style="fill:#000000; fill-opacity:0.0; 
stroke:#000000; stroke-width:150000.000000; stroke-opacity:1; 
stroke-linecap:round; stroke-linejoin:round;">
<text x="235000000.000000" y="11650000.000000"
textLength="1388095.000000" font-size="1733333.000000" lengthAdjust="spacingAndGlyphs"
text-anchor="start" opacity="0">5</text>
<g class="stroked-text"><desc>5</desc>
<path d="M236003571 10288095
L235384523 10288095
L235322619 10907142
L235384523 10845238
L235508333 10783333
L235817857 10783333
L235941666 10845238
L236003571 10907142
L236065476 11030952
L236065476 11340476
L236003571 11464285
L235941666 11526190
L235817857 11588095
L235508333 11588095
L235384523 11526190
L235322619 11464285
" />
</g></g>
<g style="fill:#000000; fill-opacity:0.0; 
stroke:#000000; stroke-width:21200.000000; stroke-opacity:1; 
stroke-linecap:round; stroke-linejoin:round;">
</g>
<g style="fill:#000000; fill-opacity:0.0; 
stroke:#000000; stroke-width:150000.000000; stroke-opacity:1; 
stroke-linecap:round; stroke-linejoin:round;">
<text x="285000000.000000" y="11650000.000000"
textLength="1388095.000000" font-size="1733333.000000" lengthAdjust="spacingAndGlyphs"
text-anchor="start" opacity="0">6</text>
<g class="stroked-text"><desc>6</desc>
<path d="M285941666 10288095
L285694047 10288095
L285570238 10350000
L285508333 10411904
L285384523 10597619
L285322619 10845238
L285322619 11340476
L285384523 11464285
L285446428 11526190
L285570238 11588095
L285817857 11588095
L285941666 11526190
L286003571 11464285
L286065476 11340476
L286065476 11030952
L286003571 10907142
L285941666 10845238
L285817857 10783333
L285570238 10783333
L285446428 10845238
L285384523 10907142
L285322619 11030952
" />
</g></g>
<g style="fill:#000000; fill-opacity:0.0; 
stroke:#000000; stroke-width:21200.000000; stroke-opacity:1; 
stroke-linecap:round; stroke-linejoin:round;">
</g>
<g style="fill:#000000; fill-opacity:0.0; 
stroke:#000000; stroke-width:150000.000000; stroke-opacity:1; 
stroke-linecap:round; stroke-linejoin:round;">
<path d="M60000000 198007200
L60000000 200007200
" />
</g>
<g style="fill:#000000; fill-opacity:0.0; 
stroke:#000000; stroke-width:21200.000000; stroke-opacity:1; 
stroke-linecap:round; stroke-linejoin:round;">
</g>
<g style="fill:#000000; fill-opacity:0.0; 
stroke:#000000; stroke-width:150000.000000; stroke-opacity:1; 
stroke-linecap:round; stroke-linejoin:round;">
<path d="M110000000 198007200
L110000000 200007200
" />
</g>
<g style="fill:#000000; fill-opacity:0.0; 
stroke:#000000; stroke-width:21200.000000; stroke-opacity:1; 
stroke-linecap:round; stroke-linejoin:round;">
</g>
<g style="fill:#000000; fill-opacity:0.0; 
stroke:#000000; stroke-width:150000.000000; stroke-opacity:1; 
stroke-linecap:round; stroke-linejoin:round;">
<path d="M160000000 198007200
L160000000 200007200
" />
</g>
<g style="fill:#000000; fill-opacity:0.0; 
stroke:#000000; stroke-width:21200.000000; stroke-opacity:1; 
stroke-linecap:round; stroke-linejoin:round;">
</g>
<g style="fill:#000000; fill-opacity:0.0; 
stroke:#000000; stroke-width:150000.000000; stroke-opacity:1; 
stroke-linecap:round; stroke-linejoin:round;">
<path d="M210000000 198007200
L210000000 200007200
" />
</g>
<g style="fill:#000000; fill-opacity:0.0; 
stroke:#000000; stroke-width:21200.000000; stroke-opacity:1; 
stroke-linecap:round; stroke-linejoin:round;">
</g>
<g style="fill:#000000; fill-opacity:0.0; 
stroke:#000000; stroke-width:150000.000000; stroke-opacity:1; 
stroke-linecap:round; stroke-linejoin:round;">
<path d="M260000000 198007200
L260000000 200007200
" />
</g>
<g style="fill:#000000; fill-opacity:0.0; 
stroke:#000000; stroke-width:21200.000000; stroke-opacity:1; 
stroke-linecap:round; stroke-linejoin:round;">
</g>
<g style="fill:#000000; fill-opacity:0.0; 
stroke:#000000; stroke-width:150000.000000; stroke-opacity:1; 
stroke-linecap:round; stroke-linejoin:round;">
<text x="35000000.000000" y="199657200.000000"
textLength="1388095.000000" font-size="1733333.000000" lengthAdjust="spacingAndGlyphs"
text-anchor="start" opacity="0">1</text>
<g class="stroked-text"><desc>1</desc>
<path d="M36065476 199595295
L35322619 199595295
" />
<path d="M35694047 199595295
L35694047 198295295
L35570238 198481009
L35446428 198604819
L35322619 198666723
" />
</g></g>
<g style="fill:#000000; fill-opacity:0.0; 
stroke:#000000; stroke-width:21200.000000; stroke-opacity:1; 
stroke-linecap:round; stroke-linejoin:round;">
</g>
<g style="fill:#000000; fill-opacity:0.0; 
stroke:#000000; stroke-width:150000.000000; stroke-opacity:1; 
stroke-linecap:round; stroke-linejoin:round;">
<text x="85000000.000000" y="199657200.000000"
textLength="1388095.000000" font-size="1733333.000000" lengthAdjust="spacingAndGlyphs"
text-anchor="start" opacity="0">2</text>
<g class="stroked-text"><desc>2</desc>
<path d="M85322619 198419104
L85384523 198357200
L85508333 198295295
L85817857 198295295
L85941666 198357200
L86003571 198419104
L86065476 198542914
L86065476 198666723
L86003571 198852438
L85260714 199595295
L86065476 199595295
" />
</g></g>
<g style="fill:#000000; fill-opacity:0.0; 
stroke:#000000; stroke-width:21200.000000; stroke-opacity:1; 
stroke-linecap:round; stroke-linejoin:round;">
</g>
<g style="fill:#000000; fill-opacity:0.0; 
stroke:#000000; stroke-width:150000.000000; stroke-opacity:1; 
stroke-linecap:round; stroke-linejoin:round;">
<text x="135000000.000000" y="199657200.000000"
textLength="1388095.000000" font-size="1733333.000000" lengthAdjust="spacingAndGlyphs"
text-anchor="start" opacity="0">3</text>
<g class="stroked-text"><desc>3</desc>
<path d="M135260714 198295295
L136065476 198295295
L135632142 198790533
L135817857 198790533
L135941666 198852438
L136003571 198914342
L136065476 199038152
L136065476 199347676
L136003571 199471485
L135941666 199533390
L135817857 199595295
L135446428 199595295
L135322619 199533390
L135260714 199471485
" />
</g></g>
<g style="fill:#000000; fill-opacity:0.0; 
stroke:#000000; stroke-width:21200.000000; stroke-opacity:1; 
stroke-linecap:round; stroke-linejoin:round;">
</g>
<g style="fill:#000000; fill-opacity:0.0; 
stroke:#000000; stroke-width:150000.000000; stroke-opacity:1; 
stroke-linecap:round; stroke-linejoin:round;">
<text x="185000000.000000" y="199657200.000000"
textLength="1388095.000000" font-size="1733333.000000" lengthAdjust="spacingAndGlyphs"
text-anchor="start" opacity="0">4</text>
<g class="stroked-text"><desc>4</desc>
<path d="M185941666 198728628
L185941666 199595295
" />
<path d="M185632142 198233390
L185322619 199161961
L186127380 199161961
" />
</g></g>
<g style="fill:#000000; fill-opacity:0.0; 
stroke:#000000; stroke-width:21200.000000; stroke-opacity:1; 
stroke-linecap:round; stroke-linejoin:round;">
</g>
<g style="fill:#000000; fill-opacity:0.0; 
stroke:#000000; stroke-width:150000.000000; stroke-opacity:1; 
stroke-linecap:round; stroke-linejoin:round;">
<text x="235000000.000000" y="199657200.000000"
textLength="1388095.000000" font-size="1733333.000000" lengthAdjust="spacingAndGlyphs"
text-anchor="start" opacity="0">5</text>
<g class="stroked-text"><desc>5</desc>
<path d="M236003571 198295295
L235384523 198295295
L235322619 198914342
L235384523 198852438
L235508333 198790533
L235817857 198790533
L235941666 198852438
L236003571 198914342
L236065476 199038152
L236065476 199347676
L236003571 199471485
L235941666 199533390
L235817857 199595295
L235508333 199595295
L235384523 199533390
L235322619 199471485
" />
</g></g>
<g style="fill:#000000; fill-opacity:0.0; 
stroke:#000000; stroke-width:21200.000000; stroke-opacity:1; 
stroke-linecap:round; stroke-linejoin:round;">
</g>
<g style="fill:#000000; fill-opacity:0.0; 
stroke:#000000; stroke-width:150000.000000; stroke-opacity:1; 
stroke-linecap:round; stroke-linejoin:round;">
<text x="285000000.000000" y="199657200.000000"
textLength="1388095.000000" font-size="1733333.000000" lengthAdjust="spacingAndGlyphs"
text-anchor="start" opacity="0">6</text>
<g class="stroked-text"><desc>6</desc>
<path d="M285941666 198295295
L285694047 198295295
L285570238 198357200
L285508333 198419104
L285384523 198604819
L285322619 198852438
L285322619 199347676
L285384523 199471485
L285446428 199533390
L285570238 199595295
L285817857 199595295
L285941666 199533390
L286003571 199471485
L286065476 199347676
L286065476 199038152
L286003571 198914342
L285941666 198852438
L285817857 198790533
L285570238 198790533
L285446428 198852438
L285384523 198914342
L285322619 199038152
" />
</g></g>
<g style="fill:#000000; fill-opacity:0.0; 
stroke:#000000; stroke-width:21200.000000; stroke-opacity:1; 
stroke-linecap:round; stroke-linejoin:round;">
</g>
<g style="fill:#000000; fill-opacity:0.0; 
stroke:#000000; stroke-width:150000.000000; stroke-opacity:1; 
stroke-linecap:round; stroke-linejoin:round;">
<path d="M10000000 60000000
L12000000 60000000
" />
</g>
<g style="fill:#000000; fill-opacity:0.0; 
stroke:#000000; stroke-width:21200.000000; stroke-opacity:1; 
stroke-linecap:round; stroke-linejoin:round;">
</g>
<g style="fill:#000000; fill-opacity:0.0; 
stroke:#000000; stroke-width:150000.000000; stroke-opacity:1; 
stroke-linecap:round; stroke-linejoin:round;">
<path d="M10000000 110000000
L12000000 110000000
" />
</g>
<g style="fill:#000000; fill-opacity:0.0; 
stroke:#000000; stroke-width:21200.000000; stroke-opacity:1; 
stroke-linecap:round; stroke-linejoin:round;">
</g>
<g style="fill:#000000; fill-opacity:0.0; 
stroke:#000000; stroke-width:150000.000000; stroke-opacity:1; 
stroke-linecap:round; stroke-linejoin:round;">
<path d="M10000000 160000000
L12000000 160000000
" />
</g>
<g style="fill:#000000; fill-opacity:0.0; 
stroke:#000000; stroke-width:21200.000000; stroke-opacity:1; 
stroke-linecap:round; stroke-linejoin:round;">
</g>
<g style="fill:#000000; fill-opacity:0.0; 
stroke:#000000; stroke-width:150000.000000; stroke-opacity:1; 
stroke-linecap:round; stroke-linejoin:round;">
<text x="11000000.000000" y="35650000.000000"
textLength="1264286.000000" font-size="1733333.000000" lengthAdjust="spacingAndGlyphs"
text-anchor="middle" opacity="0">A</text>
<g class="stroked-text"><desc>A</desc>
<path d="M10690476 35216666
L11309523 35216666
" />
<path d="M10566666 35588095
L11000000 34288095
L11433333 35588095
" />
</g></g>
<g style="fill:#000000; fill-opacity:0.0; 
stroke:#000000; stroke-width:21200.000000; stroke-opacity:1; 
stroke-linecap:round; stroke-linejoin:round;">
</g>
<g style="fill:#000000; fill-opacity:0.0; 
stroke:#000000; stroke-width:150000.000000; stroke-opacity:1; 
stroke-linecap:round; stroke-linejoin:round;">
<text x="11000000.000000" y="85650000.000000"
textLength="1450000.000000" font-size="1733333.000000" lengthAdjust="spacingAndGlyphs"
text-anchor="middle" opacity="0">B</text>
<g class="stroked-text"><desc>B</desc>
<path d="M11092857 84907142
L11278571 84969047
L11340476 85030952
L11402380 85154761
L11402380 85340476
L11340476 85464285
L11278571 85526190
L11154761 85588095
L10659523 85588095
L10659523 84288095
L11092857 84288095
L11216666 84350000
L11278571 84411904
L11340476 84535714
L11340476 84659523
L11278571 84783333
L11216666 84845238
L11092857 84907142
L10659523 84907142
" />
</g></g>
<g style="fill:#000000; fill-opacity:0.0; 
stroke:#000000; stroke-width:21200.000000; stroke-opacity:1; 
stroke-linecap:round; stroke-linejoin:round;">
</g>
<g style="fill:#000000; fill-opacity:0.0; 
stroke:#000000; stroke-width:150000.000000; stroke-opacity:1; 
stroke-linecap:round; stroke-linejoin:round;">
<text x="11000000.000000" y="135650000.000000"
textLength="1450000.000000" font-size="1733333.000000" lengthAdjust="spacingAndGlyphs"
text-anchor="middle" opacity="0">C</text>
<g class="stroked-text"><desc>C</desc>
<path d="M11402380 135464285
L11340476 135526190
L11154761 135588095
L11030952 135588095
L10845238 135526190
L10721428 135402380
L10659523 135278571
L10597619 135030952
L10597619 134845238
L10659523 134597619
L10721428 134473809
L10845238 134350000
L11030952 134288095
L11154761 134288095
L11340476 134350000
L11402380 134411904
" />
</g></g>
<g style="fill:#000000; fill-opacity:0.0; 
stroke:#000000; stroke-width:21200.000000; stroke-opacity:1; 
stroke-linecap:round; stroke-linejoin:round;">
</g>
<g style="fill:#000000; fill-opacity:0.0; 
stroke:#000000; stroke-width:150000.000000; stroke-opacity:1; 
stroke-linecap:round; stroke-linejoin:round;">
<text x="11000000.000000" y="185650000.000000"
textLength="1450000.000000" font-size="1733333.000000" lengthAdjust="spacingAndGlyphs"
text-anchor="middle" opacity="0">D</text>
<g class="stroked-text"><desc>D</desc>
<path d="M10659523 185588095
L10659523 184288095
L10969047 184288095
L11154761 184350000
L11278571 184473809
L11340476 184597619
L11402380 184845238
L11402380 185030952
L11340476 185278571
L11278571 185402380
L11154761 185526190
L10969047 185588095
L10659523 185588095
" />
</g></g>
<g style="fill:#000000; fill-opacity:0.0; 
stroke:#000000; stroke-width:21200.000000; stroke-opacity:1; 
stroke-linecap:round; stroke-linejoin:round;">
</g>
<g style="fill:#000000; fill-opacity:0.0; 
stroke:#000000; stroke-width:150000.000000; stroke-opacity:1; 
stroke-linecap:round; stroke-linejoin:round;">
<path d="M287002200 60000000
L285002200 60000000
" />
</g>
<g style="fill:#000000; fill-opacity:0.0; 
stroke:#000000; stroke-width:21200.000000; stroke-opacity:1; 
stroke-linecap:round; stroke-linejoin:round;">
</g>
<g style="fill:#000000; fill-opacity:0.0; 
stroke:#000000; stroke-width:150000.000000; stroke-opacity:1; 
stroke-linecap:round; stroke-linejoin:round;">
<path d="M287002200 110000000
L285002200 110000000
" />
</g>
<g style="fill:#000000; fill-opacity:0.0; 
stroke:#000000; stroke-width:21200.000000; stroke-opacity:1; 
stroke-linecap:round; stroke-linejoin:round;">
</g>
<g style="fill:#000000; fill-opacity:0.0; 
stroke:#000000; stroke-width:150000.000000; stroke-opacity:1; 
stroke-linecap:round; stroke-linejoin:round;">
<path d="M287002200 160000000
L285002200 160000000
" />
</g>
<g style="fill:#000000; fill-opacity:0.0; 
stroke:#000000; stroke-width:21200.000000; stroke-opacity:1; 
stroke-linecap:round; stroke-linejoin:round;">
</g>
<g style="fill:#000000; fill-opacity:0.0; 
stroke:#000000; stroke-width:150000.000000; stroke-opacity:1; 
stroke-linecap:round; stroke-linejoin:round;">
<text x="286002200.000000" y="35650000.000000"
textLength="1264286.000000" font-size="1733333.000000" lengthAdjust="spacingAndGlyphs"
text-anchor="middle" opacity="0">A</text>
<g class="stroked-text"><desc>A</desc>
<path d="M285692676 35216666
L286311723 35216666
" />
<path d="M285568866 35588095
L286002200 34288095
L286435533 35588095
" />
</g></g>
<g style="fill:#000000; fill-opacity:0.0; 
stroke:#000000; stroke-width:21200.000000; stroke-opacity:1; 
stroke-linecap:round; stroke-linejoin:round;">
</g>
<g style="fill:#000000; fill-opacity:0.0; 
stroke:#000000; stroke-width:150000.000000; stroke-opacity:1; 
stroke-linecap:round; stroke-linejoin:round;">
<text x="286002200.000000" y="85650000.000000"
textLength="1450000.000000" font-size="1733333.000000" lengthAdjust="spacingAndGlyphs"
text-anchor="middle" opacity="0">B</text>
<g class="stroked-text"><desc>B</desc>
<path d="M286095057 84907142
L286280771 84969047
L286342676 85030952
L286404580 85154761
L286404580 85340476
L286342676 85464285
L286280771 85526190
L286156961 85588095
L285661723 85588095
L285661723 84288095
L286095057 84288095
L286218866 84350000
L286280771 84411904
L286342676 84535714
L286342676 84659523
L286280771 84783333
L286218866 84845238
L286095057 84907142
L285661723 84907142
" />
</g></g>
<g style="fill:#000000; fill-opacity:0.0; 
stroke:#000000; stroke-width:21200.000000; stroke-opacity:1; 
stroke-linecap:round; stroke-linejoin:round;">
</g>
<g style="fill:#000000; fill-opacity:0.0; 
stroke:#000000; stroke-width:150000.000000; stroke-opacity:1; 
stroke-linecap:round; stroke-linejoin:round;">
<text x="286002200.000000" y="135650000.000000"
textLength="1450000.000000" font-size="1733333.000000" lengthAdjust="spacingAndGlyphs"
text-anchor="middle" opacity="0">C</text>
<g class="stroked-text"><desc>C</desc>
<path d="M286404580 135464285
L286342676 135526190
L286156961 135588095
L286033152 135588095
L285847438 135526190
L285723628 135402380
L285661723 135278571
L285599819 135030952
L285599819 134845238
L285661723 134597619
L285723628 134473809
L285847438 134350000
L286033152 134288095
L286156961 134288095
L286342676 134350000
L286404580 134411904
" />
</g></g>
<g style="fill:#000000; fill-opacity:0.0; 
stroke:#000000; stroke-width:21200.000000; stroke-opacity:1; 
stroke-linecap:round; stroke-linejoin:round;">
</g>
<g style="fill:#000000; fill-opacity:0.0; 
stroke:#000000; stroke-width:150000.000000; stroke-opacity:1; 
stroke-linecap:round; stroke-linejoin:round;">
<text x="286002200.000000" y="185650000.000000"
textLength="1450000.000000" font-size="1733333.000000" lengthAdjust="spacingAndGlyphs"
text-anchor="middle" opacity="0">D</text>
<g class="stroked-text"><desc>D</desc>
<path d="M285661723 185588095
L285661723 184288095
L285971247 184288095
L286156961 184350000
L286280771 184473809
L286342676 184597619
L286404580 184845238
L286404580 185030952
L286342676 185278571
L286280771 185402380
L286156961 185526190
L285971247 185588095
L285661723 185588095
" />
</g></g>
<g style="fill:#000000; fill-opacity:0.0; 
stroke:#000000; stroke-width:21200.000000; stroke-opacity:1; 
stroke-linecap:round; stroke-linejoin:round;">
</g>
<g style="fill:#000000; fill-opacity:0.0; 
stroke:#000000; stroke-width:150000.000000; stroke-opacity:1; 
stroke-linecap:round; stroke-linejoin:round;">
<text x="200002200.000000" y="193857200.000000"
textLength="7007143.000000" font-size="2000000.000000" lengthAdjust="spacingAndGlyphs"
text-anchor="start" opacity="0">Date: </text>
<g class="stroked-text"><desc>Date: </desc>
<path d="M200434342 193785771
L200434342 192285771
L200791485 192285771
L201005771 192357200
L201148628 192500057
L201220057 192642914
L201291485 192928628
L201291485 193142914
L201220057 193428628
L201148628 193571485
L201005771 193714342
L200791485 193785771
L200434342 193785771
" />
<path d="M202577200 193785771
L202577200 193000057
L202505771 192857200
L202362914 192785771
L202077200 192785771
L201934342 192857200
" />
<path d="M202577200 193714342
L202434342 193785771
L202077200 193785771
L201934342 193714342
L201862914 193571485
L201862914 193428628
L201934342 193285771
L202077200 193214342
L202434342 193214342
L202577200 193142914
" />
<path d="M203077200 192785771
L203648628 192785771
" />
<path d="M203291485 192285771
L203291485 193571485
L203362914 193714342
L203505771 193785771
L203648628 193785771
" />
<path d="M204720057 193714342
L204577200 193785771
L204291485 193785771
L204148628 193714342
L204077200 193571485
L204077200 193000057
L204148628 192857200
L204291485 192785771
L204577200 192785771
L204720057 192857200
L204791485 193000057
L204791485 193142914
L204077200 193285771
" />
<path d="M205434342 193642914
L205505771 193714342
L205434342 193785771
L205362914 193714342
L205434342 193642914
L205434342 193785771
" />
<path d="M205434342 192857200
L205505771 192928628
L205434342 193000057
L205362914 192928628
L205434342 192857200
L205434342 193000057
" />
</g></g>
<g style="fill:#000000; fill-opacity:0.0; 
stroke:#000000; stroke-width:21200.000000; stroke-opacity:1; 
stroke-linecap:round; stroke-linejoin:round;">
</g>
<g style="fill:#000000; fill-opacity:0.0; 
stroke:#000000; stroke-width:150000.000000; stroke-opacity:1; 
stroke-linecap:round; stroke-linejoin:round;">
<path d="M177002200 194507200
L285002200 194507200
" />
</g>
<g style="fill:#000000; fill-opacity:0.0; 
stroke:#000000; stroke-width:21200.000000; stroke-opacity:1; 
stroke-linecap:round; stroke-linejoin:round;">
</g>
<g style="fill:#000000; fill-opacity:0.0; 
stroke:#000000; stroke-width:150000.000000; stroke-opacity:1; 
stroke-linecap:round; stroke-linejoin:round;">
<text x="178002200.000000" y="196657200.000000"
textLength="57864286.000000" font-size="2000000.000000" lengthAdjust="spacingAndGlyphs"
text-anchor="start" opacity="0">KiCad E.D.A.  kicad (5.99.0-12118-g897269f33f)</text>
<g class="stroked-text"><desc>KiCad E.D.A.  kicad (5.99.0-12118-g897269f33f)</desc>
<path d="M178434342 196585771
L178434342 195085771
" />
<path d="M179291485 196585771
L178648628 195728628
" />
<path d="M179291485 195085771
L178434342 195942914
" />
<path d="M179934342 196585771
L179934342 195585771
" />
<path d="M179934342 195085771
L179862914 195157200
L179934342 195228628
L180005771 195157200
L179934342 195085771
L179934342 195228628
" />
<path d="M181505771 196442914
L181434342 196514342
L181220057 196585771
L181077200 196585771
L180862914 196514342
L180720057 196371485
L180648628 196228628
L180577200 195942914
L180577200 195728628
L180648628 195442914
L180720057 195300057
L180862914 195157200
L181077200 195085771
L181220057 195085771
L181434342 195157200
L181505771 195228628
" />
<path d="M182791485 196585771
L182791485 195800057
L182720057 195657200
L182577200 195585771
L182291485 195585771
L182148628 195657200
" />
<path d="M182791485 196514342
L182648628 196585771
L182291485 196585771
L182148628 196514342
L182077200 196371485
L182077200 196228628
L182148628 196085771
L182291485 196014342
L182648628 196014342
L182791485 195942914
" />
<path d="M184148628 196585771
L184148628 195085771
" />
<path d="M184148628 196514342
L184005771 196585771
L183720057 196585771
L183577200 196514342
L183505771 196442914
L183434342 196300057
L183434342 195871485
L183505771 195728628
L183577200 195657200
L183720057 195585771
L184005771 195585771
L184148628 195657200
" />
<path d="M186005771 195800057
L186505771 195800057
" />
<path d="M186720057 196585771
L186005771 196585771
L186005771 195085771
L186720057 195085771
" />
<path d="M187362914 196442914
L187434342 196514342
L187362914 196585771
L187291485 196514342
L187362914 196442914
L187362914 196585771
" />
<path d="M188077200 196585771
L188077200 195085771
L188434342 195085771
L188648628 195157200
L188791485 195300057
L188862914 195442914
L188934342 195728628
L188934342 195942914
L188862914 196228628
L188791485 196371485
L188648628 196514342
L188434342 196585771
L188077200 196585771
" />
<path d="M189577200 196442914
L189648628 196514342
L189577200 196585771
L189505771 196514342
L189577200 196442914
L189577200 196585771
" />
<path d="M190220057 196157200
L190934342 196157200
" />
<path d="M190077200 196585771
L190577200 195085771
L191077200 196585771
" />
<path d="M191577200 196442914
L191648628 196514342
L191577200 196585771
L191505771 196514342
L191577200 196442914
L191577200 196585771
" />
<path d="M194577200 196585771
L194577200 195085771
" />
<path d="M194720057 196014342
L195148628 196585771
" />
<path d="M195148628 195585771
L194577200 196157200
" />
<path d="M195791485 196585771
L195791485 195585771
" />
<path d="M195791485 195085771
L195720057 195157200
L195791485 195228628
L195862914 195157200
L195791485 195085771
L195791485 195228628
" />
<path d="M197148628 196514342
L197005771 196585771
L196720057 196585771
L196577200 196514342
L196505771 196442914
L196434342 196300057
L196434342 195871485
L196505771 195728628
L196577200 195657200
L196720057 195585771
L197005771 195585771
L197148628 195657200
" />
<path d="M198434342 196585771
L198434342 195800057
L198362914 195657200
L198220057 195585771
L197934342 195585771
L197791485 195657200
" />
<path d="M198434342 196514342
L198291485 196585771
L197934342 196585771
L197791485 196514342
L197720057 196371485
L197720057 196228628
L197791485 196085771
L197934342 196014342
L198291485 196014342
L198434342 195942914
" />
<path d="M199791485 196585771
L199791485 195085771
" />
<path d="M199791485 196514342
L199648628 196585771
L199362914 196585771
L199220057 196514342
L199148628 196442914
L199077200 196300057
L199077200 195871485
L199148628 195728628
L199220057 195657200
L199362914 195585771
L199648628 195585771
L199791485 195657200
" />
<path d="M202077200 197157200
L202005771 197085771
L201862914 196871485
L201791485 196728628
L201720057 196514342
L201648628 196157200
L201648628 195871485
L201720057 195514342
L201791485 195300057
L201862914 195157200
L202005771 194942914
L202077200 194871485
" />
<path d="M203362914 195085771
L202648628 195085771
L202577200 195800057
L202648628 195728628
L202791485 195657200
L203148628 195657200
L203291485 195728628
L203362914 195800057
L203434342 195942914
L203434342 196300057
L203362914 196442914
L203291485 196514342
L203148628 196585771
L202791485 196585771
L202648628 196514342
L202577200 196442914
" />
<path d="M204077200 196442914
L204148628 196514342
L204077200 196585771
L204005771 196514342
L204077200 196442914
L204077200 196585771
" />
<path d="M204862914 196585771
L205148628 196585771
L205291485 196514342
L205362914 196442914
L205505771 196228628
L205577200 195942914
L205577200 195371485
L205505771 195228628
L205434342 195157200
L205291485 195085771
L205005771 195085771
L204862914 195157200
L204791485 195228628
L204720057 195371485
L204720057 195728628
L204791485 195871485
L204862914 195942914
L205005771 196014342
L205291485 196014342
L205434342 195942914
L205505771 195871485
L205577200 195728628
" />
<path d="M206291485 196585771
L206577200 196585771
L206720057 196514342
L206791485 196442914
L206934342 196228628
L207005771 195942914
L207005771 195371485
L206934342 195228628
L206862914 195157200
L206720057 195085771
L206434342 195085771
L206291485 195157200
L206220057 195228628
L206148628 195371485
L206148628 195728628
L206220057 195871485
L206291485 195942914
L206434342 196014342
L206720057 196014342
L206862914 195942914
L206934342 195871485
L207005771 195728628
" />
<path d="M207648628 196442914
L207720057 196514342
L207648628 196585771
L207577200 196514342
L207648628 196442914
L207648628 196585771
" />
<path d="M208648628 195085771
L208791485 195085771
L208934342 195157200
L209005771 195228628
L209077200 195371485
L209148628 195657200
L209148628 196014342
L209077200 196300057
L209005771 196442914
L208934342 196514342
L208791485 196585771
L208648628 196585771
L208505771 196514342
L208434342 196442914
L208362914 196300057
L208291485 196014342
L208291485 195657200
L208362914 195371485
L208434342 195228628
L208505771 195157200
L208648628 195085771
" />
<path d="M209791485 196014342
L210934342 196014342
" />
<path d="M212434342 196585771
L211577200 196585771
" />
<path d="M212005771 196585771
L212005771 195085771
L211862914 195300057
L211720057 195442914
L211577200 195514342
" />
<path d="M213005771 195228628
L213077200 195157200
L213220057 195085771
L213577200 195085771
L213720057 195157200
L213791485 195228628
L213862914 195371485
L213862914 195514342
L213791485 195728628
L212934342 196585771
L213862914 196585771
" />
<path d="M215291485 196585771
L214434342 196585771
" />
<path d="M214862914 196585771
L214862914 195085771
L214720057 195300057
L214577200 195442914
L214434342 195514342
" />
<path d="M216720057 196585771
L215862914 196585771
" />
<path d="M216291485 196585771
L216291485 195085771
L216148628 195300057
L216005771 195442914
L215862914 195514342
" />
<path d="M217577200 195728628
L217434342 195657200
L217362914 195585771
L217291485 195442914
L217291485 195371485
L217362914 195228628
L217434342 195157200
L217577200 195085771
L217862914 195085771
L218005771 195157200
L218077200 195228628
L218148628 195371485
L218148628 195442914
L218077200 195585771
L218005771 195657200
L217862914 195728628
L217577200 195728628
L217434342 195800057
L217362914 195871485
L217291485 196014342
L217291485 196300057
L217362914 196442914
L217434342 196514342
L217577200 196585771
L217862914 196585771
L218005771 196514342
L218077200 196442914
L218148628 196300057
L218148628 196014342
L218077200 195871485
L218005771 195800057
L217862914 195728628
" />
<path d="M218791485 196014342
L219934342 196014342
" />
<path d="M221291485 195585771
L221291485 196800057
L221220057 196942914
L221148628 197014342
L221005771 197085771
L220791485 197085771
L220648628 197014342
" />
<path d="M221291485 196514342
L221148628 196585771
L220862914 196585771
L220720057 196514342
L220648628 196442914
L220577200 196300057
L220577200 195871485
L220648628 195728628
L220720057 195657200
L220862914 195585771
L221148628 195585771
L221291485 195657200
" />
<path d="M222220057 195728628
L222077200 195657200
L222005771 195585771
L221934342 195442914
L221934342 195371485
L222005771 195228628
L222077200 195157200
L222220057 195085771
L222505771 195085771
L222648628 195157200
L222720057 195228628
L222791485 195371485
L222791485 195442914
L222720057 195585771
L222648628 195657200
L222505771 195728628
L222220057 195728628
L222077200 195800057
L222005771 195871485
L221934342 196014342
L221934342 196300057
L222005771 196442914
L222077200 196514342
L222220057 196585771
L222505771 196585771
L222648628 196514342
L222720057 196442914
L222791485 196300057
L222791485 196014342
L222720057 195871485
L222648628 195800057
L222505771 195728628
" />
<path d="M223505771 196585771
L223791485 196585771
L223934342 196514342
L224005771 196442914
L224148628 196228628
L224220057 195942914
L224220057 195371485
L224148628 195228628
L224077200 195157200
L223934342 195085771
L223648628 195085771
L223505771 195157200
L223434342 195228628
L223362914 195371485
L223362914 195728628
L223434342 195871485
L223505771 195942914
L223648628 196014342
L223934342 196014342
L224077200 195942914
L224148628 195871485
L224220057 195728628
" />
<path d="M224720057 195085771
L225720057 195085771
L225077200 196585771
" />
<path d="M226220057 195228628
L226291485 195157200
L226434342 195085771
L226791485 195085771
L226934342 195157200
L227005771 195228628
L227077199 195371485
L227077199 195514342
L227005771 195728628
L226148628 196585771
L227077199 196585771
" />
<path d="M228362914 195085771
L228077199 195085771
L227934342 195157200
L227862914 195228628
L227720057 195442914
L227648628 195728628
L227648628 196300057
L227720057 196442914
L227791485 196514342
L227934342 196585771
L228220057 196585771
L228362914 196514342
L228434342 196442914
L228505771 196300057
L228505771 195942914
L228434342 195800057
L228362914 195728628
L228220057 195657200
L227934342 195657200
L227791485 195728628
L227720057 195800057
L227648628 195942914
" />
<path d="M229220057 196585771
L229505771 196585771
L229648628 196514342
L229720057 196442914
L229862914 196228628
L229934342 195942914
L229934342 195371485
L229862914 195228628
L229791485 195157200
L229648628 195085771
L229362914 195085771
L229220057 195157200
L229148628 195228628
L229077199 195371485
L229077199 195728628
L229148628 195871485
L229220057 195942914
L229362914 196014342
L229648628 196014342
L229791485 195942914
L229862914 195871485
L229934342 195728628
" />
<path d="M230362914 195585771
L230934342 195585771
" />
<path d="M230577199 196585771
L230577199 195300057
L230648628 195157200
L230791485 195085771
L230934342 195085771
" />
<path d="M231291485 195085771
L232220057 195085771
L231720057 195657200
L231934342 195657200
L232077199 195728628
L232148628 195800057
L232220057 195942914
L232220057 196300057
L232148628 196442914
L232077199 196514342
L231934342 196585771
L231505771 196585771
L231362914 196514342
L231291485 196442914
" />
<path d="M232720057 195085771
L233648628 195085771
L233148628 195657200
L233362914 195657200
L233505771 195728628
L233577199 195800057
L233648628 195942914
L233648628 196300057
L233577199 196442914
L233505771 196514342
L233362914 196585771
L232934342 196585771
L232791485 196514342
L232720057 196442914
" />
<path d="M234077199 195585771
L234648628 195585771
" />
<path d="M234291485 196585771
L234291485 195300057
L234362914 195157200
L234505771 195085771
L234648628 195085771
" />
<path d="M235005771 197157200
L235077199 197085771
L235220057 196871485
L235291485 196728628
L235362914 196514342
L235434342 196157200
L235434342 195871485
L235362914 195514342
L235291485 195300057
L235220057 195157200
L235077199 194942914
L235005771 194871485
" />
</g></g>
<g style="fill:#000000; fill-opacity:0.0; 
stroke:#000000; stroke-width:21200.000000; stroke-opacity:1; 
stroke-linecap:round; stroke-linejoin:round;">
</g>
<g style="fill:#000000; fill-opacity:0.0; 
stroke:#000000; stroke-width:150000.000000; stroke-opacity:1; 
stroke-linecap:round; stroke-linejoin:round;">
<path d="M177002200 191507200
L285002200 191507200
" />
</g>
<g style="fill:#000000; fill-opacity:0.0; 
stroke:#000000; stroke-width:21200.000000; stroke-opacity:1; 
stroke-linecap:round; stroke-linejoin:round;">
</g>
<g style="fill:#000000; fill-opacity:0.0; 
stroke:#000000; stroke-width:300000.000000; stroke-opacity:1; 
stroke-linecap:round; stroke-linejoin:round;">
<text x="263002200.000000" y="193857200.000000"
textLength="5935714.000000" font-size="2000000.000000" lengthAdjust="spacingAndGlyphs"
text-anchor="start" opacity="0">Rev: </text>
<g class="stroked-text"><desc>Rev: </desc>
<path d="M264411485 193785771
L263911485 193071485
" />
<path d="M263554342 193785771
L263554342 192285771
L264125771 192285771
L264268628 192357200
L264340057 192428628
L264411485 192571485
L264411485 192785771
L264340057 192928628
L264268628 193000057
L264125771 193071485
L263554342 193071485
" />
<path d="M265625771 193714342
L265482914 193785771
L265197200 193785771
L265054342 193714342
L264982914 193571485
L264982914 193000057
L265054342 192857200
L265197200 192785771
L265482914 192785771
L265625771 192857200
L265697200 193000057
L265697200 193142914
L264982914 193285771
" />
<path d="M266197200 192785771
L266554342 193785771
L266911485 192785771
" />
<path d="M267482914 193642914
L267554342 193714342
L267482914 193785771
L267411485 193714342
L267482914 193642914
L267482914 193785771
" />
<path d="M267482914 192857200
L267554342 192928628
L267482914 193000057
L267411485 192928628
L267482914 192857200
L267482914 193000057
" />
</g></g>
<g style="fill:#000000; fill-opacity:0.0; 
stroke:#000000; stroke-width:21200.000000; stroke-opacity:1; 
stroke-linecap:round; stroke-linejoin:round;">
</g>
<g style="fill:#000000; fill-opacity:0.0; 
stroke:#000000; stroke-width:150000.000000; stroke-opacity:1; 
stroke-linecap:round; stroke-linejoin:round;">
<text x="178002200.000000" y="193857200.000000"
textLength="9604286.000000" font-size="2000000.000000" lengthAdjust="spacingAndGlyphs"
text-anchor="start" opacity="0">Size: A4</text>
<g class="stroked-text"><desc>Size: A4</desc>
<path d="M178362914 193714342
L178577200 193785771
L178934342 193785771
L179077200 193714342
L179148628 193642914
L179220057 193500057
L179220057 193357200
L179148628 193214342
L179077200 193142914
L178934342 193071485
L178648628 193000057
L178505771 192928628
L178434342 192857200
L178362914 192714342
L178362914 192571485
L178434342 192428628
L178505771 192357200
L178648628 192285771
L179005771 192285771
L179220057 192357200
" />
<path d="M179862914 193785771
L179862914 192785771
" />
<path d="M179862914 192285771
L179791485 192357200
L179862914 192428628
L179934342 192357200
L179862914 192285771
L179862914 192428628
" />
<path d="M180434342 192785771
L181220057 192785771
L180434342 193785771
L181220057 193785771
" />
<path d="M182362914 193714342
L182220057 193785771
L181934342 193785771
L181791485 193714342
L181720057 193571485
L181720057 193000057
L181791485 192857200
L181934342 192785771
L182220057 192785771
L182362914 192857200
L182434342 193000057
L182434342 193142914
L181720057 193285771
" />
<path d="M183077200 193642914
L183148628 193714342
L183077200 193785771
L183005771 193714342
L183077200 193642914
L183077200 193785771
" />
<path d="M183077200 192857200
L183148628 192928628
L183077200 193000057
L183005771 192928628
L183077200 192857200
L183077200 193000057
" />
<path d="M184862914 193357200
L185577200 193357200
" />
<path d="M184720057 193785771
L185220057 192285771
L185720057 193785771
" />
<path d="M186862914 192785771
L186862914 193785771
" />
<path d="M186505771 192214342
L186148628 193285771
L187077200 193285771
" />
</g></g>
<g style="fill:#000000; fill-opacity:0.0; 
stroke:#000000; stroke-width:21200.000000; stroke-opacity:1; 
stroke-linecap:round; stroke-linejoin:round;">
</g>
<g style="fill:#000000; fill-opacity:0.0; 
stroke:#000000; stroke-width:150000.000000; stroke-opacity:1; 
stroke-linecap:round; stroke-linejoin:round;">
<text x="263002200.000000" y="196657200.000000"
textLength="8507143.000000" font-size="2000000.000000" lengthAdjust="spacingAndGlyphs"
text-anchor="start" opacity="0">Id: 1/1</text>
<g class="stroked-text"><desc>Id: 1/1</desc>
<path d="M263434342 196585771
L263434342 195085771
" />
<path d="M264791485 196585771
L264791485 195085771
" />
<path d="M264791485 196514342
L264648628 196585771
L264362914 196585771
L264220057 196514342
L264148628 196442914
L264077200 196300057
L264077200 195871485
L264148628 195728628
L264220057 195657200
L264362914 195585771
L264648628 195585771
L264791485 195657200
" />
<path d="M265505771 196442914
L265577200 196514342
L265505771 196585771
L265434342 196514342
L265505771 196442914
L265505771 196585771
" />
<path d="M265505771 195657200
L265577200 195728628
L265505771 195800057
L265434342 195728628
L265505771 195657200
L265505771 195800057
" />
<path d="M268148628 196585771
L267291485 196585771
" />
<path d="M267720057 196585771
L267720057 195085771
L267577200 195300057
L267434342 195442914
L267291485 195514342
" />
<path d="M269862914 195014342
L268577200 196942914
" />
<path d="M271148628 196585771
L270291485 196585771
" />
<path d="M270720057 196585771
L270720057 195085771
L270577200 195300057
L270434342 195442914
L270291485 195514342
" />
</g></g>
<g style="fill:#000000; fill-opacity:0.0; 
stroke:#000000; stroke-width:21200.000000; stroke-opacity:1; 
stroke-linecap:round; stroke-linejoin:round;">
</g>
<g style="fill:#000000; fill-opacity:0.0; 
stroke:#000000; stroke-width:150000.000000; stroke-opacity:1; 
stroke-linecap:round; stroke-linejoin:round;">
<path d="M177002200 187507200
L285002200 187507200
" />
</g>
<g style="fill:#000000; fill-opacity:0.0; 
stroke:#000000; stroke-width:21200.000000; stroke-opacity:1; 
stroke-linecap:round; stroke-linejoin:round;">
</g>
<g style="fill:#000000; fill-opacity:0.0; 
stroke:#000000; stroke-width:400000.000000; stroke-opacity:1; 
stroke-linecap:round; stroke-linejoin:round;">
<text x="178002200.000000" y="190307200.000000"
textLength="9409643.000000" font-size="2666666.000000" lengthAdjust="spacingAndGlyphs"
text-anchor="start" opacity="0">Title: </text>
<g class="stroked-text"><desc>Title: </desc>
<path d="M178714580 188211961
L179857438 188211961
" />
<path d="M179036009 190211961
L179286009 188211961
" />
<path d="M180274104 190211961
L180440771 188878628
" />
<path d="M180524104 188211961
L180416961 188307200
L180500295 188402438
L180607438 188307200
L180524104 188211961
L180500295 188402438
" />
<path d="M181107438 188878628
L181869342 188878628
" />
<path d="M181476485 188211961
L181262200 189926247
L181333628 190116723
L181512200 190211961
L181702676 190211961
" />
<path d="M182655057 190211961
L182476485 190116723
L182405057 189926247
L182619342 188211961
" />
<path d="M184190771 190116723
L183988390 190211961
L183607438 190211961
L183428866 190116723
L183357438 189926247
L183452676 189164342
L183571723 188973866
L183774104 188878628
L184155057 188878628
L184333628 188973866
L184405057 189164342
L184381247 189354819
L183405057 189545295
" />
<path d="M185155057 190021485
L185238390 190116723
L185131247 190211961
L185047914 190116723
L185155057 190021485
L185131247 190211961
" />
<path d="M185286009 188973866
L185369342 189069104
L185262200 189164342
L185178866 189069104
L185286009 188973866
L185262200 189164342
" />
</g></g>
<g style="fill:#000000; fill-opacity:0.0; 
stroke:#000000; stroke-width:21200.000000; stroke-opacity:1; 
stroke-linecap:round; stroke-linejoin:round;">
</g>
<g style="fill:#000000; fill-opacity:0.0; 
stroke:#000000; stroke-width:150000.000000; stroke-opacity:1; 
stroke-linecap:round; stroke-linejoin:round;">
<text x="178002200.000000" y="186457200.000000"
textLength="22305714.000000" font-size="2000000.000000" lengthAdjust="spacingAndGlyphs"
text-anchor="start" opacity="0">File: why.kicad_pcb</text>
<g class="stroked-text"><desc>File: why.kicad_pcb</desc>
<path d="M178934342 185600057
L178434342 185600057
" />
<path d="M178434342 186385771
L178434342 184885771
L179148628 184885771
" />
<path d="M179720057 186385771
L179720057 185385771
" />
<path d="M179720057 184885771
L179648628 184957200
L179720057 185028628
L179791485 184957200
L179720057 184885771
L179720057 185028628
" />
<path d="M180648628 186385771
L180505771 186314342
L180434342 186171485
L180434342 184885771
" />
<path d="M181791485 186314342
L181648628 186385771
L181362914 186385771
L181220057 186314342
L181148628 186171485
L181148628 185600057
L181220057 185457200
L181362914 185385771
L181648628 185385771
L181791485 185457200
L181862914 185600057
L181862914 185742914
L181148628 185885771
" />
<path d="M182505771 186242914
L182577200 186314342
L182505771 186385771
L182434342 186314342
L182505771 186242914
L182505771 186385771
" />
<path d="M182505771 185457200
L182577200 185528628
L182505771 185600057
L182434342 185528628
L182505771 185457200
L182505771 185600057
" />
<path d="M184220057 185385771
L184505771 186385771
L184791485 185671485
L185077200 186385771
L185362914 185385771
" />
<path d="M185934342 186385771
L185934342 184885771
" />
<path d="M186577200 186385771
L186577200 185600057
L186505771 185457200
L186362914 185385771
L186148628 185385771
L186005771 185457200
L185934342 185528628
" />
<path d="M187148628 185385771
L187505771 186385771
" />
<path d="M187862914 185385771
L187505771 186385771
L187362914 186742914
L187291485 186814342
L187148628 186885771
" />
<path d="M188434342 186242914
L188505771 186314342
L188434342 186385771
L188362914 186314342
L188434342 186242914
L188434342 186385771
" />
<path d="M189148628 186385771
L189148628 184885771
" />
<path d="M189291485 185814342
L189720057 186385771
" />
<path d="M189720057 185385771
L189148628 185957200
" />
<path d="M190362914 186385771
L190362914 185385771
" />
<path d="M190362914 184885771
L190291485 184957200
L190362914 185028628
L190434342 184957200
L190362914 184885771
L190362914 185028628
" />
<path d="M191720057 186314342
L191577200 186385771
L191291485 186385771
L191148628 186314342
L191077200 186242914
L191005771 186100057
L191005771 185671485
L191077200 185528628
L191148628 185457200
L191291485 185385771
L191577200 185385771
L191720057 185457200
" />
<path d="M193005771 186385771
L193005771 185600057
L192934342 185457200
L192791485 185385771
L192505771 185385771
L192362914 185457200
" />
<path d="M193005771 186314342
L192862914 186385771
L192505771 186385771
L192362914 186314342
L192291485 186171485
L192291485 186028628
L192362914 185885771
L192505771 185814342
L192862914 185814342
L193005771 185742914
" />
<path d="M194362914 186385771
L194362914 184885771
" />
<path d="M194362914 186314342
L194220057 186385771
L193934342 186385771
L193791485 186314342
L193720057 186242914
L193648628 186100057
L193648628 185671485
L193720057 185528628
L193791485 185457200
L193934342 185385771
L194220057 185385771
L194362914 185457200
" />
<path d="M194720057 186528628
L195862914 186528628
" />
<path d="M196220057 185385771
L196220057 186885771
" />
<path d="M196220057 185457200
L196362914 185385771
L196648628 185385771
L196791485 185457200
L196862914 185528628
L196934342 185671485
L196934342 186100057
L196862914 186242914
L196791485 186314342
L196648628 186385771
L196362914 186385771
L196220057 186314342
" />
<path d="M198220057 186314342
L198077200 186385771
L197791485 186385771
L197648628 186314342
L197577200 186242914
L197505771 186100057
L197505771 185671485
L197577200 185528628
L197648628 185457200
L197791485 185385771
L198077200 185385771
L198220057 185457200
" />
<path d="M198862914 186385771
L198862914 184885771
" />
<path d="M198862914 185457200
L199005771 185385771
L199291485 185385771
L199434342 185457200
L199505771 185528628
L199577200 185671485
L199577200 186100057
L199505771 186242914
L199434342 186314342
L199291485 186385771
L199005771 186385771
L198862914 186314342
" />
</g></g>
<g style="fill:#000000; fill-opacity:0.0; 
stroke:#000000; stroke-width:21200.000000; stroke-opacity:1; 
stroke-linecap:round; stroke-linejoin:round;">
</g>
<g style="fill:#000000; fill-opacity:0.0; 
stroke:#000000; stroke-width:150000.000000; stroke-opacity:1; 
stroke-linecap:round; stroke-linejoin:round;">
<path d="M177002200 181507200
L285002200 181507200
" />
</g>
<g style="fill:#000000; fill-opacity:0.0; 
stroke:#000000; stroke-width:21200.000000; stroke-opacity:1; 
stroke-linecap:round; stroke-linejoin:round;">
</g>
<g style="fill:#000000; fill-opacity:0.0; 
stroke:#000000; stroke-width:150000.000000; stroke-opacity:1; 
stroke-linecap:round; stroke-linejoin:round;">
<text x="178002200.000000" y="183757200.000000"
textLength="8221429.000000" font-size="2000000.000000" lengthAdjust="spacingAndGlyphs"
text-anchor="start" opacity="0">Sheet: </text>
<g class="stroked-text"><desc>Sheet: </desc>
<path d="M178362914 183614342
L178577200 183685771
L178934342 183685771
L179077200 183614342
L179148628 183542914
L179220057 183400057
L179220057 183257200
L179148628 183114342
L179077200 183042914
L178934342 182971485
L178648628 182900057
L178505771 182828628
L178434342 182757200
L178362914 182614342
L178362914 182471485
L178434342 182328628
L178505771 182257200
L178648628 182185771
L179005771 182185771
L179220057 182257200
" />
<path d="M179862914 183685771
L179862914 182185771
" />
<path d="M180505771 183685771
L180505771 182900057
L180434342 182757200
L180291485 182685771
L180077200 182685771
L179934342 182757200
L179862914 182828628
" />
<path d="M181791485 183614342
L181648628 183685771
L181362914 183685771
L181220057 183614342
L181148628 183471485
L181148628 182900057
L181220057 182757200
L181362914 182685771
L181648628 182685771
L181791485 182757200
L181862914 182900057
L181862914 183042914
L181148628 183185771
" />
<path d="M183077200 183614342
L182934342 183685771
L182648628 183685771
L182505771 183614342
L182434342 183471485
L182434342 182900057
L182505771 182757200
L182648628 182685771
L182934342 182685771
L183077200 182757200
L183148628 182900057
L183148628 183042914
L182434342 183185771
" />
<path d="M183577200 182685771
L184148628 182685771
" />
<path d="M183791485 182185771
L183791485 183471485
L183862914 183614342
L184005771 183685771
L184148628 183685771
" />
<path d="M184648628 183542914
L184720057 183614342
L184648628 183685771
L184577200 183614342
L184648628 183542914
L184648628 183685771
" />
<path d="M184648628 182757200
L184720057 182828628
L184648628 182900057
L184577200 182828628
L184648628 182757200
L184648628 182900057
" />
</g></g>
<g style="fill:#000000; fill-opacity:0.0; 
stroke:#000000; stroke-width:21200.000000; stroke-opacity:1; 
stroke-linecap:round; stroke-linejoin:round;">
</g>
<g style="fill:#000000; fill-opacity:0.0; 
stroke:#000000; stroke-width:300000.000000; stroke-opacity:1; 
stroke-linecap:round; stroke-linejoin:round;">
<text x="178002200.000000" y="180757200.000000"
textLength="150000.000000" font-size="2000000.000000" lengthAdjust="spacingAndGlyphs"
text-anchor="start" opacity="0"></text>
<g class="stroked-text"><desc></desc>
</g></g>
<g style="fill:#000000; fill-opacity:0.0; 
stroke:#000000; stroke-width:21200.000000; stroke-opacity:1; 
stroke-linecap:round; stroke-linejoin:round;">
</g>
<g style="fill:#000000; fill-opacity:0.0; 
stroke:#000000; stroke-width:150000.000000; stroke-opacity:1; 
stroke-linecap:round; stroke-linejoin:round;">
<text x="178002200.000000" y="177757200.000000"
textLength="300000.000000" font-size="2000000.000000" lengthAdjust="spacingAndGlyphs"
text-anchor="start" opacity="0"></text>
<g class="stroked-text"><desc></desc>
</g></g>
<g style="fill:#000000; fill-opacity:0.0; 
stroke:#000000; stroke-width:21200.000000; stroke-opacity:1; 
stroke-linecap:round; stroke-linejoin:round;">
</g>
<g style="fill:#000000; fill-opacity:0.0; 
stroke:#000000; stroke-width:150000.000000; stroke-opacity:1; 
stroke-linecap:round; stroke-linejoin:round;">
<text x="178002200.000000" y="174757200.000000"
textLength="150000.000000" font-size="2000000.000000" lengthAdjust="spacingAndGlyphs"
text-anchor="start" opacity="0"></text>
<g class="stroked-text"><desc></desc>
</g></g>
<g style="fill:#000000; fill-opacity:0.0; 
stroke:#000000; stroke-width:21200.000000; stroke-opacity:1; 
stroke-linecap:round; stroke-linejoin:round;">
</g>
<g style="fill:#000000; fill-opacity:0.0; 
stroke:#000000; stroke-width:150000.000000; stroke-opacity:1; 
stroke-linecap:round; stroke-linejoin:round;">
<text x="178002200.000000" y="171757200.000000"
textLength="150000.000000" font-size="2000000.000000" lengthAdjust="spacingAndGlyphs"
text-anchor="start" opacity="0"></text>
<g class="stroked-text"><desc></desc>
</g></g>
<g style="fill:#000000; fill-opacity:0.0; 
stroke:#000000; stroke-width:21200.000000; stroke-opacity:1; 
stroke-linecap:round; stroke-linejoin:round;">
</g>
<g style="fill:#000000; fill-opacity:0.0; 
stroke:#000000; stroke-width:150000.000000; stroke-opacity:1; 
stroke-linecap:round; stroke-linejoin:round;">
<text x="178002200.000000" y="168757200.000000"
textLength="150000.000000" font-size="2000000.000000" lengthAdjust="spacingAndGlyphs"
text-anchor="start" opacity="0"></text>
<g class="stroked-text"><desc></desc>
</g></g>
<g style="fill:#000000; fill-opacity:0.0; 
stroke:#000000; stroke-width:21200.000000; stroke-opacity:1; 
stroke-linecap:round; stroke-linejoin:round;">
</g>
<g style="fill:#000000; fill-opacity:0.0; 
stroke:#000000; stroke-width:150000.000000; stroke-opacity:1; 
stroke-linecap:round; stroke-linejoin:round;">
<path d="M197002200 191507200
L197002200 194507200
" />
</g>
<g style="fill:#000000; fill-opacity:0.0; 
stroke:#000000; stroke-width:21200.000000; stroke-opacity:1; 
stroke-linecap:round; stroke-linejoin:round;">
</g>
<g style="fill:#000000; fill-opacity:0.0; 
stroke:#000000; stroke-width:150000.000000; stroke-opacity:1; 
stroke-linecap:round; stroke-linejoin:round;">
<path d="M261002200 191507200
L261002200 198007200
" />
</g>
<g style="fill:#81BEBE; fill-opacity:0.0; 
stroke:#81BEBE; stroke-width:150000.000000; stroke-opacity:1; 
stroke-linecap:round; stroke-linejoin:round;">
</g>
<g style="fill:#81BEBE; fill-opacity:0.0; 
stroke:#81BEBE; stroke-width:10000.000000; stroke-opacity:1; 
stroke-linecap:round; stroke-linejoin:round;">
<path d="M163361914 114386214
L163408177 114419123
" />
<path d="M163408177 114419123
L163448403 114462626
" />
<path d="M163448403 114462626
L163476578 114509729
" />
<path d="M163476578 114509729
L163482767 114526750
" />
<path d="M163482767 114526750
L163484317 114542944
" />
<path d="M163484317 114542944
L163485708 114580283
" />
<path d="M163485708 114580283
L163486940 114638746
" />
<path d="M163486940 114638746
L163488013 114718311
" />
<path d="M163488013 114718311
L163488926 114818958
" />
<path d="M163488926 114818958
L163489680 114940665
" />
<path d="M163489680 114940665
L163490274 115083410
" />
<path d="M163490274 115083410
L163490708 115247174
" />
<path d="M163490708 115247174
L163490983 115431934
" />
<path d="M163490983 115431934
L163491097 115637669
" />
<path d="M163491097 115637669
L163491052 115864359
" />
<path d="M163491052 115864359
L163490847 116111981
" />
<path d="M163490847 116111981
L163490482 116380516
" />
<path d="M163490482 116380516
L163490405 116427232
" />
<path d="M163490405 116427232
L163487292 118290673
" />
<path d="M163487292 118290673
L163458097 118334788
" />
<path d="M163458097 118334788
L163430004 118368916
" />
<path d="M163430004 118368916
L163395366 118400470
" />
<path d="M163395366 118400470
L163384788 118408097
" />
<path d="M163384788 118408097
L163340673 118437292
" />
<path d="M163340673 118437292
L161466649 118439570
" />
<path d="M161466649 118439570
L161226103 118439838
" />
<path d="M161226103 118439838
L161005884 118440030
" />
<path d="M161005884 118440030
L160805154 118440139
" />
<path d="M160805154 118440139
L160623074 118440161
" />
<path d="M160623074 118440161
L160458804 118440091
" />
<path d="M160458804 118440091
L160311506 118439923
" />
<path d="M160311506 118439923
L160180339 118439653
" />
<path d="M160180339 118439653
L160064467 118439275
" />
<path d="M160064467 118439275
L159963048 118438784
" />
<path d="M159963048 118438784
L159875245 118438176
" />
<path d="M159875245 118438176
L159800219 118437444
" />
<path d="M159800219 118437444
L159737129 118436584
" />
<path d="M159737129 118436584
L159685138 118435591
" />
<path d="M159685138 118435591
L159643407 118434459
" />
<path d="M159643407 118434459
L159611095 118433184
" />
<path d="M159611095 118433184
L159587365 118431760
" />
<path d="M159587365 118431760
L159571377 118430182
" />
<path d="M159571377 118430182
L159562292 118428445
" />
<path d="M159562292 118428445
L159560875 118427931
" />
<path d="M159560875 118427931
L159506970 118394627
" />
<path d="M159506970 118394627
L159459996 118347641
" />
<path d="M159459996 118347641
L159436057 118311606
" />
<path d="M159436057 118311606
L159412708 118267958
" />
<path d="M159412708 118267958
L159412708 116082751
" />
<path d="M159412708 116082751
L159578643 116082751
" />
<path d="M159578643 116082751
L159578783 116250589
" />
<path d="M159578783 116250589
L159579217 116422961
" />
<path d="M159579217 116422961
L159579730 116580029
" />
<path d="M159579730 116580029
L159580220 116717333
" />
<path d="M159580220 116717333
L159580727 116836277
" />
<path d="M159580727 116836277
L159581286 116938263
" />
<path d="M159581286 116938263
L159581936 117024696
" />
<path d="M159581936 117024696
L159582715 117096977
" />
<path d="M159582715 117096977
L159583659 117156511
" />
<path d="M159583659 117156511
L159584806 117204700
" />
<path d="M159584806 117204700
L159586195 117242947
" />
<path d="M159586195 117242947
L159587861 117272656
" />
<path d="M159587861 117272656
L159589844 117295229
" />
<path d="M159589844 117295229
L159592180 117312070
" />
<path d="M159592180 117312070
L159594908 117324582
" />
<path d="M159594908 117324582
L159598064 117334167
" />
<path d="M159598064 117334167
L159601686 117342230
" />
<path d="M159601686 117342230
L159603934 117346608
" />
<path d="M159603934 117346608
L159634652 117390834
" />
<path d="M159634652 117390834
L159676234 117423102
" />
<path d="M159676234 117423102
L159720237 117443111
" />
<path d="M159720237 117443111
L159734949 117447324
" />
<path d="M159734949 117447324
L159755180 117450621
" />
<path d="M159755180 117450621
L159783113 117453061
" />
<path d="M159783113 117453061
L159820935 117454703
" />
<path d="M159820935 117454703
L159870831 117455606
" />
<path d="M159870831 117455606
L159934985 117455830
" />
<path d="M159934985 117455830
L160015585 117455434
" />
<path d="M160015585 117455434
L160114813 117454478
" />
<path d="M160114813 117454478
L160132375 117454279
" />
<path d="M160132375 117454279
L160234474 117452979
" />
<path d="M160234474 117452979
L160318152 117451565
" />
<path d="M160318152 117451565
L160386152 117449882
" />
<path d="M160386152 117449882
L160441220 117447779
" />
<path d="M160441220 117447779
L160486100 117445103
" />
<path d="M160486100 117445103
L160523536 117441704
" />
<path d="M160523536 117441704
L160556274 117437428
" />
<path d="M160556274 117437428
L160587058 117432123
" />
<path d="M160587058 117432123
L160607983 117427911
" />
<path d="M160607983 117427911
L160750955 117391570
" />
<path d="M160750955 117391570
L160876230 117345999
" />
<path d="M160876230 117345999
L160985565 117290306
" />
<path d="M160985565 117290306
L161080719 117223597
" />
<path d="M161080719 117223597
L161161862 117146723
" />
<path d="M161161862 117146723
L161232193 117058293
" />
<path d="M161232193 117058293
L161288998 116960887
" />
<path d="M161288998 116960887
L161332949 116852535
" />
<path d="M161332949 116852535
L161364721 116731263
" />
<path d="M161364721 116731263
L161384988 116595098
" />
<path d="M161384988 116595098
L161393577 116468792
" />
<path d="M161393577 116468792
L161393321 116405292
" />
<path d="M161393321 116405292
L161465875 116405292
" />
<path d="M161465875 116405292
L161465875 117304875
" />
<path d="M161465875 117304875
L161491930 117350377
" />
<path d="M161491930 117350377
L161532192 117400118
" />
<path d="M161532192 117400118
L161586533 117436196
" />
<path d="M161586533 117436196
L161616836 117447795
" />
<path d="M161616836 117447795
L161645473 117452693
" />
<path d="M161645473 117452693
L161688687 117455782
" />
<path d="M161688687 117455782
L161740352 117457093
" />
<path d="M161740352 117457093
L161794341 117456659
" />
<path d="M161794341 117456659
L161844526 117454512
" />
<path d="M161844526 117454512
L161884781 117450683
" />
<path d="M161884781 117450683
L161906150 117446288
" />
<path d="M161906150 117446288
L161966251 117415561
" />
<path d="M161966251 117415561
L162013095 117368484
" />
<path d="M162013095 117368484
L162033646 117334267
" />
<path d="M162033646 117334267
L162039519 117321988
" />
<path d="M162039519 117321988
L162044410 117309818
" />
<path d="M162044410 117309818
L162048433 117295752
" />
<path d="M162048433 117295752
L162051702 117277782
" />
<path d="M162051702 117277782
L162054330 117253903
" />
<path d="M162054330 117253903
L162056433 117222107
" />
<path d="M162056433 117222107
L162058123 117180388
" />
<path d="M162058123 117180388
L162059516 117126741
" />
<path d="M162059516 117126741
L162060726 117059157
" />
<path d="M162060726 117059157
L162061865 116975632
" />
<path d="M162061865 116975632
L162063049 116874158
" />
<path d="M162063049 116874158
L162063833 116803420
" />
<path d="M162063833 116803420
L162069125 116323132
" />
<path d="M162069125 116323132
L162375675 116824168
" />
<path d="M162375675 116824168
L162433683 116918726
" />
<path d="M162433683 116918726
L162489136 117008633
" />
<path d="M162489136 117008633
L162540921 117092118
" />
<path d="M162540921 117092118
L162587926 117167410
" />
<path d="M162587926 117167410
L162629038 117232737
" />
<path d="M162629038 117232737
L162663143 117286329
" />
<path d="M162663143 117286329
L162689130 117326412
" />
<path d="M162689130 117326412
L162705887 117351218
" />
<path d="M162705887 117351218
L162710967 117357940
" />
<path d="M162710967 117357940
L162736783 117381646
" />
<path d="M162736783 117381646
L162772169 117407320
" />
<path d="M162772169 117407320
L162796000 117421793
" />
<path d="M162796000 117421793
L162820607 117434680
" />
<path d="M162820607 117434680
L162842816 117443581
" />
<path d="M162842816 117443581
L162867568 117449382
" />
<path d="M162867568 117449382
L162899805 117452968
" />
<path d="M162899805 117452968
L162944466 117455223
" />
<path d="M162944466 117455223
L162990372 117456608
" />
<path d="M162990372 117456608
L163066405 117457375
" />
<path d="M163066405 117457375
L163125382 117454514
" />
<path d="M163125382 117454514
L163171230 117447185
" />
<path d="M163171230 117447185
L163207875 117434545
" />
<path d="M163207875 117434545
L163239244 117415754
" />
<path d="M163239244 117415754
L163259719 117398894
" />
<path d="M163259719 117398894
L163272583 117387443
" />
<path d="M163272583 117387443
L163283882 117376891
" />
<path d="M163283882 117376891
L163293712 117365863
" />
<path d="M163293712 117365863
L163302171 117352985
" />
<path d="M163302171 117352985
L163309356 117336883
" />
<path d="M163309356 117336883
L163315363 117316181
" />
<path d="M163315363 117316181
L163320289 117289506
" />
<path d="M163320289 117289506
L163324232 117255483
" />
<path d="M163324232 117255483
L163327288 117212738
" />
<path d="M163327288 117212738
L163329555 117159896
" />
<path d="M163329555 117159896
L163331129 117095582
" />
<path d="M163331129 117095582
L163332107 117018423
" />
<path d="M163332107 117018423
L163332587 116927044
" />
<path d="M163332587 116927044
L163332664 116820071
" />
<path d="M163332664 116820071
L163332437 116696128
" />
<path d="M163332437 116696128
L163332002 116553842
" />
<path d="M163332002 116553842
L163331457 116391838
" />
<path d="M163331457 116391838
L163331426 116382485
" />
<path d="M163331426 116382485
L163328542 115504035
" />
<path d="M163328542 115504035
L163296792 115452913
" />
<path d="M163296792 115452913
L163271723 115417633
" />
<path d="M163271723 115417633
L163244331 115391921
" />
<path d="M163244331 115391921
L163210722 115374220
" />
<path d="M163210722 115374220
L163167003 115362974
" />
<path d="M163167003 115362974
L163109279 115356627
" />
<path d="M163109279 115356627
L163049304 115354002
" />
<path d="M163049304 115354002
L162974685 115353692
" />
<path d="M162974685 115353692
L162917072 115357932
" />
<path d="M162917072 115357932
L162872620 115367644
" />
<path d="M162872620 115367644
L162837482 115383750
" />
<path d="M162837482 115383750
L162807812 115407171
" />
<path d="M162807812 115407171
L162801736 115413292
" />
<path d="M162801736 115413292
L162786999 115428984
" />
<path d="M162786999 115428984
L162774653 115443936
" />
<path d="M162774653 115443936
L162764463 115460109
" />
<path d="M162764463 115460109
L162756195 115479465
" />
<path d="M162756195 115479465
L162749612 115503967
" />
<path d="M162749612 115503967
L162744480 115535576
" />
<path d="M162744480 115535576
L162740563 115576255
" />
<path d="M162740563 115576255
L162737626 115627966
" />
<path d="M162737626 115627966
L162735433 115692670
" />
<path d="M162735433 115692670
L162733749 115772330
" />
<path d="M162733749 115772330
L162732339 115868908
" />
<path d="M162732339 115868908
L162730968 115984366
" />
<path d="M162730968 115984366
L162730729 116005337
" />
<path d="M162730729 116005337
L162725292 116483799
" />
<path d="M162725292 116483799
L162423667 115989779
" />
<path d="M162423667 115989779
L162365912 115895522
" />
<path d="M162365912 115895522
L162310463 115805674
" />
<path d="M162310463 115805674
L162258474 115722060
" />
<path d="M162258474 115722060
L162211098 115646506
" />
<path d="M162211098 115646506
L162169488 115580837
" />
<path d="M162169488 115580837
L162134797 115526880
" />
<path d="M162134797 115526880
L162108180 115486458
" />
<path d="M162108180 115486458
L162090789 115461399
" />
<path d="M162090789 115461399
L162085885 115455168
" />
<path d="M162085885 115455168
L162053590 115424362
" />
<path d="M162053590 115424362
L162015185 115394947
" />
<path d="M162015185 115394947
L162001218 115386060
" />
<path d="M162001218 115386060
L161982605 115375558
" />
<path d="M161982605 115375558
L161965506 115368013
" />
<path d="M161965506 115368013
L161946073 115362936
" />
<path d="M161946073 115362936
L161920452 115359839
" />
<path d="M161920452 115359839
L161884794 115358233
" />
<path d="M161884794 115358233
L161835247 115357630
" />
<path d="M161835247 115357630
L161776370 115357542
" />
<path d="M161776370 115357542
L161600032 115357542
" />
<path d="M161600032 115357542
L161555063 115389292
" />
<path d="M161555063 115389292
L161523250 115417258
" />
<path d="M161523250 115417258
L161495800 115450511
" />
<path d="M161495800 115450511
L161487984 115463375
" />
<path d="M161487984 115463375
L161484084 115471156
" />
<path d="M161484084 115471156
L161480672 115479516
" />
<path d="M161480672 115479516
L161477715 115489843
" />
<path d="M161477715 115489843
L161475181 115503526
" />
<path d="M161475181 115503526
L161473037 115521953
" />
<path d="M161473037 115521953
L161471251 115546512
" />
<path d="M161471251 115546512
L161469789 115578593
" />
<path d="M161469789 115578593
L161468620 115619585
" />
<path d="M161468620 115619585
L161467710 115670874
" />
<path d="M161467710 115670874
L161467027 115733851
" />
<path d="M161467027 115733851
L161466539 115809904
" />
<path d="M161466539 115809904
L161466213 115900421
" />
<path d="M161466213 115900421
L161466016 116006791
" />
<path d="M161466016 116006791
L161465916 116130403
" />
<path d="M161465916 116130403
L161465879 116272645
" />
<path d="M161465879 116272645
L161465875 116405292
" />
<path d="M161465875 116405292
L161393321 116405292
" />
<path d="M161393321 116405292
L161392882 116297037
" />
<path d="M161392882 116297037
L161377278 116140260
" />
<path d="M161377278 116140260
L161346606 115998254
" />
<path d="M161346606 115998254
L161300704 115870811
" />
<path d="M161300704 115870811
L161239409 115757724
" />
<path d="M161239409 115757724
L161162562 115658787
" />
<path d="M161162562 115658787
L161070000 115573791
" />
<path d="M161070000 115573791
L160961562 115502531
" />
<path d="M160961562 115502531
L160837088 115444798
" />
<path d="M160837088 115444798
L160696415 115400387
" />
<path d="M160696415 115400387
L160539382 115369089
" />
<path d="M160539382 115369089
L160536475 115368655
" />
<path d="M160536475 115368655
L160494520 115363442
" />
<path d="M160494520 115363442
L160445168 115359360
" />
<path d="M160445168 115359360
L160385839 115356316
" />
<path d="M160385839 115356316
L160313948 115354218
" />
<path d="M160313948 115354218
L160226914 115352973
" />
<path d="M160226914 115352973
L160122155 115352490
" />
<path d="M160122155 115352490
L160083392 115352482
" />
<path d="M160083392 115352482
L159987881 115352640
" />
<path d="M159987881 115352640
L159911115 115353053
" />
<path d="M159911115 115353053
L159850672 115353845
" />
<path d="M159850672 115353845
L159804130 115355138
" />
<path d="M159804130 115355138
L159769067 115357057
" />
<path d="M159769067 115357057
L159743062 115359726
" />
<path d="M159743062 115359726
L159723693 115363267
" />
<path d="M159723693 115363267
L159708537 115367804
" />
<path d="M159708537 115367804
L159698020 115372143
" />
<path d="M159698020 115372143
L159646933 115405882
" />
<path d="M159646933 115405882
L159607830 115452990
" />
<path d="M159607830 115452990
L159587433 115500047
" />
<path d="M159587433 115500047
L159585131 115519823
" />
<path d="M159585131 115519823
L159583178 115560760
" />
<path d="M159583178 115560760
L159581574 115622855
" />
<path d="M159581574 115622855
L159580318 115706105
" />
<path d="M159580318 115706105
L159579411 115810506
" />
<path d="M159579411 115810506
L159578853 115936056
" />
<path d="M159578853 115936056
L159578643 116082751
" />
<path d="M159578643 116082751
L159412708 116082751
" />
<path d="M159412708 116082751
L159412708 114542625
" />
<path d="M159412708 114542625
L159435551 114500292
" />
<path d="M159435551 114500292
L159480569 114438775
" />
<path d="M159480569 114438775
L159541316 114390523
" />
<path d="M159541316 114390523
L159555583 114382437
" />
<path d="M159555583 114382437
L159560771 114379969
" />
<path d="M159560771 114379969
L159567278 114377716
" />
<path d="M159567278 114377716
L159576043 114375668
" />
<path d="M159576043 114375668
L159588004 114373814
" />
<path d="M159588004 114373814
L159604100 114372146
" />
<path d="M159604100 114372146
L159625269 114370654
" />
<path d="M159625269 114370654
L159652450 114369328
" />
<path d="M159652450 114369328
L159686582 114368157
" />
<path d="M159686582 114368157
L159728603 114367133
" />
<path d="M159728603 114367133
L159779452 114366246
" />
<path d="M159779452 114366246
L159840067 114365486
" />
<path d="M159840067 114365486
L159911387 114364842
" />
<path d="M159911387 114364842
L159994350 114364307
" />
<path d="M159994350 114364307
L160089895 114363868
" />
<path d="M160089895 114363868
L160198961 114363518
" />
<path d="M160198961 114363518
L160322486 114363246
" />
<path d="M160322486 114363246
L160461408 114363042
" />
<path d="M160461408 114363042
L160616667 114362897
" />
<path d="M160616667 114362897
L160789201 114362801
" />
<path d="M160789201 114362801
L160979948 114362744
" />
<path d="M160979948 114362744
L161189847 114362716
" />
<path d="M161189847 114362716
L161419836 114362708
" />
<path d="M161419836 114362708
L163317958 114362708
" />
<path d="M163317958 114362708
L163361914 114386214
" />
</g>
<g style="fill:#81BEBE; fill-opacity:1.0; 
stroke:#81BEBE; stroke-width:1.000000; stroke-opacity:1; 
stroke-linecap:round; stroke-linejoin:round;">
<circle cx="163361914.000000" cy="114386214.000000" r="5000.000000" /> 
</g>
<g style="fill:#81BEBE; fill-opacity:1.0; 
stroke:#81BEBE; stroke-width:10000.000000; stroke-opacity:1; 
stroke-linecap:round; stroke-linejoin:round;">
<path style="fill:#81BEBE; fill-opacity:1.0; 
stroke:#81BEBE; stroke-width:10000.000000; stroke-opacity:1; 
stroke-linecap:round; stroke-linejoin:round;fill-rule:evenodd;"
d="M 159435551.000000,114500292.000000
159480569.000000,114438775.000000
159541316.000000,114390523.000000
159555583.000000,114382437.000000
159560771.000000,114379969.000000
159567278.000000,114377716.000000
159576043.000000,114375668.000000
159588004.000000,114373814.000000
159604100.000000,114372146.000000
159625269.000000,114370654.000000
159652450.000000,114369328.000000
159686582.000000,114368157.000000
159728603.000000,114367133.000000
159779452.000000,114366246.000000
159840067.000000,114365486.000000
159911387.000000,114364842.000000
159994350.000000,114364307.000000
160089895.000000,114363868.000000
160198961.000000,114363518.000000
160322486.000000,114363246.000000
160461408.000000,114363042.000000
160616667.000000,114362897.000000
160789201.000000,114362801.000000
160979948.000000,114362744.000000
161189847.000000,114362716.000000
161419836.000000,114362708.000000
163317958.000000,114362708.000000
163361914.000000,114386214.000000
163408177.000000,114419123.000000
163448403.000000,114462626.000000
163476578.000000,114509729.000000
163482767.000000,114526750.000000
163484317.000000,114542944.000000
163485708.000000,114580283.000000
163486940.000000,114638746.000000
163488013.000000,114718311.000000
163488926.000000,114818958.000000
163489680.000000,114940665.000000
163490274.000000,115083410.000000
163490708.000000,115247174.000000
163490983.000000,115431934.000000
163491097.000000,115637669.000000
163491052.000000,115864359.000000
163490847.000000,116111981.000000
163490482.000000,116380516.000000
163490405.000000,116427232.000000
163487292.000000,118290673.000000
163458097.000000,118334788.000000
163430004.000000,118368916.000000
163395366.000000,118400470.000000
163384788.000000,118408097.000000
163340673.000000,118437292.000000
161466649.000000,118439570.000000
161226103.000000,118439838.000000
161005884.000000,118440030.000000
160805154.000000,118440139.000000
160623074.000000,118440161.000000
160458804.000000,118440091.000000
160311506.000000,118439923.000000
160180339.000000,118439653.000000
160064467.000000,118439275.000000
159963048.000000,118438784.000000
159875245.000000,118438176.000000
159800219.000000,118437444.000000
159737129.000000,118436584.000000
159685138.000000,118435591.000000
159643407.000000,118434459.000000
159611095.000000,118433184.000000
159587365.000000,118431760.000000
159571377.000000,118430182.000000
159562292.000000,118428445.000000
159560875.000000,118427931.000000
159506970.000000,118394627.000000
159459996.000000,118347641.000000
159436057.000000,118311606.000000
159412708.000000,118267958.000000
159412708.000000,116082751.000000
159578643.000000,116082751.000000
159578783.000000,116250589.000000
159579217.000000,116422961.000000
159579730.000000,116580029.000000
159580220.000000,116717333.000000
159580727.000000,116836277.000000
159581286.000000,116938263.000000
159581936.000000,117024696.000000
159582715.000000,117096977.000000
159583659.000000,117156511.000000
159584806.000000,117204700.000000
159586195.000000,117242947.000000
159587861.000000,117272656.000000
159589844.000000,117295229.000000
159592180.000000,117312070.000000
159594908.000000,117324582.000000
159598064.000000,117334167.000000
159601686.000000,117342230.000000
159603934.000000,117346608.000000
159634652.000000,117390834.000000
159676234.000000,117423102.000000
159720237.000000,117443111.000000
159734949.000000,117447324.000000
159755180.000000,117450621.000000
159783113.000000,117453061.000000
159820935.000000,117454703.000000
159870831.000000,117455606.000000
159934985.000000,117455830.000000
160015585.000000,117455434.000000
160114813.000000,117454478.000000
160132375.000000,117454279.000000
160234474.000000,117452979.000000
160318152.000000,117451565.000000
160386152.000000,117449882.000000
160441220.000000,117447779.000000
160486100.000000,117445103.000000
160523536.000000,117441704.000000
160556274.000000,117437428.000000
160587058.000000,117432123.000000
160607983.000000,117427911.000000
160750955.000000,117391570.000000
160876230.000000,117345999.000000
160985565.000000,117290306.000000
161080719.000000,117223597.000000
161161862.000000,117146723.000000
161232193.000000,117058293.000000
161288998.000000,116960887.000000
161332949.000000,116852535.000000
161364721.000000,116731263.000000
161384988.000000,116595098.000000
161393577.000000,116468792.000000
161393321.000000,116405292.000000
161465875.000000,116405292.000000
161465875.000000,117304875.000000
161491930.000000,117350377.000000
161532192.000000,117400118.000000
161586533.000000,117436196.000000
161616836.000000,117447795.000000
161645473.000000,117452693.000000
161688687.000000,117455782.000000
161740352.000000,117457093.000000
161794341.000000,117456659.000000
161844526.000000,117454512.000000
161884781.000000,117450683.000000
161906150.000000,117446288.000000
161966251.000000,117415561.000000
162013095.000000,117368484.000000
162033646.000000,117334267.000000
162039519.000000,117321988.000000
162044410.000000,117309818.000000
162048433.000000,117295752.000000
162051702.000000,117277782.000000
162054330.000000,117253903.000000
162056433.000000,117222107.000000
162058123.000000,117180388.000000
162059516.000000,117126741.000000
162060726.000000,117059157.000000
162061865.000000,116975632.000000
162063049.000000,116874158.000000
162063833.000000,116803420.000000
162069125.000000,116323132.000000
162375675.000000,116824168.000000
162433683.000000,116918726.000000
162489136.000000,117008633.000000
162540921.000000,117092118.000000
162587926.000000,117167410.000000
162629038.000000,117232737.000000
162663143.000000,117286329.000000
162689130.000000,117326412.000000
162705887.000000,117351218.000000
162710967.000000,117357940.000000
162736783.000000,117381646.000000
162772169.000000,117407320.000000
162796000.000000,117421793.000000
162820607.000000,117434680.000000
162842816.000000,117443581.000000
162867568.000000,117449382.000000
162899805.000000,117452968.000000
162944466.000000,117455223.000000
162990372.000000,117456608.000000
163066405.000000,117457375.000000
163125382.000000,117454514.000000
163171230.000000,117447185.000000
163207875.000000,117434545.000000
163239244.000000,117415754.000000
163259719.000000,117398894.000000
163272583.000000,117387443.000000
163283882.000000,117376891.000000
163293712.000000,117365863.000000
163302171.000000,117352985.000000
163309356.000000,117336883.000000
163315363.000000,117316181.000000
163320289.000000,117289506.000000
163324232.000000,117255483.000000
163327288.000000,117212738.000000
163329555.000000,117159896.000000
163331129.000000,117095582.000000
163332107.000000,117018423.000000
163332587.000000,116927044.000000
163332664.000000,116820071.000000
163332437.000000,116696128.000000
163332002.000000,116553842.000000
163331457.000000,116391838.000000
163331426.000000,116382485.000000
163328542.000000,115504035.000000
163296792.000000,115452913.000000
163271723.000000,115417633.000000
163244331.000000,115391921.000000
163210722.000000,115374220.000000
163167003.000000,115362974.000000
163109279.000000,115356627.000000
163049304.000000,115354002.000000
162974685.000000,115353692.000000
162917072.000000,115357932.000000
162872620.000000,115367644.000000
162837482.000000,115383750.000000
162807812.000000,115407171.000000
162801736.000000,115413292.000000
162786999.000000,115428984.000000
162774653.000000,115443936.000000
162764463.000000,115460109.000000
162756195.000000,115479465.000000
162749612.000000,115503967.000000
162744480.000000,115535576.000000
162740563.000000,115576255.000000
162737626.000000,115627966.000000
162735433.000000,115692670.000000
162733749.000000,115772330.000000
162732339.000000,115868908.000000
162730968.000000,115984366.000000
162730729.000000,116005337.000000
162725292.000000,116483799.000000
162423667.000000,115989779.000000
162365912.000000,115895522.000000
162310463.000000,115805674.000000
162258474.000000,115722060.000000
162211098.000000,115646506.000000
162169488.000000,115580837.000000
162134797.000000,115526880.000000
162108180.000000,115486458.000000
162090789.000000,115461399.000000
162085885.000000,115455168.000000
162053590.000000,115424362.000000
162015185.000000,115394947.000000
162001218.000000,115386060.000000
161982605.000000,115375558.000000
161965506.000000,115368013.000000
161946073.000000,115362936.000000
161920452.000000,115359839.000000
161884794.000000,115358233.000000
161835247.000000,115357630.000000
161776370.000000,115357542.000000
161600032.000000,115357542.000000
161555063.000000,115389292.000000
161523250.000000,115417258.000000
161495800.000000,115450511.000000
161487984.000000,115463375.000000
161484084.000000,115471156.000000
161480672.000000,115479516.000000
161477715.000000,115489843.000000
161475181.000000,115503526.000000
161473037.000000,115521953.000000
161471251.000000,115546512.000000
161469789.000000,115578593.000000
161468620.000000,115619585.000000
161467710.000000,115670874.000000
161467027.000000,115733851.000000
161466539.000000,115809904.000000
161466213.000000,115900421.000000
161466016.000000,116006791.000000
161465916.000000,116130403.000000
161465879.000000,116272645.000000
161465875.000000,116405292.000000
161393321.000000,116405292.000000
161392882.000000,116297037.000000
161377278.000000,116140260.000000
161346606.000000,115998254.000000
161300704.000000,115870811.000000
161239409.000000,115757724.000000
161162562.000000,115658787.000000
161070000.000000,115573791.000000
160961562.000000,115502531.000000
160837088.000000,115444798.000000
160696415.000000,115400387.000000
160539382.000000,115369089.000000
160536475.000000,115368655.000000
160494520.000000,115363442.000000
160445168.000000,115359360.000000
160385839.000000,115356316.000000
160313948.000000,115354218.000000
160226914.000000,115352973.000000
160122155.000000,115352490.000000
160083392.000000,115352482.000000
159987881.000000,115352640.000000
159911115.000000,115353053.000000
159850672.000000,115353845.000000
159804130.000000,115355138.000000
159769067.000000,115357057.000000
159743062.000000,115359726.000000
159723693.000000,115363267.000000
159708537.000000,115367804.000000
159698020.000000,115372143.000000
159646933.000000,115405882.000000
159607830.000000,115452990.000000
159587433.000000,115500047.000000
159585131.000000,115519823.000000
159583178.000000,115560760.000000
159581574.000000,115622855.000000
159580318.000000,115706105.000000
159579411.000000,115810506.000000
159578853.000000,115936056.000000
159578643.000000,116082751.000000
159412708.000000,116082751.000000
159412708.000000,114542625.000000
Z" /> 
</g>
<g style="fill:#81BEBE; fill-opacity:0.0; 
stroke:#81BEBE; stroke-width:10000.000000; stroke-opacity:1; 
stroke-linecap:round; stroke-linejoin:round;">
<path d="M160262021 115871202
L160382333 115877434
" />
<path d="M160382333 115877434
L160485791 115895571
" />
<path d="M160485791 115895571
L160573033 115926314
" />
<path d="M160573033 115926314
L160644698 115970368
" />
<path d="M160644698 115970368
L160701425 116028434
" />
<path d="M160701425 116028434
L160743852 116101217
" />
<path d="M160743852 116101217
L160772618 116189419
" />
<path d="M160772618 116189419
L160788361 116293743
" />
<path d="M160788361 116293743
L160791720 116414892
" />
<path d="M160791720 116414892
L160790485 116452917
" />
<path d="M160790485 116452917
L160780389 116565756
" />
<path d="M160780389 116565756
L160760104 116660783
" />
<path d="M160760104 116660783
L160728413 116739194
" />
<path d="M160728413 116739194
L160684101 116802186
" />
<path d="M160684101 116802186
L160625951 116850958
" />
<path d="M160625951 116850958
L160552748 116886706
" />
<path d="M160552748 116886706
L160463275 116910628
" />
<path d="M160463275 116910628
L160356318 116923922
" />
<path d="M160356318 116923922
L160309646 116926482
" />
<path d="M160309646 116926482
L160169417 116931928
" />
<path d="M160169417 116931928
L160169417 115870833
" />
<path d="M160169417 115870833
L160262021 115871202
" />
</g>
<g style="fill:#81BEBE; fill-opacity:1.0; 
stroke:#81BEBE; stroke-width:1.000000; stroke-opacity:1; 
stroke-linecap:round; stroke-linejoin:round;">
<circle cx="160262021.000000" cy="115871202.000000" r="5000.000000" /> 
</g>
<g style="fill:#81BEBE; fill-opacity:1.0; 
stroke:#81BEBE; stroke-width:10000.000000; stroke-opacity:1; 
stroke-linecap:round; stroke-linejoin:round;">
<path style="fill:#81BEBE; fill-opacity:1.0; 
stroke:#81BEBE; stroke-width:10000.000000; stroke-opacity:1; 
stroke-linecap:round; stroke-linejoin:round;fill-rule:evenodd;"
d="M 160262021.000000,115871202.000000
160382333.000000,115877434.000000
160485791.000000,115895571.000000
160573033.000000,115926314.000000
160644698.000000,115970368.000000
160701425.000000,116028434.000000
160743852.000000,116101217.000000
160772618.000000,116189419.000000
160788361.000000,116293743.000000
160791720.000000,116414892.000000
160790485.000000,116452917.000000
160780389.000000,116565756.000000
160760104.000000,116660783.000000
160728413.000000,116739194.000000
160684101.000000,116802186.000000
160625951.000000,116850958.000000
160552748.000000,116886706.000000
160463275.000000,116910628.000000
160356318.000000,116923922.000000
160309646.000000,116926482.000000
160169417.000000,116931928.000000
160169417.000000,115870833.000000
Z" /> 
<g >
</g>
<g >
</g>
<g >
</g>
<g >
</g>
<g >
</g>
<g >
</g>
<g >
</g>
<g >
</g>
<g >
</g>
<g >
</g>
<g >
</g>
<g >
</g>
<g >
</g>
<g >
</g>
<g >
</g>
<g >
</g>
<g >
</g>
<g >
</g>
<g >
</g>
<g >
</g>
<g >
</g>
<g >
</g>
<g >
</g>
</g>
<g style="fill:#000000; fill-opacity:1.0; 
stroke:#000000; stroke-width:10000.000000; stroke-opacity:1; 
stroke-linecap:round; stroke-linejoin:round;">
</g>
<g style="fill:#C8A339; fill-opacity:1.0; 
stroke:#C8A339; stroke-width:10000.000000; stroke-opacity:1; 
stroke-linecap:round; stroke-linejoin:round;">
</g>
<g style="fill:#C8A339; fill-opacity:0.0; 
stroke:#C8A339; stroke-width:100000.000000; stroke-opacity:1; 
stroke-linecap:round; stroke-linejoin:round;">
<path d="M150000000.000000 118050000.000000 A1000000.000000 1000000.000000 0.0 0 0 151000000.000000 119050000.000000" />
<path d="M168050000.000000 119050000.000000 A1000000.000000 1000000.000000 0.0 0 0 169050000.000000 118050000.000000" />
<path d="M169050000.000000 101000000.000000 A1000000.000000 1000000.000000 0.0 0 0 168050000.000000 100000000.000000" />
<path d="M151000000.000000 100000000.000000 A1000000.000000 1000000.000000 0.0 0 0 150000000.000000 101000000.000000" />
<path d="M169050000 101000000
L169050000 118050000
" />
<path d="M150000000 101000000
L150000000 118050000
" />
<path d="M151000000 119050000
L168050000 119050000
" />
<path d="M165525000 100000000
L168050000 100000000
" />
<path d="M151000000 100000000
L153525000 100000000
" />
<path d="M165525000.000000 96790000.000000 A1000000.000000 1000000.000000 0.0 0 0 164525000.000000 95790000.000000" />
<path d="M154525000.000000 95790000.000000 A1000000.000000 1000000.000000 0.0 0 0 153525000.000000 96790000.000000" />
<path d="M154525000 95790000
L164525000 95790000
" />
<path d="M165525000 96790000
L165525000 100000000
" />
<path d="M153525000 96790000
L153525000 100000000
" />
<g >
</g>
<g >
</g>
<g >
</g>
<g >
</g>
<g >
</g>
<g >
</g>
<g >
</g>
<g >
</g>
<g >
</g>
<g >
</g>
<g >
</g>
<g >
</g>
<g >
</g>
<g >
</g>
<g >
</g>
<g >
</g>
<g >
</g>
<g >
</g>
<g >
</g>
<g >
</g>
<g >
</g>
<g >
</g>
<g >
</g>
</g> 
</svg>
