<?xml version="1.0" standalone="no"?>
 <!DOCTYPE svg PUBLIC "-//W3C//DTD SVG 1.1//EN" 
 "http://www.w3.org/Graphics/SVG/1.1/DTD/svg11.dtd"> 
<svg
  xmlns:svg="http://www.w3.org/2000/svg"
  xmlns="http://www.w3.org/2000/svg"
  xmlns:xlink="http://www.w3.org/1999/xlink"
  version="1.1"
  width="29.700220cm" height="21.000720cm" viewBox="0 0 297002200 210007200">
<title>SVG Picture created as why-B_Silkscreen.svg date 2021/09/15 19:13:22 </title>
  <desc>Picture generated by PCBNEW </desc>
<g style="fill:#000000; fill-opacity:1.000000;stroke:#000000; stroke-opacity:1.000000;
stroke-linecap:round; stroke-linejoin:round;"
 transform="translate(0 0) scale(1 1)">
</g>
<g style="fill:#000000; fill-opacity:0.0; 
stroke:#000000; stroke-width:0.000000; stroke-opacity:1; 
stroke-linecap:round; stroke-linejoin:round;">
</g>
<g style="fill:#000000; fill-opacity:0.0; 
stroke:#000000; stroke-width:21200.000000; stroke-opacity:1; 
stroke-linecap:round; stroke-linejoin:round;">
</g>
<g style="fill:#000000; fill-opacity:0.0; 
stroke:#000000; stroke-width:150000.000000; stroke-opacity:1; 
stroke-linecap:round; stroke-linejoin:round;">
<rect x="177002200.000000" y="166007200.000000" width="108000000.000000" height="32000000.000000" rx="0.000000" />
</g>
<g style="fill:#000000; fill-opacity:0.0; 
stroke:#000000; stroke-width:21200.000000; stroke-opacity:1; 
stroke-linecap:round; stroke-linejoin:round;">
</g>
<g style="fill:#000000; fill-opacity:0.0; 
stroke:#000000; stroke-width:150000.000000; stroke-opacity:1; 
stroke-linecap:round; stroke-linejoin:round;">
<rect x="10000000.000000" y="10000000.000000" width="277002200.000000" height="190007200.000000" rx="0.000000" />
</g>
<g style="fill:#000000; fill-opacity:0.0; 
stroke:#000000; stroke-width:21200.000000; stroke-opacity:1; 
stroke-linecap:round; stroke-linejoin:round;">
</g>
<g style="fill:#000000; fill-opacity:0.0; 
stroke:#000000; stroke-width:150000.000000; stroke-opacity:1; 
stroke-linecap:round; stroke-linejoin:round;">
<rect x="12000000.000000" y="12000000.000000" width="273002200.000000" height="186007200.000000" rx="0.000000" />
</g>
<g style="fill:#000000; fill-opacity:0.0; 
stroke:#000000; stroke-width:21200.000000; stroke-opacity:1; 
stroke-linecap:round; stroke-linejoin:round;">
</g>
<g style="fill:#000000; fill-opacity:0.0; 
stroke:#000000; stroke-width:150000.000000; stroke-opacity:1; 
stroke-linecap:round; stroke-linejoin:round;">
<path d="M60000000 12000000
L60000000 10000000
" />
</g>
<g style="fill:#000000; fill-opacity:0.0; 
stroke:#000000; stroke-width:21200.000000; stroke-opacity:1; 
stroke-linecap:round; stroke-linejoin:round;">
</g>
<g style="fill:#000000; fill-opacity:0.0; 
stroke:#000000; stroke-width:150000.000000; stroke-opacity:1; 
stroke-linecap:round; stroke-linejoin:round;">
<path d="M110000000 12000000
L110000000 10000000
" />
</g>
<g style="fill:#000000; fill-opacity:0.0; 
stroke:#000000; stroke-width:21200.000000; stroke-opacity:1; 
stroke-linecap:round; stroke-linejoin:round;">
</g>
<g style="fill:#000000; fill-opacity:0.0; 
stroke:#000000; stroke-width:150000.000000; stroke-opacity:1; 
stroke-linecap:round; stroke-linejoin:round;">
<path d="M160000000 12000000
L160000000 10000000
" />
</g>
<g style="fill:#000000; fill-opacity:0.0; 
stroke:#000000; stroke-width:21200.000000; stroke-opacity:1; 
stroke-linecap:round; stroke-linejoin:round;">
</g>
<g style="fill:#000000; fill-opacity:0.0; 
stroke:#000000; stroke-width:150000.000000; stroke-opacity:1; 
stroke-linecap:round; stroke-linejoin:round;">
<path d="M210000000 12000000
L210000000 10000000
" />
</g>
<g style="fill:#000000; fill-opacity:0.0; 
stroke:#000000; stroke-width:21200.000000; stroke-opacity:1; 
stroke-linecap:round; stroke-linejoin:round;">
</g>
<g style="fill:#000000; fill-opacity:0.0; 
stroke:#000000; stroke-width:150000.000000; stroke-opacity:1; 
stroke-linecap:round; stroke-linejoin:round;">
<path d="M260000000 12000000
L260000000 10000000
" />
</g>
<g style="fill:#000000; fill-opacity:0.0; 
stroke:#000000; stroke-width:21200.000000; stroke-opacity:1; 
stroke-linecap:round; stroke-linejoin:round;">
</g>
<g style="fill:#000000; fill-opacity:0.0; 
stroke:#000000; stroke-width:150000.000000; stroke-opacity:1; 
stroke-linecap:round; stroke-linejoin:round;">
<text x="35000000.000000" y="11650000.000000"
textLength="1388095.000000" font-size="1733333.000000" lengthAdjust="spacingAndGlyphs"
text-anchor="start" opacity="0">1</text>
<g class="stroked-text"><desc>1</desc>
<path d="M36065476 11588095
L35322619 11588095
" />
<path d="M35694047 11588095
L35694047 10288095
L35570238 10473809
L35446428 10597619
L35322619 10659523
" />
</g></g>
<g style="fill:#000000; fill-opacity:0.0; 
stroke:#000000; stroke-width:21200.000000; stroke-opacity:1; 
stroke-linecap:round; stroke-linejoin:round;">
</g>
<g style="fill:#000000; fill-opacity:0.0; 
stroke:#000000; stroke-width:150000.000000; stroke-opacity:1; 
stroke-linecap:round; stroke-linejoin:round;">
<text x="85000000.000000" y="11650000.000000"
textLength="1388095.000000" font-size="1733333.000000" lengthAdjust="spacingAndGlyphs"
text-anchor="start" opacity="0">2</text>
<g class="stroked-text"><desc>2</desc>
<path d="M85322619 10411904
L85384523 10350000
L85508333 10288095
L85817857 10288095
L85941666 10350000
L86003571 10411904
L86065476 10535714
L86065476 10659523
L86003571 10845238
L85260714 11588095
L86065476 11588095
" />
</g></g>
<g style="fill:#000000; fill-opacity:0.0; 
stroke:#000000; stroke-width:21200.000000; stroke-opacity:1; 
stroke-linecap:round; stroke-linejoin:round;">
</g>
<g style="fill:#000000; fill-opacity:0.0; 
stroke:#000000; stroke-width:150000.000000; stroke-opacity:1; 
stroke-linecap:round; stroke-linejoin:round;">
<text x="135000000.000000" y="11650000.000000"
textLength="1388095.000000" font-size="1733333.000000" lengthAdjust="spacingAndGlyphs"
text-anchor="start" opacity="0">3</text>
<g class="stroked-text"><desc>3</desc>
<path d="M135260714 10288095
L136065476 10288095
L135632142 10783333
L135817857 10783333
L135941666 10845238
L136003571 10907142
L136065476 11030952
L136065476 11340476
L136003571 11464285
L135941666 11526190
L135817857 11588095
L135446428 11588095
L135322619 11526190
L135260714 11464285
" />
</g></g>
<g style="fill:#000000; fill-opacity:0.0; 
stroke:#000000; stroke-width:21200.000000; stroke-opacity:1; 
stroke-linecap:round; stroke-linejoin:round;">
</g>
<g style="fill:#000000; fill-opacity:0.0; 
stroke:#000000; stroke-width:150000.000000; stroke-opacity:1; 
stroke-linecap:round; stroke-linejoin:round;">
<text x="185000000.000000" y="11650000.000000"
textLength="1388095.000000" font-size="1733333.000000" lengthAdjust="spacingAndGlyphs"
text-anchor="start" opacity="0">4</text>
<g class="stroked-text"><desc>4</desc>
<path d="M185941666 10721428
L185941666 11588095
" />
<path d="M185632142 10226190
L185322619 11154761
L186127380 11154761
" />
</g></g>
<g style="fill:#000000; fill-opacity:0.0; 
stroke:#000000; stroke-width:21200.000000; stroke-opacity:1; 
stroke-linecap:round; stroke-linejoin:round;">
</g>
<g style="fill:#000000; fill-opacity:0.0; 
stroke:#000000; stroke-width:150000.000000; stroke-opacity:1; 
stroke-linecap:round; stroke-linejoin:round;">
<text x="235000000.000000" y="11650000.000000"
textLength="1388095.000000" font-size="1733333.000000" lengthAdjust="spacingAndGlyphs"
text-anchor="start" opacity="0">5</text>
<g class="stroked-text"><desc>5</desc>
<path d="M236003571 10288095
L235384523 10288095
L235322619 10907142
L235384523 10845238
L235508333 10783333
L235817857 10783333
L235941666 10845238
L236003571 10907142
L236065476 11030952
L236065476 11340476
L236003571 11464285
L235941666 11526190
L235817857 11588095
L235508333 11588095
L235384523 11526190
L235322619 11464285
" />
</g></g>
<g style="fill:#000000; fill-opacity:0.0; 
stroke:#000000; stroke-width:21200.000000; stroke-opacity:1; 
stroke-linecap:round; stroke-linejoin:round;">
</g>
<g style="fill:#000000; fill-opacity:0.0; 
stroke:#000000; stroke-width:150000.000000; stroke-opacity:1; 
stroke-linecap:round; stroke-linejoin:round;">
<text x="285000000.000000" y="11650000.000000"
textLength="1388095.000000" font-size="1733333.000000" lengthAdjust="spacingAndGlyphs"
text-anchor="start" opacity="0">6</text>
<g class="stroked-text"><desc>6</desc>
<path d="M285941666 10288095
L285694047 10288095
L285570238 10350000
L285508333 10411904
L285384523 10597619
L285322619 10845238
L285322619 11340476
L285384523 11464285
L285446428 11526190
L285570238 11588095
L285817857 11588095
L285941666 11526190
L286003571 11464285
L286065476 11340476
L286065476 11030952
L286003571 10907142
L285941666 10845238
L285817857 10783333
L285570238 10783333
L285446428 10845238
L285384523 10907142
L285322619 11030952
" />
</g></g>
<g style="fill:#000000; fill-opacity:0.0; 
stroke:#000000; stroke-width:21200.000000; stroke-opacity:1; 
stroke-linecap:round; stroke-linejoin:round;">
</g>
<g style="fill:#000000; fill-opacity:0.0; 
stroke:#000000; stroke-width:150000.000000; stroke-opacity:1; 
stroke-linecap:round; stroke-linejoin:round;">
<path d="M60000000 198007200
L60000000 200007200
" />
</g>
<g style="fill:#000000; fill-opacity:0.0; 
stroke:#000000; stroke-width:21200.000000; stroke-opacity:1; 
stroke-linecap:round; stroke-linejoin:round;">
</g>
<g style="fill:#000000; fill-opacity:0.0; 
stroke:#000000; stroke-width:150000.000000; stroke-opacity:1; 
stroke-linecap:round; stroke-linejoin:round;">
<path d="M110000000 198007200
L110000000 200007200
" />
</g>
<g style="fill:#000000; fill-opacity:0.0; 
stroke:#000000; stroke-width:21200.000000; stroke-opacity:1; 
stroke-linecap:round; stroke-linejoin:round;">
</g>
<g style="fill:#000000; fill-opacity:0.0; 
stroke:#000000; stroke-width:150000.000000; stroke-opacity:1; 
stroke-linecap:round; stroke-linejoin:round;">
<path d="M160000000 198007200
L160000000 200007200
" />
</g>
<g style="fill:#000000; fill-opacity:0.0; 
stroke:#000000; stroke-width:21200.000000; stroke-opacity:1; 
stroke-linecap:round; stroke-linejoin:round;">
</g>
<g style="fill:#000000; fill-opacity:0.0; 
stroke:#000000; stroke-width:150000.000000; stroke-opacity:1; 
stroke-linecap:round; stroke-linejoin:round;">
<path d="M210000000 198007200
L210000000 200007200
" />
</g>
<g style="fill:#000000; fill-opacity:0.0; 
stroke:#000000; stroke-width:21200.000000; stroke-opacity:1; 
stroke-linecap:round; stroke-linejoin:round;">
</g>
<g style="fill:#000000; fill-opacity:0.0; 
stroke:#000000; stroke-width:150000.000000; stroke-opacity:1; 
stroke-linecap:round; stroke-linejoin:round;">
<path d="M260000000 198007200
L260000000 200007200
" />
</g>
<g style="fill:#000000; fill-opacity:0.0; 
stroke:#000000; stroke-width:21200.000000; stroke-opacity:1; 
stroke-linecap:round; stroke-linejoin:round;">
</g>
<g style="fill:#000000; fill-opacity:0.0; 
stroke:#000000; stroke-width:150000.000000; stroke-opacity:1; 
stroke-linecap:round; stroke-linejoin:round;">
<text x="35000000.000000" y="199657200.000000"
textLength="1388095.000000" font-size="1733333.000000" lengthAdjust="spacingAndGlyphs"
text-anchor="start" opacity="0">1</text>
<g class="stroked-text"><desc>1</desc>
<path d="M36065476 199595295
L35322619 199595295
" />
<path d="M35694047 199595295
L35694047 198295295
L35570238 198481009
L35446428 198604819
L35322619 198666723
" />
</g></g>
<g style="fill:#000000; fill-opacity:0.0; 
stroke:#000000; stroke-width:21200.000000; stroke-opacity:1; 
stroke-linecap:round; stroke-linejoin:round;">
</g>
<g style="fill:#000000; fill-opacity:0.0; 
stroke:#000000; stroke-width:150000.000000; stroke-opacity:1; 
stroke-linecap:round; stroke-linejoin:round;">
<text x="85000000.000000" y="199657200.000000"
textLength="1388095.000000" font-size="1733333.000000" lengthAdjust="spacingAndGlyphs"
text-anchor="start" opacity="0">2</text>
<g class="stroked-text"><desc>2</desc>
<path d="M85322619 198419104
L85384523 198357200
L85508333 198295295
L85817857 198295295
L85941666 198357200
L86003571 198419104
L86065476 198542914
L86065476 198666723
L86003571 198852438
L85260714 199595295
L86065476 199595295
" />
</g></g>
<g style="fill:#000000; fill-opacity:0.0; 
stroke:#000000; stroke-width:21200.000000; stroke-opacity:1; 
stroke-linecap:round; stroke-linejoin:round;">
</g>
<g style="fill:#000000; fill-opacity:0.0; 
stroke:#000000; stroke-width:150000.000000; stroke-opacity:1; 
stroke-linecap:round; stroke-linejoin:round;">
<text x="135000000.000000" y="199657200.000000"
textLength="1388095.000000" font-size="1733333.000000" lengthAdjust="spacingAndGlyphs"
text-anchor="start" opacity="0">3</text>
<g class="stroked-text"><desc>3</desc>
<path d="M135260714 198295295
L136065476 198295295
L135632142 198790533
L135817857 198790533
L135941666 198852438
L136003571 198914342
L136065476 199038152
L136065476 199347676
L136003571 199471485
L135941666 199533390
L135817857 199595295
L135446428 199595295
L135322619 199533390
L135260714 199471485
" />
</g></g>
<g style="fill:#000000; fill-opacity:0.0; 
stroke:#000000; stroke-width:21200.000000; stroke-opacity:1; 
stroke-linecap:round; stroke-linejoin:round;">
</g>
<g style="fill:#000000; fill-opacity:0.0; 
stroke:#000000; stroke-width:150000.000000; stroke-opacity:1; 
stroke-linecap:round; stroke-linejoin:round;">
<text x="185000000.000000" y="199657200.000000"
textLength="1388095.000000" font-size="1733333.000000" lengthAdjust="spacingAndGlyphs"
text-anchor="start" opacity="0">4</text>
<g class="stroked-text"><desc>4</desc>
<path d="M185941666 198728628
L185941666 199595295
" />
<path d="M185632142 198233390
L185322619 199161961
L186127380 199161961
" />
</g></g>
<g style="fill:#000000; fill-opacity:0.0; 
stroke:#000000; stroke-width:21200.000000; stroke-opacity:1; 
stroke-linecap:round; stroke-linejoin:round;">
</g>
<g style="fill:#000000; fill-opacity:0.0; 
stroke:#000000; stroke-width:150000.000000; stroke-opacity:1; 
stroke-linecap:round; stroke-linejoin:round;">
<text x="235000000.000000" y="199657200.000000"
textLength="1388095.000000" font-size="1733333.000000" lengthAdjust="spacingAndGlyphs"
text-anchor="start" opacity="0">5</text>
<g class="stroked-text"><desc>5</desc>
<path d="M236003571 198295295
L235384523 198295295
L235322619 198914342
L235384523 198852438
L235508333 198790533
L235817857 198790533
L235941666 198852438
L236003571 198914342
L236065476 199038152
L236065476 199347676
L236003571 199471485
L235941666 199533390
L235817857 199595295
L235508333 199595295
L235384523 199533390
L235322619 199471485
" />
</g></g>
<g style="fill:#000000; fill-opacity:0.0; 
stroke:#000000; stroke-width:21200.000000; stroke-opacity:1; 
stroke-linecap:round; stroke-linejoin:round;">
</g>
<g style="fill:#000000; fill-opacity:0.0; 
stroke:#000000; stroke-width:150000.000000; stroke-opacity:1; 
stroke-linecap:round; stroke-linejoin:round;">
<text x="285000000.000000" y="199657200.000000"
textLength="1388095.000000" font-size="1733333.000000" lengthAdjust="spacingAndGlyphs"
text-anchor="start" opacity="0">6</text>
<g class="stroked-text"><desc>6</desc>
<path d="M285941666 198295295
L285694047 198295295
L285570238 198357200
L285508333 198419104
L285384523 198604819
L285322619 198852438
L285322619 199347676
L285384523 199471485
L285446428 199533390
L285570238 199595295
L285817857 199595295
L285941666 199533390
L286003571 199471485
L286065476 199347676
L286065476 199038152
L286003571 198914342
L285941666 198852438
L285817857 198790533
L285570238 198790533
L285446428 198852438
L285384523 198914342
L285322619 199038152
" />
</g></g>
<g style="fill:#000000; fill-opacity:0.0; 
stroke:#000000; stroke-width:21200.000000; stroke-opacity:1; 
stroke-linecap:round; stroke-linejoin:round;">
</g>
<g style="fill:#000000; fill-opacity:0.0; 
stroke:#000000; stroke-width:150000.000000; stroke-opacity:1; 
stroke-linecap:round; stroke-linejoin:round;">
<path d="M10000000 60000000
L12000000 60000000
" />
</g>
<g style="fill:#000000; fill-opacity:0.0; 
stroke:#000000; stroke-width:21200.000000; stroke-opacity:1; 
stroke-linecap:round; stroke-linejoin:round;">
</g>
<g style="fill:#000000; fill-opacity:0.0; 
stroke:#000000; stroke-width:150000.000000; stroke-opacity:1; 
stroke-linecap:round; stroke-linejoin:round;">
<path d="M10000000 110000000
L12000000 110000000
" />
</g>
<g style="fill:#000000; fill-opacity:0.0; 
stroke:#000000; stroke-width:21200.000000; stroke-opacity:1; 
stroke-linecap:round; stroke-linejoin:round;">
</g>
<g style="fill:#000000; fill-opacity:0.0; 
stroke:#000000; stroke-width:150000.000000; stroke-opacity:1; 
stroke-linecap:round; stroke-linejoin:round;">
<path d="M10000000 160000000
L12000000 160000000
" />
</g>
<g style="fill:#000000; fill-opacity:0.0; 
stroke:#000000; stroke-width:21200.000000; stroke-opacity:1; 
stroke-linecap:round; stroke-linejoin:round;">
</g>
<g style="fill:#000000; fill-opacity:0.0; 
stroke:#000000; stroke-width:150000.000000; stroke-opacity:1; 
stroke-linecap:round; stroke-linejoin:round;">
<text x="11000000.000000" y="35650000.000000"
textLength="1264286.000000" font-size="1733333.000000" lengthAdjust="spacingAndGlyphs"
text-anchor="middle" opacity="0">A</text>
<g class="stroked-text"><desc>A</desc>
<path d="M10690476 35216666
L11309523 35216666
" />
<path d="M10566666 35588095
L11000000 34288095
L11433333 35588095
" />
</g></g>
<g style="fill:#000000; fill-opacity:0.0; 
stroke:#000000; stroke-width:21200.000000; stroke-opacity:1; 
stroke-linecap:round; stroke-linejoin:round;">
</g>
<g style="fill:#000000; fill-opacity:0.0; 
stroke:#000000; stroke-width:150000.000000; stroke-opacity:1; 
stroke-linecap:round; stroke-linejoin:round;">
<text x="11000000.000000" y="85650000.000000"
textLength="1450000.000000" font-size="1733333.000000" lengthAdjust="spacingAndGlyphs"
text-anchor="middle" opacity="0">B</text>
<g class="stroked-text"><desc>B</desc>
<path d="M11092857 84907142
L11278571 84969047
L11340476 85030952
L11402380 85154761
L11402380 85340476
L11340476 85464285
L11278571 85526190
L11154761 85588095
L10659523 85588095
L10659523 84288095
L11092857 84288095
L11216666 84350000
L11278571 84411904
L11340476 84535714
L11340476 84659523
L11278571 84783333
L11216666 84845238
L11092857 84907142
L10659523 84907142
" />
</g></g>
<g style="fill:#000000; fill-opacity:0.0; 
stroke:#000000; stroke-width:21200.000000; stroke-opacity:1; 
stroke-linecap:round; stroke-linejoin:round;">
</g>
<g style="fill:#000000; fill-opacity:0.0; 
stroke:#000000; stroke-width:150000.000000; stroke-opacity:1; 
stroke-linecap:round; stroke-linejoin:round;">
<text x="11000000.000000" y="135650000.000000"
textLength="1450000.000000" font-size="1733333.000000" lengthAdjust="spacingAndGlyphs"
text-anchor="middle" opacity="0">C</text>
<g class="stroked-text"><desc>C</desc>
<path d="M11402380 135464285
L11340476 135526190
L11154761 135588095
L11030952 135588095
L10845238 135526190
L10721428 135402380
L10659523 135278571
L10597619 135030952
L10597619 134845238
L10659523 134597619
L10721428 134473809
L10845238 134350000
L11030952 134288095
L11154761 134288095
L11340476 134350000
L11402380 134411904
" />
</g></g>
<g style="fill:#000000; fill-opacity:0.0; 
stroke:#000000; stroke-width:21200.000000; stroke-opacity:1; 
stroke-linecap:round; stroke-linejoin:round;">
</g>
<g style="fill:#000000; fill-opacity:0.0; 
stroke:#000000; stroke-width:150000.000000; stroke-opacity:1; 
stroke-linecap:round; stroke-linejoin:round;">
<text x="11000000.000000" y="185650000.000000"
textLength="1450000.000000" font-size="1733333.000000" lengthAdjust="spacingAndGlyphs"
text-anchor="middle" opacity="0">D</text>
<g class="stroked-text"><desc>D</desc>
<path d="M10659523 185588095
L10659523 184288095
L10969047 184288095
L11154761 184350000
L11278571 184473809
L11340476 184597619
L11402380 184845238
L11402380 185030952
L11340476 185278571
L11278571 185402380
L11154761 185526190
L10969047 185588095
L10659523 185588095
" />
</g></g>
<g style="fill:#000000; fill-opacity:0.0; 
stroke:#000000; stroke-width:21200.000000; stroke-opacity:1; 
stroke-linecap:round; stroke-linejoin:round;">
</g>
<g style="fill:#000000; fill-opacity:0.0; 
stroke:#000000; stroke-width:150000.000000; stroke-opacity:1; 
stroke-linecap:round; stroke-linejoin:round;">
<path d="M287002200 60000000
L285002200 60000000
" />
</g>
<g style="fill:#000000; fill-opacity:0.0; 
stroke:#000000; stroke-width:21200.000000; stroke-opacity:1; 
stroke-linecap:round; stroke-linejoin:round;">
</g>
<g style="fill:#000000; fill-opacity:0.0; 
stroke:#000000; stroke-width:150000.000000; stroke-opacity:1; 
stroke-linecap:round; stroke-linejoin:round;">
<path d="M287002200 110000000
L285002200 110000000
" />
</g>
<g style="fill:#000000; fill-opacity:0.0; 
stroke:#000000; stroke-width:21200.000000; stroke-opacity:1; 
stroke-linecap:round; stroke-linejoin:round;">
</g>
<g style="fill:#000000; fill-opacity:0.0; 
stroke:#000000; stroke-width:150000.000000; stroke-opacity:1; 
stroke-linecap:round; stroke-linejoin:round;">
<path d="M287002200 160000000
L285002200 160000000
" />
</g>
<g style="fill:#000000; fill-opacity:0.0; 
stroke:#000000; stroke-width:21200.000000; stroke-opacity:1; 
stroke-linecap:round; stroke-linejoin:round;">
</g>
<g style="fill:#000000; fill-opacity:0.0; 
stroke:#000000; stroke-width:150000.000000; stroke-opacity:1; 
stroke-linecap:round; stroke-linejoin:round;">
<text x="286002200.000000" y="35650000.000000"
textLength="1264286.000000" font-size="1733333.000000" lengthAdjust="spacingAndGlyphs"
text-anchor="middle" opacity="0">A</text>
<g class="stroked-text"><desc>A</desc>
<path d="M285692676 35216666
L286311723 35216666
" />
<path d="M285568866 35588095
L286002200 34288095
L286435533 35588095
" />
</g></g>
<g style="fill:#000000; fill-opacity:0.0; 
stroke:#000000; stroke-width:21200.000000; stroke-opacity:1; 
stroke-linecap:round; stroke-linejoin:round;">
</g>
<g style="fill:#000000; fill-opacity:0.0; 
stroke:#000000; stroke-width:150000.000000; stroke-opacity:1; 
stroke-linecap:round; stroke-linejoin:round;">
<text x="286002200.000000" y="85650000.000000"
textLength="1450000.000000" font-size="1733333.000000" lengthAdjust="spacingAndGlyphs"
text-anchor="middle" opacity="0">B</text>
<g class="stroked-text"><desc>B</desc>
<path d="M286095057 84907142
L286280771 84969047
L286342676 85030952
L286404580 85154761
L286404580 85340476
L286342676 85464285
L286280771 85526190
L286156961 85588095
L285661723 85588095
L285661723 84288095
L286095057 84288095
L286218866 84350000
L286280771 84411904
L286342676 84535714
L286342676 84659523
L286280771 84783333
L286218866 84845238
L286095057 84907142
L285661723 84907142
" />
</g></g>
<g style="fill:#000000; fill-opacity:0.0; 
stroke:#000000; stroke-width:21200.000000; stroke-opacity:1; 
stroke-linecap:round; stroke-linejoin:round;">
</g>
<g style="fill:#000000; fill-opacity:0.0; 
stroke:#000000; stroke-width:150000.000000; stroke-opacity:1; 
stroke-linecap:round; stroke-linejoin:round;">
<text x="286002200.000000" y="135650000.000000"
textLength="1450000.000000" font-size="1733333.000000" lengthAdjust="spacingAndGlyphs"
text-anchor="middle" opacity="0">C</text>
<g class="stroked-text"><desc>C</desc>
<path d="M286404580 135464285
L286342676 135526190
L286156961 135588095
L286033152 135588095
L285847438 135526190
L285723628 135402380
L285661723 135278571
L285599819 135030952
L285599819 134845238
L285661723 134597619
L285723628 134473809
L285847438 134350000
L286033152 134288095
L286156961 134288095
L286342676 134350000
L286404580 134411904
" />
</g></g>
<g style="fill:#000000; fill-opacity:0.0; 
stroke:#000000; stroke-width:21200.000000; stroke-opacity:1; 
stroke-linecap:round; stroke-linejoin:round;">
</g>
<g style="fill:#000000; fill-opacity:0.0; 
stroke:#000000; stroke-width:150000.000000; stroke-opacity:1; 
stroke-linecap:round; stroke-linejoin:round;">
<text x="286002200.000000" y="185650000.000000"
textLength="1450000.000000" font-size="1733333.000000" lengthAdjust="spacingAndGlyphs"
text-anchor="middle" opacity="0">D</text>
<g class="stroked-text"><desc>D</desc>
<path d="M285661723 185588095
L285661723 184288095
L285971247 184288095
L286156961 184350000
L286280771 184473809
L286342676 184597619
L286404580 184845238
L286404580 185030952
L286342676 185278571
L286280771 185402380
L286156961 185526190
L285971247 185588095
L285661723 185588095
" />
</g></g>
<g style="fill:#000000; fill-opacity:0.0; 
stroke:#000000; stroke-width:21200.000000; stroke-opacity:1; 
stroke-linecap:round; stroke-linejoin:round;">
</g>
<g style="fill:#000000; fill-opacity:0.0; 
stroke:#000000; stroke-width:150000.000000; stroke-opacity:1; 
stroke-linecap:round; stroke-linejoin:round;">
<text x="200002200.000000" y="193857200.000000"
textLength="7007143.000000" font-size="2000000.000000" lengthAdjust="spacingAndGlyphs"
text-anchor="start" opacity="0">Date: </text>
<g class="stroked-text"><desc>Date: </desc>
<path d="M200434342 193785771
L200434342 192285771
L200791485 192285771
L201005771 192357200
L201148628 192500057
L201220057 192642914
L201291485 192928628
L201291485 193142914
L201220057 193428628
L201148628 193571485
L201005771 193714342
L200791485 193785771
L200434342 193785771
" />
<path d="M202577200 193785771
L202577200 193000057
L202505771 192857200
L202362914 192785771
L202077200 192785771
L201934342 192857200
" />
<path d="M202577200 193714342
L202434342 193785771
L202077200 193785771
L201934342 193714342
L201862914 193571485
L201862914 193428628
L201934342 193285771
L202077200 193214342
L202434342 193214342
L202577200 193142914
" />
<path d="M203077200 192785771
L203648628 192785771
" />
<path d="M203291485 192285771
L203291485 193571485
L203362914 193714342
L203505771 193785771
L203648628 193785771
" />
<path d="M204720057 193714342
L204577200 193785771
L204291485 193785771
L204148628 193714342
L204077200 193571485
L204077200 193000057
L204148628 192857200
L204291485 192785771
L204577200 192785771
L204720057 192857200
L204791485 193000057
L204791485 193142914
L204077200 193285771
" />
<path d="M205434342 193642914
L205505771 193714342
L205434342 193785771
L205362914 193714342
L205434342 193642914
L205434342 193785771
" />
<path d="M205434342 192857200
L205505771 192928628
L205434342 193000057
L205362914 192928628
L205434342 192857200
L205434342 193000057
" />
</g></g>
<g style="fill:#000000; fill-opacity:0.0; 
stroke:#000000; stroke-width:21200.000000; stroke-opacity:1; 
stroke-linecap:round; stroke-linejoin:round;">
</g>
<g style="fill:#000000; fill-opacity:0.0; 
stroke:#000000; stroke-width:150000.000000; stroke-opacity:1; 
stroke-linecap:round; stroke-linejoin:round;">
<path d="M177002200 194507200
L285002200 194507200
" />
</g>
<g style="fill:#000000; fill-opacity:0.0; 
stroke:#000000; stroke-width:21200.000000; stroke-opacity:1; 
stroke-linecap:round; stroke-linejoin:round;">
</g>
<g style="fill:#000000; fill-opacity:0.0; 
stroke:#000000; stroke-width:150000.000000; stroke-opacity:1; 
stroke-linecap:round; stroke-linejoin:round;">
<text x="178002200.000000" y="196657200.000000"
textLength="57864286.000000" font-size="2000000.000000" lengthAdjust="spacingAndGlyphs"
text-anchor="start" opacity="0">KiCad E.D.A.  kicad (5.99.0-12118-g897269f33f)</text>
<g class="stroked-text"><desc>KiCad E.D.A.  kicad (5.99.0-12118-g897269f33f)</desc>
<path d="M178434342 196585771
L178434342 195085771
" />
<path d="M179291485 196585771
L178648628 195728628
" />
<path d="M179291485 195085771
L178434342 195942914
" />
<path d="M179934342 196585771
L179934342 195585771
" />
<path d="M179934342 195085771
L179862914 195157200
L179934342 195228628
L180005771 195157200
L179934342 195085771
L179934342 195228628
" />
<path d="M181505771 196442914
L181434342 196514342
L181220057 196585771
L181077200 196585771
L180862914 196514342
L180720057 196371485
L180648628 196228628
L180577200 195942914
L180577200 195728628
L180648628 195442914
L180720057 195300057
L180862914 195157200
L181077200 195085771
L181220057 195085771
L181434342 195157200
L181505771 195228628
" />
<path d="M182791485 196585771
L182791485 195800057
L182720057 195657200
L182577200 195585771
L182291485 195585771
L182148628 195657200
" />
<path d="M182791485 196514342
L182648628 196585771
L182291485 196585771
L182148628 196514342
L182077200 196371485
L182077200 196228628
L182148628 196085771
L182291485 196014342
L182648628 196014342
L182791485 195942914
" />
<path d="M184148628 196585771
L184148628 195085771
" />
<path d="M184148628 196514342
L184005771 196585771
L183720057 196585771
L183577200 196514342
L183505771 196442914
L183434342 196300057
L183434342 195871485
L183505771 195728628
L183577200 195657200
L183720057 195585771
L184005771 195585771
L184148628 195657200
" />
<path d="M186005771 195800057
L186505771 195800057
" />
<path d="M186720057 196585771
L186005771 196585771
L186005771 195085771
L186720057 195085771
" />
<path d="M187362914 196442914
L187434342 196514342
L187362914 196585771
L187291485 196514342
L187362914 196442914
L187362914 196585771
" />
<path d="M188077200 196585771
L188077200 195085771
L188434342 195085771
L188648628 195157200
L188791485 195300057
L188862914 195442914
L188934342 195728628
L188934342 195942914
L188862914 196228628
L188791485 196371485
L188648628 196514342
L188434342 196585771
L188077200 196585771
" />
<path d="M189577200 196442914
L189648628 196514342
L189577200 196585771
L189505771 196514342
L189577200 196442914
L189577200 196585771
" />
<path d="M190220057 196157200
L190934342 196157200
" />
<path d="M190077200 196585771
L190577200 195085771
L191077200 196585771
" />
<path d="M191577200 196442914
L191648628 196514342
L191577200 196585771
L191505771 196514342
L191577200 196442914
L191577200 196585771
" />
<path d="M194577200 196585771
L194577200 195085771
" />
<path d="M194720057 196014342
L195148628 196585771
" />
<path d="M195148628 195585771
L194577200 196157200
" />
<path d="M195791485 196585771
L195791485 195585771
" />
<path d="M195791485 195085771
L195720057 195157200
L195791485 195228628
L195862914 195157200
L195791485 195085771
L195791485 195228628
" />
<path d="M197148628 196514342
L197005771 196585771
L196720057 196585771
L196577200 196514342
L196505771 196442914
L196434342 196300057
L196434342 195871485
L196505771 195728628
L196577200 195657200
L196720057 195585771
L197005771 195585771
L197148628 195657200
" />
<path d="M198434342 196585771
L198434342 195800057
L198362914 195657200
L198220057 195585771
L197934342 195585771
L197791485 195657200
" />
<path d="M198434342 196514342
L198291485 196585771
L197934342 196585771
L197791485 196514342
L197720057 196371485
L197720057 196228628
L197791485 196085771
L197934342 196014342
L198291485 196014342
L198434342 195942914
" />
<path d="M199791485 196585771
L199791485 195085771
" />
<path d="M199791485 196514342
L199648628 196585771
L199362914 196585771
L199220057 196514342
L199148628 196442914
L199077200 196300057
L199077200 195871485
L199148628 195728628
L199220057 195657200
L199362914 195585771
L199648628 195585771
L199791485 195657200
" />
<path d="M202077200 197157200
L202005771 197085771
L201862914 196871485
L201791485 196728628
L201720057 196514342
L201648628 196157200
L201648628 195871485
L201720057 195514342
L201791485 195300057
L201862914 195157200
L202005771 194942914
L202077200 194871485
" />
<path d="M203362914 195085771
L202648628 195085771
L202577200 195800057
L202648628 195728628
L202791485 195657200
L203148628 195657200
L203291485 195728628
L203362914 195800057
L203434342 195942914
L203434342 196300057
L203362914 196442914
L203291485 196514342
L203148628 196585771
L202791485 196585771
L202648628 196514342
L202577200 196442914
" />
<path d="M204077200 196442914
L204148628 196514342
L204077200 196585771
L204005771 196514342
L204077200 196442914
L204077200 196585771
" />
<path d="M204862914 196585771
L205148628 196585771
L205291485 196514342
L205362914 196442914
L205505771 196228628
L205577200 195942914
L205577200 195371485
L205505771 195228628
L205434342 195157200
L205291485 195085771
L205005771 195085771
L204862914 195157200
L204791485 195228628
L204720057 195371485
L204720057 195728628
L204791485 195871485
L204862914 195942914
L205005771 196014342
L205291485 196014342
L205434342 195942914
L205505771 195871485
L205577200 195728628
" />
<path d="M206291485 196585771
L206577200 196585771
L206720057 196514342
L206791485 196442914
L206934342 196228628
L207005771 195942914
L207005771 195371485
L206934342 195228628
L206862914 195157200
L206720057 195085771
L206434342 195085771
L206291485 195157200
L206220057 195228628
L206148628 195371485
L206148628 195728628
L206220057 195871485
L206291485 195942914
L206434342 196014342
L206720057 196014342
L206862914 195942914
L206934342 195871485
L207005771 195728628
" />
<path d="M207648628 196442914
L207720057 196514342
L207648628 196585771
L207577200 196514342
L207648628 196442914
L207648628 196585771
" />
<path d="M208648628 195085771
L208791485 195085771
L208934342 195157200
L209005771 195228628
L209077200 195371485
L209148628 195657200
L209148628 196014342
L209077200 196300057
L209005771 196442914
L208934342 196514342
L208791485 196585771
L208648628 196585771
L208505771 196514342
L208434342 196442914
L208362914 196300057
L208291485 196014342
L208291485 195657200
L208362914 195371485
L208434342 195228628
L208505771 195157200
L208648628 195085771
" />
<path d="M209791485 196014342
L210934342 196014342
" />
<path d="M212434342 196585771
L211577200 196585771
" />
<path d="M212005771 196585771
L212005771 195085771
L211862914 195300057
L211720057 195442914
L211577200 195514342
" />
<path d="M213005771 195228628
L213077200 195157200
L213220057 195085771
L213577200 195085771
L213720057 195157200
L213791485 195228628
L213862914 195371485
L213862914 195514342
L213791485 195728628
L212934342 196585771
L213862914 196585771
" />
<path d="M215291485 196585771
L214434342 196585771
" />
<path d="M214862914 196585771
L214862914 195085771
L214720057 195300057
L214577200 195442914
L214434342 195514342
" />
<path d="M216720057 196585771
L215862914 196585771
" />
<path d="M216291485 196585771
L216291485 195085771
L216148628 195300057
L216005771 195442914
L215862914 195514342
" />
<path d="M217577200 195728628
L217434342 195657200
L217362914 195585771
L217291485 195442914
L217291485 195371485
L217362914 195228628
L217434342 195157200
L217577200 195085771
L217862914 195085771
L218005771 195157200
L218077200 195228628
L218148628 195371485
L218148628 195442914
L218077200 195585771
L218005771 195657200
L217862914 195728628
L217577200 195728628
L217434342 195800057
L217362914 195871485
L217291485 196014342
L217291485 196300057
L217362914 196442914
L217434342 196514342
L217577200 196585771
L217862914 196585771
L218005771 196514342
L218077200 196442914
L218148628 196300057
L218148628 196014342
L218077200 195871485
L218005771 195800057
L217862914 195728628
" />
<path d="M218791485 196014342
L219934342 196014342
" />
<path d="M221291485 195585771
L221291485 196800057
L221220057 196942914
L221148628 197014342
L221005771 197085771
L220791485 197085771
L220648628 197014342
" />
<path d="M221291485 196514342
L221148628 196585771
L220862914 196585771
L220720057 196514342
L220648628 196442914
L220577200 196300057
L220577200 195871485
L220648628 195728628
L220720057 195657200
L220862914 195585771
L221148628 195585771
L221291485 195657200
" />
<path d="M222220057 195728628
L222077200 195657200
L222005771 195585771
L221934342 195442914
L221934342 195371485
L222005771 195228628
L222077200 195157200
L222220057 195085771
L222505771 195085771
L222648628 195157200
L222720057 195228628
L222791485 195371485
L222791485 195442914
L222720057 195585771
L222648628 195657200
L222505771 195728628
L222220057 195728628
L222077200 195800057
L222005771 195871485
L221934342 196014342
L221934342 196300057
L222005771 196442914
L222077200 196514342
L222220057 196585771
L222505771 196585771
L222648628 196514342
L222720057 196442914
L222791485 196300057
L222791485 196014342
L222720057 195871485
L222648628 195800057
L222505771 195728628
" />
<path d="M223505771 196585771
L223791485 196585771
L223934342 196514342
L224005771 196442914
L224148628 196228628
L224220057 195942914
L224220057 195371485
L224148628 195228628
L224077200 195157200
L223934342 195085771
L223648628 195085771
L223505771 195157200
L223434342 195228628
L223362914 195371485
L223362914 195728628
L223434342 195871485
L223505771 195942914
L223648628 196014342
L223934342 196014342
L224077200 195942914
L224148628 195871485
L224220057 195728628
" />
<path d="M224720057 195085771
L225720057 195085771
L225077200 196585771
" />
<path d="M226220057 195228628
L226291485 195157200
L226434342 195085771
L226791485 195085771
L226934342 195157200
L227005771 195228628
L227077199 195371485
L227077199 195514342
L227005771 195728628
L226148628 196585771
L227077199 196585771
" />
<path d="M228362914 195085771
L228077199 195085771
L227934342 195157200
L227862914 195228628
L227720057 195442914
L227648628 195728628
L227648628 196300057
L227720057 196442914
L227791485 196514342
L227934342 196585771
L228220057 196585771
L228362914 196514342
L228434342 196442914
L228505771 196300057
L228505771 195942914
L228434342 195800057
L228362914 195728628
L228220057 195657200
L227934342 195657200
L227791485 195728628
L227720057 195800057
L227648628 195942914
" />
<path d="M229220057 196585771
L229505771 196585771
L229648628 196514342
L229720057 196442914
L229862914 196228628
L229934342 195942914
L229934342 195371485
L229862914 195228628
L229791485 195157200
L229648628 195085771
L229362914 195085771
L229220057 195157200
L229148628 195228628
L229077199 195371485
L229077199 195728628
L229148628 195871485
L229220057 195942914
L229362914 196014342
L229648628 196014342
L229791485 195942914
L229862914 195871485
L229934342 195728628
" />
<path d="M230362914 195585771
L230934342 195585771
" />
<path d="M230577199 196585771
L230577199 195300057
L230648628 195157200
L230791485 195085771
L230934342 195085771
" />
<path d="M231291485 195085771
L232220057 195085771
L231720057 195657200
L231934342 195657200
L232077199 195728628
L232148628 195800057
L232220057 195942914
L232220057 196300057
L232148628 196442914
L232077199 196514342
L231934342 196585771
L231505771 196585771
L231362914 196514342
L231291485 196442914
" />
<path d="M232720057 195085771
L233648628 195085771
L233148628 195657200
L233362914 195657200
L233505771 195728628
L233577199 195800057
L233648628 195942914
L233648628 196300057
L233577199 196442914
L233505771 196514342
L233362914 196585771
L232934342 196585771
L232791485 196514342
L232720057 196442914
" />
<path d="M234077199 195585771
L234648628 195585771
" />
<path d="M234291485 196585771
L234291485 195300057
L234362914 195157200
L234505771 195085771
L234648628 195085771
" />
<path d="M235005771 197157200
L235077199 197085771
L235220057 196871485
L235291485 196728628
L235362914 196514342
L235434342 196157200
L235434342 195871485
L235362914 195514342
L235291485 195300057
L235220057 195157200
L235077199 194942914
L235005771 194871485
" />
</g></g>
<g style="fill:#000000; fill-opacity:0.0; 
stroke:#000000; stroke-width:21200.000000; stroke-opacity:1; 
stroke-linecap:round; stroke-linejoin:round;">
</g>
<g style="fill:#000000; fill-opacity:0.0; 
stroke:#000000; stroke-width:150000.000000; stroke-opacity:1; 
stroke-linecap:round; stroke-linejoin:round;">
<path d="M177002200 191507200
L285002200 191507200
" />
</g>
<g style="fill:#000000; fill-opacity:0.0; 
stroke:#000000; stroke-width:21200.000000; stroke-opacity:1; 
stroke-linecap:round; stroke-linejoin:round;">
</g>
<g style="fill:#000000; fill-opacity:0.0; 
stroke:#000000; stroke-width:300000.000000; stroke-opacity:1; 
stroke-linecap:round; stroke-linejoin:round;">
<text x="263002200.000000" y="193857200.000000"
textLength="5935714.000000" font-size="2000000.000000" lengthAdjust="spacingAndGlyphs"
text-anchor="start" opacity="0">Rev: </text>
<g class="stroked-text"><desc>Rev: </desc>
<path d="M264411485 193785771
L263911485 193071485
" />
<path d="M263554342 193785771
L263554342 192285771
L264125771 192285771
L264268628 192357200
L264340057 192428628
L264411485 192571485
L264411485 192785771
L264340057 192928628
L264268628 193000057
L264125771 193071485
L263554342 193071485
" />
<path d="M265625771 193714342
L265482914 193785771
L265197200 193785771
L265054342 193714342
L264982914 193571485
L264982914 193000057
L265054342 192857200
L265197200 192785771
L265482914 192785771
L265625771 192857200
L265697200 193000057
L265697200 193142914
L264982914 193285771
" />
<path d="M266197200 192785771
L266554342 193785771
L266911485 192785771
" />
<path d="M267482914 193642914
L267554342 193714342
L267482914 193785771
L267411485 193714342
L267482914 193642914
L267482914 193785771
" />
<path d="M267482914 192857200
L267554342 192928628
L267482914 193000057
L267411485 192928628
L267482914 192857200
L267482914 193000057
" />
</g></g>
<g style="fill:#000000; fill-opacity:0.0; 
stroke:#000000; stroke-width:21200.000000; stroke-opacity:1; 
stroke-linecap:round; stroke-linejoin:round;">
</g>
<g style="fill:#000000; fill-opacity:0.0; 
stroke:#000000; stroke-width:150000.000000; stroke-opacity:1; 
stroke-linecap:round; stroke-linejoin:round;">
<text x="178002200.000000" y="193857200.000000"
textLength="9604286.000000" font-size="2000000.000000" lengthAdjust="spacingAndGlyphs"
text-anchor="start" opacity="0">Size: A4</text>
<g class="stroked-text"><desc>Size: A4</desc>
<path d="M178362914 193714342
L178577200 193785771
L178934342 193785771
L179077200 193714342
L179148628 193642914
L179220057 193500057
L179220057 193357200
L179148628 193214342
L179077200 193142914
L178934342 193071485
L178648628 193000057
L178505771 192928628
L178434342 192857200
L178362914 192714342
L178362914 192571485
L178434342 192428628
L178505771 192357200
L178648628 192285771
L179005771 192285771
L179220057 192357200
" />
<path d="M179862914 193785771
L179862914 192785771
" />
<path d="M179862914 192285771
L179791485 192357200
L179862914 192428628
L179934342 192357200
L179862914 192285771
L179862914 192428628
" />
<path d="M180434342 192785771
L181220057 192785771
L180434342 193785771
L181220057 193785771
" />
<path d="M182362914 193714342
L182220057 193785771
L181934342 193785771
L181791485 193714342
L181720057 193571485
L181720057 193000057
L181791485 192857200
L181934342 192785771
L182220057 192785771
L182362914 192857200
L182434342 193000057
L182434342 193142914
L181720057 193285771
" />
<path d="M183077200 193642914
L183148628 193714342
L183077200 193785771
L183005771 193714342
L183077200 193642914
L183077200 193785771
" />
<path d="M183077200 192857200
L183148628 192928628
L183077200 193000057
L183005771 192928628
L183077200 192857200
L183077200 193000057
" />
<path d="M184862914 193357200
L185577200 193357200
" />
<path d="M184720057 193785771
L185220057 192285771
L185720057 193785771
" />
<path d="M186862914 192785771
L186862914 193785771
" />
<path d="M186505771 192214342
L186148628 193285771
L187077200 193285771
" />
</g></g>
<g style="fill:#000000; fill-opacity:0.0; 
stroke:#000000; stroke-width:21200.000000; stroke-opacity:1; 
stroke-linecap:round; stroke-linejoin:round;">
</g>
<g style="fill:#000000; fill-opacity:0.0; 
stroke:#000000; stroke-width:150000.000000; stroke-opacity:1; 
stroke-linecap:round; stroke-linejoin:round;">
<text x="263002200.000000" y="196657200.000000"
textLength="8507143.000000" font-size="2000000.000000" lengthAdjust="spacingAndGlyphs"
text-anchor="start" opacity="0">Id: 1/1</text>
<g class="stroked-text"><desc>Id: 1/1</desc>
<path d="M263434342 196585771
L263434342 195085771
" />
<path d="M264791485 196585771
L264791485 195085771
" />
<path d="M264791485 196514342
L264648628 196585771
L264362914 196585771
L264220057 196514342
L264148628 196442914
L264077200 196300057
L264077200 195871485
L264148628 195728628
L264220057 195657200
L264362914 195585771
L264648628 195585771
L264791485 195657200
" />
<path d="M265505771 196442914
L265577200 196514342
L265505771 196585771
L265434342 196514342
L265505771 196442914
L265505771 196585771
" />
<path d="M265505771 195657200
L265577200 195728628
L265505771 195800057
L265434342 195728628
L265505771 195657200
L265505771 195800057
" />
<path d="M268148628 196585771
L267291485 196585771
" />
<path d="M267720057 196585771
L267720057 195085771
L267577200 195300057
L267434342 195442914
L267291485 195514342
" />
<path d="M269862914 195014342
L268577200 196942914
" />
<path d="M271148628 196585771
L270291485 196585771
" />
<path d="M270720057 196585771
L270720057 195085771
L270577200 195300057
L270434342 195442914
L270291485 195514342
" />
</g></g>
<g style="fill:#000000; fill-opacity:0.0; 
stroke:#000000; stroke-width:21200.000000; stroke-opacity:1; 
stroke-linecap:round; stroke-linejoin:round;">
</g>
<g style="fill:#000000; fill-opacity:0.0; 
stroke:#000000; stroke-width:150000.000000; stroke-opacity:1; 
stroke-linecap:round; stroke-linejoin:round;">
<path d="M177002200 187507200
L285002200 187507200
" />
</g>
<g style="fill:#000000; fill-opacity:0.0; 
stroke:#000000; stroke-width:21200.000000; stroke-opacity:1; 
stroke-linecap:round; stroke-linejoin:round;">
</g>
<g style="fill:#000000; fill-opacity:0.0; 
stroke:#000000; stroke-width:400000.000000; stroke-opacity:1; 
stroke-linecap:round; stroke-linejoin:round;">
<text x="178002200.000000" y="190307200.000000"
textLength="9409643.000000" font-size="2666666.000000" lengthAdjust="spacingAndGlyphs"
text-anchor="start" opacity="0">Title: </text>
<g class="stroked-text"><desc>Title: </desc>
<path d="M178714580 188211961
L179857438 188211961
" />
<path d="M179036009 190211961
L179286009 188211961
" />
<path d="M180274104 190211961
L180440771 188878628
" />
<path d="M180524104 188211961
L180416961 188307200
L180500295 188402438
L180607438 188307200
L180524104 188211961
L180500295 188402438
" />
<path d="M181107438 188878628
L181869342 188878628
" />
<path d="M181476485 188211961
L181262200 189926247
L181333628 190116723
L181512200 190211961
L181702676 190211961
" />
<path d="M182655057 190211961
L182476485 190116723
L182405057 189926247
L182619342 188211961
" />
<path d="M184190771 190116723
L183988390 190211961
L183607438 190211961
L183428866 190116723
L183357438 189926247
L183452676 189164342
L183571723 188973866
L183774104 188878628
L184155057 188878628
L184333628 188973866
L184405057 189164342
L184381247 189354819
L183405057 189545295
" />
<path d="M185155057 190021485
L185238390 190116723
L185131247 190211961
L185047914 190116723
L185155057 190021485
L185131247 190211961
" />
<path d="M185286009 188973866
L185369342 189069104
L185262200 189164342
L185178866 189069104
L185286009 188973866
L185262200 189164342
" />
</g></g>
<g style="fill:#000000; fill-opacity:0.0; 
stroke:#000000; stroke-width:21200.000000; stroke-opacity:1; 
stroke-linecap:round; stroke-linejoin:round;">
</g>
<g style="fill:#000000; fill-opacity:0.0; 
stroke:#000000; stroke-width:150000.000000; stroke-opacity:1; 
stroke-linecap:round; stroke-linejoin:round;">
<text x="178002200.000000" y="186457200.000000"
textLength="22305714.000000" font-size="2000000.000000" lengthAdjust="spacingAndGlyphs"
text-anchor="start" opacity="0">File: why.kicad_pcb</text>
<g class="stroked-text"><desc>File: why.kicad_pcb</desc>
<path d="M178934342 185600057
L178434342 185600057
" />
<path d="M178434342 186385771
L178434342 184885771
L179148628 184885771
" />
<path d="M179720057 186385771
L179720057 185385771
" />
<path d="M179720057 184885771
L179648628 184957200
L179720057 185028628
L179791485 184957200
L179720057 184885771
L179720057 185028628
" />
<path d="M180648628 186385771
L180505771 186314342
L180434342 186171485
L180434342 184885771
" />
<path d="M181791485 186314342
L181648628 186385771
L181362914 186385771
L181220057 186314342
L181148628 186171485
L181148628 185600057
L181220057 185457200
L181362914 185385771
L181648628 185385771
L181791485 185457200
L181862914 185600057
L181862914 185742914
L181148628 185885771
" />
<path d="M182505771 186242914
L182577200 186314342
L182505771 186385771
L182434342 186314342
L182505771 186242914
L182505771 186385771
" />
<path d="M182505771 185457200
L182577200 185528628
L182505771 185600057
L182434342 185528628
L182505771 185457200
L182505771 185600057
" />
<path d="M184220057 185385771
L184505771 186385771
L184791485 185671485
L185077200 186385771
L185362914 185385771
" />
<path d="M185934342 186385771
L185934342 184885771
" />
<path d="M186577200 186385771
L186577200 185600057
L186505771 185457200
L186362914 185385771
L186148628 185385771
L186005771 185457200
L185934342 185528628
" />
<path d="M187148628 185385771
L187505771 186385771
" />
<path d="M187862914 185385771
L187505771 186385771
L187362914 186742914
L187291485 186814342
L187148628 186885771
" />
<path d="M188434342 186242914
L188505771 186314342
L188434342 186385771
L188362914 186314342
L188434342 186242914
L188434342 186385771
" />
<path d="M189148628 186385771
L189148628 184885771
" />
<path d="M189291485 185814342
L189720057 186385771
" />
<path d="M189720057 185385771
L189148628 185957200
" />
<path d="M190362914 186385771
L190362914 185385771
" />
<path d="M190362914 184885771
L190291485 184957200
L190362914 185028628
L190434342 184957200
L190362914 184885771
L190362914 185028628
" />
<path d="M191720057 186314342
L191577200 186385771
L191291485 186385771
L191148628 186314342
L191077200 186242914
L191005771 186100057
L191005771 185671485
L191077200 185528628
L191148628 185457200
L191291485 185385771
L191577200 185385771
L191720057 185457200
" />
<path d="M193005771 186385771
L193005771 185600057
L192934342 185457200
L192791485 185385771
L192505771 185385771
L192362914 185457200
" />
<path d="M193005771 186314342
L192862914 186385771
L192505771 186385771
L192362914 186314342
L192291485 186171485
L192291485 186028628
L192362914 185885771
L192505771 185814342
L192862914 185814342
L193005771 185742914
" />
<path d="M194362914 186385771
L194362914 184885771
" />
<path d="M194362914 186314342
L194220057 186385771
L193934342 186385771
L193791485 186314342
L193720057 186242914
L193648628 186100057
L193648628 185671485
L193720057 185528628
L193791485 185457200
L193934342 185385771
L194220057 185385771
L194362914 185457200
" />
<path d="M194720057 186528628
L195862914 186528628
" />
<path d="M196220057 185385771
L196220057 186885771
" />
<path d="M196220057 185457200
L196362914 185385771
L196648628 185385771
L196791485 185457200
L196862914 185528628
L196934342 185671485
L196934342 186100057
L196862914 186242914
L196791485 186314342
L196648628 186385771
L196362914 186385771
L196220057 186314342
" />
<path d="M198220057 186314342
L198077200 186385771
L197791485 186385771
L197648628 186314342
L197577200 186242914
L197505771 186100057
L197505771 185671485
L197577200 185528628
L197648628 185457200
L197791485 185385771
L198077200 185385771
L198220057 185457200
" />
<path d="M198862914 186385771
L198862914 184885771
" />
<path d="M198862914 185457200
L199005771 185385771
L199291485 185385771
L199434342 185457200
L199505771 185528628
L199577200 185671485
L199577200 186100057
L199505771 186242914
L199434342 186314342
L199291485 186385771
L199005771 186385771
L198862914 186314342
" />
</g></g>
<g style="fill:#000000; fill-opacity:0.0; 
stroke:#000000; stroke-width:21200.000000; stroke-opacity:1; 
stroke-linecap:round; stroke-linejoin:round;">
</g>
<g style="fill:#000000; fill-opacity:0.0; 
stroke:#000000; stroke-width:150000.000000; stroke-opacity:1; 
stroke-linecap:round; stroke-linejoin:round;">
<path d="M177002200 181507200
L285002200 181507200
" />
</g>
<g style="fill:#000000; fill-opacity:0.0; 
stroke:#000000; stroke-width:21200.000000; stroke-opacity:1; 
stroke-linecap:round; stroke-linejoin:round;">
</g>
<g style="fill:#000000; fill-opacity:0.0; 
stroke:#000000; stroke-width:150000.000000; stroke-opacity:1; 
stroke-linecap:round; stroke-linejoin:round;">
<text x="178002200.000000" y="183757200.000000"
textLength="8221429.000000" font-size="2000000.000000" lengthAdjust="spacingAndGlyphs"
text-anchor="start" opacity="0">Sheet: </text>
<g class="stroked-text"><desc>Sheet: </desc>
<path d="M178362914 183614342
L178577200 183685771
L178934342 183685771
L179077200 183614342
L179148628 183542914
L179220057 183400057
L179220057 183257200
L179148628 183114342
L179077200 183042914
L178934342 182971485
L178648628 182900057
L178505771 182828628
L178434342 182757200
L178362914 182614342
L178362914 182471485
L178434342 182328628
L178505771 182257200
L178648628 182185771
L179005771 182185771
L179220057 182257200
" />
<path d="M179862914 183685771
L179862914 182185771
" />
<path d="M180505771 183685771
L180505771 182900057
L180434342 182757200
L180291485 182685771
L180077200 182685771
L179934342 182757200
L179862914 182828628
" />
<path d="M181791485 183614342
L181648628 183685771
L181362914 183685771
L181220057 183614342
L181148628 183471485
L181148628 182900057
L181220057 182757200
L181362914 182685771
L181648628 182685771
L181791485 182757200
L181862914 182900057
L181862914 183042914
L181148628 183185771
" />
<path d="M183077200 183614342
L182934342 183685771
L182648628 183685771
L182505771 183614342
L182434342 183471485
L182434342 182900057
L182505771 182757200
L182648628 182685771
L182934342 182685771
L183077200 182757200
L183148628 182900057
L183148628 183042914
L182434342 183185771
" />
<path d="M183577200 182685771
L184148628 182685771
" />
<path d="M183791485 182185771
L183791485 183471485
L183862914 183614342
L184005771 183685771
L184148628 183685771
" />
<path d="M184648628 183542914
L184720057 183614342
L184648628 183685771
L184577200 183614342
L184648628 183542914
L184648628 183685771
" />
<path d="M184648628 182757200
L184720057 182828628
L184648628 182900057
L184577200 182828628
L184648628 182757200
L184648628 182900057
" />
</g></g>
<g style="fill:#000000; fill-opacity:0.0; 
stroke:#000000; stroke-width:21200.000000; stroke-opacity:1; 
stroke-linecap:round; stroke-linejoin:round;">
</g>
<g style="fill:#000000; fill-opacity:0.0; 
stroke:#000000; stroke-width:300000.000000; stroke-opacity:1; 
stroke-linecap:round; stroke-linejoin:round;">
<text x="178002200.000000" y="180757200.000000"
textLength="150000.000000" font-size="2000000.000000" lengthAdjust="spacingAndGlyphs"
text-anchor="start" opacity="0"></text>
<g class="stroked-text"><desc></desc>
</g></g>
<g style="fill:#000000; fill-opacity:0.0; 
stroke:#000000; stroke-width:21200.000000; stroke-opacity:1; 
stroke-linecap:round; stroke-linejoin:round;">
</g>
<g style="fill:#000000; fill-opacity:0.0; 
stroke:#000000; stroke-width:150000.000000; stroke-opacity:1; 
stroke-linecap:round; stroke-linejoin:round;">
<text x="178002200.000000" y="177757200.000000"
textLength="300000.000000" font-size="2000000.000000" lengthAdjust="spacingAndGlyphs"
text-anchor="start" opacity="0"></text>
<g class="stroked-text"><desc></desc>
</g></g>
<g style="fill:#000000; fill-opacity:0.0; 
stroke:#000000; stroke-width:21200.000000; stroke-opacity:1; 
stroke-linecap:round; stroke-linejoin:round;">
</g>
<g style="fill:#000000; fill-opacity:0.0; 
stroke:#000000; stroke-width:150000.000000; stroke-opacity:1; 
stroke-linecap:round; stroke-linejoin:round;">
<text x="178002200.000000" y="174757200.000000"
textLength="150000.000000" font-size="2000000.000000" lengthAdjust="spacingAndGlyphs"
text-anchor="start" opacity="0"></text>
<g class="stroked-text"><desc></desc>
</g></g>
<g style="fill:#000000; fill-opacity:0.0; 
stroke:#000000; stroke-width:21200.000000; stroke-opacity:1; 
stroke-linecap:round; stroke-linejoin:round;">
</g>
<g style="fill:#000000; fill-opacity:0.0; 
stroke:#000000; stroke-width:150000.000000; stroke-opacity:1; 
stroke-linecap:round; stroke-linejoin:round;">
<text x="178002200.000000" y="171757200.000000"
textLength="150000.000000" font-size="2000000.000000" lengthAdjust="spacingAndGlyphs"
text-anchor="start" opacity="0"></text>
<g class="stroked-text"><desc></desc>
</g></g>
<g style="fill:#000000; fill-opacity:0.0; 
stroke:#000000; stroke-width:21200.000000; stroke-opacity:1; 
stroke-linecap:round; stroke-linejoin:round;">
</g>
<g style="fill:#000000; fill-opacity:0.0; 
stroke:#000000; stroke-width:150000.000000; stroke-opacity:1; 
stroke-linecap:round; stroke-linejoin:round;">
<text x="178002200.000000" y="168757200.000000"
textLength="150000.000000" font-size="2000000.000000" lengthAdjust="spacingAndGlyphs"
text-anchor="start" opacity="0"></text>
<g class="stroked-text"><desc></desc>
</g></g>
<g style="fill:#000000; fill-opacity:0.0; 
stroke:#000000; stroke-width:21200.000000; stroke-opacity:1; 
stroke-linecap:round; stroke-linejoin:round;">
</g>
<g style="fill:#000000; fill-opacity:0.0; 
stroke:#000000; stroke-width:150000.000000; stroke-opacity:1; 
stroke-linecap:round; stroke-linejoin:round;">
<path d="M197002200 191507200
L197002200 194507200
" />
</g>
<g style="fill:#000000; fill-opacity:0.0; 
stroke:#000000; stroke-width:21200.000000; stroke-opacity:1; 
stroke-linecap:round; stroke-linejoin:round;">
</g>
<g style="fill:#000000; fill-opacity:0.0; 
stroke:#000000; stroke-width:150000.000000; stroke-opacity:1; 
stroke-linecap:round; stroke-linejoin:round;">
<path d="M261002200 191507200
L261002200 198007200
" />
</g>
<g style="fill:#796596; fill-opacity:0.0; 
stroke:#796596; stroke-width:150000.000000; stroke-opacity:1; 
stroke-linecap:round; stroke-linejoin:round;">
<text x="152900000.000000" y="118466000.000000"
transform="scale(-1 1) translate(-305800000.000000 0)"
textLength="4373810.000000" font-size="1333333.000000" lengthAdjust="spacingAndGlyphs"
text-anchor="middle" opacity="0">RESET</text>
<g class="stroked-text"><desc>RESET</desc>
<path d="M154352380 118418380
L154685714 117942190
" />
<path d="M154923809 118418380
L154923809 117418380
L154542857 117418380
L154447619 117466000
L154400000 117513619
L154352380 117608857
L154352380 117751714
L154400000 117846952
L154447619 117894571
L154542857 117942190
L154923809 117942190
" />
<path d="M153923809 117894571
L153590476 117894571
" />
<path d="M153447619 118418380
L153923809 118418380
L153923809 117418380
L153447619 117418380
" />
<path d="M153066666 118370761
L152923809 118418380
L152685714 118418380
L152590476 118370761
L152542857 118323142
L152495238 118227904
L152495238 118132666
L152542857 118037428
L152590476 117989809
L152685714 117942190
L152876190 117894571
L152971428 117846952
L153019047 117799333
L153066666 117704095
L153066666 117608857
L153019047 117513619
L152971428 117466000
L152876190 117418380
L152638095 117418380
L152495238 117466000
" />
<path d="M152066666 117894571
L151733333 117894571
" />
<path d="M151590476 118418380
L152066666 118418380
L152066666 117418380
L151590476 117418380
" />
<path d="M151304761 117418380
L150733333 117418380
" />
<path d="M151019047 118418380
L151019047 117418380
" />
</g></g>
<g style="fill:#796596; fill-opacity:0.0; 
stroke:#796596; stroke-width:10000.000000; stroke-opacity:1; 
stroke-linecap:round; stroke-linejoin:round;">
<path d="M159538086 114386214
L159491823 114419123
" />
<path d="M159491823 114419123
L159451597 114462626
" />
<path d="M159451597 114462626
L159423422 114509729
" />
<path d="M159423422 114509729
L159417233 114526750
" />
<path d="M159417233 114526750
L159415683 114542944
" />
<path d="M159415683 114542944
L159414292 114580283
" />
<path d="M159414292 114580283
L159413060 114638746
" />
<path d="M159413060 114638746
L159411987 114718311
" />
<path d="M159411987 114718311
L159411074 114818958
" />
<path d="M159411074 114818958
L159410320 114940665
" />
<path d="M159410320 114940665
L159409726 115083410
" />
<path d="M159409726 115083410
L159409292 115247174
" />
<path d="M159409292 115247174
L159409017 115431934
" />
<path d="M159409017 115431934
L159408903 115637669
" />
<path d="M159408903 115637669
L159408948 115864359
" />
<path d="M159408948 115864359
L159409153 116111981
" />
<path d="M159409153 116111981
L159409518 116380516
" />
<path d="M159409518 116380516
L159409595 116427232
" />
<path d="M159409595 116427232
L159412708 118290673
" />
<path d="M159412708 118290673
L159441903 118334788
" />
<path d="M159441903 118334788
L159469996 118368916
" />
<path d="M159469996 118368916
L159504634 118400470
" />
<path d="M159504634 118400470
L159515212 118408097
" />
<path d="M159515212 118408097
L159559327 118437292
" />
<path d="M159559327 118437292
L161433351 118439570
" />
<path d="M161433351 118439570
L161673897 118439838
" />
<path d="M161673897 118439838
L161894116 118440030
" />
<path d="M161894116 118440030
L162094846 118440139
" />
<path d="M162094846 118440139
L162276926 118440161
" />
<path d="M162276926 118440161
L162441196 118440091
" />
<path d="M162441196 118440091
L162588494 118439923
" />
<path d="M162588494 118439923
L162719661 118439653
" />
<path d="M162719661 118439653
L162835533 118439275
" />
<path d="M162835533 118439275
L162936952 118438784
" />
<path d="M162936952 118438784
L163024755 118438176
" />
<path d="M163024755 118438176
L163099781 118437444
" />
<path d="M163099781 118437444
L163162871 118436584
" />
<path d="M163162871 118436584
L163214862 118435591
" />
<path d="M163214862 118435591
L163256593 118434459
" />
<path d="M163256593 118434459
L163288905 118433184
" />
<path d="M163288905 118433184
L163312635 118431760
" />
<path d="M163312635 118431760
L163328623 118430182
" />
<path d="M163328623 118430182
L163337708 118428445
" />
<path d="M163337708 118428445
L163339125 118427931
" />
<path d="M163339125 118427931
L163393030 118394627
" />
<path d="M163393030 118394627
L163440004 118347641
" />
<path d="M163440004 118347641
L163463943 118311606
" />
<path d="M163463943 118311606
L163487292 118267958
" />
<path d="M163487292 118267958
L163487292 116082751
" />
<path d="M163487292 116082751
L163321357 116082751
" />
<path d="M163321357 116082751
L163321217 116250589
" />
<path d="M163321217 116250589
L163320783 116422961
" />
<path d="M163320783 116422961
L163320270 116580029
" />
<path d="M163320270 116580029
L163319780 116717333
" />
<path d="M163319780 116717333
L163319273 116836277
" />
<path d="M163319273 116836277
L163318714 116938263
" />
<path d="M163318714 116938263
L163318064 117024696
" />
<path d="M163318064 117024696
L163317285 117096977
" />
<path d="M163317285 117096977
L163316341 117156511
" />
<path d="M163316341 117156511
L163315194 117204700
" />
<path d="M163315194 117204700
L163313805 117242947
" />
<path d="M163313805 117242947
L163312139 117272656
" />
<path d="M163312139 117272656
L163310156 117295229
" />
<path d="M163310156 117295229
L163307820 117312070
" />
<path d="M163307820 117312070
L163305092 117324582
" />
<path d="M163305092 117324582
L163301936 117334167
" />
<path d="M163301936 117334167
L163298314 117342230
" />
<path d="M163298314 117342230
L163296066 117346608
" />
<path d="M163296066 117346608
L163265348 117390834
" />
<path d="M163265348 117390834
L163223766 117423102
" />
<path d="M163223766 117423102
L163179763 117443111
" />
<path d="M163179763 117443111
L163165051 117447324
" />
<path d="M163165051 117447324
L163144820 117450621
" />
<path d="M163144820 117450621
L163116887 117453061
" />
<path d="M163116887 117453061
L163079065 117454703
" />
<path d="M163079065 117454703
L163029169 117455606
" />
<path d="M163029169 117455606
L162965015 117455830
" />
<path d="M162965015 117455830
L162884415 117455434
" />
<path d="M162884415 117455434
L162785187 117454478
" />
<path d="M162785187 117454478
L162767625 117454279
" />
<path d="M162767625 117454279
L162665526 117452979
" />
<path d="M162665526 117452979
L162581848 117451565
" />
<path d="M162581848 117451565
L162513848 117449882
" />
<path d="M162513848 117449882
L162458780 117447779
" />
<path d="M162458780 117447779
L162413900 117445103
" />
<path d="M162413900 117445103
L162376464 117441704
" />
<path d="M162376464 117441704
L162343726 117437428
" />
<path d="M162343726 117437428
L162312942 117432123
" />
<path d="M162312942 117432123
L162292017 117427911
" />
<path d="M162292017 117427911
L162149045 117391570
" />
<path d="M162149045 117391570
L162023770 117345999
" />
<path d="M162023770 117345999
L161914435 117290306
" />
<path d="M161914435 117290306
L161819281 117223597
" />
<path d="M161819281 117223597
L161738138 117146723
" />
<path d="M161738138 117146723
L161667807 117058293
" />
<path d="M161667807 117058293
L161611002 116960887
" />
<path d="M161611002 116960887
L161567051 116852535
" />
<path d="M161567051 116852535
L161535279 116731263
" />
<path d="M161535279 116731263
L161515012 116595098
" />
<path d="M161515012 116595098
L161506423 116468792
" />
<path d="M161506423 116468792
L161506679 116405292
" />
<path d="M161506679 116405292
L161434125 116405292
" />
<path d="M161434125 116405292
L161434125 117304875
" />
<path d="M161434125 117304875
L161408070 117350377
" />
<path d="M161408070 117350377
L161367808 117400118
" />
<path d="M161367808 117400118
L161313467 117436196
" />
<path d="M161313467 117436196
L161283164 117447795
" />
<path d="M161283164 117447795
L161254527 117452693
" />
<path d="M161254527 117452693
L161211313 117455782
" />
<path d="M161211313 117455782
L161159648 117457093
" />
<path d="M161159648 117457093
L161105659 117456659
" />
<path d="M161105659 117456659
L161055474 117454512
" />
<path d="M161055474 117454512
L161015219 117450683
" />
<path d="M161015219 117450683
L160993850 117446288
" />
<path d="M160993850 117446288
L160933749 117415561
" />
<path d="M160933749 117415561
L160886905 117368484
" />
<path d="M160886905 117368484
L160866354 117334267
" />
<path d="M160866354 117334267
L160860481 117321988
" />
<path d="M160860481 117321988
L160855590 117309818
" />
<path d="M160855590 117309818
L160851567 117295752
" />
<path d="M160851567 117295752
L160848298 117277782
" />
<path d="M160848298 117277782
L160845670 117253903
" />
<path d="M160845670 117253903
L160843567 117222107
" />
<path d="M160843567 117222107
L160841877 117180388
" />
<path d="M160841877 117180388
L160840484 117126741
" />
<path d="M160840484 117126741
L160839274 117059157
" />
<path d="M160839274 117059157
L160838135 116975632
" />
<path d="M160838135 116975632
L160836951 116874158
" />
<path d="M160836951 116874158
L160836167 116803420
" />
<path d="M160836167 116803420
L160830875 116323132
" />
<path d="M160830875 116323132
L160524325 116824168
" />
<path d="M160524325 116824168
L160466317 116918726
" />
<path d="M160466317 116918726
L160410864 117008633
" />
<path d="M160410864 117008633
L160359079 117092118
" />
<path d="M160359079 117092118
L160312074 117167410
" />
<path d="M160312074 117167410
L160270962 117232737
" />
<path d="M160270962 117232737
L160236857 117286329
" />
<path d="M160236857 117286329
L160210870 117326412
" />
<path d="M160210870 117326412
L160194113 117351218
" />
<path d="M160194113 117351218
L160189033 117357940
" />
<path d="M160189033 117357940
L160163217 117381646
" />
<path d="M160163217 117381646
L160127831 117407320
" />
<path d="M160127831 117407320
L160104000 117421793
" />
<path d="M160104000 117421793
L160079393 117434680
" />
<path d="M160079393 117434680
L160057184 117443581
" />
<path d="M160057184 117443581
L160032432 117449382
" />
<path d="M160032432 117449382
L160000195 117452968
" />
<path d="M160000195 117452968
L159955534 117455223
" />
<path d="M159955534 117455223
L159909628 117456608
" />
<path d="M159909628 117456608
L159833595 117457375
" />
<path d="M159833595 117457375
L159774618 117454514
" />
<path d="M159774618 117454514
L159728770 117447185
" />
<path d="M159728770 117447185
L159692125 117434545
" />
<path d="M159692125 117434545
L159660756 117415754
" />
<path d="M159660756 117415754
L159640281 117398894
" />
<path d="M159640281 117398894
L159627417 117387443
" />
<path d="M159627417 117387443
L159616118 117376891
" />
<path d="M159616118 117376891
L159606288 117365863
" />
<path d="M159606288 117365863
L159597829 117352985
" />
<path d="M159597829 117352985
L159590644 117336883
" />
<path d="M159590644 117336883
L159584637 117316181
" />
<path d="M159584637 117316181
L159579711 117289506
" />
<path d="M159579711 117289506
L159575768 117255483
" />
<path d="M159575768 117255483
L159572712 117212738
" />
<path d="M159572712 117212738
L159570445 117159896
" />
<path d="M159570445 117159896
L159568871 117095582
" />
<path d="M159568871 117095582
L159567893 117018423
" />
<path d="M159567893 117018423
L159567413 116927044
" />
<path d="M159567413 116927044
L159567336 116820071
" />
<path d="M159567336 116820071
L159567563 116696128
" />
<path d="M159567563 116696128
L159567998 116553842
" />
<path d="M159567998 116553842
L159568543 116391838
" />
<path d="M159568543 116391838
L159568574 116382485
" />
<path d="M159568574 116382485
L159571458 115504035
" />
<path d="M159571458 115504035
L159603208 115452913
" />
<path d="M159603208 115452913
L159628277 115417633
" />
<path d="M159628277 115417633
L159655669 115391921
" />
<path d="M159655669 115391921
L159689278 115374220
" />
<path d="M159689278 115374220
L159732997 115362974
" />
<path d="M159732997 115362974
L159790721 115356627
" />
<path d="M159790721 115356627
L159850696 115354002
" />
<path d="M159850696 115354002
L159925315 115353692
" />
<path d="M159925315 115353692
L159982928 115357932
" />
<path d="M159982928 115357932
L160027380 115367644
" />
<path d="M160027380 115367644
L160062518 115383750
" />
<path d="M160062518 115383750
L160092188 115407171
" />
<path d="M160092188 115407171
L160098264 115413292
" />
<path d="M160098264 115413292
L160113001 115428984
" />
<path d="M160113001 115428984
L160125347 115443936
" />
<path d="M160125347 115443936
L160135537 115460109
" />
<path d="M160135537 115460109
L160143805 115479465
" />
<path d="M160143805 115479465
L160150388 115503967
" />
<path d="M160150388 115503967
L160155520 115535576
" />
<path d="M160155520 115535576
L160159437 115576255
" />
<path d="M160159437 115576255
L160162374 115627966
" />
<path d="M160162374 115627966
L160164567 115692670
" />
<path d="M160164567 115692670
L160166251 115772330
" />
<path d="M160166251 115772330
L160167661 115868908
" />
<path d="M160167661 115868908
L160169032 115984366
" />
<path d="M160169032 115984366
L160169271 116005337
" />
<path d="M160169271 116005337
L160174708 116483799
" />
<path d="M160174708 116483799
L160476333 115989779
" />
<path d="M160476333 115989779
L160534088 115895522
" />
<path d="M160534088 115895522
L160589537 115805674
" />
<path d="M160589537 115805674
L160641526 115722060
" />
<path d="M160641526 115722060
L160688902 115646506
" />
<path d="M160688902 115646506
L160730512 115580837
" />
<path d="M160730512 115580837
L160765203 115526880
" />
<path d="M160765203 115526880
L160791820 115486458
" />
<path d="M160791820 115486458
L160809211 115461399
" />
<path d="M160809211 115461399
L160814115 115455168
" />
<path d="M160814115 115455168
L160846410 115424362
" />
<path d="M160846410 115424362
L160884815 115394947
" />
<path d="M160884815 115394947
L160898782 115386060
" />
<path d="M160898782 115386060
L160917395 115375558
" />
<path d="M160917395 115375558
L160934494 115368013
" />
<path d="M160934494 115368013
L160953927 115362936
" />
<path d="M160953927 115362936
L160979548 115359839
" />
<path d="M160979548 115359839
L161015206 115358233
" />
<path d="M161015206 115358233
L161064753 115357630
" />
<path d="M161064753 115357630
L161123630 115357542
" />
<path d="M161123630 115357542
L161299968 115357542
" />
<path d="M161299968 115357542
L161344937 115389292
" />
<path d="M161344937 115389292
L161376750 115417258
" />
<path d="M161376750 115417258
L161404200 115450511
" />
<path d="M161404200 115450511
L161412016 115463375
" />
<path d="M161412016 115463375
L161415916 115471156
" />
<path d="M161415916 115471156
L161419328 115479516
" />
<path d="M161419328 115479516
L161422285 115489843
" />
<path d="M161422285 115489843
L161424819 115503526
" />
<path d="M161424819 115503526
L161426963 115521953
" />
<path d="M161426963 115521953
L161428749 115546512
" />
<path d="M161428749 115546512
L161430211 115578593
" />
<path d="M161430211 115578593
L161431380 115619585
" />
<path d="M161431380 115619585
L161432290 115670874
" />
<path d="M161432290 115670874
L161432973 115733851
" />
<path d="M161432973 115733851
L161433461 115809904
" />
<path d="M161433461 115809904
L161433787 115900421
" />
<path d="M161433787 115900421
L161433984 116006791
" />
<path d="M161433984 116006791
L161434084 116130403
" />
<path d="M161434084 116130403
L161434121 116272645
" />
<path d="M161434121 116272645
L161434125 116405292
" />
<path d="M161434125 116405292
L161506679 116405292
" />
<path d="M161506679 116405292
L161507118 116297037
" />
<path d="M161507118 116297037
L161522722 116140260
" />
<path d="M161522722 116140260
L161553394 115998254
" />
<path d="M161553394 115998254
L161599296 115870811
" />
<path d="M161599296 115870811
L161660591 115757724
" />
<path d="M161660591 115757724
L161737438 115658787
" />
<path d="M161737438 115658787
L161830000 115573791
" />
<path d="M161830000 115573791
L161938438 115502531
" />
<path d="M161938438 115502531
L162062912 115444798
" />
<path d="M162062912 115444798
L162203585 115400387
" />
<path d="M162203585 115400387
L162360618 115369089
" />
<path d="M162360618 115369089
L162363525 115368655
" />
<path d="M162363525 115368655
L162405480 115363442
" />
<path d="M162405480 115363442
L162454832 115359360
" />
<path d="M162454832 115359360
L162514161 115356316
" />
<path d="M162514161 115356316
L162586052 115354218
" />
<path d="M162586052 115354218
L162673086 115352973
" />
<path d="M162673086 115352973
L162777845 115352490
" />
<path d="M162777845 115352490
L162816608 115352482
" />
<path d="M162816608 115352482
L162912119 115352640
" />
<path d="M162912119 115352640
L162988885 115353053
" />
<path d="M162988885 115353053
L163049328 115353845
" />
<path d="M163049328 115353845
L163095870 115355138
" />
<path d="M163095870 115355138
L163130933 115357057
" />
<path d="M163130933 115357057
L163156938 115359726
" />
<path d="M163156938 115359726
L163176307 115363267
" />
<path d="M163176307 115363267
L163191463 115367804
" />
<path d="M163191463 115367804
L163201980 115372143
" />
<path d="M163201980 115372143
L163253067 115405882
" />
<path d="M163253067 115405882
L163292170 115452990
" />
<path d="M163292170 115452990
L163312567 115500047
" />
<path d="M163312567 115500047
L163314869 115519823
" />
<path d="M163314869 115519823
L163316822 115560760
" />
<path d="M163316822 115560760
L163318426 115622855
" />
<path d="M163318426 115622855
L163319682 115706105
" />
<path d="M163319682 115706105
L163320589 115810506
" />
<path d="M163320589 115810506
L163321147 115936056
" />
<path d="M163321147 115936056
L163321357 116082751
" />
<path d="M163321357 116082751
L163487292 116082751
" />
<path d="M163487292 116082751
L163487292 114542625
" />
<path d="M163487292 114542625
L163464449 114500292
" />
<path d="M163464449 114500292
L163419431 114438775
" />
<path d="M163419431 114438775
L163358684 114390523
" />
<path d="M163358684 114390523
L163344417 114382437
" />
<path d="M163344417 114382437
L163339229 114379969
" />
<path d="M163339229 114379969
L163332722 114377716
" />
<path d="M163332722 114377716
L163323957 114375668
" />
<path d="M163323957 114375668
L163311996 114373814
" />
<path d="M163311996 114373814
L163295900 114372146
" />
<path d="M163295900 114372146
L163274731 114370654
" />
<path d="M163274731 114370654
L163247550 114369328
" />
<path d="M163247550 114369328
L163213418 114368157
" />
<path d="M163213418 114368157
L163171397 114367133
" />
<path d="M163171397 114367133
L163120548 114366246
" />
<path d="M163120548 114366246
L163059933 114365486
" />
<path d="M163059933 114365486
L162988613 114364842
" />
<path d="M162988613 114364842
L162905650 114364307
" />
<path d="M162905650 114364307
L162810105 114363868
" />
<path d="M162810105 114363868
L162701039 114363518
" />
<path d="M162701039 114363518
L162577514 114363246
" />
<path d="M162577514 114363246
L162438592 114363042
" />
<path d="M162438592 114363042
L162283333 114362897
" />
<path d="M162283333 114362897
L162110799 114362801
" />
<path d="M162110799 114362801
L161920052 114362744
" />
<path d="M161920052 114362744
L161710153 114362716
" />
<path d="M161710153 114362716
L161480164 114362708
" />
<path d="M161480164 114362708
L159582042 114362708
" />
<path d="M159582042 114362708
L159538086 114386214
" />
</g>
<g style="fill:#796596; fill-opacity:1.0; 
stroke:#796596; stroke-width:1.000000; stroke-opacity:1; 
stroke-linecap:round; stroke-linejoin:round;">
<circle cx="159538086.000000" cy="114386214.000000" r="5000.000000" /> 
</g>
<g style="fill:#796596; fill-opacity:1.0; 
stroke:#796596; stroke-width:10000.000000; stroke-opacity:1; 
stroke-linecap:round; stroke-linejoin:round;">
<path style="fill:#796596; fill-opacity:1.0; 
stroke:#796596; stroke-width:10000.000000; stroke-opacity:1; 
stroke-linecap:round; stroke-linejoin:round;fill-rule:evenodd;"
d="M 163463943.000000,118311606.000000
163440004.000000,118347641.000000
163393030.000000,118394627.000000
163339125.000000,118427931.000000
163337708.000000,118428445.000000
163328623.000000,118430182.000000
163312635.000000,118431760.000000
163288905.000000,118433184.000000
163256593.000000,118434459.000000
163214862.000000,118435591.000000
163162871.000000,118436584.000000
163099781.000000,118437444.000000
163024755.000000,118438176.000000
162936952.000000,118438784.000000
162835533.000000,118439275.000000
162719661.000000,118439653.000000
162588494.000000,118439923.000000
162441196.000000,118440091.000000
162276926.000000,118440161.000000
162094846.000000,118440139.000000
161894116.000000,118440030.000000
161673897.000000,118439838.000000
161433351.000000,118439570.000000
159559327.000000,118437292.000000
159515212.000000,118408097.000000
159504634.000000,118400470.000000
159469996.000000,118368916.000000
159441903.000000,118334788.000000
159412708.000000,118290673.000000
159410251.000000,116820071.000000
159567336.000000,116820071.000000
159567413.000000,116927044.000000
159567893.000000,117018423.000000
159568871.000000,117095582.000000
159570445.000000,117159896.000000
159572712.000000,117212738.000000
159575768.000000,117255483.000000
159579711.000000,117289506.000000
159584637.000000,117316181.000000
159590644.000000,117336883.000000
159597829.000000,117352985.000000
159606288.000000,117365863.000000
159616118.000000,117376891.000000
159627417.000000,117387443.000000
159640281.000000,117398894.000000
159660756.000000,117415754.000000
159692125.000000,117434545.000000
159728770.000000,117447185.000000
159774618.000000,117454514.000000
159833595.000000,117457375.000000
159909628.000000,117456608.000000
159955534.000000,117455223.000000
160000195.000000,117452968.000000
160032432.000000,117449382.000000
160057184.000000,117443581.000000
160079393.000000,117434680.000000
160104000.000000,117421793.000000
160127831.000000,117407320.000000
160163217.000000,117381646.000000
160189033.000000,117357940.000000
160194113.000000,117351218.000000
160210870.000000,117326412.000000
160236857.000000,117286329.000000
160270962.000000,117232737.000000
160312074.000000,117167410.000000
160359079.000000,117092118.000000
160410864.000000,117008633.000000
160466317.000000,116918726.000000
160524325.000000,116824168.000000
160830875.000000,116323132.000000
160836167.000000,116803420.000000
160836951.000000,116874158.000000
160838135.000000,116975632.000000
160839274.000000,117059157.000000
160840484.000000,117126741.000000
160841877.000000,117180388.000000
160843567.000000,117222107.000000
160845670.000000,117253903.000000
160848298.000000,117277782.000000
160851567.000000,117295752.000000
160855590.000000,117309818.000000
160860481.000000,117321988.000000
160866354.000000,117334267.000000
160886905.000000,117368484.000000
160933749.000000,117415561.000000
160993850.000000,117446288.000000
161015219.000000,117450683.000000
161055474.000000,117454512.000000
161105659.000000,117456659.000000
161159648.000000,117457093.000000
161211313.000000,117455782.000000
161254527.000000,117452693.000000
161283164.000000,117447795.000000
161313467.000000,117436196.000000
161367808.000000,117400118.000000
161408070.000000,117350377.000000
161434125.000000,117304875.000000
161434125.000000,116468792.000000
161506423.000000,116468792.000000
161515012.000000,116595098.000000
161535279.000000,116731263.000000
161567051.000000,116852535.000000
161611002.000000,116960887.000000
161667807.000000,117058293.000000
161738138.000000,117146723.000000
161819281.000000,117223597.000000
161914435.000000,117290306.000000
162023770.000000,117345999.000000
162149045.000000,117391570.000000
162292017.000000,117427911.000000
162312942.000000,117432123.000000
162343726.000000,117437428.000000
162376464.000000,117441704.000000
162413900.000000,117445103.000000
162458780.000000,117447779.000000
162513848.000000,117449882.000000
162581848.000000,117451565.000000
162665526.000000,117452979.000000
162767625.000000,117454279.000000
162785187.000000,117454478.000000
162884415.000000,117455434.000000
162965015.000000,117455830.000000
163029169.000000,117455606.000000
163079065.000000,117454703.000000
163116887.000000,117453061.000000
163144820.000000,117450621.000000
163165051.000000,117447324.000000
163179763.000000,117443111.000000
163223766.000000,117423102.000000
163265348.000000,117390834.000000
163296066.000000,117346608.000000
163298314.000000,117342230.000000
163301936.000000,117334167.000000
163305092.000000,117324582.000000
163307820.000000,117312070.000000
163310156.000000,117295229.000000
163312139.000000,117272656.000000
163313805.000000,117242947.000000
163315194.000000,117204700.000000
163316341.000000,117156511.000000
163317285.000000,117096977.000000
163318064.000000,117024696.000000
163318714.000000,116938263.000000
163319273.000000,116836277.000000
163319780.000000,116717333.000000
163320270.000000,116580029.000000
163320783.000000,116422961.000000
163321217.000000,116250589.000000
163321357.000000,116082751.000000
163321147.000000,115936056.000000
163320589.000000,115810506.000000
163319682.000000,115706105.000000
163318426.000000,115622855.000000
163316822.000000,115560760.000000
163314869.000000,115519823.000000
163312567.000000,115500047.000000
163292170.000000,115452990.000000
163253067.000000,115405882.000000
163201980.000000,115372143.000000
163191463.000000,115367804.000000
163176307.000000,115363267.000000
163156938.000000,115359726.000000
163130933.000000,115357057.000000
163095870.000000,115355138.000000
163049328.000000,115353845.000000
162988885.000000,115353053.000000
162912119.000000,115352640.000000
162816608.000000,115352482.000000
162777845.000000,115352490.000000
162673086.000000,115352973.000000
162586052.000000,115354218.000000
162514161.000000,115356316.000000
162454832.000000,115359360.000000
162405480.000000,115363442.000000
162363525.000000,115368655.000000
162360618.000000,115369089.000000
162203585.000000,115400387.000000
162062912.000000,115444798.000000
161938438.000000,115502531.000000
161830000.000000,115573791.000000
161737438.000000,115658787.000000
161660591.000000,115757724.000000
161599296.000000,115870811.000000
161553394.000000,115998254.000000
161522722.000000,116140260.000000
161507118.000000,116297037.000000
161506679.000000,116405292.000000
161506423.000000,116468792.000000
161434125.000000,116468792.000000
161434125.000000,116405292.000000
161434121.000000,116272645.000000
161434084.000000,116130403.000000
161433984.000000,116006791.000000
161433787.000000,115900421.000000
161433461.000000,115809904.000000
161432973.000000,115733851.000000
161432290.000000,115670874.000000
161431380.000000,115619585.000000
161430211.000000,115578593.000000
161428749.000000,115546512.000000
161426963.000000,115521953.000000
161424819.000000,115503526.000000
161422285.000000,115489843.000000
161419328.000000,115479516.000000
161415916.000000,115471156.000000
161412016.000000,115463375.000000
161404200.000000,115450511.000000
161376750.000000,115417258.000000
161344937.000000,115389292.000000
161299968.000000,115357542.000000
161123630.000000,115357542.000000
161064753.000000,115357630.000000
161015206.000000,115358233.000000
160979548.000000,115359839.000000
160953927.000000,115362936.000000
160934494.000000,115368013.000000
160917395.000000,115375558.000000
160898782.000000,115386060.000000
160884815.000000,115394947.000000
160846410.000000,115424362.000000
160814115.000000,115455168.000000
160809211.000000,115461399.000000
160791820.000000,115486458.000000
160765203.000000,115526880.000000
160730512.000000,115580837.000000
160688902.000000,115646506.000000
160641526.000000,115722060.000000
160589537.000000,115805674.000000
160534088.000000,115895522.000000
160476333.000000,115989779.000000
160174708.000000,116483799.000000
160169271.000000,116005337.000000
160169032.000000,115984366.000000
160167661.000000,115868908.000000
160166251.000000,115772330.000000
160164567.000000,115692670.000000
160162374.000000,115627966.000000
160159437.000000,115576255.000000
160155520.000000,115535576.000000
160150388.000000,115503967.000000
160143805.000000,115479465.000000
160135537.000000,115460109.000000
160125347.000000,115443936.000000
160113001.000000,115428984.000000
160098264.000000,115413292.000000
160092188.000000,115407171.000000
160062518.000000,115383750.000000
160027380.000000,115367644.000000
159982928.000000,115357932.000000
159925315.000000,115353692.000000
159850696.000000,115354002.000000
159790721.000000,115356627.000000
159732997.000000,115362974.000000
159689278.000000,115374220.000000
159655669.000000,115391921.000000
159628277.000000,115417633.000000
159603208.000000,115452913.000000
159571458.000000,115504035.000000
159568574.000000,116382485.000000
159568543.000000,116391838.000000
159567998.000000,116553842.000000
159567563.000000,116696128.000000
159567336.000000,116820071.000000
159410251.000000,116820071.000000
159409595.000000,116427232.000000
159409518.000000,116380516.000000
159409153.000000,116111981.000000
159408948.000000,115864359.000000
159408903.000000,115637669.000000
159409017.000000,115431934.000000
159409292.000000,115247174.000000
159409726.000000,115083410.000000
159410320.000000,114940665.000000
159411074.000000,114818958.000000
159411987.000000,114718311.000000
159413060.000000,114638746.000000
159414292.000000,114580283.000000
159415683.000000,114542944.000000
159417233.000000,114526750.000000
159423422.000000,114509729.000000
159451597.000000,114462626.000000
159491823.000000,114419123.000000
159538086.000000,114386214.000000
159582042.000000,114362708.000000
161480164.000000,114362708.000000
161710153.000000,114362716.000000
161920052.000000,114362744.000000
162110799.000000,114362801.000000
162283333.000000,114362897.000000
162438592.000000,114363042.000000
162577514.000000,114363246.000000
162701039.000000,114363518.000000
162810105.000000,114363868.000000
162905650.000000,114364307.000000
162988613.000000,114364842.000000
163059933.000000,114365486.000000
163120548.000000,114366246.000000
163171397.000000,114367133.000000
163213418.000000,114368157.000000
163247550.000000,114369328.000000
163274731.000000,114370654.000000
163295900.000000,114372146.000000
163311996.000000,114373814.000000
163323957.000000,114375668.000000
163332722.000000,114377716.000000
163339229.000000,114379969.000000
163344417.000000,114382437.000000
163358684.000000,114390523.000000
163419431.000000,114438775.000000
163464449.000000,114500292.000000
163487292.000000,114542625.000000
163487292.000000,118267958.000000
Z" /> 
</g>
<g style="fill:#796596; fill-opacity:0.0; 
stroke:#796596; stroke-width:10000.000000; stroke-opacity:1; 
stroke-linecap:round; stroke-linejoin:round;">
<path d="M162637979 115871202
L162517667 115877434
" />
<path d="M162517667 115877434
L162414209 115895571
" />
<path d="M162414209 115895571
L162326967 115926314
" />
<path d="M162326967 115926314
L162255302 115970368
" />
<path d="M162255302 115970368
L162198575 116028434
" />
<path d="M162198575 116028434
L162156148 116101217
" />
<path d="M162156148 116101217
L162127382 116189419
" />
<path d="M162127382 116189419
L162111639 116293743
" />
<path d="M162111639 116293743
L162108280 116414892
" />
<path d="M162108280 116414892
L162109515 116452917
" />
<path d="M162109515 116452917
L162119611 116565756
" />
<path d="M162119611 116565756
L162139896 116660783
" />
<path d="M162139896 116660783
L162171587 116739194
" />
<path d="M162171587 116739194
L162215899 116802186
" />
<path d="M162215899 116802186
L162274049 116850958
" />
<path d="M162274049 116850958
L162347252 116886706
" />
<path d="M162347252 116886706
L162436725 116910628
" />
<path d="M162436725 116910628
L162543682 116923922
" />
<path d="M162543682 116923922
L162590354 116926482
" />
<path d="M162590354 116926482
L162730583 116931928
" />
<path d="M162730583 116931928
L162730583 115870833
" />
<path d="M162730583 115870833
L162637979 115871202
" />
</g>
<g style="fill:#796596; fill-opacity:1.0; 
stroke:#796596; stroke-width:1.000000; stroke-opacity:1; 
stroke-linecap:round; stroke-linejoin:round;">
<circle cx="162637979.000000" cy="115871202.000000" r="5000.000000" /> 
</g>
<g style="fill:#796596; fill-opacity:1.0; 
stroke:#796596; stroke-width:10000.000000; stroke-opacity:1; 
stroke-linecap:round; stroke-linejoin:round;">
<path style="fill:#796596; fill-opacity:1.0; 
stroke:#796596; stroke-width:10000.000000; stroke-opacity:1; 
stroke-linecap:round; stroke-linejoin:round;fill-rule:evenodd;"
d="M 162730583.000000,116931928.000000
162590354.000000,116926482.000000
162543682.000000,116923922.000000
162436725.000000,116910628.000000
162347252.000000,116886706.000000
162274049.000000,116850958.000000
162215899.000000,116802186.000000
162171587.000000,116739194.000000
162139896.000000,116660783.000000
162119611.000000,116565756.000000
162109515.000000,116452917.000000
162108280.000000,116414892.000000
162111639.000000,116293743.000000
162127382.000000,116189419.000000
162156148.000000,116101217.000000
162198575.000000,116028434.000000
162255302.000000,115970368.000000
162326967.000000,115926314.000000
162414209.000000,115895571.000000
162517667.000000,115877434.000000
162637979.000000,115871202.000000
162730583.000000,115870833.000000
Z" /> 
</g>
<g style="fill:#796596; fill-opacity:1.0; 
stroke:#796596; stroke-width:120000.000000; stroke-opacity:1; 
stroke-linecap:round; stroke-linejoin:round;">
</g>
<g style="fill:#796596; fill-opacity:0.0; 
stroke:#796596; stroke-width:120000.000000; stroke-opacity:1; 
stroke-linecap:round; stroke-linejoin:round;">
<path d="M151465000 107390000
L150990000 107390000
" />
<path d="M150990000 107390000
L150990000 107865000
" />
<path d="M155735000 112610000
L156210000 112610000
" />
<path d="M156210000 112610000
L156210000 112135000
" />
<path d="M151465000 112610000
L150990000 112610000
" />
<path d="M150990000 112610000
L150990000 112135000
" />
<path d="M155735000 107390000
L156210000 107390000
" />
<path d="M164550000 110600000
L164550000 109800000
" />
<path d="M162150000 110600000
L164150000 110600000
" />
<path d="M162150000 109800000
L162150000 110600000
" />
<path d="M162150000 107000000
L162150000 108000000
" />
<path d="M164150000 107000000
L162150000 107000000
" />
<path d="M164550000 108000000
L164550000 107000000
" />
<path d="M164550000 108000000
L164950000 108000000
" />
<path d="M162150000 106800000
L164150000 106800000
" />
<path d="M164150000 110600000
L164550000 110600000
" />
<path d="M164150000 107000000
L164550000 107000000
" />
<path d="M164150000 106800000
L164550000 106800000
" />
<path d="M153020000 115053641
L153020000 114746359
" />
<path d="M153780000 115053641
L153780000 114746359
" />
<path d="M164520000 103803641
L164520000 103496359
" />
<path d="M165280000 103803641
L165280000 103496359
" />
<path d="M165670000 103803641
L165670000 103496359
" />
<path d="M166430000 103803641
L166430000 103496359
" />
<path d="M154020000 105503641
L154020000 105196359
" />
<path d="M154780000 105503641
L154780000 105196359
" />
<path d="M152970000 105503641
L152970000 105196359
" />
<path d="M153730000 105503641
L153730000 105196359
" />
<path d="M152630000 114746359
L152630000 115053641
" />
<path d="M151870000 114746359
L151870000 115053641
" />
<path d="M166390000 109146078
L166390000 108628922
" />
<path d="M167810000 109146078
L167810000 108628922
" />
<path d="M158700000 103500000
L161100000 103500000
" />
<path d="M161100000 106600000
L158150000 106600000
" />
<g >
</g>
<g >
</g>
<g >
</g>
<g >
</g>
<g >
</g>
<g >
</g>
<g >
</g>
<g >
</g>
<g >
</g>
<g >
</g>
<g >
</g>
<g >
</g>
<g >
</g>
<g >
</g>
<g >
</g>
<g >
</g>
<g >
</g>
<g >
</g>
<g >
</g>
<g >
</g>
<g >
</g>
<g >
</g>
<g >
</g>
</g>
<g style="fill:#000000; fill-opacity:0.0; 
stroke:#000000; stroke-width:120000.000000; stroke-opacity:1; 
stroke-linecap:round; stroke-linejoin:round;">
</g>
<g style="fill:#C8A339; fill-opacity:0.0; 
stroke:#C8A339; stroke-width:120000.000000; stroke-opacity:1; 
stroke-linecap:round; stroke-linejoin:round;">
</g>
<g style="fill:#C8A339; fill-opacity:0.0; 
stroke:#C8A339; stroke-width:100000.000000; stroke-opacity:1; 
stroke-linecap:round; stroke-linejoin:round;">
<path d="M150000000.000000 118050000.000000 A1000000.000000 1000000.000000 0.0 0 0 151000000.000000 119050000.000000" />
<path d="M168050000.000000 119050000.000000 A1000000.000000 1000000.000000 0.0 0 0 169050000.000000 118050000.000000" />
<path d="M169050000.000000 101000000.000000 A1000000.000000 1000000.000000 0.0 0 0 168050000.000000 100000000.000000" />
<path d="M151000000.000000 100000000.000000 A1000000.000000 1000000.000000 0.0 0 0 150000000.000000 101000000.000000" />
<path d="M169050000 101000000
L169050000 118050000
" />
<path d="M150000000 101000000
L150000000 118050000
" />
<path d="M151000000 119050000
L168050000 119050000
" />
<path d="M165525000 100000000
L168050000 100000000
" />
<path d="M151000000 100000000
L153525000 100000000
" />
<path d="M165525000.000000 96790000.000000 A1000000.000000 1000000.000000 0.0 0 0 164525000.000000 95790000.000000" />
<path d="M154525000.000000 95790000.000000 A1000000.000000 1000000.000000 0.0 0 0 153525000.000000 96790000.000000" />
<path d="M154525000 95790000
L164525000 95790000
" />
<path d="M165525000 96790000
L165525000 100000000
" />
<path d="M153525000 96790000
L153525000 100000000
" />
<g >
</g>
<g >
</g>
<g >
</g>
<g >
</g>
<g >
</g>
<g >
</g>
<g >
</g>
<g >
</g>
<g >
</g>
<g >
</g>
<g >
</g>
<g >
</g>
<g >
</g>
<g >
</g>
<g >
</g>
<g >
</g>
<g >
</g>
<g >
</g>
<g >
</g>
<g >
</g>
<g >
</g>
<g >
</g>
<g >
</g>
</g> 
</svg>
